<?xml version="1.0" encoding="UTF-8" standalone="no"?>
<svg
   viewBox="0 0 339.99998 600"
   version="1.1"
   id="svg129"
   sodipodi:docname="superhero_elf2.svg"
   width="340"
   height="600"
   inkscape:version="1.4 (e7c3feb1, 2024-10-09)"
   xmlns:inkscape="http://www.inkscape.org/namespaces/inkscape"
   xmlns:sodipodi="http://sodipodi.sourceforge.net/DTD/sodipodi-0.dtd"
   xmlns="http://www.w3.org/2000/svg"
   xmlns:svg="http://www.w3.org/2000/svg">
  <sodipodi:namedview
     id="namedview129"
     pagecolor="#ffffff"
     bordercolor="#000000"
     borderopacity="0.25"
     inkscape:showpageshadow="2"
     inkscape:pageopacity="0.0"
     inkscape:pagecheckerboard="0"
     inkscape:deskcolor="#d1d1d1"
     inkscape:zoom="0.69880012"
     inkscape:cx="311.96331"
     inkscape:cy="364.1957"
     inkscape:window-width="1512"
     inkscape:window-height="916"
     inkscape:window-x="0"
     inkscape:window-y="38"
     inkscape:window-maximized="1"
     inkscape:current-layer="svg129" />
  <defs
     id="defs1">
    <style
       id="style1">
      .cls-1 {
        fill: #b773ae;
      }

      .cls-2 {
        fill: #fff;
      }

      .cls-3 {
        fill: #6f455b;
      }

      .cls-4 {
        fill: #fec902;
      }

      .cls-5 {
        fill: #f49f7b;
      }

      .cls-6 {
        fill: none;
        stroke: #000;
        stroke-linecap: round;
        stroke-linejoin: round;
      }

      .cls-7 {
        fill: #3c4e71;
      }

      .cls-8 {
        fill: #ce614a;
      }

      .cls-9 {
        fill: #a4599e;
      }

      .cls-10 {
        fill: #8a624c;
      }

      .cls-11 {
        fill: #86b5e2;
      }

      .cls-12 {
        fill: #c08c65;
      }
    </style>
  </defs>
  <g
     id="couleurs"
     transform="translate(-118.77502,-117.344)">
    <path
       class="cls-9"
       d="m 277.4,262.6 c -0.39,-1.22 -2.37,-1.26 -3.39,-1.49 -3.16,-0.73 -6.33,-1.41 -9.43,-2.36 -3.1,-0.94 -6,-2.28 -8.92,-3.67 -0.42,-0.2 -0.86,-0.4 -1.3,-0.6 -0.02,-0.02 -0.03,-0.06 -0.05,-0.08 -1.28,-1.31 -3.1,-1.74 -4.48,-2.91 -1.75,-1.47 -3.4,-3.09 -5.09,-4.63 -0.24,-0.22 -0.51,-0.29 -0.77,-0.26 -0.11,-0.18 -0.22,-0.36 -0.34,-0.53 -0.34,-0.52 -0.78,-0.92 -1.37,-1.14 -0.59,-0.22 -1.73,-0.03 -2.03,-0.71 -0.51,-1.18 -2.23,-0.16 -1.73,1.01 0.22,0.51 0.56,0.78 0.95,0.96 0,0.08 -0.01,0.16 0,0.24 0.52,3.34 3.11,5.58 5.7,7.47 2.25,1.64 4.56,3.18 7.05,4.38 0.06,0.21 0.2,0.41 0.48,0.53 1.94,0.9 3.91,1.7 5.9,2.41 3.43,1.39 6.98,2.52 10.5,3.6 1.52,0.47 3.05,0.95 4.58,1.41 1.01,0.3 2.24,0.63 3.02,-0.34 0.54,-0.67 0.96,-2.49 0.7,-3.3 z"
       id="path1" />
    <path
       class="cls-9"
       d="m 345.75,236.37 c -1.2,-0.48 -2.41,-0.04 -3.12,1.02 -0.44,0.66 -0.77,1.34 -1.03,2.05 -1.47,2.28 -3.74,3.73 -5.74,5.65 -2.52,2.42 -4.71,5.44 -5.47,8.91 -0.2,0.93 -0.37,2.02 -0.36,3.09 -2.52,0.21 -3.37,4.23 -0.51,4.87 3.51,0.79 6.93,1.92 10.19,3.45 1.52,0.72 3.98,-0.09 3.76,-2.16 -0.1,-0.95 -0.25,-1.93 -0.37,-2.91 0.81,-0.34 1.45,-1.06 1.5,-2.18 0.05,-1.18 0.02,-2.36 -0.07,-3.54 -0.05,-0.56 -0.29,-1.09 -0.66,-1.52 0.26,-0.78 0.54,-1.56 0.78,-2.34 0.6,-1.97 0.84,-3.97 1.01,-6.02 0.09,-1.15 0.2,-2.27 0.56,-3.33 0.24,-0.47 0.47,-0.95 0.69,-1.43 0.02,-0.02 0.03,-0.05 0.04,-0.07 0,0 0,0 0,0 0.09,-0.2 0.18,-0.39 0.26,-0.59 0.47,-1.14 -0.41,-2.53 -1.45,-2.95 z m -9.62,16.39 c 0.87,-1.64 2.07,-3.01 3.41,-4.28 0.22,-0.2 0.44,-0.39 0.67,-0.59 -0.1,0.52 -0.22,1.04 -0.38,1.54 -0.59,1.92 -1.27,3.79 -1.62,5.77 -0.78,0.25 -1.56,0.48 -2.36,0.69 -0.25,0.07 -0.51,0.12 -0.76,0.19 0.02,-0.25 0.06,-0.48 0.11,-0.75 0.19,-0.9 0.5,-1.76 0.93,-2.58 z"
       id="path2" />
    <path
       class="cls-9"
       d="m 341.12,248.48 c 2.81,-1.56 0.29,-5.88 -2.52,-4.32 -3.07,1.71 -6.07,3.55 -8.98,5.53 -2.77,1.89 -5.38,3.97 -8.08,5.95 -2.81,2.05 -7.08,4.46 -10.64,3.65 -0.01,0 -0.02,-0.02 -0.04,-0.02 -1.18,-0.59 -2.31,-1.27 -3.31,-2.12 -0.23,-0.19 -0.46,-0.33 -0.69,-0.43 -0.84,-0.98 -1.73,-1.83 -2.79,-2.6 -0.22,-0.16 -0.44,-0.31 -0.68,-0.45 -1.8,-1.39 -3.61,-2.77 -5.41,-4.16 -0.42,-0.32 -0.88,-0.43 -1.33,-0.4 -1.26,-1.08 -2.54,-2.14 -3.8,-3.22 -0.46,-0.37 -0.99,-0.6 -1.54,-0.67 -1.55,-1.65 -3.03,-3.43 -5.1,-4.45 -0.39,-0.19 -0.87,-0.28 -1.36,-0.26 -0.23,-0.24 -0.47,-0.47 -0.7,-0.72 -0.21,-0.23 -0.44,-0.39 -0.68,-0.51 -0.03,-0.23 -0.06,-0.46 -0.11,-0.68 -0.08,-0.32 -0.23,-0.63 -0.36,-0.92 -0.05,-0.11 -0.11,-0.23 -0.17,-0.33 -0.16,-0.29 -0.37,-0.53 -0.64,-0.7 -0.24,-0.22 -0.52,-0.37 -0.85,-0.45 -0.33,-0.1 -0.66,-0.12 -1,-0.04 -0.33,0.02 -0.64,0.11 -0.93,0.3 -0.17,0.13 -0.34,0.26 -0.51,0.39 -0.31,0.31 -0.52,0.68 -0.64,1.1 -0.03,0.22 -0.06,0.44 -0.09,0.66 0,0.43 0.11,0.83 0.32,1.21 0,0.03 0.02,0.07 0.03,0.1 0,0.02 0,0.04 0,0.06 -0.01,0.34 0.06,0.67 0.22,0.96 0.1,0.31 0.27,0.58 0.52,0.8 0.21,0.22 0.46,0.38 0.74,0.48 0.05,0.2 0.13,0.4 0.24,0.6 0.12,0.2 0.25,0.38 0.38,0.57 -0.19,3.13 -0.16,6.27 0.15,9.4 0.33,3.28 1.2,6.51 1.34,9.8 0.07,1.74 2.04,2.92 3.5,2.37 0.47,1.29 1.49,2.4 3.17,2.93 8.42,2.63 16.26,8.98 25.54,6.11 4.3,-1.33 7.75,-4.29 11.29,-6.95 4.68,-3.52 9.36,-7.05 14.04,-10.57 2.74,-2.06 2.55,-5.54 0.99,-7.7 0.17,-0.09 0.33,-0.19 0.5,-0.29 z"
       id="path3" />
    <path
       class="cls-1"
       d="m 352.35,296.05 c 0.84,-3.63 1.23,-7.35 1.13,-11.07 0,-0.32 -0.08,-0.59 -0.17,-0.84 0.04,-0.59 0.06,-1.18 0.03,-1.78 -0.02,-0.42 -0.06,-0.85 -0.11,-1.27 0.04,-0.17 0.07,-0.35 0.07,-0.53 0.04,-0.8 -0.06,-1.62 -0.27,-2.39 -0.13,-0.48 -0.32,-0.93 -0.52,-1.38 -0.12,-0.28 -0.26,-0.55 -0.43,-0.81 -0.07,-0.12 -0.16,-0.22 -0.25,-0.33 -0.07,-0.31 -0.13,-0.61 -0.22,-0.91 -0.14,-0.49 -0.43,-0.88 -0.8,-1.18 -0.28,-0.78 -0.68,-1.52 -1.24,-2.2 -0.37,-1.14 -1.04,-2.15 -2.21,-2.82 -0.23,-0.13 -0.48,-0.23 -0.73,-0.32 -0.19,-0.69 -0.62,-1.33 -1.32,-1.77 -0.62,-0.39 -1.31,-0.53 -2.01,-0.64 -0.31,-0.51 -0.78,-0.91 -1.39,-1 -0.66,-0.1 -1.31,-0.14 -1.95,-0.12 -1.2,-0.54 -2.41,-1.07 -3.66,-1.46 -3.44,-1.07 -6.99,-0.47 -10.46,0.16 -4.79,0.88 -9.46,2.32 -13.94,4.22 -4.55,-1.94 -9.24,-3.56 -14.13,-4.36 -4.78,-0.79 -10.92,-1.61 -15.15,1.35 -0.33,0.23 -0.59,0.52 -0.8,0.84 -0.15,0.03 -0.3,0.05 -0.45,0.08 -0.8,0.15 -1.39,0.79 -1.66,1.55 -0.28,0.12 -0.53,0.3 -0.73,0.55 -0.13,0.17 -0.26,0.34 -0.38,0.51 0,0 0,0 -0.01,0 -0.02,0.03 -0.04,0.06 -0.05,0.1 -0.26,0.37 -0.5,0.74 -0.71,1.13 -0.48,0.09 -0.92,0.31 -1.26,0.66 -1.88,1.96 -2.99,4.25 -3.49,6.85 -0.07,0.06 -0.14,0.12 -0.2,0.2 -0.85,1 -1.32,2.07 -1.42,3.24 -0.15,0.08 -0.3,0.18 -0.43,0.28 0,0.17 0,0.34 -0.01,0.52 0.03,0.21 0.04,0.42 0.03,0.64 -0.01,0.4 -0.07,0.79 -0.08,1.19 -0.01,0.48 -0.11,0.92 -0.23,1.35 0.14,0.21 0.28,0.42 0.41,0.63 0.5,1.29 0.06,3.27 0.09,4.49 0.05,2.53 0.78,5.18 1.83,7.5 -0.24,0.66 -0.24,1.4 0.21,1.99 0.38,0.52 0.74,1.05 1.1,1.58 0,0.25 0.01,0.49 0.09,0.74 0.86,2.84 2.21,5.44 3.98,7.79 l 1.55,4.47 c -0.06,0.35 -0.11,0.7 -0.19,1.05 -0.15,0.65 -0.09,1.34 0.25,1.92 -0.31,5.18 -0.33,10.38 -0.05,15.57 -1.17,1.74 -0.55,4.29 1.25,5.34 0.09,0.33 0.2,0.65 0.36,0.96 0.34,0.68 0.93,1.2 1.52,1.66 0.61,0.48 1.22,0.94 1.89,1.33 0.03,0.02 0.07,0.04 0.1,0.05 0,0 0.01,0.02 0.02,0.03 0.38,0.37 0.79,0.71 1.22,1.03 0.42,0.59 0.84,1.18 1.28,1.75 1.23,1.62 2.53,3.14 4.07,4.47 0.18,0.16 0.37,0.31 0.56,0.47 0.02,0.16 0.06,0.32 0.12,0.49 0.67,1.85 1.82,3.03 3.55,3.81 l 9.87,17.6 c 0.99,4.16 3.42,5.4 6.3,5 0.08,0.13 0.18,0.25 0.3,0.35 0.23,0.24 0.49,0.42 0.8,0.52 0.3,0.16 0.62,0.23 0.96,0.22 0.22,-0.03 0.44,-0.06 0.66,-0.09 0.42,-0.12 0.79,-0.33 1.1,-0.64 0.13,-0.17 0.26,-0.34 0.39,-0.51 0.15,-0.26 0.23,-0.53 0.28,-0.82 0.04,-0.27 0.11,-0.54 0.2,-0.8 5.67,-3.25 11.19,-9.88 10.56,-12.17 -0.26,-0.95 0.38,-2.67 1.52,-4.74 1.01,-0.3 1.58,-1.1 1.71,-2.04 0.02,-0.03 0.04,-0.06 0.07,-0.08 0.19,-0.16 0.35,-0.42 0.51,-0.62 0.38,-0.46 0.77,-0.92 1.15,-1.39 0.77,-0.92 1.54,-1.85 2.3,-2.77 1.1,-1.32 2.19,-2.64 3.29,-3.95 0.61,-0.17 1.16,-0.59 1.57,-1.14 1.13,-1.55 3.07,-2.97 4.69,-4.25 1.84,-1.46 3.54,-3.01 4.8,-5.02 0.6,-0.95 0.39,-1.96 -0.19,-2.7 0.72,-1.81 0.48,-3.91 0.47,-5.81 -0.03,-5.63 0.38,-11.25 0.78,-16.87 0.04,-0.59 -0.19,-1.14 -0.57,-1.57 1.11,-3.57 2.39,-7.1 3.06,-10.8 0.07,-0.26 0.12,-0.54 0.13,-0.85 0.02,-0.48 -0.11,-0.9 -0.33,-1.25 0.02,-0.06 0.05,-0.1 0.06,-0.16 z"
       id="path4" />
    <path
       class="cls-1"
       d="m 384.53,305.05 c 0,0 -2.82,-17.83 -5.66,-30.5 -0.29,-0.05 -0.58,-0.12 -0.87,-0.22 -0.12,-1.59 -0.75,-3.17 -1.26,-4.66 -0.33,-0.97 -0.68,-1.93 -1.06,-2.89 -0.07,-0.17 -0.14,-0.35 -0.23,-0.52 0,-0.97 -0.21,-1.88 -0.61,-2.78 -0.08,-0.18 -0.25,-0.31 -0.43,-0.39 0.27,-0.17 0.57,-0.3 0.89,-0.4 -0.36,-0.54 -0.69,-0.71 -0.98,-0.39 -2.94,3.2 -29.48,2.72 -29.48,2.72 14.9,11.71 8.17,28.36 8.17,28.36 4.69,2.78 20.86,43.88 20.86,43.88 1.55,-8.48 17.62,-14.33 17.62,-14.33 -1.93,-2.38 -6.97,-17.89 -6.97,-17.89 z"
       id="path5" />
    <g
       id="g7">
      <path
         class="cls-1"
         d="m 364.07,560.51 c 0.09,-0.4 0.11,-0.83 0.02,-1.25 -0.75,-3.67 -1.48,-7.36 -1.92,-11.08 -0.44,-3.76 -0.48,-7.5 -0.5,-11.28 -0.03,-6.19 -0.57,-12.39 -1.05,-18.57 0.33,-0.43 0.57,-0.97 0.52,-1.5 -0.09,-0.9 -0.21,-1.8 -0.36,-2.7 0.93,-8.69 2.14,-16.73 3.05,-21.99 2.44,-14.08 6.43,-89.68 6.43,-89.68 l -2.1,-8.67 c -17.26,-10.01 -33.38,-4.53 -33.38,-4.53 l -20.59,37.47 c -1,4.59 1.62,24.66 5.17,47.33 -0.09,0.27 -0.14,0.56 -0.12,0.9 0.22,4.75 0.53,9.71 1.78,14.34 0.13,0.21 0.25,0.43 0.35,0.65 -0.03,0.16 -0.06,0.32 -0.06,0.48 v 1.87 c -0.01,0.34 0.06,0.67 0.22,0.96 0.07,0.21 0.18,0.39 0.31,0.55 v 5.39 c 0.18,1.44 0.36,2.89 0.54,4.33 -0.02,0.05 -0.04,0.09 -0.06,0.14 0,0 0,0.01 0,0.02 0.19,1.02 0.36,2.02 0.45,3.03 0.17,0.25 0.36,0.47 0.6,0.67 0.05,0.04 0.1,0.07 0.14,0.1 -0.18,0.8 -0.02,1.68 0.5,2.31 -0.02,0.27 -0.04,0.54 -0.06,0.81 -0.02,0.21 0,0.41 0.04,0.6 -0.01,1.01 0.01,2.03 0.07,3.04 0.73,5.71 3.57,11.12 3.34,16.85 0.28,0.8 0.53,1.62 0.77,2.43 0.03,0.07 0.07,0.13 0.1,0.2 1.85,4.24 2.73,8.41 2.75,13.03 0,0.75 -0.17,1.42 -0.45,2.02 0.05,2.05 0.1,4.1 0.15,6.15 0.02,0.86 0.4,1.49 0.94,1.89 l -1.89,13.4 17.01,18.7 19.1,-25.56 c -0.26,0 -0.78,-0.53 -1.81,-2.86 z"
         id="path6" />
      <path
         class="cls-1"
         d="m 366.13,563.04 -0.25,0.33 c 0.21,0 0.25,-0.33 0.25,-0.33 z"
         id="path7" />
    </g>
    <path
       class="cls-1"
       d="m 312.06,422.09 -20.59,-37.47 c 0,0 -16.13,-5.48 -33.38,4.53 l -2.1,8.67 c 0,0 0.08,1.49 0.22,4.1 -0.07,0.22 -0.12,0.44 -0.13,0.7 -0.59,10.84 -0.1,21.71 1.38,32.46 -0.19,0.5 -0.24,1.06 -0.15,1.62 0.04,0.21 0.08,0.42 0.11,0.62 -0.29,0.38 -0.46,0.89 -0.43,1.53 0.28,4.69 1.04,9.33 2.3,13.85 0.4,5.77 0.81,11.34 1.21,16.33 0.38,0.68 0.59,1.51 0.56,2.5 -0.08,2.66 0.67,5.18 0.92,7.81 0.03,0.3 0.05,0.6 0.07,0.9 0.44,0.72 0.71,1.61 0.71,2.7 v 2.15 c 1.07,4 1.92,8.01 2.51,12.09 0.23,0.78 0.46,1.55 0.66,2.31 1.63,6.05 3.07,12.11 3.3,18.4 0.43,0.63 0.81,1.32 1.02,2.2 0.08,0.35 0.14,0.72 0.2,1.08 0.07,2.18 0.12,4.36 0.16,6.54 -0.84,0.59 -1.14,1.65 -0.98,2.71 0.22,1.53 -0.61,3.24 -0.87,4.74 -0.24,1.35 -0.29,2.64 -0.04,3.9 -0.89,7.85 -2.57,15.64 -6.05,22.74 l 16.82,22.51 17.01,-18.7 -2.8,-19.89 c 0,0 20.94,-111.93 18.38,-123.62 z"
       id="path8" />
    <path
       class="cls-7"
       d="m 283.43,262.81 c -1.29,0 -1.29,2 0,2 1.29,0 1.29,-2 0,-2 z"
       id="path9" />
    <path
       class="cls-1"
       d="m 276.6,267.51 c -0.18,-1.19 -1.11,-1.23 -2.12,-1.35 -3.35,-0.39 -6.61,-1.48 -9.85,-2.39 -0.4,-0.11 -0.7,0 -0.91,0.22 -0.02,-0.01 -0.06,-0.03 -0.08,-0.04 -0.95,-0.42 -1.9,-0.85 -2.85,-1.27 -1.9,-0.85 -3.8,-1.7 -5.7,-2.55 -0.41,-0.18 -0.79,-0.08 -1.08,0.14 -9.43,-5.64 -15.44,-13.83 -15.44,-13.83 l -29.71,12.04 c -0.13,19.37 -10.34,30.55 -10.34,30.55 l 0.55,4.36 4.99,-2.08 c 0.06,0.02 0.11,0.06 0.19,0.07 3.41,0.52 6.57,-1.19 9.64,-2.73 8.63,-2.6 17.26,-5.16 25.88,-7.82 4.36,-1.34 8.7,-2.72 13.02,-4.19 1,-0.34 2,-0.68 3,-1.03 0.2,-0.07 0.41,-0.14 0.62,-0.21 1.21,0.17 2.38,-0.42 3.59,-0.82 1.82,-0.6 3.66,-1.09 5.5,-1.61 1.95,-0.55 4.16,-1.07 6.09,-2 1.28,-0.28 2.67,-0.51 3.8,-1.07 0.92,-0.45 1.36,-1.38 1.2,-2.4 z"
       id="path10" />
    <path
       class="cls-1"
       d="m 344.43,231.78 c -1.16,-1.33 -2.9,-2.01 -4.61,-2.26 -1.94,-0.29 -4.23,-0.42 -6.16,0.04 -0.73,0.17 -1.42,0.48 -2.09,0.83 -0.27,-0.19 -0.63,-0.23 -0.97,0.03 -0.88,0.66 -1.78,1.27 -2.68,1.89 -2,0.87 -3.95,1.73 -5.83,2.88 -2.17,1.33 -4.35,2.67 -6.52,4 -0.25,0.16 -0.39,0.36 -0.45,0.57 -0.03,0 -0.05,0 -0.08,0 -1.28,0.03 -1.29,2.03 0,2 0.1,0 0.21,-0.02 0.31,-0.03 0.15,0.39 0.46,0.7 0.83,0.97 -0.02,0.13 -0.02,0.27 0.04,0.42 0.43,1.28 0.63,2.55 0.61,3.9 0,0.42 0.28,0.76 0.64,0.91 -0.03,0.24 -0.07,0.48 -0.1,0.72 -0.04,0.13 -0.06,0.25 -0.11,0.38 -0.41,1.08 -0.9,2.43 -1.83,3.16 -0.89,0.7 0.28,2.21 1.21,1.57 2.73,-1.86 5.47,-3.71 8.2,-5.57 0.43,-0.17 0.86,-0.34 1.29,-0.53 0.17,-0.08 0.28,-0.23 0.37,-0.4 0.87,-0.46 1.57,-0.88 1.82,-1.03 3.4,-1.9 6.75,-3.97 9.85,-6.33 0.09,-0.07 0.18,-0.14 0.27,-0.21 0.51,-0.29 1.03,-0.57 1.54,-0.87 0.81,-0.47 1.62,-0.94 2.43,-1.42 0.23,-0.12 0.45,-0.24 0.67,-0.38 0.7,-0.38 1.48,-0.77 1.96,-1.38 0.96,-1.22 0.32,-2.85 -0.58,-3.89 z"
       id="path11" />
    <path
       class="cls-1"
       d="m 311.65,241.86 c 0.08,0 0.16,0 0.24,0 0.89,-0.09 1.48,-1.37 0.5,-1.86 -4.2,-2.11 -8.41,-4.22 -12.76,-6 -0.92,-1 -2.17,-1.63 -3.51,-1.89 -1.59,-0.87 -3.21,-1.67 -4.89,-2.3 -2.92,-1.09 -6.98,-1.7 -9.76,0.11 -0.39,0.26 -0.68,0.55 -0.89,0.86 -0.84,0.58 -0.93,1.63 -0.75,2.58 -0.37,0.74 -0.49,1.56 0.03,2.33 0.37,0.55 0.97,0.84 1.54,1.13 0.39,0.2 0.79,0.38 1.19,0.56 0.07,0.19 0.18,0.37 0.42,0.5 1.79,1.02 3.63,2.08 5.53,3.02 0.41,0.44 0.82,0.89 1.24,1.32 0.29,0.3 0.63,0.34 0.93,0.25 0.53,0.72 1.71,0.98 2.5,1.31 0.51,0.21 1.02,0.41 1.53,0.6 0.02,0.11 0.06,0.21 0.13,0.32 1.01,1.49 3.15,1.93 4.74,2.56 0.69,0.28 1.38,0.56 2.07,0.85 0.75,0.82 1.77,1.33 2.81,1.75 0.36,0.15 0.73,0.28 1.1,0.42 0.25,0.09 0.51,0.21 0.78,0.3 0.06,0.65 0.58,1.21 1.31,1.21 0.28,0.29 0.56,0.55 0.89,0.78 0.7,0.49 1.49,0.72 2.32,0.82 0.74,0.09 1.26,-0.92 0.86,-1.5 -0.4,-0.59 -0.95,-0.99 -1.42,-1.52 -0.16,-0.18 -0.3,-0.38 -0.42,-0.58 0.12,-0.16 0.21,-0.35 0.19,-0.56 -0.09,-1.02 -0.28,-2.03 -0.59,-3 0.44,-1.38 1.08,-2.66 1.97,-3.87 0.12,-0.16 0.16,-0.33 0.16,-0.51 z"
       id="path12" />
    <path
       class="cls-1"
       d="m 362.65,306.46 c -0.61,-1.37 -1.28,-2.7 -2.01,-4 0.27,-0.3 0.38,-0.72 0.1,-1.1 -0.94,-1.3 -1.88,-2.59 -2.81,-3.89 -0.89,-1.24 -1.74,-2.41 -2.09,-3.92 -0.69,-3 -0.54,-6.23 -0.62,-9.29 -0.13,-5.69 -0.86,-11.19 -4.25,-15.89 0.11,-0.26 0.21,-0.52 0.32,-0.78 0.34,-0.85 -0.53,-1.34 -1.24,-1.14 v -0.53 c 0,-0.52 -0.46,-1.02 -1,-1 -0.54,0.02 -1,0.44 -1,1 v 2.81 c 0,0.52 0.46,1.02 1,1 0.12,0 0.23,-0.04 0.33,-0.08 0.27,0.37 0.58,0.73 0.79,1.08 0.8,1.3 1.44,2.7 1.89,4.16 0.98,3.18 1.1,6.52 1.17,9.82 0.07,3.09 -0.02,6.33 0.68,9.36 0.36,1.56 1.18,3 2.14,4.37 -0.03,0.2 0,0.42 0.14,0.63 1.84,2.65 3.42,5.45 4.74,8.4 0.52,1.17 2.25,0.16 1.73,-1.01 z"
       id="path13" />
    <path
       class="cls-3"
       d="m 292.81,701.77 c -0.5,-2.41 -0.7,-4.82 -0.75,-7.28 -0.04,-2.13 0,-4.28 -0.06,-6.43 -0.02,-0.12 -0.03,-0.23 -0.04,-0.36 -0.02,-0.23 -0.04,-0.46 -0.07,-0.69 -0.56,-2.28 -0.89,-4.61 -1.09,-6.95 -0.06,-0.51 -0.1,-1.03 -0.12,-1.55 0,-0.01 0,-0.02 0,-0.03 -0.05,-0.15 -0.08,-0.3 -0.13,-0.45 -0.19,-0.56 -0.5,-0.96 -0.88,-1.24 0.21,-4.84 -0.02,-10.32 -4.79,-12.88 -2.23,-1.19 -4.93,-1.3 -7.24,-0.27 -0.99,0.44 -1.82,1.1 -2.52,1.87 -0.67,-0.11 -1.39,0.08 -2.02,0.72 -0.71,0.73 -1.34,1.55 -1.83,2.44 -0.4,0.71 -0.41,1.4 -0.2,1.99 -0.05,0.25 -0.1,0.51 -0.14,0.77 -0.35,2.19 -0.61,4.39 -0.78,6.6 -0.16,2.13 -0.22,4.27 -0.2,6.4 0.01,0.86 0.07,1.72 0.04,2.58 -0.02,0.55 -0.07,1.11 -0.37,1.42 -0.58,0.61 -0.76,1.3 -0.68,1.95 -0.18,0.35 -0.35,0.7 -0.55,1.03 -0.71,1.18 -1.64,2.21 -2.35,3.38 -0.68,1.12 -0.96,2.36 -1.05,3.64 -0.51,0.31 -0.9,0.79 -1,1.41 -0.18,1.14 -0.2,2.16 -0.02,3.27 -0.34,0.82 -0.62,1.67 -0.82,2.56 -0.3,0.26 -0.56,0.57 -0.76,0.94 -1.44,2.7 1.28,4.84 3.73,5.04 2.38,0.19 4.79,-0.12 7.17,-0.02 2.46,0.1 4.48,1.09 6.81,1.74 2.54,0.71 5.19,0.46 7.69,-0.27 2.08,-0.61 5.52,-1.36 6.12,-3.79 0.31,-1.23 -0.09,-2.62 -0.33,-3.83 -0.24,-1.24 -0.53,-2.47 -0.79,-3.71 z"
       id="path14" />
    <path
       class="cls-1"
       d="m 313.56,426.4 c -0.21,-1.33 -1.88,-2.08 -3.08,-1.75 -1.42,0.39 -1.96,1.74 -1.75,3.08 0.11,0.7 -0.35,1.62 -0.52,2.28 -0.06,0.24 -0.12,0.49 -0.18,0.73 -1.72,1.48 -3.6,3.34 -2.36,5.59 0.33,0.6 0.84,1.08 1.44,1.41 0,0.04 0,0.07 0,0.11 -0.69,3.47 -1.22,6.97 -1.19,10.51 0,0.6 0.21,1.09 0.52,1.48 -1.5,9.49 -3.01,18.98 -4.51,28.46 -0.09,0.6 -0.04,1.19 0.17,1.7 -0.02,0.22 0,0.45 0.06,0.67 0,0.02 0,0.03 0,0.05 -0.69,5.52 -1.32,11.05 -2.14,16.55 -0.85,2.56 -0.88,5.25 -0.8,7.99 0.04,1.47 0.11,2.98 -0.1,4.45 -0.26,1.8 -0.89,3.54 -1.38,5.28 -1.73,6.09 -2.85,12.34 -3.4,18.65 -1.23,0.03 -2.49,0.83 -2.58,2.4 -0.39,6.73 -0.52,13.47 -0.41,20.2 -0.05,0.98 -0.04,1.96 0.05,2.96 0.1,1.13 0.78,2.11 1.84,2.4 0.2,0.79 0.44,1.57 0.71,2.34 0,0.01 0.17,0.47 0.29,0.8 -0.26,0.13 -0.67,0.42 -1.05,0.68 -0.03,0.02 -0.06,0.04 -0.09,0.06 -0.36,0.25 -0.67,0.48 -0.72,0.52 -4.39,3.14 -7.54,7.47 -10.34,12 -0.05,0.07 -0.09,0.14 -0.13,0.21 -0.17,0.27 -0.34,0.54 -0.5,0.82 -0.79,0.24 -1.4,0.9 -1.74,1.73 -0.41,1 -0.23,2.2 0.37,3.08 1.04,1.52 3.32,1.7 4.32,0 0.33,-0.56 0.67,-1.13 1,-1.69 0.56,-0.38 0.96,-0.95 1.05,-1.63 0.23,-0.19 0.45,-0.39 0.68,-0.58 0.59,-0.5 1.17,-1.01 1.72,-1.55 1.08,-1.05 2.08,-2.18 3.01,-3.38 0.54,-0.7 1.06,-1.4 1.56,-2.13 0.11,-0.16 0.22,-0.31 0.33,-0.47 0.01,-0.02 0.02,-0.03 0.03,-0.04 0.02,-0.02 0.04,-0.04 0.07,-0.08 0.22,-0.24 0.45,-0.47 0.7,-0.69 0.88,-0.76 1.78,-1.51 2.3,-2.53 1.52,-1 2.66,-2.34 2.54,-4.29 -0.11,-1.75 -1.08,-3.48 -1.47,-5.19 -0.81,-3.52 -0.76,-7.16 0.19,-10.64 0.13,-0.49 0.11,-0.93 0,-1.33 0.62,-2.17 1.28,-4.34 1.77,-6.52 1.41,-6.24 1.95,-12.65 2.49,-19.02 0.02,-0.2 0,-0.38 -0.05,-0.57 0.19,-1.15 0.38,-2.31 0.57,-3.46 1.1,-6.6 2.21,-13.2 3.31,-19.79 0.14,-0.83 -0.03,-1.68 -0.52,-2.28 0.18,-0.73 0.34,-1.46 0.48,-2.2 0.43,-2.4 0.65,-4.83 0.62,-7.27 0,-0.35 -0.08,-0.65 -0.18,-0.92 0.2,-1.63 0.4,-3.26 0.6,-4.88 0,-0.05 0,-0.1 0,-0.15 1.68,-4.12 2.4,-8.61 2.12,-13.06 -0.03,-0.45 -0.18,-0.86 -0.4,-1.22 0.96,-6.03 1.91,-12.06 2.87,-18.1 0.11,-0.66 0.02,-1.33 -0.26,-1.89 0.7,-3.24 1.15,-6.53 1.36,-9.84 0.01,-0.19 0,-0.37 -0.05,-0.55 l 0.11,-0.53 c 0.06,-0.3 0.07,-0.6 0.04,-0.88 0.18,-0.8 0.36,-1.6 0.53,-2.4 0.14,-0.64 0.05,-1.22 -0.19,-1.71 0.3,-1.3 0.51,-2.58 0.29,-3.99 z"
       id="path15" />
    <path
       class="cls-1"
       d="m 367.9,396.69 c -3.22,0 -3.22,5 0,5 3.22,0 3.22,-5 0,-5 z"
       id="path16" />
    <path
       class="cls-5"
       d="m 347.99,177.16 c -2.58,0.87 -5.36,-0.93 -7.58,-2.08 -1.29,-0.66 -2.58,-1.37 -3.74,-2.24 -0.62,-0.47 -1.55,-1.11 -1.81,-1.91 0.03,-0.39 -0.01,-0.78 -0.16,-1.15 -0.47,-1.15 -1.41,-1.99 -2.74,-1.79 -0.42,0.06 -0.79,0.22 -1.1,0.44 -0.09,-0.03 -0.18,-0.08 -0.27,-0.11 -0.25,-0.06 -0.5,-0.08 -0.74,-0.09 -0.12,-0.31 -0.32,-0.62 -0.62,-0.9 -0.41,-0.38 -0.44,-1.02 -0.55,-1.58 -0.18,-0.92 -0.4,-1.76 -0.8,-2.61 -0.28,-0.6 -0.64,-1.15 -1.06,-1.66 -0.26,-1.53 -0.51,-3.07 -1.24,-4.41 -1.19,-2.2 -4.49,-2.77 -6.69,-3.48 -2.36,-0.77 -4.74,-1.45 -7.14,-2.05 -1.24,-0.31 -2.49,-0.59 -3.74,-0.86 -1.19,-0.25 -2.47,-0.63 -3.7,-0.56 -2.2,0.12 -4.51,1.85 -6.28,3.05 -1.92,1.3 -3.74,2.75 -5.41,4.35 -1.58,1.51 -3.75,3.35 -2.98,5.8 0.1,0.31 0.23,0.56 0.36,0.79 -0.41,0.94 -0.58,1.94 -0.53,3.06 0,0.11 0.02,0.22 0.03,0.34 -0.27,0.48 -0.54,0.96 -0.75,1.46 -1.12,2.56 -1.61,5.34 -1.37,8.13 0.06,0.75 0.39,1.36 0.85,1.79 -0.07,0.59 -0.12,1.19 -0.15,1.79 -0.18,-0.18 -0.36,-0.37 -0.56,-0.54 -0.59,-0.51 -1.25,-0.93 -1.93,-1.33 -1.68,-2.08 -3.54,-4.01 -5.56,-5.76 -0.2,-0.17 -0.42,-0.31 -0.64,-0.42 -0.07,-1.12 -1.77,-1.51 -2.46,-2.22 -0.83,-0.86 -1.56,-1.8 -2.45,-2.61 -0.93,-0.85 -1.94,-1.62 -3,-2.29 -0.43,-0.27 -0.91,-0.49 -1.38,-0.36 -0.4,-0.48 -0.8,-0.96 -1.18,-1.46 -0.33,-0.43 -1.07,-0.35 -1.41,0 -0.42,0.42 -0.33,0.99 0,1.41 0.57,0.74 1.17,1.45 1.79,2.14 0,0 0,0.02 0,0.03 0.24,1.36 1.11,2.5 2.02,3.5 0.45,0.5 0.93,0.98 1.34,1.51 0.1,0.13 0.19,0.25 0.29,0.37 0.07,0.55 0.29,1.06 0.71,1.53 0.13,0.15 0.28,0.22 0.42,0.27 0.22,0.87 0.65,1.61 1.23,2.24 -0.07,0.51 0.01,1.04 0.33,1.47 2.32,3.17 4.67,6.31 6.95,9.5 0.93,1.29 1.91,2.67 2.42,4.19 0.6,1.78 1.18,3.23 2.72,4.42 0.77,0.59 1.88,0.41 2.67,-0.13 0.04,0.12 0.07,0.25 0.11,0.37 0.3,3.29 0.78,6.71 2.6,9.53 0.83,1.28 1.86,2.29 3.02,3.21 0.17,1.31 0.94,2.46 2.09,3.42 -0.17,0.49 -0.22,1.03 -0.14,1.59 0.58,4.24 0.68,8.56 0.44,12.83 -0.01,0.23 0.02,0.46 0.08,0.67 0,0.09 -0.02,0.19 0,0.29 0.38,1.91 3.27,2.28 4.77,2.87 0.66,0.26 1.31,0.53 1.96,0.82 0.23,1.66 3.25,2.01 4.49,2.57 1.62,0.73 3.63,2.84 5.12,1.06 0.35,-0.02 0.7,-0.12 1.04,-0.31 1.76,-0.99 3.51,-2.01 5.23,-3.07 0.29,-0.18 0.61,-0.36 0.92,-0.55 1.86,-0.61 3.69,-1.29 5.17,-2.59 0.52,-0.46 0.34,-1.07 -0.08,-1.41 0.78,-1.47 0.59,-3.22 0.55,-4.92 -0.06,-2.13 -0.11,-4.25 -0.17,-6.38 -0.02,-0.72 -0.29,-1.29 -0.7,-1.7 0.68,-0.8 1.33,-1.63 1.92,-2.5 0.3,-0.13 0.59,-0.26 0.89,-0.39 0.66,-0.29 1.03,-0.79 1.17,-1.37 0.43,-0.3 0.84,-0.62 1.24,-0.97 1.57,-1.37 2.7,-3.15 3.47,-5.07 0.82,-2.04 1.17,-4.24 1.49,-6.4 0.02,-0.15 0.04,-0.3 0.06,-0.44 1.11,0.31 2.13,-0.16 2.83,-1.11 3.12,-4.3 5.95,-8.8 8.47,-13.47 0.05,-0.09 0.08,-0.18 0.12,-0.27 0.46,-0.25 0.92,-0.48 1.38,-0.71 2.5,-1.28 0.77,-5.48 -1.93,-4.57 z"
       id="path17" />
    <path
       class="cls-5"
       d="m 358.52,162.42 c -0.74,-0.57 -0.62,-1.79 -1.44,-1.23 -1.05,0.73 -1.75,1.65 -2.45,2.71 -0.11,0.17 -0.23,0.34 -0.35,0.51 -0.06,0.07 -0.12,0.15 -0.19,0.21 -0.09,0.09 -0.19,0.17 -0.28,0.26 -0.26,0.18 -0.51,0.38 -0.77,0.57 -1.04,0.81 -1.8,1.89 -2.58,2.95 -0.77,1.05 -1.38,2.14 -1.83,3.36 -0.44,1.19 0.46,2.69 1.64,3.04 0.2,0.31 0.47,0.58 0.8,0.76 1.22,0.64 2.69,0.3 3.42,-0.9 1.06,-1.74 2.12,-3.47 3.18,-5.21 0.52,-0.85 1.04,-1.71 1.56,-2.56 0.57,-0.93 1.16,-1.82 1.5,-2.87 0.31,-0.95 -1.48,-1.01 -2.24,-1.6 z"
       id="path18" />
    <path
       class="cls-5"
       d="m 454.69,411.19 c 0,0 -0.06,-0.02 -0.09,-0.03 -0.07,-0.29 -0.14,-0.58 -0.21,-0.87 -0.14,-0.56 -0.7,-0.79 -1.19,-0.68 -1.59,-1.83 -3.6,-3.11 -5.78,-4.12 -1.02,-0.74 -2.21,-1.19 -3.4,-1.64 -0.08,-0.12 -0.19,-0.24 -0.35,-0.31 -1.48,-0.69 -2.98,-1.26 -4.53,-1.72 -0.66,-0.3 -1.32,-0.6 -1.98,-0.9 -3.19,-1.45 -6.41,-3.23 -9.88,-3.94 -0.28,-0.06 -0.53,0 -0.74,0.12 -0.15,-0.04 -0.31,-0.06 -0.47,-0.08 -0.11,-0.08 -0.23,-0.16 -0.37,-0.21 -1.21,-0.44 -3.05,0.01 -4.25,0.33 -0.59,0.16 -1.16,0.36 -1.73,0.57 -0.37,-0.07 -0.74,0.07 -0.98,0.39 -0.6,0.25 -1.19,0.51 -1.78,0.78 -0.54,0.24 -0.6,0.78 -0.4,1.21 0,0.02 -0.01,0.03 -0.01,0.06 0.02,1.12 0.14,2.23 0.34,3.33 0.01,0.08 0.05,0.13 0.07,0.19 -0.15,0.84 0.02,1.68 0.33,2.49 -0.1,0.15 -0.17,0.33 -0.15,0.56 0.16,2.12 0.95,4.05 1.93,5.92 0.94,1.79 1.93,3.58 3.21,5.15 1.34,1.65 3.1,2.73 4.95,3.74 2.04,1.12 4.15,2.12 6.25,3.12 0.8,0.38 2.02,-0.48 1.37,-1.37 -1.54,-2.11 -3.23,-4.09 -5.11,-5.91 -0.41,-0.4 -0.81,-0.79 -1.16,-1.22 -0.46,-0.85 -0.76,-1.74 -0.93,-2.72 -0.04,-0.25 -0.09,-0.51 -0.14,-0.76 0.08,-0.43 0.02,-0.87 -0.2,-1.25 0.21,-0.11 0.37,-0.3 0.42,-0.6 0,-0.04 0.02,-0.08 0.03,-0.12 0.31,0.05 0.62,0.12 0.92,0.19 -0.08,0.36 0.04,0.76 0.47,0.99 1.14,0.63 2.31,1.22 3.46,1.83 0.34,1.16 1.62,1.47 2.47,2.19 1.1,0.91 1.93,2.08 2.62,3.32 1.52,2.74 2.3,5.82 3.66,8.64 0.23,0.48 0.76,0.57 1.19,0.41 0.03,0.12 0.07,0.24 0.1,0.36 0.15,0.56 0.7,0.79 1.23,0.7 0.42,-0.07 0.76,-0.17 1.15,-0.33 0.23,-0.09 0.44,-0.26 0.58,-0.46 0.02,0.21 0.03,0.41 0.07,0.62 0.17,1.15 0.41,2.88 1.84,3.08 1.18,0.17 1.81,-0.86 1.96,-1.89 0.26,-1.83 0.18,-3.78 0.06,-5.61 -0.05,-0.68 -0.05,-1.43 -0.43,-2.02 -0.05,-1.62 -0.04,-3.25 -0.02,-4.87 0,-0.17 -0.03,-0.31 -0.09,-0.44 0.23,-1.27 -0.03,-2.6 -0.68,-3.76 -0.5,-0.9 -1.23,-1.68 -2,-2.34 -0.69,-0.59 -1.52,-1.36 -2.36,-1.72 -0.21,-0.09 -0.39,-0.13 -0.55,-0.14 -0.74,-0.47 -1.5,-0.9 -2.31,-1.25 -0.33,-0.15 -0.7,-0.33 -1.08,-0.49 0.32,0 0.64,0 0.96,-0.01 1.77,1.37 4.08,1.98 6.14,2.76 2.33,0.89 4.67,1.77 7.01,2.66 0.5,0.19 1.1,-0.21 1.23,-0.7 0.15,-0.56 -0.19,-1.04 -0.7,-1.23 z m -20.16,1.28 c -0.49,-0.25 -0.97,-0.51 -1.45,-0.77 0.24,-0.04 0.48,-0.08 0.72,-0.12 0.31,0.31 0.63,0.6 0.94,0.89 -0.07,0 -0.14,0 -0.21,0 z"
       id="path19" />
    <path
       class="cls-5"
       d="m 166.33,201.29 c -0.13,-1.02 -0.63,-1.73 -1.34,-2.44 -0.91,-0.9 -1.72,-1.81 -2.42,-2.89 -0.3,-0.45 -0.87,-0.55 -1.3,-0.37 -0.08,-0.09 -0.19,-0.14 -0.35,-0.14 -0.03,0 -0.07,0 -0.11,0 -0.05,-0.08 -0.13,-0.15 -0.24,-0.2 -0.29,-0.13 -0.63,-0.06 -0.94,-0.06 -0.36,0 -0.73,-0.03 -1.09,0 -0.1,0 -0.2,0.04 -0.3,0.06 -0.55,-0.03 -1.24,-0.09 -1.68,0.29 -0.2,0.17 -0.31,0.44 -0.28,0.71 -0.15,0.07 -0.27,0.16 -0.36,0.29 -0.29,0.43 -0.04,1.23 0.27,1.6 0.16,0.2 0.39,0.33 0.64,0.43 0.24,0.4 0.53,0.8 0.85,1.13 0.09,0.57 0.28,1.18 0.7,1.58 0.24,0.23 0.48,0.46 0.71,0.7 0.12,0.11 0.23,0.23 0.36,0.33 0.13,0.1 0.29,0.13 0.42,0.21 0.21,0.13 0.45,0.33 0.64,0.49 0.21,0.18 0.24,0.41 0.37,0.64 0,0.02 0.02,0.03 0.03,0.04 0.01,0.5 0.03,0.99 0.04,1.49 0.68,0.99 0.98,2.27 0.63,3.76 0.14,0.46 0.23,0.92 0.23,1.38 v 2.13 c 0,0.53 -0.11,1.03 -0.27,1.51 0.04,0.25 0.07,0.5 0.11,0.75 0.26,1.76 -0.25,3.87 0.32,5.51 0.45,1.28 0.37,2.41 -0.05,3.34 -0.03,0.14 -0.05,0.28 -0.09,0.41 -0.3,1.25 1.62,1.78 1.93,0.53 0.62,-2.53 0.94,-5.12 1.3,-7.69 0.36,-2.56 0.77,-5.12 1,-7.69 0.23,-2.54 0.57,-5.31 0.23,-7.85 z"
       id="path20" />
    <path
       class="cls-10"
       d="m 361.47,200.65 c 0.04,-0.56 -0.3,-0.85 -0.71,-0.93 -0.09,-2.1 -0.79,-4.21 -1.36,-6.21 -0.48,-1.68 -0.99,-3.35 -1.58,-4.99 -0.38,-1.06 -0.84,-2.56 -2.28,-2.3 0,0 0,0 0,0 -0.18,-0.4 -0.37,-0.78 -0.59,-1.16 -0.9,-1.52 -2.18,-2.79 -3.43,-4.02 -0.5,-0.49 -1.19,-0.31 -1.57,0.2 -1.88,2.56 -3.93,5.07 -5.53,7.82 -1.36,2.33 -2.55,4.77 -3.76,7.19 -0.35,0.02 -0.65,0.22 -0.76,0.65 -0.53,-0.03 -1.04,0 -1.58,0.12 -0.31,0.06 -0.65,0.38 -0.7,0.7 -0.48,3.11 -1.61,5.97 -3.35,8.59 -0.82,1.23 -1.72,2.4 -2.61,3.58 -0.97,1.28 -1.82,2.73 -3.41,3.28 -0.68,0.23 -0.96,1.12 -0.49,1.63 -0.03,0.06 -0.07,0.11 -0.09,0.17 l -0.04,0.27 c 0,0.18 0.05,0.35 0.14,0.5 0.09,0.18 0.18,0.37 0.26,0.55 0.01,0.03 0.03,0.06 0.04,0.08 -0.06,1.04 -0.13,2.09 -0.2,3.13 -0.04,0.71 -0.26,1.73 0.14,2.4 -0.13,0.91 -0.13,1.84 0.01,2.78 0.06,0.43 0.56,0.73 0.96,0.73 2.03,0.04 4.03,-0.31 5.91,-1.09 0.88,-0.36 1.73,-0.79 2.52,-1.32 0.56,-0.37 1.06,-0.87 1.58,-1.31 0.02,0.11 0.06,0.21 0.06,0.32 0.06,0.56 -0.05,1.05 -0.29,1.56 -0.49,1 0.71,2.02 1.57,1.21 1.12,-1.05 2.09,-2.17 3,-3.34 0,0 0,-0.02 -0.01,-0.03 0.06,-0.04 0.12,-0.06 0.17,-0.12 0.61,-0.75 1.22,-1.49 1.83,-2.24 0.11,-0.14 0.23,-0.28 0.34,-0.42 0.4,-0.04 0.76,-0.32 0.88,-0.72 0.23,-0.83 0.9,-1.54 1.26,-2.37 0.02,-0.01 0.04,-0.03 0.06,-0.04 0.67,-0.5 1.23,-1.03 1.5,-1.84 0.02,-0.07 0.02,-0.13 0.03,-0.19 0.09,-0.12 0.18,-0.24 0.27,-0.36 1.28,-1.73 2.96,-3.69 2.98,-5.85 1.16,-1.16 1.67,-2.53 2.48,-3.93 0.22,-0.38 0.73,-0.8 1.12,-1.25 0.04,0.19 0.08,0.37 0.11,0.56 0.06,0.32 0.27,0.52 0.52,0.62 -0.08,1.25 -0.08,2.5 -0.16,3.74 -0.24,0.11 -0.43,0.3 -0.5,0.61 -0.39,1.73 -0.75,3.47 -0.74,5.26 -0.51,1.47 -1.12,2.89 -1.86,4.26 -0.24,0.44 -0.5,0.86 -0.77,1.29 0,0.16 -0.03,0.31 -0.04,0.47 -0.08,0.02 -0.17,0.03 -0.24,0.08 -0.23,0.15 -0.37,0.34 -0.46,0.6 -0.05,0.14 -0.11,0.28 -0.16,0.42 -0.19,0.43 -0.39,0.85 -0.63,1.25 -0.13,0.22 -0.17,0.52 -0.1,0.77 0.02,0.07 0.06,0.13 0.1,0.2 -0.1,0.13 -0.21,0.26 -0.33,0.38 0.35,0.46 1.22,0.55 1.67,0.01 0.15,-0.09 0.29,-0.19 0.39,-0.35 0.27,-0.46 0.5,-0.95 0.71,-1.45 0.44,0.19 1.03,0.12 1.34,-0.33 0.28,-0.4 0.5,-0.82 0.69,-1.25 0.4,-0.55 0.88,-1.05 1.25,-1.6 0.53,-0.78 0.87,-1.68 1.15,-2.58 0.33,-0.06 0.63,-0.26 0.79,-0.64 0.32,-0.77 0.55,-1.56 0.72,-2.37 0.48,-0.79 0.92,-1.6 1.22,-2.47 1,-2.87 0.23,-5.97 0.55,-8.92 z"
       id="path21" />
    <path
       class="cls-10"
       d="m 298.98,224.61 c -0.49,-2.57 -0.67,-5.18 -0.58,-7.8 0.01,-0.36 -0.14,-0.61 -0.37,-0.77 0.09,-0.52 0.18,-1.04 0.25,-1.57 0.11,-0.82 0.25,-1.65 -0.23,-2.39 -0.36,-0.56 -0.95,-0.88 -1.5,-1.24 -0.17,-0.25 -0.36,-0.5 -0.6,-0.72 -0.03,-0.02 -0.06,-0.03 -0.09,-0.05 -0.5,-0.98 -1.15,-1.79 -2.06,-2.5 0.02,-0.13 0.02,-0.26 -0.03,-0.4 -0.34,-1.01 -0.98,-1.69 -1.66,-2.49 -0.27,-0.53 -0.49,-1.09 -0.65,-1.68 -0.04,-0.14 -0.11,-0.26 -0.19,-0.36 0,-0.06 -0.01,-0.12 -0.01,-0.18 0.14,-0.12 0.25,-0.28 0.31,-0.47 0.23,-0.76 0.05,-1.44 -0.52,-1.98 -0.22,-0.21 -0.48,-0.29 -0.72,-0.28 0,-0.47 0.05,-0.95 0.21,-1.44 0.31,-0.96 -0.87,-1.55 -1.56,-1.06 -0.46,-0.23 -0.96,-0.36 -1.46,-0.44 -0.04,-0.11 -0.08,-0.21 -0.13,-0.31 -0.05,-0.12 -0.13,-0.22 -0.21,-0.32 -0.08,-0.1 -0.16,-0.2 -0.26,-0.29 -0.04,-0.04 -0.09,-0.07 -0.13,-0.11 -0.72,-1.42 -1.55,-2.78 -2.49,-4.06 -0.85,-1.94 -1.71,-3.89 -3.16,-5.49 0,-0.12 0.02,-0.23 0.02,-0.34 -0.03,-1.28 -2.03,-1.29 -2,0 0.03,1.53 -0.58,3.07 -1,4.52 -0.42,1.44 -0.86,2.88 -1.31,4.31 -0.38,1.19 -0.78,2.38 -1.18,3.57 -0.02,0 -0.03,0.01 -0.05,0.02 -0.22,0.17 -0.43,0.33 -0.65,0.5 -0.12,0.06 -0.21,0.15 -0.28,0.26 -0.09,0.1 -0.15,0.21 -0.18,0.34 -0.04,0.13 -0.05,0.27 -0.02,0.4 0,0.13 0.05,0.26 0.12,0.37 0.02,0.02 0.04,0.05 0.05,0.07 -0.56,0.89 -0.94,1.81 -0.93,2.82 -0.15,0.06 -0.29,0.14 -0.42,0.26 -0.74,0.72 -0.77,1.79 -0.77,2.76 0,0.87 0.05,1.74 0.2,2.6 -0.21,1.34 -0.23,2.73 -0.17,4.08 0,0 0,0.02 0,0.03 -0.51,1.42 -0.2,2.99 0.43,4.37 0.65,1.42 1.58,3.16 3.04,3.87 0.22,0.11 0.46,0.13 0.68,0.1 0.39,0.52 0.82,1 1.33,1.4 0.95,0.76 2.02,1.3 3.11,1.82 0.49,0.23 1.08,0.14 1.37,-0.36 0.25,-0.44 0.13,-1.14 -0.36,-1.37 -0.95,-0.45 -1.93,-0.9 -2.76,-1.55 -0.85,-0.67 -1.44,-1.58 -1.97,-2.51 -1.14,-1.99 -2.03,-4.11 -2.69,-6.31 -0.04,-0.15 -0.12,-0.26 -0.21,-0.36 -0.01,-0.77 0,-1.55 0.08,-2.32 0.11,-0.15 0.19,-0.32 0.2,-0.54 0,0 0,-0.02 0,-0.02 0.51,-0.07 0.81,-0.48 0.87,-0.97 0.08,-0.63 0.08,-1.27 0.03,-1.9 0.11,-0.15 0.22,-0.29 0.34,-0.44 0.37,0.11 0.77,0.01 1.01,-0.47 0.14,-0.29 0.31,-0.57 0.45,-0.85 0.1,0.98 0.04,2.01 0.11,2.96 0.11,1.43 0.31,2.84 0.5,4.26 0,0 0,0 0,0 0,0 0,0 0,0 0.01,0.09 0.02,0.18 0.04,0.27 0.08,0.57 0.56,0.78 1.03,0.7 0.06,0.45 0.22,0.89 0.45,1.3 -0.03,0.09 -0.04,0.19 -0.03,0.29 0.12,0.92 0.61,1.77 1.27,2.55 0.16,0.58 0.48,1.13 0.86,1.64 0,0.03 0,0.05 0.01,0.08 0.27,0.96 0.96,1.51 1.72,2.11 0.93,0.74 1.87,1.47 2.87,2.11 0.67,0.43 1.37,0.8 2.1,1.11 -0.03,0.45 0.19,0.91 0.7,1.02 1.53,0.35 3.06,0.66 4.6,0.92 0.77,0.13 1.54,0.26 2.31,0.37 0.53,0.07 1.07,0.02 1.48,-0.3 0.07,0.02 0.13,0.05 0.19,0.06 0.78,0.18 1.37,-0.48 1.23,-1.23 z"
       id="path22" />
    <path
       class="cls-10"
       d="m 324.07,151.28 c -0.74,-1.34 -1.32,-2.69 -1.67,-4.18 0,-0.03 -0.03,-0.05 -0.04,-0.08 -0.05,-0.33 -0.09,-0.66 -0.14,-0.99 -0.19,-1.35 -0.3,-2.75 -0.66,-4.07 -0.11,-0.39 -0.38,-0.59 -0.68,-0.66 -0.2,-0.46 -0.47,-0.89 -0.86,-1.25 -1.26,-1.19 -3.15,-1.21 -4.78,-1.17 -2.18,0.06 -4.35,0.37 -6.5,0.71 -4.52,0.7 -8.93,1.34 -13.46,0.36 -4.1,-0.88 -8.24,-3.18 -12.51,-2.06 -0.11,0.03 -0.19,0.08 -0.27,0.13 -1.05,0.14 -2.03,0.58 -2.87,1.52 -1.12,1.25 -1.92,2.8 -2.63,4.31 -0.55,1.18 -1.3,2.47 -1.38,3.8 -0.05,0.04 -0.1,0.09 -0.16,0.13 -0.35,0.34 -0.38,0.72 -0.24,1.03 -0.22,0.17 -0.36,0.41 -0.32,0.73 0.12,0.99 0.32,1.95 0.63,2.9 0.06,0.17 0.16,0.3 0.28,0.41 -0.01,0.05 -0.04,0.09 -0.04,0.15 -0.24,2.25 -0.45,4.51 -0.02,6.75 0.03,0.15 0.07,0.31 0.1,0.47 -0.06,0.3 -0.12,0.6 -0.19,0.89 -0.09,0.38 0.03,0.68 0.24,0.89 0.04,0.14 0.1,0.27 0.2,0.39 0.16,0.18 0.32,0.36 0.48,0.54 0,0.3 0,0.6 0.09,0.9 0.14,0.48 0.39,0.91 0.72,1.27 0.17,0.18 0.46,0.29 0.71,0.29 0.03,0 0.07,-0.02 0.1,-0.02 -0.05,0.16 -0.06,0.33 0.01,0.52 0.43,1.04 0.96,1.98 1.61,2.88 0,0.1 0,0.21 0.01,0.31 0.04,0.39 0.31,0.7 0.64,0.86 0.48,1.28 0.83,2.62 1.2,3.94 0.3,1.07 0.57,2.27 1.49,2.98 0.08,0.06 0.17,0.12 0.27,0.17 0.47,0.54 1.22,0.68 2.16,0.86 1.01,0.2 1.77,-1.18 0.86,-1.76 0.2,-0.45 0.29,-0.96 0.32,-1.46 0.07,-1.46 0.15,-2.71 0.64,-4.1 0.11,-0.32 0.23,-0.63 0.35,-0.94 0.44,-0.28 0.87,-0.59 1.23,-0.99 1.51,-1.66 0.42,-4.43 0.07,-6.35 -0.06,-0.28 -0.21,-0.46 -0.39,-0.57 0.26,-0.23 0.45,-0.49 0.55,-0.78 0.37,-0.37 0.74,-0.74 1.09,-1.14 0.53,-0.6 1.04,-1.21 1.53,-1.83 1.08,-1.03 2.16,-2.06 3.06,-3.24 0.23,-0.31 0.43,-0.72 0.7,-0.98 0.48,-0.48 0.93,-0.47 1.57,-0.55 0.89,-0.1 1.72,-0.29 2.52,-0.71 1.2,-0.63 2.14,-1.64 2.73,-2.83 0,0 0,0 0.02,0 0.59,-0.07 1.17,-0.09 1.75,-0.09 0.09,0.27 0.28,0.51 0.64,0.63 1.82,0.62 3.69,0.9 5.61,0.84 0.29,0 0.51,-0.13 0.67,-0.29 2.44,0.68 4.87,1.46 7.37,1.79 0.05,0.08 0.11,0.17 0.2,0.24 0.07,0.05 0.14,0.09 0.21,0.14 v 0 c 0.07,0.05 0.14,0.1 0.22,0.14 0.71,0.46 1.47,0.77 2.27,1.1 0.68,0.29 1.51,0.68 1.76,1.43 0.29,0.9 1.69,1 1.93,0 0.38,-1.56 -0.26,-2.95 -1,-4.29 z"
       id="path23" />
    <path
       class="cls-12"
       d="m 358.36,157.4 c -0.56,0.88 -1.07,1.78 -1.47,2.73 -0.14,0.24 -0.27,0.48 -0.42,0.72 -0.47,0.76 -0.96,1.55 -1.53,2.27 -0.13,-0.01 -0.26,-0.01 -0.4,0.04 -1.67,0.59 -3.48,0.68 -5.2,0.33 0.11,-3.14 0.1,-6.27 -0.05,-9.41 -0.01,-0.28 -0.12,-0.49 -0.27,-0.65 -0.03,-1.1 -0.21,-2.22 -0.36,-3.15 -0.32,-1.9 -0.97,-3.72 -1.84,-5.44 0,0 0,-0.01 0,-0.02 -0.72,-2.81 -2,-5.35 -3.78,-7.64 -0.04,-0.05 -0.08,-0.08 -0.13,-0.12 -0.02,-0.08 -0.04,-0.16 -0.08,-0.24 -1.26,-2.31 -3.14,-4.13 -5.13,-5.81 -1.62,-1.36 -3.29,-2.86 -5.4,-3.22 -0.46,-0.27 -0.94,-0.51 -1.46,-0.7 -0.48,-0.28 -0.96,-0.54 -1.46,-0.79 -2.08,-1.05 -4.28,-1.89 -6.54,-2.45 -1.15,-0.28 -2.31,-0.5 -3.48,-0.64 -0.78,-0.1 -1.55,-0.16 -2.13,0.26 -0.87,-0.16 -1.75,-0.29 -2.64,-0.4 -0.19,-0.29 -0.52,-0.48 -0.85,-0.5 -0.76,-0.06 -1.52,-0.08 -2.29,-0.11 -0.16,-0.34 -0.47,-0.6 -0.87,-0.59 -1.51,0.03 -3.01,0.2 -4.48,0.48 -0.35,-0.36 -0.91,-0.47 -1.32,0.03 -0.05,0.06 -0.11,0.1 -0.16,0.15 -0.54,0 -1.07,0.01 -1.59,0.07 -1.81,0.21 -3.46,0.86 -4.62,2.27 -0.39,0.07 -0.63,0.34 -0.72,0.67 -1.32,0.78 -2.59,1.65 -3.76,2.64 -1.19,1.01 -2.92,2.44 -2.67,4.15 -0.2,0 -0.41,0.04 -0.6,0.09 -1.21,0.3 -2.4,0.79 -3.47,1.42 -0.56,0.33 -1.08,0.7 -1.59,1.1 -0.29,0.23 -0.55,0.46 -0.65,0.84 0,0.03 0,0.06 0,0.09 -0.5,0.06 -0.97,0.44 -0.95,0.99 0.02,0.51 0.44,1.04 1,1 0.84,-0.06 1.69,-0.12 2.54,-0.05 0.03,0 0.2,0.03 0.21,0.03 0.07,0.01 0.15,0.02 0.22,0.04 0.12,0.02 0.23,0.06 0.35,0.09 0.31,0.15 0.62,0.32 0.97,0.55 0.21,0.14 0.47,0.15 0.72,0.09 0.08,0 0.16,0 0.25,-0.01 4.98,1.92 10.64,1.57 15.85,1.16 2.68,-0.21 5.33,-0.66 8,-0.92 2.37,-0.23 4.62,0.14 6.47,1.74 0.21,0.18 0.45,0.33 0.69,0.44 -0.04,1.36 0.51,2.71 0.92,3.99 0.59,1.84 1.21,3.66 1.79,5.5 1.15,3.63 2.14,7.33 2.42,11.15 0.05,0.72 0.7,1.02 1.25,0.93 -0.03,0.14 -0.03,0.29 0.04,0.44 0.51,1.22 1.03,2.94 2.17,3.77 0.06,0.16 0.14,0.32 0.19,0.48 0.12,0.34 0.37,0.54 0.65,0.62 0.14,0.31 0.42,0.55 0.86,0.55 0.5,0 0.8,-0.3 0.91,-0.67 0.63,0.26 1.23,0.59 1.79,0.99 -0.34,0.35 -0.44,0.88 0.03,1.32 1.05,0.98 2.21,1.84 3.44,2.62 0,0.33 0.13,0.66 0.42,0.88 1.33,1.01 2.79,1.85 4.32,2.5 0.56,1.41 3.17,1.5 4.38,1.65 0.11,0.01 0.21,0.02 0.32,0.03 0.16,0.17 0.39,0.3 0.69,0.34 1.13,0.15 2.24,0.18 3.38,0.08 0.31,-0.03 0.55,-0.17 0.71,-0.37 0.4,-0.03 0.81,-0.09 1.21,-0.14 h 0.16 c 0,0 0,-0.02 0,-0.02 0.09,-0.01 0.18,-0.02 0.27,-0.03 0.22,-0.03 0.38,-0.13 0.49,-0.26 0.15,0.11 0.33,0.19 0.56,0.19 0.66,0 0.97,-0.52 0.96,-1.03 0.35,-0.07 0.69,-0.12 1.05,-0.13 1.24,-0.16 1.32,-2.05 0,-2 -1.78,0.23 -3.51,-0.1 -5.01,-1.11 -0.65,-0.44 -1.27,-1.24 -1.97,-1.66 -0.09,-0.15 -0.21,-0.29 -0.38,-0.41 1.21,-0.04 2.4,-0.44 3.42,-1.2 0.14,-0.1 0.26,-0.22 0.39,-0.33 0.14,-0.05 0.28,-0.08 0.42,-0.14 2.44,-1.01 3.55,-3.4 4.5,-5.69 0.09,-0.22 0.06,-0.44 -0.04,-0.64 0.01,-0.02 0.03,-0.05 0.04,-0.07 0.28,-0.59 0.38,-1.24 0.57,-1.86 0.54,-0.94 1.05,-1.91 1.51,-2.86 0.55,-1.15 -1.03,-2.11 -1.73,-1.01 z"
       id="path24" />
    <path
       class="cls-5"
       d="m 289.88,179.75 c -0.04,-0.32 -0.06,-0.67 -0.18,-0.98 -0.16,-0.41 -0.4,-0.75 -0.79,-0.98 -0.32,-0.19 -0.7,-0.25 -1.07,-0.28 -0.61,-0.05 -1.24,-0.05 -1.85,-0.07 -0.67,-0.02 -1.35,-0.04 -2.02,-0.07 -0.87,-0.03 -1.32,1.11 -0.71,1.71 1.06,1.03 2.51,1.61 3.99,1.58 0.26,0 0.52,-0.12 0.71,-0.3 0.01,0.11 0.03,0.21 0.04,0.32 0.04,0.28 0.09,0.5 0.29,0.71 0.17,0.17 0.46,0.3 0.71,0.29 0.48,-0.02 1.07,-0.44 1,-1 -0.04,-0.31 -0.08,-0.62 -0.12,-0.93 z"
       id="path25" />
    <path
       class="cls-10"
       d="m 331.15,170.93 c -0.13,-0.48 -0.72,-0.89 -1.23,-0.7 -3.18,1.23 -6.35,2.48 -9.52,3.74 -0.5,0.2 -0.85,0.67 -0.7,1.23 0.13,0.48 0.73,0.9 1.23,0.7 3.17,-1.27 6.34,-2.51 9.52,-3.74 0.5,-0.19 0.85,-0.67 0.7,-1.23 z"
       id="path26" />
    <path
       class="cls-10"
       d="m 307.64,173.95 c -3.41,-0.64 -6.34,-2.66 -9.68,-3.54 -1.24,-0.33 -1.78,1.6 -0.53,1.93 3.33,0.89 6.27,2.9 9.68,3.54 0.53,0.1 1.08,-0.15 1.23,-0.7 0.13,-0.49 -0.17,-1.13 -0.7,-1.23 z"
       id="path27" />
    <path
       class="cls-2"
       d="m 335.91,178.65 c -0.26,-0.33 -0.65,-0.44 -1.05,-0.36 -0.08,0.02 -0.36,0.04 -0.04,0.02 -0.06,0 -0.12,0.01 -0.19,0.02 -0.15,0.01 -0.29,0.01 -0.44,0 -0.06,0 -0.12,0 -0.18,-0.01 -0.02,0 -0.04,0 -0.05,0 -0.13,-0.02 -0.27,-0.06 -0.4,-0.1 -0.07,-0.02 -0.14,-0.04 -0.21,-0.07 0,0 0,0 0,0 -0.03,-0.03 -0.18,-0.08 -0.22,-0.1 -0.06,-0.03 -0.11,-0.06 -0.16,-0.09 -0.13,-0.07 -0.25,-0.14 -0.39,-0.2 -0.28,-0.13 -0.49,-0.17 -0.8,-0.21 -0.23,-0.03 -0.56,0.13 -0.71,0.29 -0.19,0.21 -0.26,0.43 -0.29,0.71 -0.04,0.32 0.14,0.62 0.36,0.84 -0.01,0.29 -0.03,0.58 -0.03,0.87 0,0.31 0.07,0.6 0.2,0.85 -0.14,0.15 -0.29,0.3 -0.43,0.45 -0.36,0.38 -0.4,1.04 0,1.41 0.39,0.36 1.03,0.4 1.41,0 0.64,-0.67 1.26,-1.36 1.93,-2 0.03,-0.03 0.06,-0.06 0.09,-0.09 0.06,-0.04 0.13,-0.08 0.19,-0.11 0.02,0 0.04,-0.01 0.06,-0.02 0.07,-0.03 0.14,-0.05 0.21,-0.08 0.49,-0.18 0.95,-0.43 1.21,-0.91 0.19,-0.36 0.17,-0.78 -0.08,-1.11 z"
       id="path28" />
    <path
       class="cls-2"
       d="m 296.5,181.74 c 0,0 -0.02,-0.01 -0.03,-0.02 0,-0.03 0,-0.07 0,-0.1 -0.01,-0.3 0,-0.6 0.04,-0.9 0,-0.02 0,-0.04 0,-0.06 0.01,-0.07 0.02,-0.13 0.04,-0.2 0.03,-0.16 0.07,-0.31 0.12,-0.46 0.05,-0.15 0.1,-0.3 0.15,-0.45 0,0 0,-0.01 0,-0.02 0.04,-0.08 0.07,-0.16 0.11,-0.24 0.18,-0.37 0.18,-0.78 -0.08,-1.11 -0.22,-0.29 -0.69,-0.51 -1.05,-0.36 -0.57,0.23 -1.16,0.4 -1.76,0.52 -0.07,0.01 -0.14,0.02 -0.21,0.04 -0.02,0 -0.05,0 -0.07,0.01 -0.14,0.03 -0.29,0.03 -0.43,0.04 -0.31,0.02 -0.61,0.03 -0.92,0.02 -0.52,-0.01 -1.02,0.47 -1,1 0.02,0.55 0.44,0.99 1,1 0.13,0 0.27,0 0.4,-0.01 0,0.07 0,0.14 0,0.22 0.17,1.07 1.09,1.77 1.98,2.37 0.08,0.11 0.16,0.22 0.27,0.3 0.35,0.27 0.74,0.35 1.18,0.26 0.38,-0.08 0.67,-0.46 0.72,-0.83 0.06,-0.42 -0.14,-0.76 -0.48,-1 z"
       id="path29" />
    <path
       class="cls-2"
       d="m 306.34,182.84 c -0.02,-0.33 -0.21,-0.58 -0.44,-0.8 -0.43,-0.42 -0.85,-0.83 -1.28,-1.25 -0.15,-0.15 -0.42,-0.2 -0.61,-0.08 -0.18,0.11 -0.3,0.35 -0.23,0.56 0.09,0.26 0.18,0.52 0.27,0.78 0.05,0.15 0.11,0.31 0.16,0.46 0,0 -0.01,0 -0.02,0 -0.22,0.18 -0.45,0.36 -0.67,0.54 -0.04,0.03 -0.04,0.08 -0.07,0.13 -0.1,0.05 -0.19,0.12 -0.23,0.21 -0.08,-0.08 -0.19,-0.14 -0.34,-0.14 -0.33,0 -0.48,0.25 -0.48,0.51 -0.12,0 -0.23,0.03 -0.35,0.03 -0.64,0 -0.65,1.01 0,1 0.82,-0.01 1.62,-0.16 2.39,-0.41 0.04,0 0.08,0 0.12,-0.02 0.42,-0.1 0.87,-0.28 1.22,-0.56 0.09,-0.05 0.19,-0.09 0.27,-0.14 0.22,-0.13 0.27,-0.34 0.22,-0.53 0.03,-0.1 0.05,-0.2 0.04,-0.31 z"
       id="path30" />
    <path
       class="cls-2"
       d="m 325.43,183.81 c -0.44,-0.14 -0.87,-0.3 -1.31,-0.47 0.06,-0.14 0.09,-0.3 0.06,-0.46 -0.04,-0.22 -0.17,-0.43 -0.29,-0.61 -0.1,-0.15 -0.22,-0.28 -0.36,-0.39 0.01,-0.04 0.02,-0.08 0.03,-0.12 0.01,-0.03 0.02,-0.07 0.03,-0.1 0,0 0,-0.02 0.01,-0.03 0.06,-0.11 0.12,-0.22 0.18,-0.33 0.14,-0.22 0.06,-0.56 -0.18,-0.68 -0.2,-0.1 -0.4,-0.08 -0.56,0.05 0,-0.03 0,-0.06 0,-0.09 0,-0.26 -0.23,-0.51 -0.5,-0.5 -0.27,0.01 -0.5,0.22 -0.5,0.5 0,0.43 0.06,0.86 0.16,1.28 -0.13,0.11 -0.25,0.24 -0.29,0.43 0,0.04 0,0.08 0,0.11 -0.03,-0.01 -0.06,-0.02 -0.08,-0.04 -0.24,-0.12 -0.54,-0.06 -0.68,0.18 -0.13,0.22 -0.06,0.56 0.18,0.68 1.23,0.62 2.52,1.15 3.84,1.56 0.26,0.08 0.55,-0.09 0.62,-0.35 0.07,-0.27 -0.09,-0.53 -0.35,-0.62 z"
       id="path31" />
    <path
       class="cls-11"
       d="m 330.24,182.61 c 0.27,-0.44 0.42,-0.95 0.45,-1.49 0.03,-0.65 -0.12,-1.3 -0.35,-1.91 0,-0.02 -0.02,-0.04 -0.03,-0.06 0.13,-0.15 0.23,-0.31 0.25,-0.53 0.06,-0.66 -0.59,-0.96 -1.15,-1 -0.8,-0.06 -1.52,0.35 -2.16,0.84 -0.84,0.07 -1.65,0.38 -2.33,0.92 0,0 -0.01,0.02 -0.02,0.03 -0.15,-0.1 -0.35,-0.14 -0.54,-0.08 -0.61,0.19 -0.48,1.04 -0.42,1.51 0.12,1.14 0.56,2.28 1.57,2.91 0.5,0.31 1.09,0.41 1.67,0.36 0.6,-0.05 1.23,-0.17 1.78,-0.4 0.08,-0.03 0.15,-0.09 0.23,-0.14 0.39,0.14 0.82,0.16 1.16,-0.05 0.42,-0.25 0.23,-0.8 -0.13,-0.91 z"
       id="path32" />
    <path
       class="cls-11"
       d="m 303.75,179.62 c -0.18,-0.07 -0.35,-0.04 -0.49,0.07 -0.11,-0.04 -0.24,-0.04 -0.36,0 -0.09,-0.42 -0.28,-0.81 -0.67,-1.04 -0.36,-0.21 -0.83,-0.19 -1.23,-0.19 -0.08,0 -0.17,0.01 -0.25,0.02 -0.25,-0.18 -0.54,-0.28 -0.84,-0.28 -0.25,0 -0.49,0.08 -0.72,0.19 -0.25,-0.2 -0.55,-0.32 -0.93,-0.28 -0.08,0 -0.15,0.03 -0.22,0.05 -0.16,-0.11 -0.35,-0.18 -0.56,-0.19 -0.54,-0.01 -0.62,0.69 -0.25,0.92 -0.19,0.34 -0.3,0.73 -0.34,1.06 -0.04,0.29 -0.02,0.59 0.03,0.89 -0.36,0.51 -0.14,1.13 0.29,1.52 -0.02,0.26 0.02,0.52 0.15,0.73 0.11,0.17 0.25,0.28 0.41,0.35 0.24,0.43 0.63,0.74 1.19,0.74 0.27,0 0.49,-0.09 0.68,-0.22 0.04,0 0.08,0 0.12,0.02 v 0 c 0,0 0,0 0,0 0.55,0.09 1.1,0.14 1.65,0.12 0.56,-0.02 1.02,-0.14 1.32,-0.65 0.29,-0.48 0.47,-1.06 0.68,-1.57 0.22,-0.55 0.43,-1.1 0.63,-1.65 0.08,-0.23 -0.07,-0.5 -0.29,-0.59 z"
       id="path33" />
    <path
       class="cls-8"
       d="m 323.07,206.51 c -0.95,-0.16 -1.88,-0.41 -2.76,-0.81 -0.82,-0.37 -1.6,-0.71 -2.5,-0.65 -0.34,-0.15 -0.68,-0.29 -1.03,-0.4 -0.29,-0.82 -1.26,-0.98 -2.02,-0.7 -0.21,0.08 -0.42,0.17 -0.62,0.25 -1.06,-0.07 -2.11,0.06 -3.14,0.58 -0.11,0.06 -0.18,0.14 -0.21,0.22 -1.57,0.63 -3.1,1.44 -4.83,1.32 -0.63,-0.04 -0.63,0.9 -0.04,0.99 0.03,0.11 0.09,0.21 0.22,0.28 3.02,1.79 6.66,3.71 10.17,2.8 0.86,-0.05 1.69,-0.58 2.39,-1.03 0.88,-0.56 1.67,-1.24 2.38,-2 0.08,-0.09 0.12,-0.19 0.13,-0.29 0.53,0.16 1.06,0.3 1.61,0.39 0.27,0.05 0.54,-0.07 0.62,-0.35 0.07,-0.24 -0.08,-0.57 -0.35,-0.62 z m -3.48,0.33 c -0.06,-0.17 -0.21,-0.3 -0.44,-0.3 -1.48,-0.01 -2.95,-0.11 -4.43,-0.16 -0.74,-0.02 -1.63,-0.01 -2.37,0.28 -0.36,0 -0.73,0 -1.09,0 -0.81,0.01 -1.62,0.03 -2.42,0.18 0.93,-0.33 1.84,-0.75 2.77,-1.08 0.06,-0.02 0.12,-0.04 0.19,-0.06 0.24,0 0.47,0 0.71,-0.02 0.04,0.24 0.23,0.43 0.49,0.43 1.13,0 2.24,-0.15 3.32,-0.47 0,0 0,0 0.01,0 0.54,0.17 1.08,0.37 1.59,0.56 0.21,0.08 0.39,0 0.5,-0.16 0.6,0.1 1.19,0.45 1.72,0.67 -0.18,0.06 -0.36,0.1 -0.55,0.13 z"
       id="path34" />
    <path
       class="cls-4"
       d="m 316.67,245.83 c -0.03,-0.25 -0.13,-0.49 -0.25,-0.72 0.03,-0.09 0.05,-0.18 0.1,-0.26 0.21,-0.38 -0.06,-0.69 -0.38,-0.72 0,-0.02 0,-0.04 0,-0.05 -0.19,-0.92 -0.63,-1.98 -1.52,-2.42 -0.79,-0.4 -1.96,-0.16 -2.63,0.36 -0.44,0.34 -0.63,0.81 -0.69,1.32 -0.32,0.33 -0.57,0.75 -0.74,1.16 -0.38,0.89 -0.55,1.85 -0.52,2.82 0,0.26 0.16,0.41 0.35,0.46 -0.04,0.25 -0.06,0.49 -0.05,0.74 0.02,0.71 0.28,1.34 0.57,1.97 0.09,0.19 0.19,0.45 0.31,0.69 -0.03,0.09 -0.04,0.19 -0.02,0.3 0.05,0.36 0.33,0.5 0.47,0.8 0.16,0.33 0.13,0.55 0.51,0.71 0.73,0.3 1.61,0.27 2.26,-0.18 1.36,-0.93 1.93,-2.71 2.14,-4.27 0.12,-0.88 0.2,-1.83 0.1,-2.72 z"
       id="path35" />
    <path
       class="cls-5"
       d="m 143.35,212.07 c -0.19,-0.36 -0.73,-0.64 -1.08,-0.82 -0.51,-0.25 -1.13,-0.33 -1.69,-0.39 -0.29,-0.03 -0.58,-0.04 -0.87,-0.06 0.02,-0.18 0.03,-0.36 0.02,-0.52 -0.02,-0.36 -0.08,-0.58 0.26,-0.82 0.28,-0.2 0.63,-0.22 0.95,-0.27 0.76,-0.1 1.4,-0.57 1.87,-1.15 0.39,-0.48 0.6,-1.07 0.45,-1.7 -0.13,-0.53 -0.62,-0.78 -1.09,-0.94 -1.25,-0.42 -2.42,-1.09 -3.7,-1.4 -0.21,-0.05 -0.43,-0.05 -0.63,-0.11 -0.02,0 -0.11,-0.03 -0.19,-0.05 0.04,-0.02 0.08,-0.05 0.11,-0.06 0.3,-0.09 0.61,-0.35 0.9,-0.49 0.37,-0.17 0.76,-0.31 1.11,-0.52 0.47,-0.28 1.02,-0.74 1.33,-1.26 0.4,0.12 0.89,-0.28 0.59,-0.69 -0.15,-0.21 -0.26,-0.44 -0.44,-0.63 -0.07,-0.15 -0.18,-0.3 -0.33,-0.45 -1.09,-1.06 -2.8,-1.18 -4.16,-1.72 -0.79,-0.32 -1.58,-0.53 -2.4,-0.78 -0.21,-0.06 -0.42,-0.11 -0.64,-0.17 -0.13,-0.04 -0.26,-0.08 -0.4,-0.12 -0.03,-0.03 -0.06,-0.05 -0.09,-0.07 0.27,-0.15 0.56,-0.28 0.83,-0.44 0.34,-0.2 0.67,-0.43 0.99,-0.66 0.04,-0.02 0.08,-0.04 0.12,-0.06 0.72,-0.39 1.46,-0.82 2.12,-1.3 0.49,-0.36 1.14,-0.86 1.35,-1.44 0.08,-0.21 -0.03,-0.4 -0.2,-0.52 -0.04,-0.06 -0.09,-0.12 -0.16,-0.17 -0.2,-0.13 -0.42,-0.22 -0.65,-0.3 0,-0.1 -0.04,-0.2 -0.13,-0.29 -0.65,-0.68 -1.54,-0.68 -2.42,-0.73 -0.48,-0.03 -0.97,0 -1.45,0 -0.47,0 -1.01,-0.08 -1.47,0.02 -0.08,0.02 -0.15,0.04 -0.22,0.07 -0.94,0 -1.88,0 -2.83,-0.02 -0.76,-0.02 -1.72,0.09 -2.38,0.51 -0.22,0.14 -0.27,0.37 -0.2,0.58 -0.06,0 -0.13,0.02 -0.2,0.03 -0.42,0.05 -0.73,0.22 -1.14,0.32 -0.9,0.22 -1.76,0.49 -2.58,0.94 -0.68,0.37 -1.04,0.91 -1.07,1.69 -0.01,0.33 0.03,0.68 0.14,0.99 0.02,0.06 0.08,0.19 0.15,0.33 0,0.06 -0.02,0.11 -0.03,0.17 -0.04,0.52 0,1.31 0.54,1.57 0.08,0.04 0.16,0.05 0.24,0.05 0.18,0.2 0.44,0.32 0.71,0.43 0.08,0.16 0.17,0.31 0.3,0.43 0.21,0.2 0.44,0.36 0.66,0.55 -0.44,0.42 -0.8,0.95 -0.93,1.34 -0.12,0.35 -0.14,0.7 -0.14,1.07 0,0.41 -0.06,0.84 0,1.25 0.05,0.28 0.16,0.62 0.34,0.89 -0.03,0.12 -0.03,0.24 0.01,0.36 0.16,0.49 0.68,0.46 1.1,0.33 -0.06,0.2 -0.04,0.39 0.14,0.58 0.19,0.2 0.42,0.21 0.65,0.17 0.06,0.06 0.11,0.13 0.17,0.19 0.17,0.21 0.19,0.01 0.1,0.25 -0.07,0.19 -0.28,0.4 -0.4,0.57 -0.47,0.68 -1.13,1.38 -1.27,2.23 -0.12,0.77 0.3,1.23 0.87,1.64 0.04,0.03 0.07,0.05 0.11,0.08 0.02,0.07 0.03,0.14 0.05,0.21 0.44,1 1.49,1.3 2.52,1.55 0.02,0 0.04,0.02 0.06,0.03 0.46,0.11 0.87,0.21 1.31,0.37 0.39,0.14 0.62,-0.18 0.6,-0.5 0.31,0 0.61,-0.06 0.87,-0.17 -0.04,0.05 -0.07,0.09 -0.11,0.14 -0.23,0.16 -0.43,0.36 -0.58,0.58 -0.04,0.06 -0.06,0.13 -0.06,0.19 -0.14,-0.13 -0.35,-0.18 -0.56,-0.06 -0.22,0.13 -0.3,0.28 -0.44,0.49 -0.13,0.19 -0.29,0.36 -0.45,0.52 -0.57,0.4 -1.36,0.95 -1.35,1.7 0,0.02 0,0.04 0,0.06 -0.02,0.05 -0.05,0.09 -0.06,0.14 -0.32,0.95 -0.32,2.39 0.64,2.98 0.96,0.59 2.42,0.34 3.41,0.02 0.57,-0.19 1.14,-0.29 1.69,-0.55 0.57,-0.27 1.11,-0.61 1.67,-0.91 0.68,-0.36 1.35,-0.69 2.04,-1 0.1,-0.02 0.21,-0.04 0.31,-0.07 0.49,-0.14 0.95,-0.36 1.44,-0.51 0.92,-0.3 1.75,-0.53 2.58,-1.08 0.24,-0.16 0.46,-0.32 0.69,-0.49 0.09,-0.04 0.18,-0.08 0.27,-0.12 0.28,-0.14 0.53,-0.33 0.81,-0.48 0.17,-0.09 0.33,-0.17 0.48,-0.29 0.36,-0.31 0.7,-0.74 0.45,-1.22 z m -11.17,-1.1 c 0.08,0.02 0.15,0.03 0.23,0.02 0.63,-0.1 1.23,-0.27 1.85,-0.41 0.14,-0.03 0.29,-0.07 0.45,-0.11 0,0.08 0.04,0.16 0.09,0.22 -0.59,0.01 -1.1,0.09 -1.69,0.24 -0.34,0.09 -0.7,0.16 -1.03,0.3 0.02,-0.07 0.02,-0.15 0.03,-0.22 0.02,-0.01 0.05,-0.03 0.07,-0.04 z"
       id="path36" />
    <path
       class="cls-5"
       d="m 163.29,224.21 c 0,-0.12 -0.05,-0.27 -0.15,-0.35 -0.2,-0.18 -0.52,-0.2 -0.71,0 -0.2,0.21 -0.35,0.46 -0.49,0.71 -0.12,0.22 -0.22,0.45 -0.36,0.67 -0.14,0.22 -0.05,0.56 0.18,0.68 0.25,0.13 0.53,0.06 0.68,-0.18 0.23,-0.36 0.38,-0.76 0.63,-1.11 0.02,-0.02 0.04,-0.05 0.06,-0.07 0.09,-0.09 0.15,-0.22 0.15,-0.35 z"
       id="path37" />
    <g
       id="g44">
      <path
         class="cls-3"
         d="m 361.01,703.14 c -0.8,-5.5 -2.07,-10.82 -2.05,-16.34 -0.2,-0.15 -0.41,-0.28 -0.64,-0.37 -0.04,-1.39 -0.09,-2.79 -0.17,-4.18 -0.16,-2.95 -0.36,-5.99 -1.51,-8.75 -0.03,-0.07 -0.07,-0.14 -0.11,-0.21 -0.02,-0.81 -0.05,-1.61 -0.11,-2.41 -0.06,-0.68 -0.17,-1.32 -0.36,-1.93 0,-0.78 -0.31,-1.57 -0.94,-2.05 -0.59,-0.94 -1.38,-1.77 -2.37,-2.46 -2.33,-1.62 -5.31,-1.77 -8,-1.21 -0.68,0.14 -1.25,0.68 -1.57,1.33 -0.03,0.02 -0.06,0.04 -0.1,0.07 -0.23,0 -0.45,0.04 -0.67,0.12 -2.15,0.83 -3.86,2.16 -5.07,4.15 -0.39,0.65 -0.4,1.37 -0.17,2.01 -0.41,0.9 -0.68,1.86 -0.83,2.89 -0.54,3.74 -0.97,7.47 -1.69,11.18 -0.25,1.29 -0.54,2.56 -0.85,3.83 0.25,0.6 0.38,1.3 0.35,2.09 -0.12,3.28 -1.41,6.13 -1.92,9.32 -0.52,3.29 -0.76,6.5 -1.58,9.75 -0.11,0.43 -0.26,0.81 -0.43,1.15 0.19,0.28 0.43,0.53 0.7,0.74 -0.38,2.59 2.8,3.97 4.43,1.95 0.06,0 0.12,0 0.19,0 0.31,-0.02 0.6,-0.1 0.88,-0.21 0.43,0.15 0.92,0.21 1.47,0.12 2.37,-0.39 4.79,-0.47 7.18,-0.28 1.05,0.08 2.09,0.24 3.13,0.45 0.24,-0.03 0.49,-0.05 0.75,-0.04 1.93,0.03 3.88,0.19 5.83,0.25 0.1,-0.06 0.21,-0.11 0.3,-0.17 0.15,0.08 0.31,0.12 0.47,0.19 1.02,0.02 2.03,0 3.04,-0.09 0.84,-0.08 2.26,-0.11 3.15,-0.6 0.21,-0.16 0.41,-0.33 0.58,-0.53 0.17,-0.47 0.28,-1.84 0.39,-2.95 -1.04,-1.95 -1.33,-4.46 -1.67,-6.82 z"
         id="path38" />
      <g
         id="g43">
        <path
           class="cls-3"
           d="m 380.77,237.3 c -0.48,-0.47 -1.43,-0.46 -1.68,0.39 -0.11,0.37 -0.25,0.73 -0.38,1.1 -0.92,2.21 -2.69,3.93 -4.41,5.58 -0.18,0.17 -0.36,0.34 -0.55,0.51 -0.01,0 -0.03,0 -0.04,0.01 -1.48,0.73 -2.85,1.62 -4.16,2.6 -0.33,0.17 -0.67,0.34 -1,0.5 -1.77,0.88 -3.53,1.79 -5.33,2.62 -0.7,0.32 -1.4,0.62 -2.12,0.9 -0.75,0.21 -1.49,0.42 -2.22,0.65 -0.6,0.19 -1.21,0.43 -1.82,0.68 -1.86,0.49 -3.76,0.83 -5.69,0.99 -0.42,0.03 -0.69,0.28 -0.83,0.58 -0.16,-0.02 -0.33,-0.04 -0.49,-0.07 -0.6,-0.11 -1.02,0.26 -1.18,0.72 0.28,-1.75 0.74,-3.47 1.46,-5.12 0.35,-0.82 -0.38,-1.55 -1.03,-1.52 0.08,-0.79 0.15,-1.59 0.24,-2.38 0.04,-0.36 -0.12,-0.62 -0.36,-0.78 0.07,-0.46 0.15,-0.92 0.21,-1.38 0.13,-0.96 0.6,-2.79 -0.01,-3.77 0.27,-1.62 0.42,-3.25 0.26,-4.91 -0.03,-0.35 -0.21,-0.59 -0.45,-0.75 -0.03,-0.19 -0.05,-0.37 -0.09,-0.56 -0.16,-0.76 -1.16,-0.94 -1.67,-0.44 -0.04,0.04 -0.07,0.08 -0.1,0.11 -0.38,0.01 -0.74,0.22 -0.87,0.6 -0.25,0.1 -0.46,0.3 -0.54,0.64 -0.83,3.22 -0.95,6.53 -0.98,9.84 -0.01,1.09 -0.06,2.2 -0.08,3.3 -0.56,1.65 -0.67,3.53 -0.89,5.22 -0.11,0.81 -0.23,1.65 -0.28,2.48 -0.62,2.57 -1.02,5.18 -0.65,7.8 0.01,0.12 0.03,0.24 0.05,0.35 v 0 c 0.01,0.09 0.03,0.17 0.05,0.25 0.04,0.22 0.08,0.43 0.13,0.65 0.09,0.36 0.31,0.55 0.57,0.65 0.24,0.24 0.48,0.4 0.73,0.52 0.6,0.91 1.74,1.56 2.52,2.22 0.6,0.5 1.77,0.24 1.71,-0.71 -0.18,-2.7 -0.37,-5.47 -0.28,-8.21 0.29,0.56 1.06,0.58 1.5,0.23 0.22,0.18 0.52,0.28 0.89,0.22 2.58,-0.44 5.07,-1.11 7.44,-2.08 0.45,-0.09 0.9,-0.17 1.35,-0.27 3.4,-0.76 6.73,-1.83 9.88,-3.32 1.49,-0.7 2.87,-1.52 4,-2.74 1.1,-1.18 2.06,-2.55 2.99,-3.87 1.73,-2.44 3.08,-5.06 4.05,-7.87 0.09,-0.22 0.15,-0.45 0.23,-0.68 -0.03,-0.49 -0.05,-0.98 -0.05,-1.48 z"
           id="path39" />
        <path
           class="cls-3"
           d="m 342.59,237.07 c -2.42,1.86 -4.85,3.72 -7.27,5.59 -0.34,0.26 -0.69,0.5 -1.03,0.75 -0.31,-0.08 -0.67,-0.04 -0.96,0.2 -0.35,0.29 -0.63,0.63 -0.9,0.98 -0.11,0 -0.23,0 -0.36,0.04 -0.67,0.22 -1.19,0.53 -1.69,1.04 -0.13,0.14 -0.2,0.29 -0.25,0.44 -0.58,0.34 -1.17,0.68 -1.77,1.03 -1.64,0.93 -3.23,1.94 -4.79,2.99 -0.3,-0.14 -0.65,-0.15 -0.91,0.04 -2.34,1.69 -4.86,3.07 -7.53,4.16 -0.16,-0.21 -0.41,-0.36 -0.76,-0.34 -2.5,0.14 -4.8,-0.76 -6.94,-1.94 -0.11,-0.15 -0.27,-0.28 -0.5,-0.35 -0.09,-0.03 -0.17,-0.06 -0.26,-0.08 -0.06,-0.04 -0.13,-0.07 -0.19,-0.11 -1.24,-0.73 -2.45,-1.52 -3.7,-2.24 -0.58,-0.33 -1.17,-0.65 -1.78,-0.94 -0.49,-0.24 -1.42,-0.44 -1.75,-0.9 -0.36,-0.5 -0.94,-0.52 -1.37,-0.31 -2.98,-2.02 -5.85,-4.25 -8.96,-6.02 -1.12,-0.64 -2.13,1.09 -1.01,1.73 4.39,2.5 8.31,5.85 12.71,8.31 0,0.17 0.05,0.36 0.2,0.54 1.12,1.46 2.93,2.48 4.44,3.49 1.29,0.87 2.62,1.69 3.97,2.47 0.03,0.05 0.06,0.1 0.09,0.15 0.58,0.82 1.32,1.43 2.35,1.54 0.34,0.04 0.68,0.02 1.02,-0.03 0.86,0.23 1.75,0.27 2.66,-0.05 1.54,-0.54 2.7,-1.75 4.17,-2.42 0.35,-0.16 0.48,-0.47 0.48,-0.8 2.79,-1.27 5.31,-3.31 7.84,-5.01 1.32,-0.89 2.69,-1.73 3.95,-2.71 0.7,-0.55 1.21,-1.24 1.73,-1.92 0.82,-0.53 1.63,-1.07 2.42,-1.68 2.55,-1.96 5.11,-3.93 7.66,-5.89 1.01,-0.77 0.01,-2.51 -1.01,-1.73 z"
           id="path40" />
        <path
           class="cls-3"
           d="m 330.48,229.23 c -0.12,-0.47 -0.73,-0.9 -1.23,-0.7 -0.09,0.04 -0.19,0.08 -0.28,0.12 -0.27,-0.04 -0.56,0.01 -0.82,0.25 -0.07,0.07 -0.15,0.12 -0.22,0.19 -4.65,2.01 -9.08,4.47 -13.25,7.35 -0.02,0 -0.04,-0.01 -0.06,-0.01 -1.64,-0.03 -3.23,-0.34 -4.63,-1.24 -1.35,-0.87 -2.56,-1.88 -4,-2.62 -1.38,-0.72 -2.83,-1.31 -4.27,-1.9 -0.7,-0.29 -1.4,-0.58 -2.09,-0.88 -0.38,-0.17 -0.77,-0.35 -1.15,-0.53 -0.08,-0.04 -0.2,-0.08 -0.33,-0.14 -0.26,-0.29 -0.54,-0.57 -0.85,-0.82 -0.57,-0.47 -1.37,-0.32 -1.64,0.38 -0.27,-0.14 -0.55,-0.28 -0.82,-0.42 -1.14,-0.59 -2.15,1.13 -1.01,1.73 0.47,0.24 0.93,0.48 1.4,0.73 0.03,0.27 0.17,0.51 0.5,0.67 0.81,0.37 1.63,0.67 2.49,0.9 0.01,0 0.02,0 0.04,0 4.71,2.44 9.42,4.89 14.15,7.28 0.14,0.07 0.28,0.11 0.42,0.12 0.23,0.49 0.77,0.8 1.33,0.4 2.56,-1.82 5.13,-3.45 7.98,-4.78 2.51,-1.17 4.81,-2.66 6.88,-4.49 0.25,-0.11 0.5,-0.22 0.75,-0.32 0.5,-0.21 0.85,-0.66 0.7,-1.23 z"
           id="path41" />
        <path
           class="cls-3"
           d="m 281.75,262.68 c 0,0 0.02,-0.05 0.01,-0.08 -0.04,-1.21 -0.21,-2.38 -0.51,-3.55 -0.02,-0.06 -0.05,-0.11 -0.08,-0.16 0.39,-2.42 -0.37,-4.95 -0.36,-7.45 0.01,-0.28 0.02,-0.57 0.03,-0.85 0.02,-0.43 -0.19,-0.7 -0.48,-0.84 -0.06,-2.35 -0.19,-4.7 -0.41,-7.04 -0.03,-0.33 -0.18,-0.57 -0.38,-0.73 0,-0.31 0,-0.62 -0.01,-0.92 -0.05,-1.51 0.02,-3.22 -0.41,-4.68 -0.3,-1.02 -0.96,-1.92 -2.08,-2.07 -1.4,-0.19 -2.44,0.92 -3.02,2.06 -0.3,0.59 0.01,1.14 0.46,1.38 -0.5,1.81 0.01,4.08 0.11,5.79 0.18,3.31 0.23,6.63 0.28,9.95 0,0.5 0.31,0.8 0.67,0.91 0,0.49 0.06,0.98 0.17,1.49 -5.73,-0.95 -11.35,-2.05 -16.75,-4.28 -2.62,-1.08 -5.26,-2.16 -7.82,-3.39 -0.46,-0.22 -0.9,-0.45 -1.35,-0.69 0,0 0,-0.01 0,-0.02 -0.01,-0.09 -0.02,-0.18 -0.04,-0.27 -0.05,-0.17 -0.13,-0.32 -0.26,-0.44 -0.34,-0.42 -0.76,-0.77 -1.21,-1.07 -0.12,-0.07 -0.24,-0.11 -0.37,-0.12 -0.13,-0.03 -0.27,-0.02 -0.4,0.02 -0.13,0.03 -0.24,0.09 -0.34,0.18 0,0 0,0.01 -0.01,0.02 -0.79,-0.63 -1.53,-1.33 -2.17,-2.15 -0.1,-0.13 -0.21,-0.22 -0.33,-0.27 0.02,-0.21 -0.04,-0.42 -0.15,-0.6 -0.04,-0.08 -0.08,-0.15 -0.13,-0.21 -0.19,-0.18 -0.36,-0.38 -0.53,-0.59 -0.09,-0.13 -0.18,-0.26 -0.26,-0.39 -0.04,-0.08 -0.08,-0.16 -0.12,-0.23 -0.02,-0.04 -0.05,-0.08 -0.08,-0.12 -0.09,-0.16 -0.18,-0.33 -0.25,-0.5 v 0 c -0.1,-0.22 -0.21,-0.42 -0.44,-0.56 -0.03,-0.02 -0.08,-0.02 -0.11,-0.04 -0.03,-0.03 -0.05,-0.07 -0.08,-0.1 -0.16,-0.19 -0.47,-0.29 -0.71,-0.29 -0.24,0 -0.54,0.11 -0.71,0.29 -0.17,0.19 -0.3,0.44 -0.29,0.71 0.01,0.28 0.11,0.5 0.29,0.71 0.07,0.08 0.13,0.16 0.2,0.24 0.29,0.39 0.54,0.81 0.76,1.25 0.13,0.26 0.29,0.49 0.47,0.71 0.07,0.09 0.16,0.15 0.25,0.22 -0.19,0.58 0.11,1.35 0.91,1.35 0,0 0.02,0 0.03,0 0.41,0.5 0.85,0.97 1.32,1.41 0.01,0.14 0.06,0.29 0.17,0.44 1.42,2.07 3.51,3.49 5.61,4.81 1.57,0.99 3.2,1.81 4.88,2.52 0.31,0.53 0.9,0.95 1.45,1.19 1.78,0.78 3.6,1.5 5.44,2.15 1.9,0.66 3.83,1.24 5.8,1.68 0.98,0.22 1.97,0.4 2.96,0.55 0.39,0.06 0.81,0.13 1.22,0.17 0.05,0.02 0.11,0.05 0.16,0.07 1.02,0.48 2.41,1.37 3.48,0.79 0,2.38 0,4.77 0.01,7.15 0,0.85 1.1,1.35 1.71,0.71 0.88,-0.94 2.22,-1.27 3.02,-2.26 0.65,-0.8 1.05,-2.17 0.98,-3.2 -0.02,-0.28 -0.1,-0.52 -0.2,-0.72 z"
           id="path42" />
        <path
           class="cls-3"
           d="m 339.44,388.67 c -0.04,-0.11 -0.1,-0.2 -0.18,-0.28 -0.01,-0.12 -0.05,-0.25 -0.12,-0.35 -1.89,-2.8 -3.37,-5.8 -4.43,-9 -0.17,-0.53 -0.63,-0.74 -1.05,-0.69 -0.1,-0.33 -0.37,-0.59 -0.79,-0.64 -0.85,-2.57 -1.93,-5.05 -3.27,-7.4 -0.11,-0.19 -0.27,-0.31 -0.44,-0.38 -0.09,-0.35 -0.16,-0.71 -0.22,-1.07 -0.03,-0.83 -0.06,-1.66 -0.08,-2.49 -0.03,-0.87 -0.81,-1.12 -1.39,-0.85 -0.02,-0.23 -0.05,-0.47 -0.06,-0.7 0,-0.08 -0.03,-0.14 -0.05,-0.21 0.12,-0.23 0.26,-0.46 0.38,-0.69 0.59,-1.14 -1.14,-2.16 -1.73,-1.01 -0.54,1.04 -1.12,2.05 -1.74,3.04 -2.82,2.99 -5.74,5.96 -7.93,9.44 -0.03,0.05 -0.04,0.1 -0.06,0.16 -0.4,0.17 -0.78,0.4 -1.15,0.7 -0.18,0.15 -0.27,0.31 -0.31,0.48 -0.27,0.07 -0.55,0.16 -0.81,0.26 -0.02,-0.01 -0.04,-0.03 -0.06,-0.04 -1.06,-0.4 -1.99,-1.03 -2.78,-1.8 -0.56,-0.82 -1.13,-1.62 -1.73,-2.41 -0.37,-0.48 -0.91,-0.54 -1.31,-0.34 -0.17,-0.25 -0.34,-0.5 -0.52,-0.75 -1.57,-2.26 -3.14,-4.53 -4.71,-6.79 -0.12,-0.17 -0.27,-0.29 -0.43,-0.36 -0.03,-0.38 -0.07,-0.77 -0.12,-1.16 -0.18,-1.27 -2.1,-0.73 -1.93,0.53 0.15,1.06 0.18,2.11 0.14,3.16 -0.03,0.06 -0.07,0.12 -0.09,0.19 -0.29,0.95 -0.58,1.9 -0.88,2.85 -0.41,0 -0.81,0.19 -0.97,0.68 -0.81,2.5 -1.78,4.93 -2.92,7.29 -0.05,0.11 -0.08,0.22 -0.1,0.32 -0.01,0.01 -0.03,0.02 -0.04,0.03 -1.64,1.65 -2.82,3.63 -3.53,5.77 -0.03,0.05 -0.07,0.08 -0.09,0.14 -0.21,0.52 -0.47,1.01 -0.75,1.49 -0.32,-0.01 -0.62,0.12 -0.79,0.48 -0.15,0.31 -0.2,0.63 -0.16,0.92 -0.27,0.34 -0.55,0.67 -0.86,0.98 -0.53,0.54 -0.28,1.25 0.23,1.54 0.02,0.51 0.2,1.01 0.48,1.45 0.61,0.98 1.47,1.88 2.36,2.72 0.02,0.36 0.11,0.74 0.33,1.11 0.25,0.43 0.54,0.75 0.87,1.05 1.58,1.76 2.75,3.82 4,5.82 0.98,1.57 2.14,2.98 3.29,4.4 0.1,0.46 0.33,0.91 0.65,1.31 0.44,0.55 0.87,1.11 1.29,1.68 0,0.39 0.11,0.79 0.33,1.19 1.42,2.52 3.1,4.87 4.97,7.06 -0.03,0.1 -0.05,0.21 -0.05,0.34 0.09,1.26 0.82,2.31 1.97,2.78 0.84,2.03 1.99,3.89 3.49,5.52 0.47,0.51 1.21,0.29 1.57,-0.2 2.6,-3.58 5.15,-7.2 6.89,-11.29 0,-0.01 0.01,-0.02 0.02,-0.03 0,0 0,0 0,0 0.03,-0.08 0.07,-0.16 0.11,-0.24 0,0 0,0 0,-0.01 1.76,-2.08 3.3,-4.3 4.6,-6.69 0.06,-0.12 0.13,-0.23 0.19,-0.35 0.23,-0.22 0.45,-0.44 0.66,-0.69 1.46,-1.73 2.64,-3.73 3.91,-5.6 0.23,-0.34 0.35,-0.68 0.39,-1 0.08,-0.1 0.17,-0.21 0.26,-0.31 0.1,-0.07 0.18,-0.17 0.24,-0.29 0,0 0,0 0,0 2.48,-2.92 4.72,-6.02 6.66,-9.32 0.05,-0.09 0.08,-0.19 0.1,-0.29 0.01,-0.01 0.03,-0.03 0.04,-0.04 0.1,-0.09 0.17,-0.2 0.21,-0.32 0.06,-0.12 0.09,-0.25 0.09,-0.39 0,-0.14 -0.02,-0.27 -0.09,-0.39 z"
           id="path43" />
      </g>
    </g>
    <path
       class="cls-3"
       d="m 300.18,360.81 c -0.59,-2.09 -1.96,-3.87 -3.45,-5.4 -0.22,-0.22 -0.48,-0.29 -0.74,-0.27 -0.1,-0.12 -0.2,-0.24 -0.3,-0.36 0.02,-0.12 0.02,-0.24 -0.02,-0.37 -0.03,-0.08 -0.07,-0.16 -0.1,-0.24 -0.04,-0.07 -0.11,-0.11 -0.16,-0.16 0,-0.16 -0.04,-0.32 -0.15,-0.47 -0.59,-0.86 -1.35,-1.54 -2.14,-2.2 -0.35,-0.48 -0.69,-0.98 -1.06,-1.43 -0.73,-0.89 -1.61,-1.65 -2.48,-2.42 -0.97,-1.57 -1.83,-3.16 -3.37,-4.31 -0.46,-0.35 -0.97,-0.68 -1.51,-0.99 -1.13,-1.39 -2.23,-2.8 -3.35,-4.18 -0.23,-0.29 -0.56,-0.34 -0.86,-0.27 -0.19,-0.32 -0.39,-0.64 -0.58,-0.96 -0.41,-0.67 -1.31,-0.62 -1.73,0 -0.13,0.19 -0.24,0.39 -0.36,0.59 -0.22,-0.05 -0.45,-0.02 -0.64,0.12 -1.65,1.25 -2.81,2.9 -3.3,4.92 -0.03,0.13 -0.03,0.25 -0.02,0.36 -0.31,0.28 -0.61,0.6 -0.88,0.96 -2.5,3.31 -7.2,7.93 -8.11,12.63 -0.98,0.69 -1.78,1.69 -2.23,3.01 -0.24,0.71 -0.5,1.41 -0.78,2.11 -0.63,0.8 -1.16,1.65 -1.63,2.55 -0.95,1.81 -1.7,3.74 -2.52,5.61 -0.12,0.28 -0.22,0.56 -0.3,0.83 -1.01,1.81 -2.03,3.62 -3.01,5.46 -0.88,1.67 -1.34,3.53 -2.02,5.13 -0.58,0.65 -1.02,1.47 -1.22,2.49 -0.01,0.06 -0.03,0.11 -0.04,0.16 -0.23,0.5 -0.42,1 -0.55,1.52 -0.5,1.05 -1.17,2.04 -1.65,3.14 -0.4,0.93 -0.56,1.84 -0.54,2.71 -0.69,1.38 -1.39,2.75 -2.08,4.13 -0.94,1.88 -2.11,3.8 -1.92,5.97 0,0.03 0.01,0.06 0.02,0.09 -0.31,0.57 -0.52,1.15 -0.6,1.78 -0.13,0.21 -0.27,0.42 -0.39,0.64 -0.25,0.44 -0.14,0.85 0.12,1.13 -0.55,0.63 -0.97,1.35 -1.08,2.25 -0.16,1.27 1.84,1.26 2,0 0.12,-0.92 1.34,-1.66 1.99,-2.19 0.85,-0.7 1.72,-1.37 2.6,-2.03 1.57,-1.16 3.18,-2.26 4.83,-3.3 3.38,-2.12 6.94,-3.99 10.61,-5.55 1.97,-0.84 3.98,-1.59 6.01,-2.25 0.2,0.3 0.55,0.48 1.02,0.32 3.79,-1.34 7.68,-2.38 11.63,-3.1 0.42,0.03 0.83,0.06 1.26,0.11 1.54,0.18 2.8,-0.09 3.84,-0.92 0.23,-0.1 0.4,-0.26 0.5,-0.47 0.21,-0.23 0.42,-0.47 0.61,-0.75 0.34,-0.51 0.67,-1.03 0.99,-1.56 0.14,-0.05 0.28,-0.12 0.41,-0.25 1.28,-1.27 2.39,-2.68 2.47,-4.44 0.19,-0.03 0.38,-0.1 0.55,-0.28 0.77,-0.82 1.59,-1.51 2.19,-2.48 0.58,-0.94 0.98,-2 1.36,-3.03 0.94,-2.52 1.65,-5.12 2.31,-7.72 0.54,-2.13 1.16,-4.19 0.53,-6.39 z"
       id="path44" />
    <path
       class="cls-3"
       d="m 385.86,406.89 c -0.17,-0.89 -0.72,-1.63 -1.28,-2.33 0.34,-0.48 0.23,-1.27 -0.36,-1.53 0.09,-0.39 0.1,-0.8 -0.02,-1.2 -0.16,-0.48 -0.44,-0.9 -0.8,-1.21 -0.05,-0.25 -0.09,-0.5 -0.17,-0.73 -0.17,-0.56 -0.37,-1.11 -0.57,-1.66 -0.06,-0.15 -0.11,-0.3 -0.16,-0.44 -0.12,-0.42 -0.27,-0.84 -0.44,-1.26 -0.14,-0.44 -0.25,-0.89 -0.33,-1.35 -0.03,-0.34 -0.04,-0.67 -0.01,-1.01 0.07,-0.94 -0.59,-1.84 -1.45,-2.26 -0.61,-1.99 -1.11,-4.01 -1.79,-5.98 -0.87,-2.5 -2.08,-4.84 -3.43,-7.12 -0.4,-0.67 -0.8,-1.34 -1.21,-2.01 -0.43,-2.31 -1.46,-6.4 -3.54,-7.47 -0.83,-1.76 -1.72,-3.49 -2.69,-5.18 0.13,-0.58 0.07,-1.19 -0.3,-1.67 -2.06,-2.74 -3.89,-5.64 -5.43,-8.71 -0.77,-1.53 -1.35,-3.12 -2.45,-4.45 -0.42,-0.51 -0.81,-0.99 -1.2,-1.48 -0.41,-1.15 -1.08,-2.18 -2.06,-3.02 -0.12,-0.1 -0.24,-0.18 -0.36,-0.26 -0.05,-0.15 -0.11,-0.3 -0.17,-0.45 -0.7,-1.89 -1.69,-4.7 -3.72,-5.53 -0.21,-0.09 -0.4,-0.13 -0.59,-0.16 -0.11,-0.22 -0.21,-0.45 -0.33,-0.66 -0.89,-1.52 -3.49,-1.74 -4.32,0 -0.32,0.67 -0.69,1.3 -1.09,1.9 -0.28,0.04 -0.56,0.11 -0.83,0.22 -1.51,0.63 -2.44,1.89 -3.07,3.31 -0.16,0.17 -0.3,0.36 -0.41,0.6 l -0.23,0.5 c 0,0 -0.01,0.03 -0.02,0.05 -0.27,0.12 -0.53,0.28 -0.75,0.5 -2.36,2.3 -4.94,4.51 -6.99,7.1 -0.94,1.19 -1.75,2.45 -2.57,3.72 -0.39,0.61 -0.81,1.19 -1.22,1.79 0,0.01 -0.01,0.02 -0.02,0.03 0,0 0,0 0,0 -0.12,0.15 -0.24,0.29 -0.36,0.44 -0.25,0.29 -0.51,0.56 -0.78,0.83 -0.45,0.44 -0.69,1.06 -0.71,1.69 -0.66,1.01 -0.86,2.33 -0.27,3.88 0.98,2.56 2.2,5.78 3.85,8.54 0.16,1.24 1.07,2.23 1.8,3.23 0.16,0.22 0.32,0.43 0.48,0.65 0,0.37 0.09,0.75 0.28,1.14 1.4,2.74 2.8,5.49 4.2,8.23 0.69,1.36 1.46,2.82 3.13,3.06 0.73,0.1 1.42,-0.08 2,-0.43 0.2,0.13 0.41,0.24 0.66,0.32 1.27,0.42 2.77,0.43 4.1,0.59 0.41,0.05 0.81,0.1 1.22,0.15 1.31,0.34 2.68,0.57 3.97,0.85 5.95,1.29 11.42,3.58 16.62,6.73 0.77,0.47 1.54,0.7 2.27,0.74 0.19,0.38 0.5,0.72 0.94,0.98 0.47,0.28 0.9,0.43 1.39,0.49 0.79,0.26 1.48,0.58 2.08,1.27 0.73,0.84 1.49,1.49 2.44,1.82 0.11,0.4 0.25,0.77 0.53,1.13 0.64,0.83 1.63,1.27 2.65,1.16 0.02,0.17 0.05,0.33 0.14,0.48 0.1,0.16 0.26,0.33 0.43,0.42 0.05,0.02 0.1,0.04 0.14,0.06 0.29,0.25 0.55,0.52 0.79,0.81 0.21,0.28 0.4,0.57 0.56,0.88 0.11,0.21 0.37,0.41 0.6,0.46 0.22,0.05 0.44,0.04 0.65,-0.05 0.19,-0.08 0.38,-0.22 0.48,-0.41 0.13,-0.25 0.15,-0.49 0.1,-0.77 z"
       id="path45" />
    <path
       class="cls-9"
       d="m 392.41,251.22 c -2.48,-0.69 -4.96,-1.38 -7.44,-2.08 -1,-0.28 -2.02,-0.56 -2.99,-0.94 -0.79,-0.32 -1.56,-0.92 -2.37,-1.23 0.12,-0.98 -1.33,-1.6 -1.84,-0.62 -0.21,0.41 -0.45,0.79 -0.69,1.17 -0.11,0.09 -0.22,0.18 -0.33,0.28 -0.87,0.72 -1.73,1.45 -2.59,2.18 -1.67,1.4 -3.34,2.81 -5.01,4.21 -1.16,0.63 -2.36,1.21 -3.58,1.72 -5.12,2.14 -10.61,3.26 -16.07,4.11 -0.6,0.09 -0.79,0.58 -0.69,1.04 -0.46,0.63 -0.51,1.51 0.02,2.11 -0.29,0.6 0.04,1.49 0.87,1.47 1.61,-0.04 3.23,-0.08 4.86,-0.13 0.26,0.03 0.52,0.06 0.78,0.08 0.84,0.06 1.69,0.06 2.53,0.04 1.8,0.22 3.62,0.78 5.38,0.11 0.33,-0.12 0.56,-0.44 0.66,-0.79 4.4,-0.41 8.76,-1.11 12.96,-2.3 0.25,-0.24 0.52,-0.47 0.8,-0.68 0.76,-0.58 1.79,-0.75 2.77,-0.67 0.22,-0.03 0.44,-0.04 0.67,-0.05 1.53,-0.58 3.03,-1.23 4.5,-1.98 0.53,-0.79 1.23,-1.47 2.07,-1.97 0.61,-0.37 1.29,-0.6 1.96,-0.84 0.02,-0.2 -0.02,-0.4 -0.1,-0.58 1.04,-0.6 2.08,-1.2 3.11,-1.81 0.74,-0.44 0.59,-1.6 -0.24,-1.83 z"
       id="path46" />
    <path
       class="cls-9"
       d="m 274.85,251.07 c -0.02,-0.1 -0.04,-0.19 -0.06,-0.29 0,-0.06 0.03,-0.11 0.03,-0.18 -0.06,-2.1 -0.11,-4.21 -0.17,-6.31 -0.05,-1.92 -0.13,-3.82 -0.69,-5.67 0.04,-0.05 0.08,-0.1 0.11,-0.16 0.38,-0.66 -0.1,-1.5 -0.86,-1.5 -1.06,0 -2.11,0.06 -3.16,0.17 -0.68,-0.05 -1.37,0 -2.02,0.06 -1.25,0.13 -2.48,0.37 -3.71,0.6 -2.2,-0.26 -4.35,-0.62 -6.58,-0.62 -5.2,0 -10.29,-0.34 -15.39,-1.41 -0.71,-0.15 -1.18,0.41 -1.23,0.97 -0.43,0.25 -0.68,0.77 -0.32,1.3 0.44,0.65 0.98,1.25 1.58,1.83 0.06,0.19 0.18,0.37 0.37,0.51 1.06,0.81 1.79,1.96 2.65,2.96 0.85,0.98 1.87,1.77 2.96,2.46 1.43,0.9 2.92,1.69 4.45,2.41 0.01,0.02 0.02,0.04 0.04,0.06 0.18,0.27 0.38,0.54 0.61,0.77 0.4,0.41 0.88,0.76 1.41,0.99 0.12,0.07 0.24,0.11 0.37,0.12 0.13,0.03 0.27,0.02 0.4,-0.02 0.01,0 0.03,-0.02 0.04,-0.02 0.74,0.69 1.63,1.05 2.6,1.34 1.44,0.43 2.89,0.82 4.34,1.21 1.37,0.37 2.75,0.73 4.13,1.07 1.07,0.27 2.47,0.85 3.61,0.58 0.85,0.23 1.7,0.46 2.55,0.69 0.13,0.03 0.25,0.03 0.37,0.01 0.24,0.26 0.54,0.47 0.95,0.6 0.64,0.2 1.25,-0.34 1.27,-0.96 0.03,-1.24 -0.38,-2.39 -0.66,-3.57 z"
       id="path47" />
    <path
       class="cls-9"
       d="m 367.37,584.94 c 0.27,-2.39 0.4,-4.79 0.35,-7.19 0,-0.31 -0.07,-0.6 -0.17,-0.86 0.08,-0.13 0.13,-0.28 0.14,-0.47 0.04,-0.84 0.04,-1.68 0,-2.52 0,-2.21 0.01,-4.41 0.02,-6.62 0,-0.75 -0.67,-1.05 -1.23,-0.93 -0.11,-0.88 -0.25,-1.77 -0.41,-2.65 -0.17,-0.89 -1.4,-0.91 -1.83,-0.24 -1.29,2.06 -2.81,4.1 -3.76,6.34 -0.06,0.15 -0.11,0.3 -0.17,0.46 -0.91,0.96 -1.61,2.08 -2.33,3.19 l -2.52,3.91 c -0.44,0.19 -0.83,0.49 -1.11,0.92 l -5.64,8.64 c -0.52,0.8 -1.05,1.82 -1.78,2.51 -0.27,-0.69 -1.01,-1.46 -1.44,-1.98 -0.3,-0.36 -0.66,-0.57 -1.05,-0.67 -0.69,-2.29 -2.47,-3.71 -4.49,-5.15 -0.48,-0.34 -0.93,-0.7 -1.39,-1.06 -0.82,-1.84 -1.66,-3.67 -3.31,-4.98 -0.36,-0.28 -0.82,-0.36 -1.21,-0.14 -0.08,-0.12 -0.17,-0.23 -0.26,-0.35 -0.44,-0.59 -0.87,-1.18 -1.31,-1.77 -0.27,-0.37 -0.53,-0.79 -0.94,-1.01 0,-0.13 0,-0.25 0,-0.38 -0.05,-1.28 -2.05,-1.29 -2,0 0.02,0.61 0.02,1.21 0.03,1.82 -0.05,0.2 -0.1,0.39 -0.13,0.56 -0.26,1.19 -0.46,2.4 -0.6,3.61 -0.32,2.59 -0.34,5.21 -0.09,7.81 0.01,0.13 0.04,0.25 0.08,0.36 -0.03,0.12 -0.05,0.24 -0.06,0.37 -0.34,3.36 -0.69,6.71 -1.03,10.07 -0.34,3.4 -0.55,6.81 0.21,10.17 0.71,3.16 2.22,6.15 3.58,9.06 0.36,0.76 0.73,1.52 1.09,2.28 0.05,1.63 0.74,3.29 1.19,4.83 0.51,1.76 1.02,3.52 1.54,5.28 l 0.21,0.72 c -0.51,3.41 0.93,7.1 1.57,10.37 0.01,0.07 0.02,0.13 0.04,0.2 -0.21,0.35 -0.32,0.78 -0.28,1.27 0.2,2.58 0.56,5.16 1.14,7.68 0.21,0.94 0.45,1.91 0.73,2.87 -0.06,0.34 -0.13,0.67 -0.22,1.01 -0.26,0.97 0.03,1.77 0.58,2.32 0.04,0.07 0.09,0.15 0.14,0.22 -0.04,0.83 -0.08,1.66 -0.12,2.49 -0.02,0.43 0.09,0.83 0.29,1.18 -1.16,1.72 -1.48,4.09 -1.31,6.13 -0.24,0.38 -0.46,0.79 -0.63,1.24 -0.47,1.2 1.46,1.72 1.93,0.53 0.05,-0.13 0.11,-0.25 0.17,-0.37 0.1,-0.05 0.19,-0.11 0.28,-0.2 1.95,-1.91 4.61,-2.87 7.32,-2.93 1.41,-0.03 2.86,0.13 4.19,0.61 1.47,0.53 2.57,1.68 3.42,2.95 0.59,0.88 2.24,0.36 1.83,-0.77 -0.03,-0.08 -0.07,-0.16 -0.1,-0.24 0,0 0,0 0,0 0,0 0,0 0,0 -0.13,-0.32 -0.28,-0.62 -0.44,-0.91 0.27,-0.16 0.46,-0.44 0.45,-0.82 -0.02,-1.17 -0.37,-2.26 -0.92,-3.25 0.34,-0.39 0.56,-0.9 0.54,-1.56 -0.14,-4.28 -0.4,-8.58 -0.37,-12.86 0,-0.27 0,-0.55 0.01,-0.82 0.8,-3.22 1.78,-6.4 2.92,-9.52 0.1,-0.26 0.13,-0.52 0.12,-0.78 0.6,-0.7 1.11,-1.5 1.45,-2.41 0.56,-1.5 0.64,-3.16 0.86,-4.73 0.04,-0.3 0.09,-0.6 0.13,-0.9 0,0 0,-0.01 0,-0.02 2.72,-7.11 4.23,-14.65 4.52,-22.26 0.19,-0.35 0.32,-0.74 0.29,-1.14 -0.08,-0.95 -0.19,-1.9 -0.32,-2.85 0.94,-4.84 1.65,-9.73 1.8,-14.67 0.01,-0.37 -0.05,-0.7 -0.16,-0.99 z"
       id="path48" />
    <path
       class="cls-9"
       d="m 300.4,584.81 c 0.05,-1.76 0.17,-3.51 0.39,-5.27 0.08,-0.6 -0.34,-0.91 -0.8,-0.94 -0.06,-0.95 -0.25,-1.91 -0.33,-2.87 -0.18,-2.18 -0.16,-4.36 0.03,-6.54 0.07,-0.82 -1.18,-1.38 -1.71,-0.71 -1.47,1.86 -2.94,3.71 -4.41,5.57 -0.12,0.05 -0.24,0.12 -0.35,0.24 -2.2,2.41 -4.41,4.82 -6.61,7.23 -0.14,0.15 -0.21,0.3 -0.25,0.46 -0.23,0.11 -0.44,0.24 -0.64,0.42 -0.55,0.48 -1.24,1.08 -2,1.61 -0.57,0.25 -1.19,0.37 -1.88,0.35 -0.47,-0.02 -1.19,-0.22 -1.68,-0.49 -0.59,-0.55 -1.2,-1.09 -1.81,-1.65 -0.15,-0.17 -0.3,-0.32 -0.48,-0.45 -0.23,-0.22 -0.47,-0.44 -0.7,-0.68 -0.27,-0.56 -0.54,-1.12 -0.81,-1.69 0.13,-0.31 0.08,-0.67 -0.28,-0.95 -0.09,-0.07 -0.16,-0.15 -0.25,-0.21 -0.1,-0.23 -0.21,-0.46 -0.31,-0.7 -0.28,-0.65 -0.99,-1.05 -1.71,-1.18 -0.28,-0.29 -0.57,-0.57 -0.83,-0.87 -0.86,-1.54 -1.68,-3.1 -2.44,-4.7 -0.21,-0.43 -0.44,-0.85 -0.69,-1.27 -0.15,-0.38 -0.31,-0.76 -0.48,-1.13 -0.12,-0.26 -0.34,-0.4 -0.57,-0.45 -1.19,-1.63 -2.57,-3.15 -3.8,-4.69 -0.08,-0.1 -0.16,-0.16 -0.25,-0.21 0.02,-0.05 0.03,-0.09 0.04,-0.14 0.43,-1.22 -1.51,-1.74 -1.93,-0.53 -0.46,1.31 -0.86,2.63 -1.24,3.96 -0.39,0.45 -0.63,1.01 -0.57,1.58 0.02,0.14 0.04,0.28 0.06,0.41 -0.46,1.83 -0.84,3.68 -1.15,5.54 0.23,1.32 0.4,2.66 0.43,4 0.03,1.59 -0.21,3.17 -0.47,4.76 0,0.07 0,0.14 0,0.2 2.01,5.42 3.6,12.29 3.13,18.32 0.53,1.4 0.81,2.86 0.96,4.35 l 2.85,12.24 c 0.02,0.1 0.05,0.2 0.07,0.3 -0.12,0.29 -0.2,0.61 -0.23,0.94 -0.04,0.46 -0.05,0.91 -0.07,1.37 0.46,0.71 0.73,1.6 0.73,2.67 -0.04,4.81 1.41,9.43 2.14,14.16 0.15,0.18 0.28,0.37 0.41,0.56 -0.06,0.12 -0.11,0.25 -0.15,0.37 0.07,0.3 0.11,0.6 0.13,0.91 0,0 0,0 0,0.01 0.06,0.12 0.12,0.25 0.19,0.36 0.5,0.84 0.68,1.78 0.65,2.72 0,0 0,0 0,0.01 0,0 0,0.02 0,0.02 -0.02,0.37 -0.06,0.73 -0.14,1.1 0,0.01 0,0.02 0,0.03 0.05,0.48 0.23,0.94 0.52,1.33 v 1.9 c 0,0.23 0.03,0.44 0.1,0.65 -0.02,0.17 -0.04,0.34 -0.06,0.51 -0.03,0.2 0,0.4 0.04,0.59 -0.18,1.41 -0.41,2.79 -0.59,4.07 0.09,1.15 0,2.27 -0.27,3.46 0.15,0.4 0.32,0.8 0.52,1.19 -0.31,0.94 -0.15,2.09 -0.15,3.03 v 4.22 c -0.22,0.55 -0.24,1.12 0.12,1.6 0.03,0.04 0.07,0.07 0.11,0.11 -0.2,0.31 -0.38,0.64 -0.52,1.01 -0.48,1.2 1.46,1.72 1.93,0.53 0.54,-1.35 1.95,-2.14 3.18,-2.76 1.43,-0.72 2.94,-1.31 4.56,-1.33 2.84,-0.03 5.63,1.43 7.28,3.73 0.43,0.6 1.69,0.7 1.83,-0.24 0.45,-3.13 -0.64,-6.26 -1.47,-9.25 0.17,-0.32 0.28,-0.68 0.28,-1.1 0,-1.19 -0.02,-2.38 -0.03,-3.57 0.1,-0.18 0.18,-0.37 0.23,-0.6 0.65,-2.9 1.3,-5.8 1.95,-8.7 -0.15,-0.96 -0.2,-1.88 -0.18,-2.79 0.53,-0.95 0.78,-2.02 1.08,-3.08 0.35,-1.26 0.7,-2.53 1.04,-3.79 0.21,-0.77 0.02,-1.58 -0.45,-2.18 0.17,-0.7 0.33,-1.41 0.48,-2.14 0.16,-0.8 0.47,-1.45 0.86,-1.98 0.03,-0.37 0.06,-0.74 0.1,-1.11 0.88,-3.58 1.64,-7.19 2.25,-10.82 0.06,-0.38 0.06,-0.75 0,-1.11 0.74,-2.51 1.46,-5.03 2.21,-7.53 1.01,-3.36 2.14,-6.72 2.62,-10.21 0.24,-1.74 0.26,-3.48 0.1,-5.2 0.21,-0.36 0.34,-0.77 0.36,-1.23 0.08,-1.87 0.02,-3.75 -0.18,-5.61 0,-0.03 0,-0.06 -0.01,-0.09 z"
       id="path49" />
    <path
       class="cls-9"
       d="m 378.37,235.01 c 0,0 -0.02,0.07 -0.02,0.11 -0.19,-0.02 -0.39,0.01 -0.59,0.16 -0.23,0.16 -0.48,0.29 -0.72,0.43 -0.02,-0.01 -0.03,-0.03 -0.04,-0.04 -0.23,-0.12 -0.51,-0.18 -0.77,-0.1 -0.23,0.08 -0.49,0.23 -0.6,0.46 -0.02,0.05 -0.05,0.09 -0.08,0.14 -0.02,0.03 -0.05,0.05 -0.08,0.08 -0.05,0.04 -0.11,0.07 -0.17,0.1 -0.1,0.04 -0.2,0.06 -0.31,0.08 -0.36,0.03 -0.73,0 -1.09,-0.05 0,0 0,0 0,0 -0.26,-0.03 -0.49,-0.03 -0.72,0.11 -0.08,0.05 -0.16,0.13 -0.24,0.21 -0.91,0.09 -1.85,0.2 -2.59,0.59 0,0 0,0 0,0 -1.65,0.05 -3.31,-0.05 -4.88,-0.15 -4.78,-0.29 -9.49,-1.13 -14.09,-2.43 -0.59,-0.17 -1.31,0.31 -1.27,0.96 0.26,3.65 -0.27,7.24 -0.79,10.85 -0.21,1.43 -0.78,3.3 -0.51,4.73 0.06,0.33 0.21,0.6 0.42,0.82 -0.72,0.6 -0.45,1.74 0.56,1.81 1.34,0.09 2.54,-0.33 3.73,-0.81 0.89,-0.1 1.77,-0.31 2.63,-0.5 1.7,-0.37 3.39,-0.75 5.06,-1.24 3.31,-0.97 6.35,-2.49 9.34,-4.18 0.41,-0.23 0.53,-0.61 0.47,-0.97 0.44,-0.22 0.88,-0.46 1.3,-0.73 1.27,-0.81 2.3,-1.87 3.26,-3.02 1,-1.19 1.98,-2.4 2.96,-3.62 0.94,-1.17 1.65,-2.28 1.82,-3.8 0.14,-1.28 -1.86,-1.27 -2,0 z"
       id="path50" />
    <path
       class="cls-3"
       d="m 424.53,395.2 c -0.57,-0.54 -1.05,-1.13 -1.49,-1.76 0,-0.08 0,-0.16 -0.03,-0.25 -0.68,-1.99 -1.42,-3.95 -2.22,-5.89 -0.12,-0.29 -0.37,-0.52 -0.64,-0.63 -0.55,-1.81 -1.07,-3.63 -1.79,-5.29 -0.06,-0.14 -0.16,-0.23 -0.27,-0.31 -0.07,-1.2 -0.5,-2.39 -1.41,-3.39 0.15,-1.43 -0.25,-2.66 -0.89,-3.9 0.13,-0.22 0.18,-0.49 0.1,-0.76 -0.57,-1.88 -1.3,-3.71 -2.16,-5.47 -0.06,-0.12 -0.16,-0.22 -0.27,-0.3 -0.47,-1.69 -1.29,-3.31 -2.01,-4.95 -0.42,-2.06 -0.85,-4.13 -1.27,-6.19 -0.12,-0.57 -0.54,-0.76 -0.96,-0.7 -0.91,-2.93 -1.89,-5.83 -2.94,-8.72 -0.1,-0.26 -0.29,-0.45 -0.51,-0.56 -0.04,-0.3 -0.1,-0.6 -0.2,-0.91 0,-0.06 0,-0.12 -0.01,-0.18 -0.01,0 -0.03,0 -0.04,0 0,-0.02 -0.01,-0.03 -0.02,-0.05 -0.03,-0.5 -0.08,-1.02 -0.15,-1.55 -0.23,-1.67 -1.12,-2.83 -2.32,-3.51 -0.61,-1.63 -1.08,-3.35 -1.64,-4.9 -0.46,-1.29 -1.24,-2.26 -2.17,-2.96 -0.14,-0.34 -0.29,-0.68 -0.42,-1.02 -0.33,-0.86 -0.79,-1.58 -1.32,-2.17 -0.34,-1.87 -1.62,-3.07 -3.23,-3.6 -0.22,-0.78 -0.55,-1.53 -1,-2.2 -0.29,-0.44 -0.9,-0.66 -1.37,-0.36 -0.06,0.04 -0.1,0.09 -0.14,0.14 -1.2,-0.75 -2.71,-1.07 -4.48,-0.64 -6.21,1.54 -10.08,6.5 -12.72,12.02 -1.01,2.1 -1,4.48 0.25,6.32 -0.02,0.61 0.02,1.22 0.13,1.84 0.2,1.16 0.46,1.99 0.98,3.1 0,0 0.01,0.02 0.02,0.03 -0.49,2.14 0.3,4.12 1.75,5.53 0.27,1.27 0.73,2.45 1.9,3.67 0.03,0.03 0.06,0.05 0.09,0.08 2.17,3.96 6.05,7.2 9.12,10.48 1.77,1.89 3.66,3.75 5.44,5.69 0.47,1.21 1.32,2.29 2.61,3.04 0.39,0.5 0.78,1.01 1.14,1.53 0.53,0.76 1.19,1.33 1.93,1.75 0.42,0.8 1,1.46 1.71,2.05 0.08,0.06 0.15,0.14 0.22,0.2 0.43,0.99 1.04,1.91 1.77,2.74 0.44,0.5 1.06,0.91 1.74,1.2 0.15,0.19 0.32,0.37 0.49,0.55 -0.11,0.33 -0.07,0.71 0.2,1.03 1.44,1.73 2.83,3.59 4.41,5.18 0.3,0.3 0.64,0.5 0.98,0.61 0.17,0.33 0.34,0.66 0.52,0.97 0.09,0.16 0.21,0.34 0.32,0.52 0.1,0.52 0.27,1.04 0.53,1.55 0.58,1.18 1.3,2.29 1.97,3.42 0.44,0.75 0.87,1.57 1.87,1.46 1.09,-0.13 2.2,-1.09 3.27,-1.42 1.28,-0.39 2.59,-0.53 3.93,-0.47 0.86,0.04 1.32,-1.12 0.71,-1.71 z"
       id="path51" />
    <path
       class="cls-3"
       d="m 209.45,263.11 c -0.04,-0.78 -0.37,-1.37 -0.84,-1.77 0.18,-1.78 0.1,-3.66 -0.56,-5.34 -0.39,-1 -0.91,-1.82 -1.59,-2.65 -0.26,-0.32 -0.6,-0.63 -0.85,-0.98 -0.15,-0.36 -0.33,-0.72 -0.53,-1.08 -0.49,-0.88 -1.38,-1.22 -2.24,-1.16 -0.12,-0.21 -0.25,-0.42 -0.38,-0.62 -0.32,-0.48 -0.72,-0.78 -1.16,-0.95 -0.11,-0.15 -0.22,-0.29 -0.33,-0.43 -0.47,-0.65 -1.15,-1.09 -1.89,-1.2 -0.57,-0.58 -1.18,-1.13 -1.86,-1.57 -0.4,-0.26 -0.83,-0.47 -1.28,-0.64 -0.15,-0.43 -0.43,-0.85 -0.88,-1.2 -0.72,-0.56 -1.81,-0.99 -2.71,-0.57 -1.19,-0.94 -2.58,-1.6 -4.01,-1.49 -0.81,-0.57 -1.61,-1.09 -2.56,-1.45 -0.54,-0.21 -1.09,-0.33 -1.63,-0.52 -0.49,-0.17 -0.83,-0.47 -1.27,-0.74 -0.72,-0.43 -1.53,-0.66 -2.33,-0.63 -1.12,-0.87 -2.14,-1.87 -3.38,-2.59 -0.69,-0.4 -1.43,-0.67 -2.18,-0.95 -0.7,-0.26 -1.25,-0.67 -1.85,-1.1 -0.69,-0.5 -1.42,-0.83 -2.18,-1.21 -0.11,-0.05 -0.21,-0.1 -0.31,-0.14 -0.3,-0.45 -0.61,-0.89 -0.94,-1.32 -0.56,-0.73 -1.29,-1.08 -2,-1.14 -0.63,-1.36 -1.76,-2.48 -3.39,-2.95 0.12,-0.37 0.11,-0.78 -0.13,-1.14 -0.53,-0.81 -1.65,-0.44 -1.86,0.26 -0.15,0.02 -0.3,0.04 -0.45,0.05 l -1.29,0.15 c -0.56,0.07 -1.12,0.14 -1.69,0.2 -0.03,-0.05 -0.08,-0.09 -0.12,-0.13 -0.49,0.14 -1.01,0.21 -1.52,0.21 -0.05,0.08 -0.09,0.17 -0.11,0.27 0,0.02 0,0.05 -0.01,0.07 -0.68,-0.13 -1.49,-0.05 -2.05,-0.07 -1.27,-0.05 -2.55,-0.1 -3.82,-0.15 -0.82,-0.03 -1.39,1.15 -0.71,1.71 0.41,0.33 0.83,0.53 1.29,0.65 -0.09,0.4 -0.1,0.82 0.02,1.19 0.31,0.96 1.01,1.54 1.86,1.72 0.02,0.08 0.03,0.17 0.07,0.25 0.28,0.67 0.61,1.26 1.18,1.68 0.13,0.14 0.27,0.28 0.4,0.43 0.04,0.06 0.09,0.12 0.13,0.18 0.13,0.19 0.26,0.38 0.38,0.57 0.47,0.73 0.87,1.5 1.25,2.28 0.8,1.62 1.54,3.28 2.56,4.77 0.32,0.47 0.79,0.83 1.31,1.05 0.21,0.33 0.48,0.63 0.81,0.88 0.11,0.08 0.22,0.17 0.34,0.25 0.14,0.59 0.48,1.12 1.01,1.45 0.05,0.22 0.12,0.45 0.25,0.67 0.43,0.75 0.82,1.51 1.13,2.32 0.17,0.46 0.42,0.81 0.71,1.08 -0.03,1.34 0.75,2.5 1.42,3.69 0.81,1.44 1.56,2.91 2.24,4.41 0.67,1.46 1.16,3.02 1.98,4.4 0.39,0.66 0.86,1.26 1.38,1.81 0.04,0.15 0.09,0.29 0.17,0.44 1.17,2.36 2.48,4.64 3.95,6.82 0.69,1.02 1.48,2.28 2.47,3.17 0.05,0.34 0.16,0.68 0.36,1.01 0.06,0.46 0.28,0.84 0.58,1.14 0.01,0.05 0.01,0.11 0.03,0.16 0.41,1.37 1.32,2.23 2.42,3.07 0.16,0.12 0.32,0.24 0.48,0.36 -0.01,0 0.37,0.29 0.37,0.29 0.42,0.34 0.85,0.68 1.26,1.03 0.5,0.42 0.98,0.87 1.47,1.31 0.12,0.27 0.29,0.54 0.54,0.78 0.46,0.46 0.94,0.89 1.43,1.31 0.09,0.42 0.3,0.8 0.65,1.09 1.85,1.44 3.73,2.83 5.64,4.18 0.31,0.65 0.71,1.25 1.28,1.71 0.34,0.27 0.71,0.48 1.12,0.61 0.04,0.01 0.12,0.05 0.2,0.08 0.77,0.59 1.83,0.76 2.75,0.19 0.72,-0.45 1.27,-1 1.69,-1.69 0.6,-0.12 1.15,-0.49 1.51,-1.17 0.42,-0.81 0.84,-1.62 1.26,-2.42 0.31,-0.6 0.36,-1.19 0.23,-1.72 0.27,-0.14 0.53,-0.31 0.77,-0.53 1.08,-0.97 1.51,-2.43 1.97,-3.76 2.03,-5.82 2.88,-12.08 2.56,-18.23 z"
       id="path52" />
  </g>
  <g
     id="ombres_noires"
     transform="translate(-118.77502,-117.344)">
    <path
       class="cls-6"
       d="m 374.32,262.31 c 1.35,1.99 4.69,14.2 4.69,14.2 0,0 2.67,13.11 5.19,26.86 2.52,13.75 6.47,18.6 6.47,18.6 0,0 9.18,1.73 21.15,39.38 10.31,32.42 13.77,35.32 13.77,35.32 -6.86,0.32 -9.45,2.7 -9.45,2.7 -0.44,-3.94 -14.44,-19.26 -14.44,-19.26 0,0 -19.05,-20.79 -22.23,-24.71 -3.18,-3.92 -4.98,-13.92 -6.97,-22.45 -1.99,-8.53 -19.48,-39.58 -19.48,-39.58 l -3.4,15.43 c -0.78,13.05 -0.4,27.12 -0.4,27.12 22.63,24.67 40.03,76.72 35.95,72.68 -19.24,-19.02 -45.32,-19.58 -45.32,-19.58 l -25.65,37.92"
       id="path53" />
    <path
       class="cls-6"
       d="M 314.2,426.72 288.55,388.8 c 0,0 -26.09,0.56 -45.32,19.58 -4.09,4.04 13.32,-48.01 35.95,-72.68 0,0 1.03,-11.12 0.25,-24.17 0,0 -23.8,-35.74 9.12,-49.88"
       id="path54" />
    <path
       class="cls-6"
       d="m 331.02,263.02 c 0,0 27.66,-2.44 22,30.36"
       id="path55" />
    <path
       class="cls-6"
       d="m 350.03,234.77 c 0,0 18.38,5.26 29.01,-0.33 0.74,-0.39 1.56,0.37 1.24,1.15 -2,4.84 -8.56,15.54 -31.1,18.59"
       id="path56" />
    <path
       class="cls-6"
       d="m 380.35,235.02 c 0,0 4.46,19.74 -31.49,24.95"
       id="path57" />
    <path
       class="cls-6"
       d="m 348.83,264.55 c 14.34,1.73 33.74,-2.22 43.48,-11.82 0.68,-0.67 0.3,-1.83 -0.64,-1.97 -3.76,-0.59 -11.24,-2.14 -13.27,-5.31"
       id="path58" />
    <path
       class="cls-6"
       d="m 348.24,269.04 1.64,-33.47 c 0.05,-1.08 -0.62,-2.12 -1.67,-2.36 -0.58,-0.13 -1.24,-0.02 -1.87,0.66 -0.48,0.52 -0.72,1.21 -0.78,1.91 l -2.69,29.24"
       id="path59" />
    <path
       class="cls-6"
       d="m 149.8,227.22 c 0,0 13.17,15.9 18.84,30.02 5.38,13.41 18,29.91 28.77,35.37 1.02,0.52 2.21,0.58 3.29,0.19 l 46.03,-13.95 c 2.13,-0.77 -1.95,0.64 0,0 l 29.92,-9.18"
       id="path60" />
    <path
       class="cls-6"
       d="m 278.25,297.96 c 0,0 11.49,7.09 26.49,-0.19"
       id="path61" />
    <path
       class="cls-6"
       d="m 320.44,298.11 c 0,0 15.83,7.13 29.54,-1.83"
       id="path62" />
    <path
       class="cls-6"
       d="m 275.71,280.72 c 0,0 5.06,-14.31 15.42,-12.84 1.61,0.23 7.24,-0.11 15.79,11.31"
       id="path63" />
    <path
       class="cls-6"
       d="m 348.85,280.72 c 0,0 -5.06,-14.31 -15.42,-12.84 -1.61,0.23 -7.24,-0.11 -15.79,11.31"
       id="path64" />
    <path
       class="cls-6"
       d="m 339.84,389.03 c 0,0 -12.76,-20.67 -12.51,-26.97 0.25,-6.3 21.88,-26.13 21.88,-26.13"
       id="path65" />
    <path
       class="cls-6"
       d="m 329.79,370.34 c 0,0 20.12,-18.8 28.83,-21.37"
       id="path66" />
    <path
       class="cls-6"
       d="m 331.73,373.17 c 0,0 20.12,-18.8 28.83,-21.37"
       id="path67" />
    <path
       class="cls-6"
       d="m 334.44,378 c 0,0 20.12,-18.8 28.83,-21.37"
       id="path68" />
    <path
       class="cls-6"
       d="m 336.27,381.03 c 0,0 20.12,-18.8 28.83,-21.37"
       id="path69" />
    <path
       class="cls-6"
       d="m 298.37,371.46 c 0,0 -20.67,-19.92 -29.38,-22.48"
       id="path70" />
    <path
       class="cls-6"
       d="m 296.79,375.46 c 0,0 -20.49,-21.1 -29.19,-23.66"
       id="path71" />
    <path
       class="cls-6"
       d="m 294.71,379.11 c 0,0 -21.75,-19.91 -30.46,-22.48"
       id="path72" />
    <path
       class="cls-6"
       d="m 292.46,383 c 0,0 -20.7,-20.77 -29.41,-23.34"
       id="path73" />
    <path
       class="cls-6"
       d="m 288.54,388.8 c 0,0 15.26,-20.65 11.48,-28.25 -3.78,-7.59 -20.85,-24.85 -20.85,-24.85"
       id="path74" />
    <path
       class="cls-6"
       d="m 300.02,360.56 c 0,0 10.38,15.9 13.84,16.18 3.46,0.28 13.84,-16.2 13.84,-16.2"
       id="path75" />
    <line
       class="cls-6"
       x1="297.94"
       y1="309.48999"
       x2="302.70999"
       y2="355.28"
       id="line75" />
    <line
       class="cls-6"
       x1="329.79001"
       y1="309.32001"
       x2="324.82999"
       y2="355.28"
       id="line76" />
    <path
       class="cls-6"
       d="m 373.39,336.9 c 0,0 6.6,-15.29 17.28,-14.94"
       id="path76" />
    <path
       class="cls-6"
       d="m 208.88,258.48 c 0,0 2.94,20.84 -9.17,34.55"
       id="path77" />
    <path
       class="cls-6"
       d="m 274.08,236.74 c 0,0 -21.16,2.4 -32.1,-0.99 -0.63,-0.2 -1.22,0.38 -1.07,1.02 0.89,3.71 5.9,13.63 33.84,18.81"
       id="path78" />
    <path
       class="cls-6"
       d="m 275.71,261.19 c 0,0 -36.04,-6.41 -34.83,-24.76"
       id="path79" />
    <path
       class="cls-6"
       d="m 275.71,266.38 c 0,0 -34.12,-5.13 -37.35,-22.91 -0.04,-0.23 0.23,-0.39 0.41,-0.24 0.71,0.59 2.1,1.51 3.86,1.55"
       id="path80" />
    <path
       class="cls-6"
       d="m 276.65,269.68 -2.57,-32.46 c -0.09,-1.17 0.47,-2.35 1.52,-2.88 0.48,-0.24 1.06,-0.35 1.76,-0.18 1.23,0.3 2.08,1.43 2.2,2.7 l 2.6,27.82"
       id="path81" />
    <path
       class="cls-6"
       d="m 330.82,230.14 c 16.82,-2.98 14.81,4.8 14.81,4.8 -2.6,6.5 -22.41,19.35 -29.89,24.02 -1.71,1.07 -3.88,0.98 -5.5,-0.22 L 280.43,236.7"
       id="path82" />
    <path
       class="cls-6"
       d="m 345.47,235.3 c 0,0 -27.98,19.61 -32.28,18.88 -3.69,-0.62 -25.15,-13.04 -31.17,-16.56 -1.36,-0.79 -2.35,-2.13 -2.56,-3.69 -0.34,-2.55 2.18,-8.06 14,-3.51"
       id="path83" />
    <path
       d="m 294.72,228.66 c 3.37,0 14.14,5.96 18,8.26 0.16,0.09 0.33,0.14 0.51,0.14 0.17,0 0.33,-0.04 0.48,-0.12 l 14.96,-8.21 c 0.06,0 0.13,0 0.21,0 0.58,0 1.04,0.14 1.21,0.37 0.13,0.17 0.16,0.47 0.1,0.87 l -16.77,9.95 -19.68,-9.97 c -0.09,-0.15 -0.2,-0.4 -0.16,-0.58 0.05,-0.21 0.33,-0.44 0.77,-0.64 0.02,0 0.12,-0.05 0.37,-0.05 m 0,-1.02 c -0.31,0 -0.58,0.04 -0.78,0.13 -2.44,1.09 -0.87,2.92 -0.87,2.92 l 20.39,10.32 17.61,-10.45 c 0.71,-2.56 -1.22,-2.87 -2.19,-2.87 -0.31,0 -0.52,0.03 -0.52,0.03 l -15.14,8.31 c 0,0 -14.13,-8.4 -18.51,-8.4 v 0 z"
       id="path84" />
    <line
       class="cls-6"
       x1="298.42999"
       y1="212.11"
       x2="298.42999"
       y2="228.57001"
       id="line84" />
    <line
       class="cls-6"
       x1="327.60999"
       y1="214.35001"
       x2="327.60999"
       y2="228.17"
       id="line85" />
    <path
       class="cls-6"
       d="m 416.14,399.37 c 0,0 0.28,16 8.83,21.27 4.12,2.54 6.85,3.81 8.56,4.44 1,0.37 1.89,-0.72 1.35,-1.63 -0.93,-1.58 -2.43,-3.76 -4.59,-5.82 -4.02,-3.83 -3.82,-12.73 2.77,-11.75 6.59,0.97 19.76,7.16 19.76,7.16 0,0 5.59,1.79 0.78,-3.42 -6.56,-7.1 -28.01,-12.94 -28.01,-12.94"
       id="path85" />
    <path
       class="cls-6"
       d="m 443.5,409.06 c 0,0 5.31,2.13 5.82,8.13 l 0.57,13.28 c 0,0.95 -0.7,1.77 -1.64,1.89 -1.62,0.2 -3.71,-1.76 -3.21,-8.08 0.96,-12.02 -10.02,-17.93 -10.02,-17.93"
       id="path86" />
    <path
       class="cls-6"
       d="m 427.63,411.45 c 0,0 6.76,-3.54 14.92,7.97 0.52,0.73 0.77,1.62 0.69,2.51 -0.24,2.73 0.55,8.63 2.87,9.27"
       id="path87" />
    <path
       class="cls-6"
       d="m 428.13,411.7 c 0,0 8.78,3.56 11.8,11.8 3.02,8.24 4.3,6.97 3.93,4.36"
       id="path88" />
    <path
       class="cls-6"
       d="m 161.63,205.75 0.63,16.67 c 0.09,2.28 -1.68,4.21 -3.97,4.32 l -23.73,1.1 c -1.86,0.09 -3.44,-1.37 -3.5,-3.23 l -0.29,-5.8"
       id="path89" />
    <path
       class="cls-6"
       d="m 129.93,190.53 -0.63,-18.9 c -0.07,-2.1 1.61,-3.83 3.71,-3.83 h 23.79 c 1.89,0 3.45,1.5 3.52,3.39 l 1.03,23.57"
       id="path90" />
    <path
       class="cls-6"
       d="m 238.58,246.44 -29.71,12.04 c 0,0 -3.02,-11.32 -20.77,-17.5 -2.32,-0.81 -4.59,-1.74 -6.75,-2.9 -6.04,-3.24 -17.16,-9.79 -17.69,-14.23 0,0 0.31,-3.83 2.55,-14.18 2.45,-11.33 -5.29,-14.64 -5.29,-14.64 0,0 -9.19,-2.33 -1.87,6.79 0,0 2.52,2.41 2.6,4.41"
       id="path91" />
    <path
       class="cls-6"
       d="m 283.51,176.92 c 0,0 -0.89,-2.22 -3.33,-4.22 -5.25,-4.3 -14.38,-11.27 -13.88,-10.36 3.8,7 12.39,19.92 16.55,25.51 0,0 4.11,9.11 6.02,9.46 0,0 0.46,0.35 0.87,-1.61 0,0 2.03,9.74 4.16,11.58 0,0 6.23,7.37 11.95,10.95 5.72,3.58 4.56,3.46 8,3.87"
       id="path92" />
    <path
       d="m 296.82,170.96 c 2.54,0.39 5.79,1.51 9.69,3.35 0.27,0.13 0.45,0.21 0.53,0.24 0.15,0.06 0.31,0.09 0.47,0.1 v 0.62 c -2.42,-0.57 -8.63,-2.83 -9.42,-3.52 -0.29,-0.27 -0.74,-0.54 -1.26,-0.79 m -1.85,-1.15 c -1.05,0 -2.01,0.16 -2.8,0.56 0,0 4.18,1.14 5.22,2.11 0.98,0.91 9.4,3.91 10.9,3.91 0.1,0 0.17,-0.01 0.21,-0.04 v -3.54 c 0,0 -0.39,0.84 -0.92,0.84 -0.06,0 -0.12,-0.01 -0.19,-0.04 -0.51,-0.2 -7.48,-3.81 -12.42,-3.81 v 0 z"
       id="path93" />
    <path
       class="cls-6"
       d="m 302.28,184.26 c 0,0 -5.06,0.25 -7.68,-1.88 -2.61,-2.13 -3.19,-3.26 -3.98,-3.23 -0.79,0.03 12.27,-4.5 15.64,3.79 0,0 -1.3,-8.09 -13.37,-5.46"
       id="path94" />
    <path
       class="cls-6"
       d="m 283.07,184.26 c 0,0 -2.01,-5.26 -1.78,-6.78"
       id="path95" />
    <path
       class="cls-6"
       d="m 285.6,189.37 2.58,2.11 -1.39,-2.67 -1.42,-1.57 c 0,0 3.7,0.46 -0.52,-6.42"
       id="path96" />
    <path
       class="cls-6"
       d="m 338.85,197.28 c 0,0 -0.46,0.35 -0.87,-1.61 0,0 -2.03,9.74 -4.16,11.58 0,0 -6.23,7.37 -11.95,10.95 -5.72,3.58 -4.56,3.46 -8,3.87"
       id="path97" />
    <path
       d="m 330.89,170.93 c -0.52,0.25 -0.97,0.52 -1.26,0.79 -0.8,0.68 -7,2.95 -9.43,3.52 v -0.62 c 0.16,0 0.32,-0.04 0.47,-0.1 0.07,-0.03 0.25,-0.11 0.53,-0.24 3.9,-1.84 7.15,-2.97 9.69,-3.35 m 1.85,-1.15 c -4.93,0 -11.91,3.61 -12.42,3.81 -0.06,0.02 -0.13,0.04 -0.19,0.04 -0.53,0 -0.92,-0.84 -0.92,-0.84 v 3.54 c 0,0 0.1,0.04 0.21,0.04 1.5,0 9.92,-3 10.9,-3.91 1.05,-0.97 5.22,-2.11 5.22,-2.11 -0.79,-0.4 -1.75,-0.56 -2.8,-0.56 v 0 z"
       id="path98" />
    <path
       class="cls-6"
       d="m 325.43,184.23 c 0,0 5.06,0.25 7.68,-1.88 2.61,-2.13 3.19,-3.26 3.98,-3.23 0.79,0.03 -12.27,-4.5 -15.64,3.79 0,0 1.3,-8.09 13.37,-5.46"
       id="path99" />
    <path
       class="cls-6"
       d="m 330.47,178.24 c 0,0 1,3.09 0,5.15"
       id="path100" />
    <path
       class="cls-6"
       d="m 325.43,184.23 c 0,0 -2.3,-2 -1.42,-4.61"
       id="path101" />
    <path
       class="cls-6"
       d="m 297.37,178.27 c 0,0 -1,3.09 0,5.15"
       id="path102" />
    <path
       class="cls-6"
       d="m 302.4,184.26 c 0,0 2.3,-2 1.42,-4.61"
       id="path103" />
    <path
       class="cls-6"
       d="m 344.64,184.23 c 0,0 1.79,-4.29 1.55,-5.81"
       id="path104" />
    <path
       class="cls-6"
       d="m 342.12,189.34 -2.58,2.11 1.39,-2.67 1.42,-1.57 c 0,0 -3.7,0.46 0.52,-6.42"
       id="path105" />
    <path
       class="cls-6"
       d="m 315.73,200.03 c 0,0 1.04,-1.47 1.78,-1.44"
       id="path106" />
    <path
       class="cls-6"
       d="m 311.23,199.31 c 0,0 0.41,-1.4 1.83,0.15"
       id="path107" />
    <path
       class="cls-6"
       d="m 305.29,206.81 c 0,0 0.18,0.32 1.18,0.2 1,-0.12 8.84,-2.08 14.86,-0.09 0,0 1.4,0.29 2.29,-0.12"
       id="path108" />
    <path
       class="cls-6"
       d="m 309.82,205.14 c 0,0 3.66,-3.19 8.54,-0.23"
       id="path109" />
    <path
       class="cls-6"
       d="m 311.06,209.35 c 0,0 3.06,3.05 7.09,-0.1"
       id="path110" />
    <path
       class="cls-6"
       d="m 282.17,174.74 c 0,0 -2.53,-7.14 -6.24,-12.11 -0.39,-0.52 -0.59,-1.15 -0.52,-1.8 0.2,-1.99 0.53,-6.56 -0.34,-9.56 -1.14,-3.93 4.45,-14.14 9,-13.56 0,0 0.96,-5.35 7.33,-5.55 0,0 6.51,-14.38 23.49,-9.33 0,0 36.37,-0.42 34.83,39.99"
       id="path111" />
    <path
       class="cls-6"
       d="m 343.28,159.15 c 0,0 10.32,13.16 16.64,-4.3 0.08,-0.21 0.39,-0.15 0.37,0.07 -0.41,4.38 -2.49,17.17 -12.79,16.22 -12.41,-1.14 -15.58,-7.67 -15.58,-7.67"
       id="path112" />
    <path
       class="cls-6"
       d="m 349.77,171.2 c 0,0 3.85,6.38 9.63,2.2 0.18,-0.13 0.38,0.1 0.24,0.26 -3.08,3.34 -11.92,10.24 -24.36,-2.73 0,0 -3.23,-4.7 -3.38,-3.07 -0.06,0.67 -0.95,0.88 -1.4,0.38 -1.91,-2.15 -5.15,-7.99 -8.17,-23.85"
       id="path113" />
    <path
       class="cls-6"
       d="m 287.07,177.48 c 0,0 -0.73,-5.66 1.52,-8.44 2.25,-2.78 0.37,-6.89 0.37,-6.89 0,0 6.01,-8.8 9,-9.11 2.99,-0.31 4.11,-3.33 4.11,-3.33 0,0 18.86,2.18 21.55,6.25"
       id="path114" />
    <path
       class="cls-6"
       d="m 279.94,183.78 c 0,0 -1.82,7.69 -5.76,16.8 -1.9,4.41 -6.22,21.37 9.17,23.84 0.25,0.04 0.37,-0.29 0.16,-0.41 -3.44,-1.93 -13.2,-8.69 -6.14,-20.18 0.19,-0.31 0.66,-0.15 0.63,0.2 -0.48,5.15 0.74,22.39 20.44,21.99"
       id="path115" />
    <path
       class="cls-6"
       d="m 350.36,180.35 c 0,0 10.03,5.77 10.92,22.93 0.43,8.32 -4.49,16.47 -9.86,19.86 -0.5,0.32 -1.09,-0.26 -0.78,-0.77 2.08,-3.45 6.28,-11.48 5.76,-19.32 -0.04,-0.54 -0.78,-0.68 -1.01,-0.18 -2.11,4.52 -8.22,16.66 -15.44,22.18 -0.54,0.41 -1.27,-0.13 -1.07,-0.78 0.27,-0.89 0.39,-1.99 0.09,-3.26 0,0 -6.38,5.84 -11.24,4.29"
       id="path116" />
    <path
       class="cls-6"
       d="m 287.7,138.01 c 0,0 9.6,4.17 20.8,1.48 11.2,-2.69 12.87,2.02 12.87,2.02"
       id="path117" />
    <g
       id="g121">
      <path
         class="cls-6"
         d="m 369.89,397.49 c 1.3,12.31 -3.97,90.86 -7.11,101.63 -3.14,10.77 -1.52,57.86 2.56,63.09 6.74,8.64 -1.02,62.2 -7.05,74.43 -6.04,12.23 0.96,57.78 2.85,66.57 0.65,3.01 0.93,5.24 1.02,6.87 0.12,2.18 -1.67,3.98 -3.84,3.91 l -20.46,-0.67 c -8.53,3.74 -7.14,-3.94 -7.14,-3.94 l 8.33,-49.97 c 0,0 -2.56,-35.81 -9,-46.04 -4.39,-6.98 -1.59,-33.92 0.64,-50.34 1.09,-8.04 0.7,-16.21 -1.24,-24.09 -9.41,-38.31 -15.26,-112.21 -15.26,-112.21 l -12.97,107.39 c 0,0 -0.96,6.33 -2.36,11.6 -1.42,5.34 -1.69,10.92 -0.7,16.36 2.02,11.16 4.24,29.7 0.17,43.26 -6.21,20.7 -10.57,52.09 -10.57,52.09 l 6.1,50.88 c 0.19,1.6 -0.75,3.12 -2.27,3.64 -3.32,1.14 -9.16,2.64 -13.44,1.01 -4.02,-1.53 -9.66,-1.92 -13.24,-2.01 -1.77,-0.04 -3.03,-1.71 -2.6,-3.42 1.26,-4.95 3.78,-13.86 6.22,-17.04 3.45,-4.49 2.03,-50.88 2.03,-50.88 0,0 -9.48,-51.86 -9.62,-53 -0.41,-3.24 -2.4,-10.12 2.46,-25.97 4.86,-15.85 10.45,-35.02 3.46,-60.26 -7,-25.24 -10.51,-73.14 -10.51,-73.14 l -0.68,-28.41"
         id="path118" />
      <path
         class="cls-6"
         d="m 263.4,560.64 16.01,23.16 c 1,1.44 3.08,1.59 4.27,0.3 l 15.37,-16.61"
         id="path119" />
      <polyline
         class="cls-6"
         points="329.78 570.23 346.78 588.93 365.34 562.21"
         id="polyline119" />
      <path
         class="cls-6"
         d="m 337.59,668.22 c 0,0 9.46,-11.32 18.91,0"
         id="path120" />
      <path
         class="cls-6"
         d="m 271.22,668.98 c 0,0 8.99,-13.28 17.97,0.33"
         id="path121" />
    </g>
    <ellipse
       class="cls-6"
       cx="313.5"
       cy="247.28999"
       rx="3.5599999"
       ry="6.25"
       id="ellipse121" />
    <path
       class="cls-6"
       d="m 351.83,178.27 c -1.55,2.26 -5.87,8.1 -6.97,9.58 0,0 -4.11,9.11 -6.02,9.46"
       id="path122" />
    <path
       class="cls-6"
       d="m 358,164.2 c 1.88,-1.38 3.6,-2.21 3.41,-1.86 -1.45,2.67 -4.81,8.68 -7.14,12.33"
       id="path123" />
    <path
       class="cls-6"
       d="m 163.66,223.84 c -0.23,1.9 -2.32,2.63 -3.98,2.74"
       id="path124" />
    <path
       class="cls-6"
       d="m 126.87,214.83 c 0.59,-1.09 2.56,-2.33 4.19,-3.2 1.63,-0.87 3.33,-0.96 5.07,-1.25 6.09,-1.04 9.09,2.27 5.36,3.8 -3.53,1.44 -11.81,5.12 -11.81,5.12"
       id="path125" />
    <path
       class="cls-6"
       d="m 137.14,210.18 c 0,0 9.25,-1.13 5.74,-4.55 -0.51,-0.49 -1.13,-0.85 -1.81,-1.07 -2.06,-0.69 -7.43,-1.89 -14.39,1.17 -0.95,0.42 -1.71,1.2 -2.05,2.18 -0.98,2.82 2.06,4.04 4.68,4.76"
       id="path126" />
    <path
       class="cls-6"
       d="m 138.22,203.9 c 0,0 8.57,-3.4 -0.39,-5.78 -6.64,-1.77 -11.15,0.18 -13.03,1.31 -0.94,0.56 -1.67,1.48 -1.85,2.56 -0.18,1.08 0.92,3.11 2.89,4.23"
       id="path127" />
    <path
       class="cls-6"
       d="m 132.88,197.41 c 0,0 10.28,-4.31 3.91,-6.33 -5.01,-1.59 -10.88,0.67 -13.15,1.71 -0.95,0.43 -1.74,1.18 -2.13,2.15 -0.48,1.18 0.37,3.4 2.67,4.9"
       id="path128" />
    <path
       class="cls-6"
       d="m 126.87,214.83 c 0,0 -2.43,4.46 2.81,4.46"
       id="path129" />
  </g>
</svg>
