<?xml version="1.0" encoding="UTF-8" standalone="no"?>
<svg
   id="ombres_noires"
   data-name="ombres noires"
   viewBox="0 0 333.99998 458.99998"
   version="1.1"
   sodipodi:docname="hero_m_blue.svg"
   width="334"
   height="459"
   inkscape:version="1.4 (e7c3feb1, 2024-10-09)"
   xmlns:inkscape="http://www.inkscape.org/namespaces/inkscape"
   xmlns:sodipodi="http://sodipodi.sourceforge.net/DTD/sodipodi-0.dtd"
   xmlns="http://www.w3.org/2000/svg"
   xmlns:svg="http://www.w3.org/2000/svg">
  <sodipodi:namedview
     id="namedview139"
     pagecolor="#ffffff"
     bordercolor="#000000"
     borderopacity="0.25"
     inkscape:showpageshadow="2"
     inkscape:pageopacity="0.0"
     inkscape:pagecheckerboard="0"
     inkscape:deskcolor="#d1d1d1"
     inkscape:zoom="0.69880012"
     inkscape:cx="297.65307"
     inkscape:cy="415.71258"
     inkscape:window-width="1512"
     inkscape:window-height="916"
     inkscape:window-x="0"
     inkscape:window-y="38"
     inkscape:window-maximized="1"
     inkscape:current-layer="ombres_noires" />
  <defs
     id="defs1">
    <style
       id="style1">
      .cls-1 {
        fill: #6a6257;
      }

      .cls-2 {
        fill: #74a9d5;
      }

      .cls-3 {
        fill: #1e2a4f;
      }

      .cls-4 {
        fill: #868dc5;
      }

      .cls-5 {
        fill: #3b1715;
      }

      .cls-6 {
        fill: none;
        stroke: #000;
        stroke-linecap: round;
        stroke-linejoin: round;
      }

      .cls-7 {
        fill: #8b5127;
      }

      .cls-8 {
        fill: #2f4077;
      }

      .cls-9 {
        fill: #465f9e;
      }
    </style>
  </defs>
  <path
     class="cls-4"
     d="m 254.96039,66.767368 c 0,0 13.03,1.94 22.34,-14.66 0,0 -25.36,-6.24 -55.18,3.21 0,0 -12.13,0.13 -16.54,6.83 -1.02,1.55 -1.59,2.51 -1.9,3.08 -0.03,0 -0.05,-0.01 -0.09,0 -0.99,0.17 -1.83,6.83 -6.26,14.61 -4.66,8.18 -9.98,15.49 -11.54,17.59 -0.55,-0.06 -3.69,1.04 -15.83,6.790002 l -26.69,-22.780002 -0.63,0.5 c -0.03,-0.12 -0.06,-0.24 -0.1,-0.35 -0.03,-0.08 -0.05,-0.16 -0.08,-0.24 0,-0.02 0,-0.02 0,-0.05 -0.03,-0.23 -0.03,-0.46 -0.07,-0.68 -0.04,-0.27 -0.1,-0.56 -0.17,-0.84 0.06,-0.25 0.04,-0.55 0.04,-0.79 0,-0.32 0.02,-0.65 -0.01,-0.97 -0.03,-0.29 -0.13,-0.57 -0.13,-0.87 0,-0.28 -0.02,-0.53 -0.05,-0.8 -0.02,-0.13 0,-0.25 -0.02,-0.38 -0.03,-0.15 -0.11,-0.27 -0.15,-0.41 -0.12,-0.38 -0.16,-0.81 -0.45,-1.1 -0.01,-0.24 -0.03,-0.48 -0.14,-0.68 -0.16,-0.3 -0.48,-0.41 -0.8,-0.34 -0.28,0.06 -0.59,0.12 -0.86,0.22 -0.16,0.06 -0.28,0.13 -0.46,0.12 -0.19,0 -0.38,0 -0.57,0 -0.31,0 -0.46,0.23 -0.48,0.47 -0.47,0.04 -0.85,0.2 -1.21,0.4 -0.55,-0.1 -1.12,-0.02 -1.57,0.32 -0.74,0.56 -1.68,0.89 -2.5,1.33 -0.2,0.11 -0.36,0.25 -0.52,0.4 -0.22,0.05 -0.44,0.1 -0.65,0.16 -1.26,0.35 -2.11,0.71 -3.29,1.57 -0.97,0.71 -1.84,1.26 -2.74,1.93 -0.39,0.22 -0.74,0.46 -1.16,0.75 -0.34,0.23 -0.8,0.48 -1.23,0.84 -0.76,0.63 -1.58,1.17 -2.38,1.75 -0.42,0.3 -0.88,0.53 -1.33,0.78 -0.15,0.08 -0.3,0.15 -0.45,0.23 -0.09,0.04 -0.32,0.15 -0.4,0.18 -1.13,0.49 -2.65,1.05 -3.23,2.21 -0.45,0.14 -0.92,0.22 -1.36,0.41 -0.69,0.28 -1.31,0.61 -1.89,1.09 -0.42,0.35 -0.56,0.39 -1.05,0.88 -0.13,0.13 -0.25,0.27 -0.37,0.4 0,0 -0.38,0.37 -0.34,0.37 -0.32,0.2 -0.94,0.4 -1.34,0.62 -0.37,0.21 -0.67,0.41 -1.01,0.69 -0.04,0.03 -0.39,0.3 -0.4,0.31 -0.17,0.11 -0.47,0.31 -0.52,0.35 -0.09,0.06 -0.13,0.09 -0.15,0.1 -0.04,0.01 -0.12,0.04 -0.28,0.1 -1.09,0.45 -1.81,0.78 -2.93,1.62 0,0 -0.02,0 -0.05,0.02 -0.28,0.15 -0.49,0.35 -0.69,0.57 -0.03,0 -0.06,-0.01 -0.1,-0.01 -0.29,0.04 -0.59,0.04 -0.87,0.13 -0.28,0.09 -0.56,0.22 -0.82,0.35 -0.12,0.06 -0.24,0.13 -0.36,0.2 -0.05,0.02 -0.1,0.03 -0.15,0.06 -0.28,0.12 -0.32,0.13 -0.48,0.25 -0.28,0.2 -0.629998,0.31 -0.939998,0.47 -0.28,0.15 -0.56,0.3 -0.85,0.44 -0.17,0.07 -0.34,0.15 -0.5,0.23 -0.43,0.12 -0.85,0.36 -1.14,0.64 0,0 0,0.01 -0.01,0.02 -0.47,0.04 -0.94,0.09 -1.41,0.14 -0.48,0.38 -0.97,0.75 -1.51,1.07 -1.25,0.75 -2.46,0.89 -3.54,0.62 -2.78,1.160002 -5.58,2.870002 -8.05,4.050002 -3.31,1.59 -6.33,3.68 -9.57,5.39 l -0.3,0.31 c -0.33,0.42 -0.69,0.73 -1.05,0.99 -0.18,0.3 -0.39,0.59 -0.65,0.88 -2.49,2.77 -5.71,4.78 -8.34,7.4 -0.34,0.34 -0.7,0.61 -1.06,0.83 -0.24,0.42 -0.47,0.82 -0.7,1.12 -0.73,0.98 -1.49,1.76 -2.34,2.43 -0.18,0.38 -0.41,0.75 -0.71,1.11 -0.13,0.16 -0.28,0.3 -0.41,0.45 -0.16,0.2 -0.33,0.39 -0.51,0.56 -3.46,3.67 -8.25,6.23 -12.24,9.21 -2.51,1.87 -4.56,4.17 -6.91,6.22 -0.73,0.63 -1.94,1.27 -3.01,1.96 -0.67,0.59 -1.33,1.19 -2,1.78 -0.61,0.93 -1.38,1.54 -2.22,1.88 -0.38,0.32 -0.76,0.65 -1.15,0.97 -2.4,1.95 -4.49,4.62 -7.2,5.96 -0.41,0.38 -0.83,0.74 -1.27,1.09 -1.45,1.68 -2.85,3.39 -4.18,5.13 -0.15,-0.01 -0.3,0 -0.44,0.08 -0.48,0.24 -0.76,0.83 -0.97,1.42 -0.24,-0.03 -0.47,-0.03 -0.65,0 -0.97,0.12 -1.54,1.42 -1.51,2.29 0,0.06 0.02,0.11 0.04,0.16 -0.7,0.51 -1.27,1.22 -1.75,1.94 -0.29,0.44 -0.46,0.92 -0.69,1.39 -0.24,0.49 -0.51,0.91 -0.8100001,1.37 -0.3,0.46 -0.55,0.98 -0.83,1.46 -0.32,0.56 -0.35,1.11 -0.46,1.72 -0.05,0.27 0.1,0.46 0.29,0.56 -1.06,2.19 -1.95,4.39 -2.64,6.6 0.17,0.49 0.29,1.05 0.26,1.65 -0.29,6.13 0.6,9.51 1.4,14.45 0.73,4.49 2.05,8.32 3.6800001,12.36 0.37,0.44 0.75,0.88 1.15,1.32 0,0 0.31,-1.03 0.8,-2.71 0.12,-0.02 0.24,-0.09 0.31,-0.24 0.5,-0.96 1.17,-1.79 1.52,-2.83 0.35,-1 0.64,-2.01 0.92,-3.03 0.14,-0.51 0.19,-1.01 0.3,-1.52 0.1,-0.47 0.32,-0.92 0.43,-1.39 0.11,-0.48 0.1,-1.01 0.17,-1.5 0.07,-0.56 0.22,-1.11 0.3,-1.66 0.32,-2.2 0.78,-4.41 1.14,-6.62 0.1,-0.58 0.1,-1.17 0.23,-1.74 0.11,-0.46 0.18,-0.87 0.18,-1.35 0,-1.27 0,-2.54 0,-3.81 0,-0.15 -0.06,-0.26 -0.14,-0.34 0.09,-0.05 0.18,-0.1 0.28,-0.14 0,0 0,0 0,0 0.03,-0.01 0.06,-0.02 0.09,-0.04 0.32,-0.12 0.67,-0.24 0.98,-0.42 1.9,1.33 5.36,3.7 9.37,6.24 0.1,0.68 0.64,0.89 1.14,1.28 0.68,0.53 1.46,0.95 2.21,1.38 1.53,0.87 3.17,1.44 4.66,2.4 0.36,0.23 0.74,0.43 1.12,0.61 0.36,0.17 0.67,0.41 1.03,0.58 0.76,0.36 1.46,0.95 2.27,1.2 0.41,0.13 0.66,0.36 1.03,0.54 0.4,0.2 0.85,0.3 1.26,0.49 0.31,0.15 0.63,0.19 0.92,0.37 0.36,0.22 0.75,0.38 1.15,0.52 0.89,0.32 1.74,0.71 2.65,0.94 0.41,0.1 0.8,0.33 1.22,0.38 0.46,0.06 0.96,0 1.41,-0.11 0.29,-0.06 0.38,-0.31 0.34,-0.53 0.47,-0.06 0.87,-0.18 1.21,-0.38 0,0 -0.63,-13.51 -3.25,-17.9 0,0 21.73,0.65 38.32,-17.53 0,0 21.019998,22.67 20.339998,27.09 -0.68,4.4 38.07,71.1 86.78,11.86 0,-0.03 0,-0.06 0,-0.09 -0.12,-0.44 -0.12,-0.89 0,-1.33 0.03,-0.67 0.23,-1.29 0.59,-1.86 0.26,-0.34 0.52,-0.67 0.78,-1.01 0.11,-0.1 0.23,-0.18 0.35,-0.27 l 2.73,-9.98 c 0,0 10.45,-0.61 19.84,-15.08 -0.25,0.57 0.59,1.06 0.87,0.48 0.99,-2.05 2.1,-4.02 3.08,-6.07 0.5,-1.04 0.96,-2.06 1.37,-3.14 0.4,-1.05 0.98,-2.03 1.28,-3.12 0.13,-0.46 0.17,-0.93 0.35,-1.38 0.19,-0.49 0.45,-0.96 0.69,-1.44 0.54,-1.1 1.05,-2.24 1.5,-3.38 0.37,-0.93 0.82,-2 0.83,-3 0,-0.3 0.02,-0.6 0.02,-0.9 0.29,0.08 0.65,-0.07 0.65,-0.46 v -2.59 c 0,-0.37 0,-0.75 -0.01,-1.12 -0.01,-0.27 -0.04,-0.52 0.11,-0.71 0.15,-0.2 0.05,-0.5 -0.13,-0.64 0.65,-2.93 1.24,-6.05 1.74,-9.41 0,0 14.16,-14.08 14.32,-42.020002 l 23.47,-2.43 13.53,-5.24 c 0,0 -3.46,-7.42 -28.33,-14.86 z"
     id="path1" />
  <path
     class="cls-8"
     d="m 189.90039,319.09737 -19.58,12.43 c 0,0 -10.72,6.78 -18.2,-8.45 v 1.89 c 0,0 6.48,37.68 -4.24,46.87 -10.62,9.11 -9.72,10.36 -8.25,17.33 0.02,0.05 0.03,0.1 0.05,0.15 0.41,0.32 0.77,0.7 1.03,1.18 0.37,0.57 0.56,1.19 0.59,1.86 0.08,0.35 0.1,0.7 0.08,1.05 0.13,0.74 0.11,1.48 -0.09,2.22 -0.02,0.04 -0.03,0.08 -0.05,0.12 0.28,1.1 0.49,2.22 0.48,3.41 0,0.94 -0.15,1.84 -0.35,2.73 0.12,0.54 0.12,1.09 0,1.63 -0.02,0.43 -0.12,0.84 -0.28,1.24 -0.06,0.32 -0.17,0.62 -0.29,0.93 -0.05,0.77 -0.23,1.44 -0.53,2 -0.73,3.82 -2.14,7.79 -4.65,11.67 0,0.02 0,0.04 0,0.06 0.14,0.61 0.12,1.22 -0.05,1.82 -0.02,0.85 -0.24,1.65 -0.67,2.39 l -0.02,0.02 4.23,15.38 c 0.98,0.8 1.66,2.02 1.71,3.64 0.06,1.97 1.4,3.9 1.95,5.78 0.06,0.22 0.12,0.44 0.17,0.66 0.8,0.59 1.42,1.46 1.66,2.7 0.04,0.23 0.08,0.46 0.12,0.69 1.83,2.31 4.27,4.3 7.23,4.15 1.97,-1.1 3.79,-2.29 5.89,-3.06 0.53,-0.51 1.07,-1.08 1.62,-1.75 1.33,-1.62 2.5,-3.18 3.54,-4.68 -0.02,-1.14 0.48,-2.31 1.71,-3.29 0.02,-0.01 0.03,-0.03 0.04,-0.04 0.61,-2.41 1.18,-4.84 2.11,-7.15 0.6,-1.5 2.18,-3.36 2.25,-4.97 0.05,-1.09 0.38,-2 0.89,-2.72 0.01,-1.57 0.12,-3.12 0.25,-4.7 l -5.54,-38.53 c 0,0 12.97,-17.77 21.65,-31.33 0.13,-0.52 0.37,-1.05 0.73,-1.59 2.71,-3.99 4.38,-8.52 6.65,-12.75 l -3.87,-21 z"
     id="path2" />
  <path
     class="cls-8"
     d="m 194.57039,197.53737 c 0,0 1.22,5.14 0.06,8 -1.16,2.86 -44.28,43.78 -44.28,43.78 0,0 -14.26,1.25 -48.44,-44.67 l 6.66,-18.68 c 0,0 22.88,37.63 39.95,35.92 17.07,-1.71 22.66,1.7 46.05,-24.35 z"
     id="path3" />
  <path
     class="cls-8"
     d="m 74.330392,232.83737 c -1.08,-0.82 -2.2,-1.52 -3.4,-2.13 -0.1,-0.05 -0.17,-0.08 -0.24,-0.11 -0.31,-0.12 -0.62,-0.23 -0.93,-0.33 -0.43,-0.14 -0.87,-0.26 -1.3,-0.37 l -16.11,-2.58 0.8,-33.01 c -4.14,3.78 -24.87,-10.19 -32.08,-15.26 -1,-0.7 -2.5,-0.02 -2.43,1.2 0.57,10.09 -5.98,27.47 -5.98,27.47 l 28.34,28.8 c -1.85,5.7 -0.36,11.35 2.2,16.44 0.21,0.22 0.4,0.45 0.59,0.69 1.39,1.89 2.49,4.01 3.62,6.1 2.74,2.21 5.06,5.23 6.06,8.45 0.98,1.05 2.05,1.54 3.14,1.65 0.5,-0.3 1.1,-0.52 1.83,-0.62 2.47,-0.35 4.17,-3.12 6.77,-3.83 0.96,-0.26 3.21,-0.41 3.4,-0.51 1.06,-0.56 2.31,-2.07 3.06,-2.96 3.94,-4.66 5.97,-10.6 8.49,-16.11 0.62,-4.24 -3.29,-9.88 -5.8,-13 z"
     id="path4" />
  <path
     class="cls-8"
     d="m 325.95039,83.447368 c 0,0 0.09,-0.07 0.13,-0.09 1.44,-0.78 3.57,-1.94 4.38,-3.03 0.62,-0.82 1.35,-2.08 2.12,-3.23 0,-0.05 0.03,-0.09 0.04,-0.13 0.26,-1.22 0.35,-2.4 0.37,-3.35 0.02,0.66 0.05,1.43 0.07,2.2 0,0 0.01,-0.02 0.02,-0.03 -0.02,-0.78 -0.05,-1.66 -0.08,-2.68 0,-0.43 -0.02,-0.78 -0.03,-1.04 -0.01,-0.38 -0.02,-0.77 -0.04,-1.19 -0.66,-20.97 -13.38,-15.61 -13.38,-15.61 -23.91,9.21 -42.25,-3.16 -42.25,-3.16 -0.13,0.15 -0.25,0.29 -0.37,0.43 -11.04,12.8 -15.86,15.06 -17.78,15.23 15.93,3.72 24.14,15.13 24.14,13.86 0,-0.62 5.32,-1.39 10.87,-2.02 0.56,-0.46 1.59,-0.5 2.34,-0.81 2.1,-0.89 4.06,-0.76 6.26,-0.72 0.74,0.01 1.43,0.18 2.05,0.47 1.07,-0.1 1.72,-0.15 1.72,-0.15 13.79,18.72 16.29,4.77 16.29,4.77 1.18,0.26 2.21,0.34 3.14,0.29 z"
     id="path5" />
  <path
     class="cls-4"
     d="m 101.90039,204.65737 c -0.04,0.05 -0.08,0.12 -0.12,0.18 -0.06,0.46 -0.19,0.91 -0.39,1.36 0,1.29 -0.02,2.59 -0.44,3.83 -0.24,0.71 -0.61,1.33 -1.059998,1.86 -0.08,1.04 -0.15,2.01 -0.27,2.62 -0.62,3.2 -1.19,6.44 -2.04,9.6 -2.61,27.38 -0.01,72.73 15.409998,74.38 20.79,2.22 37.33,-49.17 37.33,-49.17 -12.18,2.59 -48.44,-44.67 -48.44,-44.67 z"
     id="path6" />
  <path
     class="cls-4"
     d="m 194.62039,205.53737 -44.28,43.78 c 0,0 1.88,13.2 6.41,26.79 1.89,2.28 2.82,5.34 3.83,8.1 1.04,2.82 3.08,6.06 4.72,9.45 0.96,0.84 1.94,2.02 2.07,3.29 0.64,0.83 0.85,1.65 1.53,2.38 l -16.76,18.45 c 0.03,0.55 0,1.1 -0.12,1.65 -0.12,0.57 -0.31,1.12 -0.54,1.66 1.68,5.27 7.74,18.46 24.24,7.17 l 14.18,-9.15 4,20.57 c 0,0 9.9,-15.74 8.28,-32.51 0,0 21.99,-57.02 -7.56,-101.62 z"
     id="path7" />
  <path
     class="cls-7"
     d="m 200.86039,52.397368 c -0.38,0.3 -0.62,0.51 -0.62,0.51 l 0.11,7.77 -7.73,10.73 -16.85,-1.09 c -0.41,-0.7 -0.13,-1.31 -0.53,-1.79 0.11,-0.12 -0.53,-0.26 -0.56,-0.44 -0.1,-0.67 -0.82,-1.4 -1.48,-1.47 -0.36,-0.04 -0.74,0.01 -1.11,0.01 l -0.12,-0.46 c -0.52,-0.12 -1.12,-0.19 -1.6,-0.09 -0.4,0 -0.87,0.52 -1.26,0.56 -0.45,0.04 -0.81,0.22 -1.2,0.43 -0.37,0.2 -0.64,0.43 -0.89,0.78 -0.22,0.31 -0.52,0.75 -0.53,1.13 0,0.16 0.05,0.28 0.14,0.36 -0.39,0.5 -0.6,0.87 -0.6,0.87 l -16.65,0.88 -7.69,-10.47 -0.24,-8.5 c 0,0 -0.15,-0.07 -0.41,-0.16 -8.01,-3.97 -5.32,2.38 -5.32,3.44 1.89,5.98 7.01,16.54 7.01,16.54 l 2.6,2.78 c 0,0 -0.2,2.11 1.48,7.72 0.87,2.92 6.34,6.31 7.68,10.36 3.92,11.830002 8.17,9.830002 17.12,11.610002 8.95,1.78 13.08,-7.360002 13.08,-7.360002 l 11.27,-15.88 0.36,-8.98 2.46,-0.41 c 0,0 4.4,-5.97 7.14,-15.22 1.74,-10.9 -5.12,-2.63 -5.05,-4.14 z"
     id="path8" />
  <path
     class="cls-5"
     d="m 206.02039,21.147368 c -0.06,0.22 -0.14,0.41 -0.23,0.58 -0.09,0.04 -0.17,0.09 -0.23,0.2 -0.1,0.18 -0.24,0.35 -0.45,0.39 -0.35,0.07 -0.75,0 -1.11,0 -0.18,0 -0.32,-0.07 -0.5,-0.12 -0.09,-0.02 -0.18,-0.02 -0.25,-0.06 -0.26,-0.15 -0.42,-0.49 -0.59,-0.72 -0.09,-0.12 -0.15,-0.18 -0.2,-0.33 -0.06,-0.18 -0.13,-0.35 -0.21,-0.52 -0.16,-0.32 -0.38,-0.6 -0.55,-0.91 -0.16,-0.28 -0.24,-0.62 -0.37,-0.92 -0.06,-0.14 -0.07,-0.2 -0.08,-0.34 0,-0.09 -0.02,-0.18 -0.04,-0.27 0.06,-0.02 0.12,-0.04 0.2,-0.05 4,-0.72 3.93,-5.8 3.93,-5.8 0,0 -0.97,1.8 -1.99,2.62 -0.02,-0.03 -0.04,-0.07 -0.06,-0.1 -0.15,-0.17 -0.37,-0.21 -0.58,-0.23 -0.09,0 -0.18,0 -0.27,-0.02 -0.09,-0.02 -0.18,-0.04 -0.27,-0.05 -0.17,-0.02 -0.33,-0.04 -0.5,-0.04 -0.03,0 -0.06,0.01 -0.09,0.02 -0.05,-0.12 -0.1,-0.24 -0.15,-0.39 -1.04,-3.55 -13.7,-5.6599998 -13.7,-5.6599998 l 5.31,-0.88 -6.45,-1.22 c -3.48,-1.41 -7.48,-1.91 -11.19,-1.96 -0.01,-0.04 -0.02,-0.09 -0.04,-0.13 -0.13,-0.22 -0.46,-0.34 -0.68,-0.18 -0.13,0.09 -0.27,0.09 -0.42,0.11 -0.21,0.02 -0.41,0.06 -0.62,0.12 -0.04,0.01 -0.08,0.02 -0.12,0.02 -0.76,0 -1.52,-0.05 -2.27,-0.01 -0.35,0.02 -0.7,0.06 -1.05,0.08 -0.13,0 -0.25,0.04 -0.37,0.06 -0.04,0 -0.08,0 -0.12,0 -0.11,0 -0.2,0.04 -0.27,0.09 -0.1,0.03 -0.19,0.05 -0.29,0.07 -0.06,0.01 -0.11,0.04 -0.16,0.08 -3.6,0.38 -6.08,0.96 -6.08,0.96 -3.9,0.1 -16.8,6.7199998 -16.8,6.7199998 -6.24,8.86 -9.71,3.23 -9.71,3.23 0.04,3.46 2.32,4.67 3.57,5.08 0,0 0,0.01 0,0.01 0,0.06 0.01,0.12 0.02,0.18 0,0.02 0,0.03 0.01,0.04 0.02,0.05 0.04,0.09 0.06,0.14 0,0 0,0.01 0.01,0.02 0.02,0.04 0.05,0.07 0.08,0.1 -2.22,1.44 -2.62,6.84 -2.37,12.51 0.3,0.59 0.49,1.27 0.54,2.05 0.3,4.62 1.22,9.16 2.63,13.54 0.25,0.78 0.31,1.5 0.23,2.15 h 0.3 l 0.31,-9.27 2.39,0.64 v -12.04 c 0,0 4.76,-2.89 4.76,-2.89 l 4.77,2.38 4.26,6.81 0.57,-0.16 c 0.08,0.17 0.25,0.31 0.45,0.3 0.27,-0.01 0.5,-0.22 0.5,-0.5 0,-0.02 0,-0.04 0,-0.06 l 0.36,-0.1 -0.1,-1.9 c 0,0 0.02,-0.02 0.02,-0.03 0,0 0.04,-0.04 0.04,-0.04 0.01,-0.01 0.01,-0.01 0.02,-0.02 0,0 0,0 0.01,0 0.02,0 0.05,-0.02 0.06,-0.02 0,0 0,0 0,0 0.03,0 0.06,0 0.1,0 0.13,0 0.26,0 0.4,0 0.01,0 0.03,0 0.04,0 l 9.65,7.62 c -0.11,0.46 0.15,0.72 0.53,0.83 0,0 0,0.01 0,0.02 0.13,0.28 0.48,0.3 0.71,0.14 l 0.3,0.24 c 0,0 0.2,-0.21 0.52,-0.55 0.15,-0.07 0.3,-0.15 0.46,-0.26 0.58,-0.39 1.1,-0.87 1.48,-1.45 0.23,-0.35 0.39,-0.75 0.64,-1.08 0,0 0.01,-0.02 0.02,-0.02 0.27,-0.34 0.65,-0.54 1,-0.77 0.63,-0.43 1.07,-0.9 1.53,-1.5 0.2,-0.25 0.36,-0.53 0.59,-0.74 0.35,-0.33 0.74,-0.65 1.11,-0.96 0.27,-0.22 0.61,-0.35 0.86,-0.6 0.27,-0.26 0.5,-0.42 0.84,-0.57 0.29,-0.13 0.64,-0.4 0.94,-0.18 0.27,0.19 0.51,0.74 0.64,1.03 0.21,0.5 0.15,1.31 0.59,1.68 0.48,0.4 1.04,-0.07 1.43,-0.37 0.03,-0.02 0.05,-0.04 0.08,-0.06 0.08,0.15 0.12,0.24 0.12,0.24 l 0.2,-0.51 c 0.28,-0.25 0.48,-0.55 0.37,-0.93 l 1.97,-4.97 6.67,-2.72 4.06,2.38 v 13.19 l 2.62,-2.8 0.59,10.53 c 0.05,-0.27 0.12,-0.55 0.22,-0.84 0.63,-1.76 0.55,-3.3 0.71,-5.13 0.17,-1.96 0.9,-3.71 1.39,-5.59 0,-0.03 0.02,-0.06 0.03,-0.09 0.13,-1.39 0.17,-2.79 0.54,-4.18 0,-0.02 0,-0.03 0.01,-0.04 0.11,-4.7 0.1,-8.55 0.66,-8.77 0.56,-0.21 1.15,-2.06 1.53,-3.76 0.14,-0.13 0.26,-0.29 0.36,-0.46 0.15,-0.25 0.05,-0.49 -0.14,-0.63 0.33,-1.76 0.35,-2.84 -0.26,-0.66 z"
     id="path9" />
  <path
     class="cls-9"
     d="m 195.68039,194.99737 c 0.07,-0.15 0.15,-0.3 0.25,-0.45 0.03,-0.04 0.06,-0.07 0.08,-0.11 0.04,-0.07 0.08,-0.15 0.13,-0.22 1.53,-2.5 2.9,-5.09 4.12,-7.76 0.08,-0.17 0.05,-0.34 -0.02,-0.48 0.41,-0.39 0.71,-0.79 0.76,-1.14 0.07,-0.1 0.14,-0.2 0.22,-0.3 0.23,-0.29 0.13,-0.91 -0.35,-0.85 l -3.57,0.44 c -0.55,-0.31 -1.21,-0.43 -1.85,-0.24 -0.32,0.09 -0.64,0.2 -0.96,0.31 -0.21,-0.06 -0.43,-0.1 -0.64,-0.08 -1.1,0.13 -2.2,0.26 -3.31,0.39 -0.7,-0.02 -1.41,-0.04 -2.11,-0.05 -2.62,-0.05 -5.25,-0.06 -7.87,-0.04 -5.17,0.04 -10.33,0.22 -15.49,0.53 -1.97,0.12 -3.95,0.25 -5.92,0.41 -1.18,-0.03 -2.36,0.03 -3.53,0.12 -0.24,-0.09 -0.5,-0.15 -0.8,-0.15 -6.32,-0.14 -12.65,-0.2 -18.97,-0.19 -1.65,-0.3 -3.29,-0.64 -4.94,-0.89 -0.79,-0.12 -1.6,-0.17 -2.4,-0.13 -0.18,-0.28 -0.44,-0.52 -0.68,-0.76 -0.62,-0.62 -1.26,-1.21 -1.92,-1.8 -0.22,-0.2 -0.46,-0.38 -0.69,-0.58 0.15,-0.2 0.16,-0.51 -0.12,-0.72 -0.63,-0.47 -1.27,-0.94 -1.92,-1.4 -0.14,-0.18 -0.27,-0.37 -0.41,-0.54 -0.87,-1.02 -1.96,-1.83 -3.08,-2.55 -1.14,-0.74 -2.35,-1.56 -3.65,-1.98 -1.37,-0.44 -2.85,-0.22 -4.25,-0.62 -1.39,-0.39 -2.65,-1.11 -3.85,-1.89 -1.05,-0.68 -2.08,-1.39 -3.1,-2.11 0.06,-0.21 0.02,-0.44 -0.22,-0.55 l -1.41,-0.67 c 0,0 -0.09,-0.03 -0.14,-0.03 -0.93,-0.67 -1.86,-1.34 -2.8,-2 -2.849998,-2 -5.799998,-3.82 -8.879998,-5.44 -0.57,-0.3 -1.08,0.56 -0.5,0.86 0.33,0.17 0.66,0.36 0.99,0.54 -0.1,0.07 -0.18,0.16 -0.23,0.27 -0.28,0.72 0.17,1.37 0.65,1.87 0.68,0.71 1.42,1.37 2.16,2.02 0.39,0.35 0.81,0.67 1.21,1.01 0.06,0.63 0.59,1.07 1.06,1.47 0,0 0.02,0.02 0.03,0.02 0.02,0.11 0.04,0.22 0.08,0.33 1.86,4.61 5.129998,8.24 8.409998,11.89 0.17,0.19 0.35,0.38 0.52,0.57 0.2,0.3 0.44,0.58 0.67,0.87 1.23,3.08 3.19,5.75 5.24,8.36 -0.03,0.78 0.32,1.56 1.26,2.03 0.02,0.01 0.04,0.03 0.06,0.04 0.74,1.47 1.57,2.89 2.58,4.2 0.29,0.37 0.59,0.72 0.9,1.06 0.68,0.97 1.43,1.89 2.24,2.74 0.37,0.39 0.75,0.76 1.13,1.13 0.14,0.45 0.33,0.89 0.61,1.3 0.61,0.91 1.51,1.61 2.39,2.28 2.11,2.75 4.57,5.66 7.6,7.46 0.2,0.5 0.4,1 0.7,1.45 1.01,1.5 2.65,2.27 4.43,1.89 0.21,0.16 0.41,0.33 0.63,0.49 1.58,1.16 3.41,1.88 5.21,2.61 4.38,1.79 8.89,3.48 13.7,3.3 0.45,-0.02 0.83,-0.14 1.15,-0.31 1.12,0.09 2.24,0.11 3.38,0.02 0.71,-0.06 1.36,-0.36 1.82,-0.83 1.52,-0.49 3.02,-1.05 4.5,-1.64 0.18,0.03 0.36,0.05 0.54,0.03 0.23,-0.03 0.44,-0.07 0.66,-0.11 0,0 0,0.02 0,0.03 0.04,-0.02 0.09,-0.03 0.13,-0.05 0.93,-0.19 1.75,-0.54 2.47,-1.02 1.16,-0.56 2.25,-1.23 3.15,-2.09 0.3,-0.16 0.61,-0.31 0.91,-0.47 0.14,-0.02 0.28,-0.04 0.43,-0.08 1.78,-0.52 3.37,-1.51 4.6,-2.85 6.46,-4.54 11.96,-10.38 16.08,-17.14 0.14,-0.13 0.26,-0.28 0.36,-0.47 0.14,-0.17 0.26,-0.37 0.38,-0.57 z"
     id="path10" />
  <path
     class="cls-4"
     d="m 200.51039,42.557368 c -0.11,-0.59 -0.89,-0.39 -0.96,0.12 -0.13,-0.08 -0.3,-0.1 -0.47,0 -1.69,0.99 -3.27,2.15 -4.75,3.42 -0.8,0.45 -1.58,0.93 -2.33,1.46 -0.84,0.59 -1.6,1.26 -2.34,1.96 -0.57,0.39 -1.13,0.81 -1.68,1.24 -1.21,0.53 -2.37,1.14 -3.47,1.88 -0.24,0.16 -0.28,0.43 -0.19,0.64 -0.58,0.44 -1.2,0.83 -1.81,1.23 -1.29,0.68 -2.68,1.22 -3.9,2.02 -0.21,0.14 -0.27,0.38 -0.21,0.58 -0.08,0.07 -0.15,0.16 -0.22,0.24 l -2.46,1.49 c -0.19,0.12 -0.26,0.32 -0.23,0.51 -0.36,0.24 -0.28,0.93 0.26,0.92 0.49,-0.01 0.93,-0.17 1.32,-0.41 1.52,-0.15 2.77,-1.38 3.76,-2.52 0.1,-0.12 0.21,-0.23 0.31,-0.34 1.76,-0.68 3.31,-2 4.73,-3.21 0.11,0.02 0.23,0.02 0.34,-0.04 1.49,-0.87 3,-1.72 4.47,-2.62 1.23,-0.76 2.36,-1.62 3.18,-2.82 0.02,-0.03 0.02,-0.05 0.04,-0.08 1.31,-0.82 2.64,-1.61 4.04,-2.26 0.47,-0.22 0.95,-0.42 1.43,-0.6 0.34,-0.12 0.75,-0.2 1.03,-0.44 0.6,-0.52 0.19,-1.7 0.1,-2.36 z"
     id="path11" />
  <path
     class="cls-4"
     d="m 141.55039,42.607368 c 0.11,-0.59 0.89,-0.39 0.96,0.12 0.13,-0.08 0.3,-0.1 0.47,0 1.69,0.99 3.27,2.15 4.75,3.42 0.8,0.45 1.58,0.93 2.33,1.46 0.84,0.59 1.6,1.26 2.34,1.96 0.57,0.39 1.13,0.81 1.68,1.24 1.21,0.53 2.37,1.14 3.47,1.88 0.24,0.16 0.28,0.43 0.19,0.64 0.58,0.44 1.2,0.83 1.81,1.23 1.29,0.68 2.68,1.22 3.9,2.02 0.21,0.14 0.27,0.38 0.21,0.58 0.08,0.07 0.15,0.16 0.22,0.24 l 2.46,1.49 c 0.19,0.12 0.26,0.32 0.23,0.51 0.36,0.24 0.28,0.93 -0.26,0.92 -0.49,-0.01 -0.93,-0.17 -1.32,-0.41 -1.52,-0.15 -2.77,-1.38 -3.76,-2.52 -0.1,-0.12 -0.21,-0.23 -0.31,-0.34 -1.76,-0.68 -3.31,-2 -4.73,-3.21 -0.11,0.02 -0.23,0.02 -0.34,-0.04 -1.49,-0.87 -3,-1.72 -4.47,-2.62 -1.23,-0.76 -2.36,-1.62 -3.18,-2.82 -0.02,-0.03 -0.02,-0.05 -0.04,-0.08 -1.31,-0.82 -2.64,-1.61 -4.04,-2.26 -0.47,-0.22 -0.95,-0.42 -1.43,-0.6 -0.34,-0.12 -0.75,-0.2 -1.03,-0.44 -0.6,-0.52 -0.19,-1.7 -0.1,-2.36 z"
     id="path12" />
  <path
     class="cls-3"
     d="m 196.84039,83.267368 c 0,0 -0.01,0.02 -0.02,0.02 0.04,-0.13 0.09,-0.25 0.12,-0.38 0.12,-0.39 -0.37,-0.83 -0.73,-0.56 -0.78,0.57 -1.46,1.24 -2.03,1.98 -0.11,0 -0.24,0.04 -0.35,0.14 -1.52,1.37 -2.64,3.1 -3.29,5.04 -0.02,0.06 -0.02,0.11 -0.02,0.16 -0.48,0.58 -0.97,1.15 -1.43,1.74 -0.05,0.07 -0.08,0.14 -0.1,0.22 l -1.01,1.2 c -0.55,0.66 -1.11,1.31 -1.66,1.97 -0.36,0.43 -0.72,0.87 -0.79,1.42 -0.22,0.4 -0.4,0.81 -0.54,1.24 -0.1,0.2 -0.17,0.4 -0.23,0.61 -1.1,1.2 -1.83,2.680002 -2.87,3.910002 -1.62,1.2 -3.38,2.24 -5.23,2.94 -1.68,0.03 -3.36,0.02 -5.04,-0.06 -2.59,-0.16 -5.16,-0.53 -7.7,-1.14 -0.25,-0.06 -0.43,0.05 -0.53,0.22 -1.24,-0.58 -2.48,-1.26 -3.58,-2.08 0.07,-0.17 0.06,-0.38 -0.08,-0.54 -1.21,-1.360002 -2.11,-2.940002 -2.66,-4.680002 -0.11,-0.35 -0.47,-0.41 -0.73,-0.28 -0.04,-0.15 -0.08,-0.31 -0.11,-0.46 -0.04,-0.19 -0.17,-0.3 -0.33,-0.33 -1.42,-1.85 -2.84,-3.7 -4.26,-5.55 0.04,-0.09 0.06,-0.19 0.02,-0.31 -0.26,-0.97 -0.89,-1.62 -1.68,-2.09 -1.21,-2.01 -2.51,-3.95 -4.11,-5.69 -0.71,-1.85 -0.68,-3.9 -0.66,-5.85 0,-0.24 -0.17,-0.4 -0.36,-0.46 0.03,-0.82 0.06,-1.63 0.09,-2.45 0,-0.27 -0.24,-0.5 -0.5,-0.5 -0.84,0 -1.76,0.08 -2.3,0.81 -0.23,0.31 -0.33,0.65 -0.29,1.03 0.01,0.15 0.06,0.29 0.11,0.43 -0.1,0.8 0.04,1.77 0.11,2.27 0.1,0.77 0.27,1.51 0.48,2.25 0,0.17 0,0.35 -0.01,0.52 0,0.28 0.15,0.42 0.35,0.46 0.16,0.42 0.34,0.84 0.54,1.25 0.09,0.95 0.2,1.9 0.34,2.85 0.11,1.47 0.35,2.93 0.72,4.35 -0.11,0.08 -0.2,0.21 -0.22,0.38 -0.07,0.57 -0.09,1.15 -0.05,1.73 0.25,0.61 0.39,1.27 0.39,1.91 0,0.13 -0.01,0.26 -0.02,0.39 0.05,0.04 0.09,0.08 0.14,0.12 0.19,0.47 0.44,0.92 0.75,1.33 0.35,0.47 0.77,0.88 1.21,1.27 0.54,1.09 1.28,2.08 2.18,2.92 -0.31,0.26 -0.41,0.69 -0.06,1.06 0.27,0.290002 0.69,0.240002 0.96,0.500002 0.3,0.28 0.48,0.57 0.86,0.78 0.86,0.49 1.85,0.85 2.78,1.19 1.51,0.55 3.06,0.95 4.63,1.23 0.48,0.23 0.96,0.44 1.46,0.62 0.13,0.05 0.24,0.01 0.35,-0.04 1.96,1.02 3.98,1.84 6.16,2.18 0.55,0.26 1.1,0.51 1.66,0.75 1.24,0.53 2.51,1.11 3.85,1.3 0.1,0.01 0.19,0 0.29,0.02 0.05,0.26 0.27,0.51 0.61,0.45 2.88,-0.5 5.56,-1.68 8.14,-2.99 2.04,-1.03 4.29,-2.03 5.87,-3.73 1.09,-0.59 2.13,-1.3 2.88,-2.270002 0.23,-0.06 0.46,-0.16 0.65,-0.34 0.32,-0.29 0.53,-0.68 0.78,-1.03 0,0 0.01,-0.02 0.02,-0.03 0.22,0.17 0.54,0.18 0.68,-0.14 0.2,-0.45 0.4,-0.89 0.63,-1.32 1.12,-1.16 2.28,-2.35 2.54,-4 0,-0.02 0,-0.03 0,-0.05 0.24,-0.51 0.46,-1.04 0.64,-1.57 0.16,-0.29 0.32,-0.58 0.47,-0.88 0.04,-0.09 0.05,-0.17 0.05,-0.25 0.32,-0.77 0.58,-1.55 0.75,-2.36 0.07,-0.33 -0.16,-0.57 -0.42,-0.61 0.22,-0.56 0.44,-1.13 0.65,-1.7 0.31,-0.6 0.6,-1.21 0.87,-1.83 0.21,-0.48 -0.37,-1.06 -0.79,-0.61 z"
     id="path13" />
  <g
     id="g15"
     transform="translate(-153.11961,-213.22263)">
    <path
       class="cls-9"
       d="m 313.27,545.21 c 0,0 -0.08,-0.04 -0.13,-0.06 0.13,0.07 0.15,0.08 0.13,0.06 z"
       id="path14" />
    <path
       class="cls-9"
       d="m 348.56,519.18 c -0.63,0.6 -1.04,1.46 -1.59,2.14 -0.69,0.85 -1.52,1.46 -2.42,2.05 -0.43,0.28 -0.95,0.47 -1.43,0.61 -0.53,0.16 -1.09,0.33 -1.64,0.33 -1.13,0 -2.24,-0.18 -3.37,-0.17 -0.02,0 -0.03,0 -0.05,0.01 -0.09,-0.04 -0.19,-0.08 -0.28,-0.13 -1.32,-0.73 -2.72,-1.8 -4.19,-2.48 -0.33,-0.85 -1.22,-1.3 -1.85,-1.86 -0.37,-0.33 -0.72,-0.64 -1.02,-1.03 -0.36,-0.46 -0.67,-0.93 -1.01,-1.41 -0.28,-0.4 -0.61,-0.75 -0.91,-1.13 -0.32,-0.41 -0.64,-0.8 -0.95,-1.21 -0.06,-0.08 -0.13,-0.16 -0.19,-0.24 -0.35,-0.68 -0.8,-1.32 -1.09,-2.02 0.09,-0.04 0.19,-0.09 0.28,-0.13 0.25,-0.11 0.3,-0.47 0.18,-0.68 -0.15,-0.25 -0.44,-0.29 -0.68,-0.18 -0.03,0.01 -0.06,0.03 -0.08,0.04 0,-0.14 -0.04,-0.28 -0.14,-0.38 -0.05,-0.05 -0.1,-0.08 -0.16,-0.11 0.01,-0.01 0.02,-0.03 0.03,-0.05 0.23,-0.04 0.42,-0.24 0.41,-0.48 -0.01,-0.27 -0.22,-0.5 -0.5,-0.5 -0.18,0 -0.36,0 -0.53,0.06 -0.08,0.03 -0.16,0.07 -0.24,0.11 -0.18,0.05 -0.36,0.15 -0.52,0.24 -0.1,0.05 -0.18,0.12 -0.26,0.19 0,0 0,0 0,0 0,0 -0.01,0 -0.02,0 0,0 0,0 -0.02,0 0,0 0,0 0,0 -0.12,0.07 -0.23,0.14 -0.34,0.23 -0.03,0.03 -0.07,0.06 -0.1,0.08 0,0 0,0 0,0 0,0 0,0 -0.03,0 -0.02,0 -0.03,0.02 -0.05,0.03 -0.27,0.14 -0.49,0.33 -0.76,0.46 -0.14,0.07 -0.28,0.16 -0.42,0.24 -0.04,0.02 -0.07,0.05 -0.11,0.07 -0.03,0.03 -0.07,0.05 -0.1,0.08 0.02,-0.02 0.02,-0.02 0,0 -0.09,0.05 -0.17,0.09 -0.24,0.17 -0.04,0.04 -0.06,0.08 -0.08,0.13 -0.01,0.01 -0.03,0.02 -0.04,0.03 -0.02,0.02 -0.03,0.04 -0.05,0.07 -0.41,0.29 -0.81,0.59 -1.2,0.92 -0.2,0.18 -0.18,0.53 0,0.71 0.12,0.12 0.27,0.15 0.42,0.13 -0.03,0.04 -0.05,0.09 -0.07,0.14 -0.44,0.31 -0.83,0.72 -1.19,1.16 -0.58,0.05 -1.16,0.3 -1.67,0.69 -1.12,0.88 -2.11,1.62 -2.99,2.77 -0.82,1.07 -1.54,2.08 -2.51,3.02 -1.35,1.31 -3.2,3.3 -3.34,5.35 -0.6,0.41 -1.18,0.85 -1.69,1.36 -0.2,0.19 -0.37,0.41 -0.53,0.63 -0.04,0.06 -0.07,0.09 -0.09,0.13 -0.34,0.3 -0.63,0.62 -0.86,1.03 -0.08,0.13 -0.13,0.27 -0.2,0.4 -0.38,0.26 -0.66,0.65 -0.82,1.13 -0.03,0.22 -0.05,0.45 -0.09,0.67 -0.01,0.05 -0.03,0.11 -0.04,0.16 0,0.64 0.17,1.15 0.4,1.67 0.18,1.08 0.62,2.05 1.17,2.95 0.22,0.99 0.81,1.86 1.26,2.76 0.5,1.01 1.02,1.96 1.79,2.8 0.67,0.72 1.58,1.19 2.43,1.68 0.3,0.17 0.6,0.26 0.91,0.42 0.03,0.02 0.18,0.1 0.21,0.12 0.37,0.19 0.74,0.37 1.11,0.54 1.76,0.8 4.76,1.88 6.01,-0.07 1.95,-0.37 3.8,-1.46 5.39,-2.6 0.8,-0.57 1.63,-0.92 2.47,-1.39 0.14,-0.08 1.06,-0.63 0.51,-0.36 0.56,-0.27 1.09,-0.51 1.61,-0.84 3.21,-2.04 5.69,-4.34 9.05,-6.29 1.62,-0.94 3.13,-2.04 4.71,-3.01 0.93,-0.57 1.77,-1.36 2.06,-2.46 0.41,-1.6 -0.62,-3.09 -2.17,-3.51 -0.31,-0.08 -0.62,-0.14 -0.94,-0.19 0.1,-0.03 0.21,-0.06 0.31,-0.09 0.51,-0.15 1.06,-0.35 1.52,-0.62 0.93,-0.55 1.81,-1.2 2.53,-2.01 0.36,-0.4 0.67,-0.84 0.99,-1.26 0.29,-0.38 0.51,-0.84 0.85,-1.17 0.47,-0.45 -0.24,-1.15 -0.71,-0.71 z"
       id="path15" />
  </g>
  <path
     class="cls-9"
     d="m 199.78039,325.03737 c 0,-0.31 -0.32,-0.59 -0.63,-0.48 -0.05,0.02 -0.08,0.05 -0.12,0.07 0,-0.05 0,-0.1 0,-0.15 -0.02,-1.42 -0.1,-2.83 -0.1,-4.25 0,-0.69 0,-1.39 0,-2.08 0,-0.62 0.08,-1.24 -0.03,-1.86 -0.07,-0.36 -0.6,-0.5 -0.84,-0.22 -0.23,0.27 -0.3,0.52 -0.31,0.87 -0.01,0.41 -0.08,0.79 -0.16,1.18 -0.14,0.72 -0.29,1.43 -0.44,2.14 0.07,-1.08 0.09,-2.17 0,-3.23 -0.04,-0.39 -0.54,-0.71 -0.85,-0.35 -0.27,0.31 -0.37,0.72 -0.44,1.12 -0.09,-0.49 -0.82,-0.63 -0.97,-0.08 -0.23,0.87 -0.33,1.8 -0.42,2.72 -0.19,-0.11 -0.46,-0.1 -0.62,0.05 -0.25,0 -0.49,0.16 -0.49,0.48 0,0.89 0,1.78 0,2.67 0,0.18 0,0.35 0,0.53 -0.05,-0.31 -0.1,-0.62 -0.19,-0.93 -0.05,-0.16 -0.14,-0.26 -0.26,-0.31 -0.04,-0.25 -0.08,-0.51 -0.11,-0.76 -0.06,-0.46 -0.7,-0.44 -0.91,-0.12 -0.33,0.5 -0.33,1.12 -0.38,1.69 0,0.07 -0.01,0.15 -0.02,0.22 -0.29,-0.08 -0.61,0.06 -0.6,0.46 0.05,1.22 0.08,2.41 0.25,3.62 0.16,1.19 0.39,2.37 0.55,3.56 0.05,0.3 0.29,0.39 0.52,0.35 0.09,0.32 0.19,0.63 0.27,0.92 0.13,0.53 0.28,1.06 0.41,1.59 0.07,0.27 0.13,0.54 0.21,0.8 0.1,0.48 0.2,0.95 0.29,1.43 0.01,0.06 0.03,0.1 0.06,0.14 -0.1,0.6 -0.16,1.21 -0.16,1.82 0,0.64 1,0.64 1,0 0,-0.12 0.01,-0.24 0.02,-0.36 0.17,0.06 0.36,0.04 0.51,-0.1 0.34,-0.34 0.44,-0.83 0.56,-1.28 0.12,-0.45 0.21,-0.91 0.29,-1.37 0.03,-0.03 0.06,-0.04 0.08,-0.07 0.2,-0.29 0.32,-0.65 0.49,-0.97 0.21,-0.39 0.33,-0.82 0.49,-1.23 0.32,-0.82 0.52,-1.67 0.76,-2.51 0.1,0 0.19,0 0.28,-0.05 0.7,-0.39 0.85,-1.49 0.97,-2.19 0.07,-0.41 0.11,-0.81 0.15,-1.22 0.37,-0.7 0.92,-1.44 0.91,-2.25 z"
     id="path16" />
  <path
     class="cls-9"
     d="m 196.57039,304.39737 c 0,0 11.61,-24.81 12.96,-31.79 0,0 -4.45,27.75 -7.77,33.96 0,0 1.29,7.81 -1.98,18"
     id="path17" />
  <g
     id="g19"
     transform="translate(-153.11961,-213.22263)">
    <path
       class="cls-9"
       d="m 302.02,463.94 c -0.09,-0.35 -0.3,-0.45 -0.61,-0.54 -0.36,-0.1 -0.71,-0.23 -1.04,-0.41 -0.35,-0.19 -0.71,-0.29 -1.09,-0.38 -0.46,-0.11 -0.9,-0.27 -1.36,-0.35 -0.23,-0.04 -0.47,-0.03 -0.7,-0.07 -0.19,-0.03 -0.36,-0.12 -0.53,-0.21 -0.18,-0.09 -0.22,-0.26 -0.35,-0.41 -0.05,-0.06 -0.11,-0.11 -0.17,-0.16 -0.15,-0.24 -0.51,-0.31 -0.74,-0.13 -0.18,0.09 -0.3,0.28 -0.39,0.47 0.01,-0.09 0.02,-0.15 0.02,-0.15 l -24.64,49.38 c 0.42,-0.25 0.83,-0.51 1.23,-0.78 0.17,0.2 0.49,0.3 0.74,0.07 0.18,-0.16 0.42,-0.26 0.63,-0.38 0.27,-0.15 0.54,-0.3 0.81,-0.45 0.53,-0.29 1.05,-0.61 1.57,-0.92 0.25,-0.14 0.45,-0.25 0.67,-0.45 0.2,-0.18 0.46,-0.31 0.68,-0.47 0.27,-0.19 0.53,-0.39 0.78,-0.61 0.04,-0.03 0.07,-0.07 0.11,-0.11 0.96,0.12 1.88,-0.33 2.47,-1.2 0.06,-0.08 0.12,-0.17 0.17,-0.26 0.02,-0.03 0.02,-0.03 0.02,-0.04 0.06,-0.07 0.11,-0.15 0.19,-0.25 0.09,-0.13 0.18,-0.26 0.26,-0.39 0.01,-0.01 0.02,-0.02 0.04,-0.03 0.18,-0.18 0.33,-0.41 0.47,-0.61 0.05,-0.07 0.31,-0.4 0.06,-0.1 -0.25,0.3 0,-0.01 0.06,-0.07 0.36,-0.46 0.69,-0.92 1,-1.4 0.58,-0.17 1.1,-0.54 1.44,-1.11 -0.27,0.32 -0.32,0.37 -0.15,0.17 0.13,-0.17 0.26,-0.34 0.39,-0.51 0.1,-0.14 0.17,-0.29 0.26,-0.44 0.17,-0.28 0.35,-0.54 0.5,-0.83 0.16,-0.3 0.34,-0.6 0.5,-0.91 0.14,-0.28 0.29,-0.59 0.39,-0.88 0,0 0,-0.01 0,-0.02 0,0 0,0 0,0 0.03,-0.05 0.12,-0.2 0.15,-0.27 0.11,-0.16 0.24,-0.31 0.36,-0.45 0.11,-0.12 0.24,-0.27 0.29,-0.33 0.23,-0.29 0.49,-0.56 0.67,-0.88 0.04,-0.08 0.06,-0.15 0.09,-0.23 0.77,0.03 1.53,-0.34 1.99,-1.26 0.47,-0.94 0.68,-2.02 1.07,-2.97 0.43,-1.05 1.09,-2.03 1.6,-3.07 0.72,-1.45 1.59,-3.54 2.56,-5.29 0.61,-1.1 1.21,-2.19 1.62,-3.39 0.18,-0.54 0.32,-1.1 0.44,-1.66 0.82,-1.71 1.62,-3.69 2.4,-5.44 0.75,-1.69 1.69,-3.63 1.93,-5.57 0.17,-0.04 0.32,-0.14 0.42,-0.31 0.16,-0.26 0.21,-0.65 0.29,-0.94 0.2,-0.67 0.62,-1.26 0.43,-2 z"
       id="path18" />
    <path
       class="cls-9"
       d="m 301.03,464.32 c 0,0 0.01,0.04 0.03,0.05 0,-0.01 0,-0.02 0,-0.04 0,0 -0.02,0 -0.03,-0.01 z"
       id="path19" />
  </g>
  <path
     class="cls-9"
     d="m 114.69039,298.00737 c 0,0 -9.19,-4.53 -14.809998,-19.11"
     id="path20" />
  <path
     class="cls-8"
     d="m 135.92039,217.68737 c 2.25,1.92 4.84,3.44 7.61,4.47"
     id="path21" />
  <path
     class="cls-8"
     d="m 102.93039,205.41737 c 1.85,2.25 3.56,4.6 5.28,6.96 0.56,0.76 1.11,1.53 1.6,2.34 0.27,0.45 0.51,0.91 0.81,1.34 0.27,0.38 0.59,0.73 0.91,1.08 4.04,4.47 8.09,8.95 12.13,13.42 2.54,2.81 5.11,5.64 8.24,7.76"
     id="path22" />
  <path
     class="cls-8"
     d="m 130.28039,236.95737 c 0.02,0.98 0.9,1.69 1.7,2.25 0.94,0.66 1.88,1.32 2.81,1.99 0.58,0.42 1.17,0.86 1.67,1.38 0.61,0.63 1.08,1.39 1.71,1.99 0.51,0.48 1.1,0.86 1.7,1.23 2.83,1.78 5.78,3.57 9.08,4.06 0.3,0.04 0.62,0.08 0.9,-0.04 0.28,-0.12 0.5,-0.44 0.4,-0.73 -2.45,-0.12 -4.78,-1.05 -6.97,-2.16 -3.39,-1.73 -6.53,-3.94 -9.23,-6.62 -0.63,-0.63 -1.24,-1.28 -1.91,-1.87 -0.61,-0.54 -1.26,-1.02 -1.84,-1.59 -0.75,-0.74 -1.35,-1.6 -2.01,-2.42 -0.62,-0.77 -1.3,-1.5 -2.03,-2.17"
     id="path23" />
  <path
     class="cls-8"
     d="m 185.21039,208.27737 c 2.69,-1.46 4.17,-4.4 6.37,-6.53 0.85,-0.82 1.84,-1.57 2.28,-2.66 0.19,-0.46 0.37,-1.05 0.86,-1.09 0.67,2.19 0.79,4.54 0.35,6.79"
     id="path24" />
  <path
     class="cls-8"
     d="m 15.800392,209.90737 c 0.35,0.84 0.83,1.62 1.41,2.32 1.1,1.32 2.56,2.3 3.78,3.52 1.04,1.04 1.91,2.24 2.92,3.31 1.9,2.02 4.24,3.55 6.57,5.07"
     id="path25" />
  <path
     class="cls-8"
     d="m 21.230392,216.73737 4.53,3.64 c 1.17,0.94 2.37,1.92 3.07,3.25 -0.72,-0.84 -1.56,-1.57 -2.48,-2.17 2.95,3.35 6.41,6.26 10.22,8.6"
     id="path26" />
  <path
     class="cls-8"
     d="m 40.690392,237.41737 c 0.2,1.65 0.04,3.35 -0.45,4.94 -0.06,-1.65 -0.11,-3.4 0.67,-4.86"
     id="path27" />
  <path
     class="cls-8"
     d="m 283.39039,81.597368 c 1.33,-0.35 2.63,-0.8 3.9,-1.34"
     id="path28" />
  <path
     class="cls-8"
     d="m 258.52039,67.407368 c 1.38,0.04 2.75,0.02 4.13,-0.05 -0.38,0.07 -0.79,0 -1.13,-0.18 -0.31,0.12 -0.59,0.29 -0.83,0.52 4.68,2.57 9.77,4.4 15.02,5.41"
     id="path29" />
  <path
     class="cls-4"
     d="m 260.99039,50.377368 c 3.94,-0.31 7.92,-0.18 11.83,0.38"
     id="path30" />
  <path
     class="cls-3"
     d="m 200.76039,80.097368 c -0.09,-0.39 -0.56,-0.46 -0.84,-0.22 -0.03,0.02 -0.05,0.05 -0.07,0.08 -0.04,-0.2 -0.08,-0.39 -0.12,-0.6 -0.05,-0.33 -0.07,-0.66 -0.1,-0.99 -0.02,-0.24 -0.08,-0.46 -0.13,-0.68 0.02,-0.66 -0.01,-1.33 -0.33,-1.84 -0.13,-0.69 -0.27,-1.38 -0.46,-2.06 -0.2,-0.72 -0.83,-1.63 -1.74,-1.32 -0.38,0.13 -0.53,0.51 -0.44,0.88 -0.5,0.31 -0.64,1.13 -0.65,1.67 -0.03,1.03 0.06,2.06 -0.02,3.09 -0.07,0.94 -0.23,1.87 -0.32,2.81 -0.03,0.25 -0.07,0.53 -0.12,0.82 -0.18,0.19 -0.37,0.38 -0.5,0.61 -0.18,0.32 -0.29,0.69 -0.45,1.02 -0.27,0.52 -0.68,1.05 -0.78,1.63 -0.11,0.63 0.86,0.9 0.96,0.27 0.09,-0.52 0.49,-1.03 0.73,-1.49 0.05,-0.09 0.08,-0.18 0.12,-0.28 0.21,0.26 0.65,0.32 0.82,-0.02 0.02,-0.04 0.04,-0.09 0.05,-0.13 0,0.32 0.03,0.63 0.12,0.93 0.03,0.1 0.09,0.18 0.17,0.24 -0.31,0.63 -0.64,1.26 -0.93,1.9 -0.44,0.95 -1.08,2.09 -0.93,3.17 0.06,0.39 0.59,0.45 0.84,0.22 0.05,-0.05 0.1,-0.11 0.14,-0.16 -0.26,0.88 -0.77,1.94 -0.59,2.84 0.09,0.46 0.69,0.44 0.91,0.12 0.28,-0.4 0.44,-0.92 0.62,-1.38 0.21,-0.54 0.48,-1.05 0.7,-1.59 0.23,-0.56 0.46,-1.13 0.68,-1.69 0.24,-0.59 0.34,-1.23 0.51,-1.84 0.14,-0.52 0.26,-1.04 0.4,-1.55 0.04,-0.13 0.08,-0.27 0.13,-0.4 0.02,-0.02 0.04,-0.04 0.05,-0.07 0.26,-0.4 0.52,-0.75 0.65,-1.22 0.05,-0.17 0.08,-0.35 0.09,-0.53 0.15,-0.38 0.29,-0.75 0.5,-1.1 0.22,-0.36 0.42,-0.68 0.31,-1.11 z"
     id="path31" />
  <path
     class="cls-2"
     d="m 196.31039,93.177368 c -0.19,-1.13 0.68,-2.27 1.2,-3.2 0.62,-1.11 1.24,-2.22 1.87,-3.33 0.32,-0.56 -0.55,-1.07 -0.86,-0.5 -0.69,1.23 -1.38,2.46 -2.07,3.69 -0.63,1.12 -1.32,2.27 -1.1,3.61 0.11,0.63 1.07,0.36 0.96,-0.27 z"
     id="path32" />
  <path
     d="m 201.67039,44.397368 c 0,0 0,-0.02 0,-0.03 -0.02,-0.17 -0.05,-0.33 -0.09,-0.5 -0.07,-0.29 -0.07,-0.56 -0.06,-0.86 0,-0.33 0,-0.65 0,-0.98 0,-0.26 0.05,-0.58 -0.03,-0.83 -0.09,-0.28 -0.37,-0.41 -0.63,-0.33 -0.04,-0.04 -0.06,-0.09 -0.11,-0.12 -0.14,-0.09 -0.33,-0.14 -0.5,-0.09 -0.06,0.02 -0.09,0.04 -0.11,0.05 0,0 0,0 0,0 -0.06,0 -0.11,0 -0.17,0 -0.44,0.02 -1.03,0.21 -1.16,0.69 -0.15,0.58 0.65,0.84 0.91,0.38 0,0 0,0 0.01,0 0.08,-0.03 0.16,-0.04 0.24,-0.06 0,0 0,0 0,0 0.05,0 0.11,0 0.16,0 0.01,0 0.02,0 0.03,0 0,0.02 0,0.05 0.01,0.07 0.02,0.12 0.06,0.24 0.07,0.35 0.02,0.15 0,0.3 0.02,0.45 0.02,0.17 0.06,0.34 0.1,0.51 0.01,0.05 0.02,0.1 0.03,0.15 0,0.03 0,0.06 0,0.08 0,0.07 0,0.13 0,0.2 0,0.02 0,0.04 0,0.07 -0.03,0.12 -0.04,0.25 -0.05,0.38 0,0.05 0,0.1 0,0.16 0,0.03 0,0.06 0,0.09 0,0 0,0 0,0.01 0,0 -0.04,0.1 0,0.02 v 0 c -0.03,0.06 -0.05,0.12 -0.07,0.18 -0.04,0.11 -0.06,0.24 -0.05,0.36 0.02,0.23 0.17,0.44 0.4,0.48 0.1,0.51 0.89,0.5 0.97,-0.03 0.08,-0.08 0.14,-0.19 0.14,-0.34 0,-0.16 0,-0.33 -0.03,-0.49 z"
     id="path33" />
  <path
     class="cls-7"
     d="m 194.83039,52.467368 c -0.41,0.1 -0.77,0.37 -1.15,0.56 -0.49,0.25 -0.99,0.44 -1.5,0.67 -0.42,0.19 -0.84,0.34 -1.25,0.52 -0.51,0.21 -1.04,0.31 -1.52,0.58 -0.87,0.49 -1.78,0.84 -2.69,1.24 -0.44,0.19 -0.91,0.32 -1.35,0.52 -0.36,0.16 -0.74,0.2 -1.06,0.44 -0.12,0.1 -0.17,0.21 -0.17,0.33 -0.67,0.26 -1.33,0.54 -1.99,0.85 -0.65,0.3 -1.31,0.57 -1.95,0.87 -0.5,0.23 -1,0.43 -1.45,0.76 -0.47,0.35 -0.91,0.78 -1.21,1.29 -0.08,0.14 -0.14,0.3 -0.17,0.47 -0.02,0.02 -0.04,0.03 -0.06,0.05 -0.25,0.27 -0.43,0.57 -0.57,0.9 -0.09,0.22 -0.11,0.41 -0.11,0.64 0,0.18 0,0.37 0.1,0.52 -0.17,0.16 -0.25,0.4 -0.12,0.63 0.12,0.21 0.47,0.34 0.68,0.18 0.13,-0.1 0.25,-0.22 0.4,-0.29 0.16,-0.08 0.32,-0.13 0.48,-0.2 0.26,-0.12 0.53,-0.2 0.8,-0.3 0.3,-0.11 0.61,-0.21 0.93,-0.25 0.19,-0.03 0.39,-0.06 0.58,-0.09 0.26,0.22 0.66,0.32 1.01,0.36 0.95,0.1 1.96,0.01 2.92,0.01 0.96,0 2.05,0.1 3.05,0 0.88,-0.09 1.37,-0.61 1.72,-1.37 0.33,-0.7 0.69,-1.38 1.05,-2.05 0.15,-0.21 0.31,-0.43 0.47,-0.64 0.65,-0.87 1.22,-1.8 1.9,-2.65 0.3,-0.37 0.74,-0.96 0.51,-1.46 0.11,-0.12 0.22,-0.24 0.32,-0.35 0.58,-0.65 1.23,-1.3 1.88,-1.9 0.38,-0.35 -0.02,-0.96 -0.49,-0.84 z m -5.1,5.08 c -0.68,1 -1.53,1.86 -2.22,2.83 -0.23,0.32 -0.45,0.65 -0.68,0.97 -0.25,0.21 -0.52,0.4 -0.82,0.55 -0.1,0.05 -0.15,0.12 -0.19,0.19 -0.36,0.05 -0.76,0 -1.12,0 -0.77,0 -1.54,0 -2.32,0 -0.59,0 -1.25,-0.04 -1.81,0.17 -0.02,0 -0.04,0.03 -0.06,0.04 -0.61,0 -1.22,-0.02 -1.82,0.05 -0.13,0.02 -0.28,0.05 -0.38,0.07 0,-0.13 0.01,-0.25 0.03,-0.38 0.19,-0.14 0.39,-0.26 0.59,-0.38 0.27,-0.18 0.53,-0.24 0.78,-0.44 0.21,-0.17 0.18,-0.53 0,-0.71 -0.03,-0.03 -0.07,-0.05 -0.1,-0.07 0.15,-0.09 0.31,-0.17 0.49,-0.23 1.2,-0.46 2.34,-1.1 3.54,-1.58 0.66,-0.27 1.3,-0.53 1.96,-0.79 0.12,0.03 0.24,0 0.36,-0.08 0,0 0,0 0,0 0.07,0 0.14,0 0.2,0.01 0.17,0.01 0.33,0.01 0.5,0.01 0.2,0 0.4,0.02 0.6,0 0.19,-0.02 0.39,-0.05 0.58,-0.07 0.4,-0.05 0.79,-0.1 1.19,-0.11 0.2,0 0.39,-0.02 0.58,-0.1 0.05,-0.02 0.11,-0.03 0.16,-0.04 -0.02,0.03 -0.04,0.05 -0.05,0.07 z"
     id="path34" />
  <g
     id="g36"
     transform="translate(-153.11961,-213.22263)">
    <path
       class="cls-7"
       d="M 316.96,277.28 Z"
       id="path35" />
    <path
       class="cls-7"
       d="m 318.29,276.94 c 0.03,-0.14 0,-0.29 -0.12,-0.42 0.05,-0.13 0.07,-0.26 0.07,-0.4 0,-0.15 -0.08,-0.29 -0.19,-0.38 0,-0.11 0,-0.23 -0.04,-0.34 -0.05,-0.17 -0.16,-0.3 -0.26,-0.44 -0.07,-0.1 -0.16,-0.2 -0.25,-0.27 0,0 0,-0.01 -0.01,-0.02 0,0 -0.02,-0.03 -0.02,-0.04 0,0 0,-0.02 -0.01,-0.02 -0.06,-0.11 -0.1,-0.22 -0.16,-0.33 -0.03,-0.05 -0.05,-0.1 -0.08,-0.15 -0.02,-0.04 -0.05,-0.13 -0.08,-0.16 0.01,0.03 0.02,0.05 0.03,0.08 -0.02,-0.04 -0.03,-0.08 -0.05,-0.12 0,-0.02 -0.01,-0.03 -0.02,-0.05 -0.06,-0.1 -0.14,-0.17 -0.23,-0.23 -0.1,-0.06 -0.23,-0.07 -0.36,-0.04 -0.53,-0.77 -1.23,-1.43 -2.08,-1.78 -1.04,-0.43 -2.11,-0.78 -3.17,-1.18 -0.04,-0.08 -0.09,-0.15 -0.17,-0.21 -0.26,-0.18 -0.59,-0.18 -0.87,-0.32 -0.31,-0.16 -0.63,-0.28 -0.93,-0.44 -0.32,-0.17 -0.64,-0.3 -0.95,-0.5 -0.31,-0.2 -0.64,-0.38 -0.97,-0.56 -0.61,-0.33 -1.22,-0.72 -1.85,-0.99 -0.32,-0.14 -0.63,-0.29 -0.93,-0.47 -0.26,-0.15 -0.49,-0.29 -0.8,-0.32 -0.15,-0.01 -0.27,0.03 -0.35,0.11 -0.36,-0.21 -0.71,-0.42 -1.08,-0.6 -0.44,-0.22 -0.91,-0.38 -1.35,-0.58 -0.32,-0.14 -0.6,-0.36 -0.96,-0.4 -0.64,-0.07 -0.63,0.93 0,1 -0.27,-0.03 0.2,0.16 0.26,0.18 0.03,0.02 0.07,0.03 0.11,0.05 -0.12,0.18 -0.14,0.41 0.05,0.61 0.36,0.37 0.72,0.74 0.98,1.18 0.26,0.45 0.54,0.89 0.8,1.34 0.06,0.1 0.1,0.2 0.15,0.3 -0.02,0.31 0.15,0.68 0.32,0.9 0.19,0.25 0.36,0.51 0.54,0.76 0.17,0.28 0.35,0.57 0.52,0.85 0.49,0.8 0.96,1.57 1.53,2.31 0.24,0.31 0.43,0.65 0.71,0.93 0.27,0.26 0.44,0.63 0.78,0.81 0.73,0.38 1.68,0.1 2.45,0.06 0.95,-0.05 1.92,-0.24 2.85,-0.39 0.62,-0.1 1.23,-0.18 1.85,-0.19 -0.05,0.08 -0.08,0.16 -0.08,0.26 0,0.27 0.23,0.5 0.5,0.5 0.11,0 0.23,0 0.33,0 0.08,0.03 0.17,0.05 0.27,0.04 0.13,0.02 0.26,0.04 0.4,0.06 0.12,0.02 0.27,0.04 0.41,0.05 -0.13,-0.01 0.23,0.04 0.18,0.03 0.01,0 0.02,0 0.02,0 0.03,0 0.05,0.01 0.08,0.02 0.06,0.01 0.21,0.02 0.25,0.02 0.08,0.01 0.15,0.04 0.23,0.06 0.04,0 0.08,0.01 0.12,0.02 0.08,0 0.09,0.01 0.03,0 0.05,0.01 0.11,0.04 0.2,0.08 0.02,0 0.09,0.03 0.12,0.04 0,0 0,0 0,0 0,0 0,0 0,0 0,0 0,0 0,0 0,0 0,0 0,0 0.02,0.01 0.03,0.02 0.07,0.05 0.03,0.02 0.06,0.04 0.1,0.05 0.16,0.08 0.32,0.17 0.47,0.24 0.22,0.11 0.49,0.08 0.65,-0.13 0.11,-0.15 0.14,-0.39 0.03,-0.56 z m -2.56,-1.67 c -0.81,-0.26 -1.84,-0.25 -2.67,-0.14 -0.63,0.08 -1.25,0.18 -1.88,0.29 -0.06,-0.07 -0.12,-0.13 -0.21,-0.16 -0.16,-0.06 -0.31,-0.03 -0.48,-0.05 -0.16,-0.02 -0.31,-0.09 -0.46,-0.11 -0.36,-0.06 -0.75,-0.17 -1.09,-0.33 -0.35,-0.16 -0.67,-0.29 -0.94,-0.58 -0.26,-0.27 -0.51,-0.61 -0.73,-0.91 -0.44,-0.6 -0.95,-1.14 -1.38,-1.74 -0.16,-0.22 -0.32,-0.43 -0.46,-0.66 0.23,0.01 0.46,0.01 0.7,0.01 0.5,0 1,0 1.5,0 0.5,0 1.06,-0.05 1.58,0.08 0.06,0.01 0.12,0 0.18,0 1.26,0.53 2.52,1.02 3.81,1.47 0.71,0.24 1.3,0.51 1.84,1.03 0.5,0.48 0.94,1.09 1.18,1.75 0.08,0.21 0.24,0.31 0.42,0.33 0,0.02 0.02,0.04 0.02,0.06 -0.31,-0.13 -0.63,-0.24 -0.92,-0.33 z"
       id="path36" />
  </g>
  <path
     class="cls-3"
     d="m 182.66039,103.38737 c -0.07,0.02 -0.14,0.05 -0.21,0.08 0.08,-0.35 -0.17,-0.77 -0.59,-0.62 -0.88,0.33 -1.71,0.77 -2.6,1.05 -0.52,0.16 -1.02,0.36 -1.56,0.44 -0.47,0.07 -0.91,0.11 -1.36,0.24 -0.05,-0.17 -0.17,-0.31 -0.34,-0.35 -0.43,-0.1 -0.86,0.06 -1.1,0.36 -0.06,-0.01 -0.12,-0.02 -0.17,-0.03 -0.53,-0.14 -1.06,-0.3 -1.6,-0.44 -0.4,-0.11 -0.89,-0.22 -1.3,-0.08 -0.19,-0.46 -0.95,-0.43 -0.95,0.1 -0.5,0.06 -1,-0.02 -1.5,-0.02 -0.53,0 -1.06,0.02 -1.59,0 -0.59,-0.02 -1.17,-0.15 -1.76,-0.17 -0.55,-0.02 -1.06,-0.08 -1.6,-0.2 -0.48,-0.1 -0.94,-0.24 -1.35,-0.51 -0.4,-0.26 -0.73,-0.61 -1.12,-0.88 -0.37,-0.26 -0.76,-0.55 -1.04,-0.91 -0.26,-0.33 -0.55,-0.54 -0.86,-0.84 -0.59,-0.56 -1.31,-0.940002 -1.91,-1.510002 -0.26,-0.25 -0.62,-0.4 -0.87,-0.65 -0.35,-0.36 -0.33,-0.9 -0.51,-1.34 -0.15,-0.4 -0.33,-0.67 -0.63,-0.96 -0.4,-0.38 -0.7,-0.81 -1.04,-1.25 -0.56,-0.73 -0.95,-1.6 -1.54,-2.3 0,0 0,0 0,-0.01 -0.34,-0.9 -0.82,-1.68 -1.41,-2.43 -0.67,-0.86 -1.22,-1.76 -1.85,-2.65 -0.32,-0.45 -0.65,-0.9 -1,-1.33 -0.24,-0.3 -0.49,-0.69 -0.85,-0.86 -0.16,-0.07 -0.33,-0.07 -0.47,0 -0.57,-0.68 -1.13,-1.34 -1.53,-2.16 -0.21,-0.43 -0.69,-0.27 -0.86,0.07 -0.16,-0.53 -0.33,-1.06 -0.66,-1.49 -0.15,-0.2 -0.38,-0.26 -0.58,-0.2 -0.02,-0.16 -0.04,-0.31 -0.04,-0.47 -0.03,-0.64 -1.03,-0.64 -1,0 0.04,1.08 0.32,2.17 0.5,3.24 0.07,0.42 0.16,0.84 0.26,1.26 0,0.31 -0.01,0.62 0.01,0.92 0.03,0.38 0.16,0.74 0.24,1.12 0.2,0.92 0.29,1.86 0.47,2.78 0,0.03 0.01,0.07 0.02,0.1 -0.19,0.67 -0.11,1.48 -0.01,2.15 0.11,0.74 0.18,1.62 0.54,2.29 0.16,0.3 0.4,0.57 0.59,0.85 0.25,0.37 0.44,0.79 0.65,1.18 0.42,0.79 1.17,1.31 1.69,2.02 0.43,0.58 1.03,1.070002 1.63,1.470002 0.53,0.35 1.06,0.55 1.62,0.71 0.07,0.24 0.29,0.44 0.6,0.39 0.13,-0.02 0.54,0.12 0.67,0.16 0.23,0.07 0.47,0.15 0.68,0.26 0.31,0.16 0.62,0.31 0.94,0.44 0.9,0.35 1.8,0.75 2.73,1 0.83,0.22 1.61,0.51 2.41,0.79 0.84,0.29 1.69,0.52 2.52,0.83 1.67,0.62 3.29,1.39 5.01,1.89 0.86,0.25 1.72,0.53 2.59,0.77 0.06,0.02 0.13,0.04 0.19,0.05 0.37,0.18 0.73,0.37 1.11,0.52 0.41,0.17 0.79,0.23 1.22,0.32 0.24,0.37 0.66,0.4 1.05,0.28 0.42,-0.13 0.78,-0.4 1.18,-0.59 0.49,-0.24 0.98,-0.37 1.49,-0.53 0.47,-0.15 0.93,-0.36 1.4,-0.52 0.19,-0.07 0.4,-0.13 0.59,-0.22 0.09,0.01 0.19,0 0.29,-0.05 0.34,-0.16 0.66,-0.36 0.99,-0.55 0.18,-0.08 0.36,-0.16 0.53,-0.26 0.57,-0.3 1.11,-0.65 1.68,-0.95 0.13,-0.07 0.25,-0.15 0.38,-0.23 0.45,-0.2 0.89,-0.42 1.29,-0.69 0.45,-0.31 0.19,-1.07 -0.39,-0.91 z"
     id="path37" />
  <g
     id="g40"
     transform="translate(-153.11961,-213.22263)">
    <path
       class="cls-3"
       d="m 345.69,299.12 c 0,0 0,0 0,0.01 0,0.01 0,0.02 -0.01,0.03 0,0 0,-0.01 0.01,-0.02 0,0 0,-0.02 0.01,-0.03 z"
       id="path38" />
    <path
       class="cls-3"
       d="m 345.59,299.26 c 0,0 0.06,-0.08 0.09,-0.12 0.02,-0.05 0.04,-0.1 0.06,-0.15 -0.04,0.1 -0.09,0.18 -0.15,0.27 z"
       id="path39" />
    <path
       class="cls-3"
       d="m 353.71,292.27 c -0.12,-0.36 -0.32,-0.67 -0.42,-1.04 -0.06,-0.22 -0.09,-0.44 -0.13,-0.66 0,-0.23 -0.04,-0.46 -0.13,-0.65 -0.12,-0.78 -0.24,-1.55 -0.37,-2.33 -0.12,-0.69 -0.32,-1.35 -0.66,-1.96 -0.38,-0.68 -1.14,-0.68 -1.82,-0.41 -0.59,0.23 -0.33,1.2 0.27,0.96 0.13,-0.05 0.41,-0.17 0.56,-0.11 0.16,0.06 0.09,0.06 0.19,0.21 0.14,0.2 0.22,0.46 0.3,0.7 0.24,0.72 0.22,1.49 0.41,2.22 0.06,0.23 0.09,0.46 0.13,0.69 -0.22,0.3 -0.39,0.68 -0.52,1.06 -0.2,-0.05 -0.43,0 -0.53,0.23 -0.15,0.33 -0.23,0.72 -0.28,1.11 -0.06,0.17 -0.13,0.34 -0.17,0.49 0,0 0,0.02 0,0.03 -0.15,0.01 -0.3,0.08 -0.39,0.23 -0.04,0.07 -0.06,0.16 -0.09,0.24 -0.18,0.04 -0.35,0.16 -0.43,0.33 -0.38,0.9 -0.73,1.82 -1.13,2.72 -0.56,0.03 -1.11,0.25 -1.51,0.7 -0.53,0.61 -0.96,1.34 -1.29,2.08 0.1,-0.12 0.19,-0.25 0.29,-0.37 -0.11,0.14 -0.21,0.27 -0.3,0.4 -0.06,0.15 -0.13,0.29 -0.19,0.44 0.06,-0.14 0.12,-0.28 0.18,-0.42 -0.17,0.23 -0.3,0.46 -0.43,0.72 0.01,-0.03 0.03,-0.06 0.04,-0.1 -0.15,0.35 -0.36,0.64 -0.53,0.98 -0.16,0.32 -0.35,0.66 -0.55,0.95 0.13,-0.17 0.26,-0.34 0.39,-0.51 -0.22,0.28 -0.42,0.54 -0.58,0.85 -0.16,0.31 -0.28,0.64 -0.42,0.96 0.08,-0.2 0.17,-0.4 0.25,-0.6 -0.15,0.33 -0.37,0.65 -0.56,0.96 -0.15,0.25 -0.32,0.48 -0.49,0.71 -0.04,0.04 -0.07,0.09 -0.11,0.13 l 0.05,-0.04 c 0,0 0,0 0,0.01 -0.07,0.06 -0.15,0.11 -0.21,0.17 -0.08,0.08 -0.14,0.17 -0.21,0.26 -1.99,0.07 -2.69,2.08 -2.11,3.53 -0.2,0.14 -0.4,0.29 -0.58,0.47 -0.41,0.43 -0.65,1.01 -0.7,1.6 -0.18,0.06 -0.35,0.12 -0.51,0.21 -0.02,0 -0.03,0.02 -0.05,0.03 -0.17,0.13 -0.34,0.26 -0.51,0.39 0,0 -0.02,0.02 -0.03,0.03 -0.24,0.23 -0.42,0.49 -0.52,0.8 -0.16,0.3 -0.23,0.62 -0.22,0.96 0,0 0,0.01 0,0.02 -0.05,0.05 -0.1,0.1 -0.14,0.15 -0.08,0 -0.17,0 -0.25,0.05 -0.48,0.27 -0.8,0.96 -1.1,1.4 -0.17,0.25 -0.38,0.51 -0.38,0.8 -0.26,0.22 -0.51,0.48 -0.78,0.7 -0.16,0.1 -0.31,0.21 -0.48,0.3 -0.03,0.02 -0.05,0.04 -0.07,0.06 -0.03,0 -0.05,0 -0.08,0.01 -0.22,0.08 -0.47,0.16 -0.69,0.29 -0.19,0.08 -0.39,0.16 -0.58,0.25 -0.36,0.18 -0.68,0.42 -1.02,0.63 -0.55,0.34 -0.07,1.15 0.5,0.86 0.43,-0.22 0.9,-0.35 1.38,-0.48 -0.01,0.1 0,0.19 0.02,0.28 -0.05,0.12 -0.08,0.24 -0.09,0.36 -0.02,0.26 0.24,0.51 0.5,0.5 0.57,-0.03 1.15,-0.35 1.64,-0.61 0.59,-0.32 1.19,-0.58 1.72,-1 0.5,-0.39 0.96,-0.75 1.52,-1.06 0.3,-0.17 0.58,-0.36 0.85,-0.56 0.31,-0.17 0.69,-0.37 0.92,-0.65 0.01,0 0.02,-0.01 0.04,-0.01 0.02,0 0.05,-0.01 0.07,-0.02 0.08,-0.03 0.15,-0.06 0.22,-0.1 0.34,-0.14 0.69,-0.26 0.99,-0.47 0.25,-0.16 0.48,-0.36 0.71,-0.54 0.08,-0.07 0.16,-0.14 0.23,-0.21 0.24,-0.23 0.42,-0.49 0.52,-0.8 0.87,-0.28 1.41,-0.91 1.81,-1.65 0.35,-0.28 0.69,-0.57 0.98,-0.92 0.48,-0.57 0.89,-1.17 1.26,-1.81 0.62,-1.06 0.82,-2.22 1.19,-3.36 0.05,-0.11 0.1,-0.23 0.15,-0.34 0.2,-0.48 0.25,-0.75 0.31,-1.31 0,0 0,0 0,0 0.24,-0.42 0.47,-0.86 0.68,-1.3 0,-0.01 0.02,-0.02 0.03,-0.03 0,0.02 -0.01,0.03 -0.02,0.05 0.05,-0.09 0.1,-0.17 0.17,-0.25 v 0.02 c 0.05,-0.09 0.12,-0.17 0.17,-0.26 0.07,-0.12 0.12,-0.25 0.18,-0.38 0.2,-0.37 0.42,-0.73 0.65,-1.08 0,0 0,0.01 -0.01,0.02 0.26,-0.4 0.42,-0.85 0.42,-1.36 0,-0.03 0,-0.06 0,-0.09 0.52,-1 1.03,-2.01 1.38,-3.08 0.52,-1.04 1.5,-2.11 1.09,-3.36 z"
       id="path40" />
  </g>
  <path
     class="cls-4"
     d="m 258.91039,66.017368 c -0.62,0.58 -1.01,1.4 -1.07,2.25 -0.06,-0.65 0,-1.31 0.18,-1.94 0.03,0.63 0.06,1.27 0.29,1.86 v -1.46 c 0,-0.3 0,-0.61 -0.11,-0.89 -0.22,0.77 -0.43,1.55 -0.65,2.32 -0.02,0.06 -0.04,0.12 -0.1,0.13 -0.09,0.02 -0.14,-0.1 -0.15,-0.19 -0.06,-0.47 -0.09,-0.94 -0.09,-1.42 -0.21,0.38 -0.41,0.76 -0.62,1.14 -0.11,-0.22 -0.18,-0.46 -0.21,-0.7 -0.01,-0.1 -0.07,-0.23 -0.16,-0.21 -0.05,0.01 -0.07,0.06 -0.1,0.09 -0.14,0.18 -0.45,0.22 -0.63,0.07 -0.03,-0.07 -0.05,-0.15 -0.08,-0.22"
     id="path41" />
  <path
     class="cls-7"
     d="m 155.34039,92.037368 c -0.09,-0.11 -0.21,-0.34 -0.32,-0.5 -0.15,-0.22 -0.25,-0.32 -0.37,-0.55 -0.05,-0.1 -0.1,-0.19 -0.16,-0.28 0,0 -0.14,-0.18 -0.21,-0.25 0,0 0,0 0,0 -0.02,-0.07 -0.04,-0.13 -0.07,-0.19 -0.07,-0.12 -0.16,-0.22 -0.26,-0.31 -0.18,-0.16 -0.28,-0.3 -0.44,-0.5 -0.07,-0.09 -0.14,-0.17 -0.22,-0.25 -0.04,-0.04 -0.08,-0.07 -0.11,-0.11 -0.02,-0.02 -0.04,-0.04 -0.05,-0.06 0.02,0.03 0.02,0.03 0,0 -0.09,-0.16 -0.17,-0.31 -0.31,-0.43 -0.26,-0.21 -0.6,-0.18 -0.84,0.05 -0.2,0.19 -0.19,0.52 0,0.71 0.07,0.07 0.17,0.11 0.27,0.13 0.01,0.02 0.02,0.05 0.04,0.07 0.11,0.17 0.26,0.29 0.4,0.44 0.15,0.17 0.27,0.34 0.4,0.49 0.06,0.07 0.13,0.12 0.19,0.18 0,0 0.04,0.03 0.06,0.05 0,0 0,0 0,0 0,0 0,0 0,0 0,0 0,0 0,0 0,0 0,0 0,0 -0.03,0.08 0.1,0.25 0.14,0.31 0.06,0.09 0.15,0.15 0.22,0.24 -0.04,-0.05 0.01,0.03 0.02,0.05 0.02,0.04 0.04,0.08 0.07,0.12 0.05,0.09 0.09,0.18 0.14,0.26 0.07,0.11 0.15,0.2 0.23,0.3 0,0 0.05,0.07 0.02,0.03 0.03,0.05 0.06,0.09 0.09,0.14 0.11,0.2 0.23,0.39 0.38,0.57 0.17,0.21 0.53,0.18 0.71,0 0.21,-0.2 0.17,-0.5 0,-0.71 z"
     id="path42" />
  <path
     class="cls-7"
     d="m 183.74039,97.837368 c 0.02,-0.16 -0.04,-0.32 -0.13,-0.45 0,-0.09 -0.01,-0.18 -0.04,-0.26 -0.1,-0.33 -0.44,-0.43 -0.73,-0.3 -0.29,0.13 -0.51,0.37 -0.7,0.64 -0.76,0.43 -1.31,1.07 -1.76,1.8 -0.05,0.04 -0.09,0.08 -0.14,0.12 -0.06,0.05 -0.13,0.09 -0.19,0.13 -0.06,-0.14 -0.16,-0.25 -0.31,-0.27 -1.11,-0.16 -2.14,0.73 -3.06,1.230002 -0.57,0.31 -1.13,0.65 -1.69,0.98 -0.43,0.25 -0.91,0.51 -1.31,0.82 -0.59,-0.04 -1.2,-0.15 -1.77,0.04 -0.52,0.17 -0.4,0.91 0.03,0.98 -0.11,0.21 -0.12,0.45 0.06,0.69 0.37,0.48 1.28,0.42 1.82,0.39 1.35,-0.06 2.62,-0.19 3.93,-0.58 0.62,-0.18 1.14,-0.51 1.71,-0.8 0.54,-0.27 1.14,-0.46 1.62,-0.84 0.53,-0.41 0.92,-0.99 1.35,-1.5 0.37,-0.44 0.76,-0.950002 0.92,-1.500002 0.04,-0.15 0.07,-0.34 0.08,-0.54 0.15,-0.26 0.28,-0.52 0.31,-0.79 z"
     id="path43" />
  <path
     class="cls-8"
     d="m 207.72039,280.14737 c -1.95,6.16 -3.79,12.35 -5.54,18.57"
     id="path44" />
  <path
     class="cls-8"
     d="m 205.67039,288.34737 c -0.17,1.06 -0.34,2.13 -0.51,3.19"
     id="path45" />
  <path
     class="cls-9"
     d="m 205.74039,285.10737 c -0.68,0.92 -1.07,2.02 -1.46,3.09 -1.52,4.29 -3.04,8.59 -4.56,12.88 1.6,-3.07 2.93,-6.28 3.95,-9.58 0.74,-2.37 1.38,-4.9 3.13,-6.66 -1.58,6.12 -3.36,12.19 -5.32,18.19 1.02,-4.02 2.06,-8.08 3.95,-11.78 -0.55,6.07 -2.93,11.81 -5.65,17.26 0.62,-2.2 1.25,-4.4 1.87,-6.6 0.58,-2.06 1.17,-4.11 1.63,-6.2 -1.1,3.68 -2.21,7.39 -3.97,10.81 0.43,-3.42 1.19,-6.8 2.26,-10.08 -0.17,2.21 -0.51,4.41 -1.03,6.57 -0.03,-1.59 -0.06,-3.18 -0.08,-4.77 -0.56,1.59 -1.12,3.17 -1.67,4.76 0.41,-2.33 1.18,-4.59 2.26,-6.7 -0.84,3.83 -2.43,7.46 -4.01,11.05 0.26,-1.91 0.68,-3.79 1.28,-5.63 -0.76,2.13 -1.54,4.29 -2.73,6.22 0.25,-1.22 0.75,-2.39 1.44,-3.42 l -0.71,1.62 c 0.27,-0.12 0.51,-0.32 0.68,-0.57"
     id="path46" />
  <path
     class="cls-8"
     d="m 199.11039,300.54737 c 0.02,1.04 -0.18,2.08 -0.57,3.05"
     id="path47" />
  <path
     class="cls-8"
     d="m 201.97039,295.17737 c 0.01,0.61 0.07,1.23 0.17,1.83 0,-0.55 -0.04,-1.1 -0.14,-1.64 -0.02,-0.11 -0.05,-0.22 -0.15,-0.27 -0.13,-0.07 -0.29,0.04 -0.38,0.16 -0.24,0.28 -0.4,0.63 -0.46,1 0,0.04 0,0.08 0.02,0.11 0.02,0.03 0.06,0.03 0.1,0.03 0.3,-0.03 0.44,-0.4 0.45,-0.71"
     id="path48" />
  <path
     class="cls-9"
     d="m 199.94039,303.24737 c -0.42,2.21 -0.65,4.46 -0.67,6.7 -0.01,0.94 0.01,1.89 -0.03,2.83 -0.06,1.3 -0.25,2.58 -0.44,3.87 -0.32,2.16 -0.65,4.33 -1.3,6.42 -0.14,0.44 -0.33,0.92 -0.74,1.14 -0.69,0.36 -1.53,-0.25 -1.83,-0.97 -0.3,-0.72 -0.3,-1.54 -0.61,-2.25 -0.66,-1.55 -2.5,-2.17 -4.13,-2.62 1.22,0.31 2.24,1.29 2.61,2.49 0.26,0.84 0.23,1.8 0.75,2.51 0.33,-0.92 0.48,-1.9 0.63,-2.87 0.38,-2.48 0.76,-4.97 1.14,-7.45 0.02,-0.15 0.04,-0.31 -0.05,-0.43 -0.1,-0.12 -0.28,-0.14 -0.43,-0.14 -1.16,-0.01 -2.32,0.25 -3.36,0.77 1.41,-0.78 2.73,-1.73 3.91,-2.82"
     id="path49" />
  <path
     class="cls-9"
     d="m 152.87039,251.20737 c 0.69,4.15 1.57,8.28 2.63,12.35 0.28,1.06 0.56,2.12 0.91,3.16 0.37,1.1 0.79,2.17 1.22,3.25 1.74,4.37 3.48,8.74 5.23,13.11"
     id="path50" />
  <path
     class="cls-9"
     d="m 102.45039,285.22737 c 0.06,0.32 0.19,0.62 0.31,0.92 1.41,3.36 3.39,6.48 5.86,9.15 0.23,0.24 0.46,0.48 0.72,0.68 0.24,0.18 0.5,0.31 0.77,0.44 0.85,0.42 1.73,0.78 2.65,0.96 -0.99,-0.46 -1.9,-1.09 -2.67,-1.86 -0.28,-0.28 -0.53,-0.57 -0.78,-0.87 -0.21,-0.26 -0.41,-0.52 -0.61,-0.79 -1.14,-1.49 -2.28,-2.98 -3.41,-4.47 -0.01,0.35 0.1,0.69 0.22,1.01 0.59,1.5 1.65,2.8 2.99,3.7"
     id="path51" />
  <path
     class="cls-9"
     d="m 131.03039,177.79737 c 0,0 48.11,4.44 54.18,2.65 6.07,-1.79 14.3,0.92 21.59,-3.16 0,0 28.31,-42.38 7.67,-56.42 l -37.96,30.96 -45.96,-21.93 c 0,0 -9.41,-5.54 -16.39,2.97 0,0 -4.71,4.65 -0.51,10.38 5.59,7.62 17.36,34.55 17.36,34.55 z"
     id="path52" />
  <path
     class="cls-8"
     d="m 152.31039,70.417368 13.72,-0.21 c 0,0 1.02,-4.68 5.21,-4.17 4.19,0.51 4.53,4.27 4.53,4.27 l 13.65,0.11 3.2,0.98 7.73,-10.73 0.09,-15.82 -19.89,13.14 15.76,-5.88 -7.53,11.95 -9.58,-1.03 c 0,0 -2.32,0.78 -2.13,1.41 0.19,0.63 -1.41,-0.88 -0.72,-2.06 0.69,-1.18 1.41,-2.62 1.41,-2.62 l -2.21,0.85 c 0,0 -0.94,-1.45 -0.26,-1.96 0.68,-0.51 22.44,-15.51 22.44,-15.51 v -12.75 l -4.06,-2.38 -5.97,2.43 -8.92,18.84 -7.67,6.71 -7.83,-6.68 -9.01,-18.93 -5.36,-2.55 -4.77,2.89 v 12.41 c 0,0 22.72,15.76 22.72,15.76 0,0 -0.54,1.63 -1.19,1.41 -2.5,-0.84 1.06,3.56 -0.53,3.97 0,0 -4.23,-1.23 -4.83,-0.88 -0.6,0.35 -6.8,0.36 -6.8,0.36 l -8.03,-12.36 16.45,7.1 -20.34,-13.98 -0.26,16.04 8.04,10.51 2.93,-0.66 z"
     id="path53" />
  <path
     class="cls-1"
     d="m 185.74039,58.517368 c -0.18,-0.03 -0.33,-0.03 -0.51,0 -0.07,0.01 -0.13,0.03 -0.19,0.04 -0.02,0 -0.15,0.02 -0.06,0.01 -0.12,0 -0.24,0 -0.37,0.01 -0.14,0.02 -0.27,0.05 -0.41,0.08 0,0 -0.01,0 -0.04,0 -0.06,0 -0.12,0.02 -0.18,0.02 -0.05,0 -0.1,0.02 -0.15,0.03 -0.02,0 -0.21,0.03 -0.12,0.02 -0.05,0 -0.11,0 -0.16,0 -0.25,0.02 -0.5,0.07 -0.74,0.13 -0.21,0.05 -0.41,0.15 -0.54,0.33 -0.19,-0.09 -0.42,-0.09 -0.58,0.08 -0.17,0.19 -0.21,0.52 0,0.71 0.04,0.03 0.08,0.06 0.12,0.1 0.03,0.02 0.06,0.05 0.09,0.07 0.02,0.01 0.02,0.01 0.03,0.02 0.07,0.06 0.13,0.12 0.2,0.18 0.15,0.14 0.32,0.24 0.5,0.34 0.4,0.22 0.77,0.39 1.24,0.41 0.43,0.01 0.85,-0.02 1.19,-0.31 0.31,-0.26 0.45,-0.65 0.5,-1.04 0,-0.04 -0.01,-0.07 -0.02,-0.1 0.19,-0.12 0.37,-0.23 0.51,-0.43 0.17,-0.25 0,-0.68 -0.3,-0.73 z"
     id="path54" />
  <g
     id="g56"
     transform="translate(-153.11961,-213.22263)">
    <path
       class="cls-1"
       d="m 309.86,271.35 c 0,0 0.02,0 0.03,0.01 z"
       id="path55" />
    <path
       class="cls-1"
       d="m 312.78,272.63 c -0.1,-0.2 -0.28,-0.38 -0.46,-0.48 -0.41,-0.25 -0.92,-0.29 -1.38,-0.43 -0.12,-0.04 -0.24,-0.08 -0.37,-0.12 -0.1,-0.03 -0.28,-0.07 -0.33,-0.09 0.04,0.02 -0.03,-0.02 -0.03,-0.02 -0.03,-0.01 -0.06,-0.03 -0.09,-0.04 -0.07,-0.04 -0.15,-0.07 -0.23,-0.1 0,0 0.01,0 -0.01,0 -0.06,-0.03 -0.12,-0.05 -0.18,-0.08 -0.06,-0.02 -0.11,-0.04 -0.17,-0.06 -0.25,-0.06 -0.55,0.08 -0.62,0.35 -0.04,0.18 0.02,0.37 0.14,0.5 -0.1,0.09 -0.17,0.22 -0.16,0.36 0,0.2 0.13,0.38 0.3,0.46 0.03,0.09 0.06,0.19 0.11,0.28 0.1,0.21 0.2,0.43 0.36,0.6 0.17,0.17 0.38,0.26 0.6,0.35 0.17,0.06 0.35,0.13 0.53,0.17 0.46,0.12 1.02,0.12 1.46,-0.1 0.45,-0.23 0.66,-0.69 0.71,-1.17 0.01,-0.14 -0.06,-0.27 -0.17,-0.37 z"
       id="path56" />
  </g>
  <path
     class="cls-9"
     d="m 171.10039,55.997368 7.67,-6.71 5.68,-12.15 c 0,0 -10.89,4.36 -13.35,9.35 0,0 -12.46,-9.84 -13.65,-9.22 l 5.82,12.05 z"
     id="path57" />
  <path
     class="cls-4"
     d="m 182.14039,37.417368 c 0,0 -0.24,-4.28 -1.87,-2.55 -1.63,1.73 -9.31,8.78 -9.31,8.78 0,0 -10.8,-11.27 -11.23,-8.6 -0.42,2.68 -0.1,2.67 -0.1,2.67 l 11.48,8.78 c 0,0 3.2,-5.07 11.03,-9.07 z"
     id="path58" />
  <path
     d="m 169.80039,38.267368 c 0,0.93 -0.09,1.86 -0.29,2.77 -0.03,0.16 -0.08,0.33 -0.23,0.4 -0.19,0.09 -0.4,-0.05 -0.56,-0.19 -0.43,-0.39 -0.8,-0.83 -1.12,-1.32 0.46,0.05 0.91,0.22 1.29,0.5"
     id="path59" />
  <path
     class="cls-9"
     d="m 190.10039,184.75737 h 0.64 c -0.4,0 -0.79,0 -1.19,0 1.42,-0.03 2.85,0.11 4.23,0.43"
     id="path60" />
  <path
     class="cls-2"
     d="m 201.58039,183.16737 c 0.89,0.12 1.76,0.1 2.64,-0.1 0.26,-0.06 0.43,-0.37 0.35,-0.62 -0.09,-0.27 -0.34,-0.41 -0.62,-0.35 -0.1,0.02 -0.19,0.04 -0.29,0.06 -0.05,0 -0.1,0.02 -0.16,0.03 -0.02,0 -0.16,0.02 -0.05,0 -0.19,0.02 -0.37,0.04 -0.56,0.05 -0.19,0.01 -0.38,0 -0.56,0 -0.09,0 -0.18,0 -0.27,-0.02 -0.04,0 -0.09,0 -0.13,-0.01 -0.02,0 -0.21,-0.03 -0.09,0 -0.14,-0.02 -0.26,-0.02 -0.39,0.05 -0.1,0.06 -0.2,0.18 -0.23,0.3 -0.05,0.24 0.07,0.58 0.35,0.62 v 0 z"
     id="path61" />
  <path
     class="cls-4"
     d="m 219.97039,168.16737 c -0.9,0.09 -1.74,0.65 -2.17,1.45 0.52,-0.14 0.99,-0.48 1.29,-0.93 -0.55,0.66 -1.03,1.36 -1.45,2.11 0.47,-0.71 0.96,-1.4 1.47,-2.08"
     id="path62" />
  <path
     class="cls-4"
     d="m 32.480392,186.16737 c 4.58,3.37 9.81,5.85 15.31,7.28 0.33,0.08 0.73,0.26 0.72,0.59 -0.01,0.35 -0.45,0.49 -0.8,0.49 -1.29,0 -2.49,-0.63 -3.63,-1.24 -1.74,-0.93 -3.48,-1.87 -5.21,-2.8"
     id="path63" />
  <path
     class="cls-4"
     d="m 18.500392,177.25737 c 0.25,0.03 0.24,0.38 0.25,0.63 0.01,0.25 0.36,0.51 0.45,0.28 -0.69,2.31 -1.01,4.72 -0.95,7.13 0.02,0.78 0.08,1.57 -0.02,2.34 -0.14,1.13 -0.6,2.19 -1.02,3.24 -1.31,3.28 -2.3,6.68 -2.97,10.14 -0.28,1.48 -0.52,3.02 -1.34,4.29 0.75,-2.51 1.5,-5.02 2.26,-7.53 0.39,-1.29 0.77,-2.58 1.15,-3.86 0.95,-3.22 1.89,-6.59 1.25,-9.88"
     id="path64" />
  <path
     class="cls-4"
     d="m 6.8103919,183.33737 c -0.32,2.95 0.53,5.89 1.38,8.73 -0.08,-1.07 -0.15,-2.14 -0.23,-3.2"
     id="path65" />
  <path
     class="cls-9"
     d="m 172.12039,297.92737 c 0.24,-0.08 0.42,-0.25 0.42,-0.55 0,-0.33 -0.16,-0.69 -0.3,-0.98 -0.19,-0.39 -0.37,-0.79 -0.53,-1.2 -0.17,-0.43 -0.34,-0.86 -0.52,-1.28 l -0.78,-2.17 c -0.02,-0.06 -0.04,-0.11 -0.06,-0.17 l -16.16,-45.04 c 0.02,0.12 0.05,0.25 0.07,0.37 -0.28,-0.25 -0.85,-0.14 -0.84,0.35 0,0.13 0,0.27 0,0.4 -0.17,-0.05 -0.35,-0.02 -0.49,0.11 -0.05,0.05 -0.09,0.12 -0.11,0.19 -0.16,0.04 -0.31,0.11 -0.44,0.24 -0.15,0.13 -0.25,0.3 -0.33,0.47 -1.38,0.4 -1.94,1.74 -1.71,3.06 0.19,1.12 0.5,2.33 0.83,3.42 0.08,0.2 0.17,0.4 0.25,0.6 -0.15,-0.3 -0.18,-0.34 -0.1,-0.13 0.06,0.28 0.14,0.56 0.21,0.83 0.16,0.61 0.24,1.22 0.35,1.84 0.29,1.67 1.01,3.89 1.55,5.79 0.6,2.07 1.39,4.13 1.9,6.21 0.25,1.02 0.67,2.22 1.02,3.06 0.32,0.75 0.46,1.73 0.84,2.55 0.01,0.11 0.02,0.23 0.06,0.34 0.02,0.09 0.05,0.17 0.08,0.26 0.08,0.21 0.17,0.42 0.27,0.63 -0.01,-0.02 -0.02,-0.05 -0.04,-0.08 -0.18,-0.37 -0.03,-0.03 0,0.06 0.1,0.28 0.21,0.55 0.35,0.81 0.22,0.41 0.51,0.77 0.75,1.16 0.14,0.23 0.26,0.46 0.39,0.7 0.05,0.08 0.09,0.17 0.14,0.25 0.09,0.18 0.1,0.17 0,-0.04 -0.11,-0.26 -0.09,-0.22 0.06,0.14 -0.04,-0.09 0.33,0.77 0.12,0.29 -0.22,-0.51 0.13,0.36 0.24,0.57 0.04,0.08 0.1,0.16 0.14,0.23 0.07,0.1 0.18,0.43 0.08,0.06 0,0 0,0 0,-0.01 0,0.03 0.02,0.06 0.02,0.07 0.04,0.1 0.07,0.2 0.1,0.3 0.13,0.36 0.28,0.73 0.45,1.07 0.05,0.1 0.1,0.2 0.15,0.3 0.12,0.33 0.24,0.66 0.39,0.97 0,0.02 0.1,0.23 0.12,0.22 0,0 0,-0.03 -0.02,-0.07 0.02,0.04 0.03,0.07 0.05,0.13 0.11,0.26 0.2,0.49 0.37,0.71 0.11,0.15 0.22,0.29 0.34,0.44 0.09,0.29 0.2,0.58 0.34,0.88 0.14,0.3 0.39,0.56 0.68,0.76 0.07,1.06 0.51,1.96 1.06,2.86 0.36,0.59 0.76,1.16 1.07,1.77 0.06,0.16 0.11,0.31 0.17,0.47 0.11,0.32 0.25,0.63 0.4,0.94 0.08,0.23 0.17,0.45 0.31,0.65 0.27,0.39 0.59,0.72 0.99,0.94 0.03,0.07 0.07,0.14 0.1,0.21 0.14,0.33 0.29,0.63 0.47,0.94 0.04,0.07 0.09,0.13 0.13,0.2 0,0.02 0.01,0.05 0.02,0.07 0.06,0.13 0.12,0.26 0.18,0.39 0.04,0.08 0.06,0.16 0.08,0.24 -0.24,0.16 -0.31,0.52 -0.09,0.77 0.16,0.18 0.33,0.36 0.49,0.53 0,0.01 0,0.01 0.01,0.02 0.02,0.02 0.03,0.04 0.05,0.07 0.03,0.04 0.05,0.08 0.08,0.12 0.06,0.09 0.12,0.18 0.18,0.28 0.12,0.19 0.2,0.39 0.32,0.58 0.07,0.1 0.15,0.2 0.23,0.3 -0.05,-0.07 -0.02,-0.01 0.01,0.02 0,0.01 0,0.01 0,0.02 0,0 0,0 0,0 0,0.01 0,0 0,-0.01 0,0 0,-0.02 0,-0.04 0.02,0.26 0.21,0.51 0.5,0.5 0.14,0 0.29,-0.08 0.39,-0.19 0.02,0.03 0.04,0.06 0.06,0.1 0.12,0.24 0.46,0.31 0.68,0.18 0.11,-0.06 0.17,-0.15 0.2,-0.25 0.08,-0.02 0.16,-0.06 0.21,-0.12 0.08,-0.09 0.12,-0.19 0.13,-0.3 0.05,0.06 0.1,0.13 0.15,0.19 0.33,0.35 1,-0.01 0.84,-0.49 -0.09,-0.26 -0.21,-0.5 -0.34,-0.74 0,0 0,0 0,0 0.12,-0.09 0.17,-0.21 0.18,-0.34 z"
     id="path66" />
  <path
     class="cls-9"
     d="m 202.93039,294.21737 c -2.49,0 -3.05,2.99 -1.68,4.34 -0.21,0.03 -0.43,0.06 -0.64,0.09 -0.42,0.12 -0.79,0.33 -1.1,0.64 -0.04,0.03 -0.07,0.06 -0.1,0.1 -0.13,0.16 -0.28,0.35 -0.4,0.52 0,0.01 -0.02,0.02 -0.02,0.03 -0.01,0.02 -0.03,0.04 -0.04,0.06 -0.08,0.13 -0.13,0.29 -0.19,0.43 -0.06,0.14 -0.13,0.29 -0.18,0.44 -0.06,0.2 -0.1,0.4 -0.15,0.6 -0.1,0.33 -0.12,0.66 -0.04,1 0,0.2 0.06,0.39 0.13,0.57 -0.63,0 -1.25,0.2 -1.67,0.72 -0.5,0.6 -0.8,1.24 -0.92,1.96 -0.02,0.09 -0.04,0.17 -0.07,0.26 0.02,-0.05 0.04,-0.1 0.06,-0.15 0,0.01 0,0.03 0,0.04 -0.09,0.22 -0.18,0.44 -0.26,0.67 -0.23,0.54 -0.46,1.07 -0.68,1.61 0.08,-0.2 0.17,-0.4 0.25,-0.6 -0.11,0.26 -0.25,0.51 -0.38,0.75 -0.01,0.01 -0.03,0.02 -0.04,0.03 -0.02,0.01 -0.03,0.02 -0.05,0.04 0.02,-0.01 0.03,-0.02 0.05,-0.03 -0.62,0.48 -1.18,1 -1.76,1.52 -0.03,0.03 -0.06,0.05 -0.09,0.08 -0.1,0.07 -0.2,0.14 -0.3,0.21 -0.25,0.17 -0.48,0.35 -0.72,0.52 -0.32,0.24 -0.65,0.49 -0.99,0.72 -1.27,0.16 -2.24,1.15 -2.28,2.47 -0.01,0.56 0.04,1.08 0.19,1.55 -0.75,0.34 -1.29,1.18 -1.39,1.95 -0.14,1.03 0.35,1.91 1.19,2.49 0.39,0.26 0.84,0.43 1.29,0.56 0.12,0.03 0.25,0.07 0.38,0.09 0.01,0.01 0.02,0.02 0.04,0.04 0.04,0.09 0.08,0.18 0.11,0.24 0,0 0,0 0,0.02 0.02,0.08 0.03,0.17 0.05,0.26 0,0.09 0,0.17 0.01,0.26 0.04,0.46 0.16,0.9 0.25,1.35 0.16,0.79 0.48,1.57 0.83,2.3 0.47,0.95 1.24,1.69 2.29,1.96 1.08,0.29 2.17,0 3.15,-0.46 0.32,-0.15 0.59,-0.34 0.84,-0.55 1.14,-0.25 2.03,-1.2 2.03,-2.44 0,-0.62 0,-1.23 0,-1.85 0,-0.01 0,-0.03 0,-0.04 0,-0.69 0,-1.37 0,-2.06 0,-0.4 0,-0.79 -0.09,-1.19 -0.04,-0.2 -0.04,-0.12 -0.02,0 -0.05,-0.36 -0.13,-0.7 -0.3,-1.05 -0.03,-0.06 -0.12,-0.27 -0.1,-0.19 -0.06,-0.15 -0.12,-0.3 -0.17,-0.38 -0.22,-0.38 -0.52,-0.72 -0.86,-0.99 -0.51,-0.41 -1.02,-0.7 -1.6,-0.97 -0.16,-0.39 -0.42,-0.73 -0.73,-1 0.32,-0.25 0.64,-0.51 0.95,-0.79 0.16,-0.15 0.32,-0.3 0.48,-0.44 0.08,-0.07 0.16,-0.15 0.24,-0.22 -0.05,0.04 -0.08,0.06 -0.12,0.09 0.23,-0.18 0.96,-0.79 0.26,-0.19 0.48,-0.41 0.7,-0.49 1.06,-1.02 0.54,-0.8 0.84,-1.72 1.21,-2.61 -0.08,0.2 -0.17,0.4 -0.25,0.6 0.27,-0.6 0.51,-1.21 0.76,-1.82 -0.08,0.2 -0.17,0.4 -0.25,0.6 0.22,-0.5 0.35,-0.87 0.43,-1.32 0,-0.02 0.01,-0.03 0.02,-0.05 0.18,-0.34 0.3,-0.7 0.3,-1.12 0,-0.29 -0.06,-0.6 -0.18,-0.89 0.42,-0.02 0.81,-0.12 1.17,-0.33 0.17,-0.13 0.34,-0.26 0.51,-0.39 0.31,-0.31 0.52,-0.68 0.64,-1.1 0.03,-0.1 0.05,-0.2 0.07,-0.3 0.1,-0.15 0.19,-0.31 0.25,-0.49 0.16,-0.3 0.23,-0.62 0.22,-0.96 0.01,-0.34 -0.06,-0.67 -0.22,-0.96 -0.1,-0.31 -0.27,-0.58 -0.52,-0.8 -0.03,-0.02 -0.06,-0.05 -0.1,-0.07 3.2,-0.01 3.21,-5 -0.01,-5 z"
     id="path67" />
  <path
     class="cls-9"
     d="m 208.13039,280.27737 c -0.17,-0.17 -0.54,-0.21 -0.71,0 -0.18,0.23 -0.27,0.47 -0.41,0.72 -0.13,0.25 -0.32,0.46 -0.46,0.7 -0.13,0.23 -0.15,0.49 -0.28,0.72 -0.15,0.27 -0.24,0.53 -0.29,0.83 -0.1,0.53 -0.3,1.03 -0.38,1.57 -0.04,0.27 -0.1,0.53 -0.14,0.79 -0.03,0.15 -0.04,0.4 -0.13,0.47 -0.21,0.17 -0.18,0.53 0,0.71 0.21,0.21 0.5,0.17 0.71,0 0.35,-0.28 0.37,-0.82 0.46,-1.23 0.06,-0.3 0.07,-0.6 0.17,-0.89 0.09,-0.26 0.17,-0.54 0.23,-0.81 0.06,-0.25 0.06,-0.53 0.16,-0.76 0.11,-0.26 0.26,-0.46 0.32,-0.73 0.06,-0.24 0.24,-0.47 0.38,-0.67 0.16,-0.22 0.22,-0.51 0.39,-0.72 0.17,-0.21 0.21,-0.5 0,-0.71 z"
     id="path68" />
  <path
     class="cls-9"
     d="m 206.42039,289.43737 c -0.06,-0.1 -0.18,-0.2 -0.3,-0.23 -0.24,-0.05 -0.58,0.07 -0.61,0.35 -0.02,0.17 -0.1,0.34 -0.15,0.5 -0.06,0.19 -0.12,0.37 -0.12,0.57 0,0.43 0,0.86 0,1.29 0,0.26 0.23,0.51 0.5,0.5 0.27,-0.01 0.5,-0.22 0.5,-0.5 0,-0.42 0,-0.83 0,-1.25 0,-0.01 0,-0.04 0,-0.07 0,0 0,0 0,-0.02 0,-0.02 0.01,-0.04 0.02,-0.06 0.02,-0.08 0.05,-0.16 0.08,-0.23 0.05,-0.15 0.12,-0.3 0.14,-0.46 0.02,-0.14 0.02,-0.26 -0.05,-0.39 z"
     id="path69" />
  <path
     class="cls-9"
     d="m 113.74039,297.25737 c -0.16,-0.2 -0.43,-0.28 -0.67,-0.35 0.04,-0.2 -0.02,-0.4 -0.23,-0.49 -0.57,-0.25 -1.12,-0.59 -1.66,-0.95 -0.02,-0.08 -0.06,-0.16 -0.12,-0.24 -0.25,-0.29 -0.58,-0.52 -0.84,-0.79 -0.28,-0.3 -0.56,-0.6 -0.82,-0.91 -0.2,-0.23 -0.56,-0.64 -0.92,-0.76 -0.08,-0.1 -0.18,-0.2 -0.29,-0.28 -0.12,-0.28 -0.35,-0.55 -0.57,-0.81 -1.1,-1.33 -2.01,-2.83 -3.01,-4.23 -0.29,-0.4 -0.51,-0.85 -0.75,-1.28 -0.23,-0.41 -0.49,-0.79 -0.72,-1.2 -0.01,-0.02 -0.02,-0.05 -0.03,-0.07 0,0 -0.02,-0.01 -0.02,-0.02 -0.02,-0.03 -0.04,-0.06 -0.05,-0.09 -0.24,-0.45 -0.5,-0.9 -0.68,-1.38 -0.14,-0.4 -0.18,-0.87 -0.42,-1.22 -0.35,-0.54 -1.22,-0.03 -0.86,0.5 0.23,0.35 0.27,0.88 0.43,1.27 0.18,0.43 0.4,0.84 0.62,1.25 0.01,0.02 0.03,0.05 0.04,0.07 -0.06,0.78 0.32,1.53 0.62,2.24 0.34,0.8 0.68,1.63 1.16,2.36 0.43,0.65 0.96,1.24 1.35,1.91 0.22,0.37 0.4,0.8 0.67,1.15 0.07,0.29 0.13,0.59 0.35,0.81 0.15,0.15 0.32,0.23 0.49,0.26 0,0.08 0.02,0.16 0.05,0.24 0.15,0.36 0.44,0.6 0.74,0.85 0.4,0.34 0.83,0.62 1.23,0.95 0.37,0.31 0.73,0.58 1.16,0.8 0.24,0.12 0.49,0.23 0.74,0.32 0.2,0.07 0.47,0.09 0.66,0.19 0.08,0.04 0.15,0.06 0.22,0.06 0.31,0.18 0.64,0.33 0.97,0.47 0.3,0.13 0.62,0.32 0.96,0.22 0.39,-0.11 0.45,-0.55 0.22,-0.84 z"
     id="path70" />
  <path
     class="cls-8"
     d="m 131.01039,214.92737 c 4.58,3.89 10.08,6.61 15.96,7.86 0.63,0.13 0.9,-0.83 0.27,-0.96 -5.71,-1.22 -11.06,-3.83 -15.52,-7.61 -0.49,-0.41 -1.2,0.29 -0.71,0.71 z"
     id="path71" />
  <path
     class="cls-8"
     d="m 102.58039,206.09737 c 0.86,1.54 2.26,2.77 3.37,4.13 1.11,1.36 2.25,2.87 3.32,4.34 2.09,2.87 4.11,5.8 6.42,8.51 1.18,1.39 2.44,2.68 3.77,3.92 1.46,1.36 2.79,2.77 4.05,4.32 2.31,2.82 4.97,5.31 7.81,7.59 3.19,2.56 6.56,4.85 9.94,7.14 0.53,0.36 1.04,-0.5 0.5,-0.86 -5.96,-4.03 -12.01,-8.14 -16.75,-13.62 -1.27,-1.47 -2.44,-2.99 -3.85,-4.33 -1.29,-1.22 -2.6,-2.41 -3.79,-3.73 -2.38,-2.62 -4.43,-5.52 -6.49,-8.39 -1.16,-1.61 -2.33,-3.21 -3.56,-4.75 -0.62,-0.78 -1.27,-1.56 -1.93,-2.31 -0.7,-0.79 -1.44,-1.53 -1.96,-2.46 -0.31,-0.56 -1.18,-0.06 -0.86,0.5 v 0 z"
     id="path72" />
  <path
     class="cls-8"
     d="m 131.79039,239.33737 c 4.99,4.26 10.15,8.55 16.42,10.77 l 0.13,-0.98 c -1.6,0.17 -2.96,-0.77 -4.25,-1.58 -0.68,-0.43 -1.36,-0.86 -2.03,-1.3 -0.47,-0.3 -1.73,-0.88 -1.5,-1.6 0.19,-0.62 -0.77,-0.88 -0.96,-0.27 -0.25,0.81 0.23,1.49 0.84,1.98 0.78,0.63 1.7,1.12 2.54,1.66 1.6,1.02 3.36,2.32 5.36,2.11 0.56,-0.06 0.69,-0.79 0.13,-0.98 -6.09,-2.16 -11.13,-6.37 -15.98,-10.51 -0.49,-0.42 -1.2,0.29 -0.71,0.71 v 0 z"
     id="path73" />
  <path
     class="cls-8"
     d="m 194.13039,199.28737 c 0,0 -0.03,-0.08 0.03,0.05 0.03,0.08 0.05,0.11 0.08,0.19 0.05,0.16 0.1,0.33 0.15,0.49 0.1,0.37 0.18,0.75 0.22,1.13 0.04,0.38 0.06,0.75 0.05,1.13 0,0.31 -0.02,0.61 -0.22,0.87 l 0.93,0.25 c -0.1,-0.96 0.29,-1.88 0.24,-2.83 -0.05,-0.95 -0.48,-1.83 -0.41,-2.77 0.05,-0.64 -0.95,-0.64 -1,0 -0.07,0.96 0.37,1.83 0.41,2.77 0.04,0.94 -0.34,1.87 -0.24,2.83 0.05,0.51 0.63,0.66 0.93,0.25 0.28,-0.38 0.33,-0.86 0.35,-1.32 0.02,-0.5 -0.02,-1 -0.08,-1.5 -0.06,-0.5 -0.18,-0.99 -0.33,-1.47 -0.15,-0.45 -0.34,-0.9 -0.83,-1.03 -0.62,-0.17 -0.89,0.79 -0.27,0.96 v 0 z"
     id="path74" />
  <path
     class="cls-8"
     d="m 40.490392,237.79737 c 0,0.13 -0.13,0.32 -0.18,0.45 -0.09,0.2 -0.17,0.4 -0.24,0.61 -0.12,0.4 -0.25,0.79 -0.34,1.2 -0.11,0.45 -0.22,0.89 -0.27,1.35 -0.05,0.48 -0.05,0.96 -0.05,1.44 0,0.64 1,0.64 1,0 0,-0.48 0,-0.96 0.05,-1.44 0.05,-0.43 0.18,-0.85 0.28,-1.27 0.09,-0.4 0.22,-0.79 0.36,-1.17 0.14,-0.38 0.41,-0.75 0.4,-1.16 -0.02,-0.64 -1.02,-0.64 -1,0 z"
     id="path75" />
  <path
     class="cls-8"
     d="m 30.140392,224.07737 c -0.59,-0.49 -1.13,-1.02 -1.76,-1.48 -0.56,-0.41 -1.01,-0.93 -1.51,-1.4 0.03,-0.06 0.04,-0.13 0.04,-0.19 -0.03,-0.61 -0.8,-1.05 -1.38,-1.37 -0.1,-0.1 -0.2,-0.2 -0.31,-0.3 -0.39,-0.38 -0.76,-0.74 -1.18,-1.1 -1.01,-0.87 -1.97,-1.76 -2.9,-2.72 -0.84,-0.87 -1.73,-1.7 -2.62,-2.5 -0.47,-0.42 -0.85,-0.94 -1.24,-1.44 -0.17,-0.22 -0.32,-0.45 -0.51,-0.65 -0.11,-0.12 -0.24,-0.22 -0.36,-0.33 -0.04,-0.03 -0.28,-0.35 -0.16,-0.17 -0.34,-0.54 -1.21,-0.04 -0.86,0.5 0.15,0.23 0.37,0.4 0.56,0.59 0.23,0.22 0.41,0.49 0.61,0.74 0.4,0.52 0.81,1.08 1.31,1.51 1,0.86 1.92,1.81 2.87,2.73 0.5,0.48 0.94,1.01 1.48,1.46 0.15,0.12 0.29,0.24 0.43,0.37 -0.01,0.13 0.02,0.26 0.15,0.38 0.53,0.48 0.81,1.16 1.39,1.62 0.58,0.46 1.19,0.89 1.75,1.36 0.58,0.49 1.05,1.1 1.66,1.56 0.65,0.49 1.23,1.02 1.85,1.54 0.49,0.41 1.2,-0.29 0.71,-0.71 z"
     id="path76" />
  <path
     class="cls-8"
     d="m 264.03039,68.287368 c -0.06,-0.19 -0.14,-0.38 -0.24,-0.55 -0.07,-0.12 -0.15,-0.23 -0.23,-0.34 0,-0.01 -0.01,-0.01 -0.02,-0.02 0,0 0,0 0,0 -0.01,-0.05 -0.02,-0.09 -0.04,-0.14 -0.03,-0.11 -0.08,-0.21 -0.15,-0.31 0.05,-0.07 0.09,-0.16 0.09,-0.27 0,-0.25 -0.23,-0.53 -0.5,-0.5 -0.25,0.03 -0.47,0.09 -0.7,0.19 -0.23,0.1 -0.45,0.14 -0.7,0.21 -0.34,0.09 -0.68,0.22 -1.02,0.32 -0.31,0.1 -0.65,0.21 -0.89,0.45 -0.37,0.37 -0.14,0.89 0.19,1.2 0.33,0.31 0.76,0.48 1.17,0.64 0.43,0.17 0.86,0.38 1.31,0.48 0.44,0.11 0.96,0.14 1.37,-0.09 0.46,-0.26 0.5,-0.81 0.35,-1.26 z m -1.07,0.43 c -0.31,0 -0.58,-0.09 -0.88,-0.21 -0.33,-0.13 -0.67,-0.25 -0.99,-0.39 -0.12,-0.05 -0.26,-0.12 -0.38,-0.19 -0.02,-0.01 -0.05,-0.03 -0.07,-0.05 0.01,0 0.03,-0.01 0.04,-0.02 0.1,-0.03 0.2,-0.06 0.3,-0.09 0.31,-0.09 0.61,-0.22 0.92,-0.29 0.08,-0.02 0.15,-0.05 0.22,-0.07 0.04,0.18 0.16,0.34 0.35,0.39 0.06,0.02 0.12,0.02 0.19,0.01 0.05,0.09 0.1,0.18 0.17,0.26 0.07,0.1 0.12,0.21 0.18,0.32 0,0.02 0,0.01 0,0.02 0.01,0.03 0.02,0.05 0.03,0.08 0.02,0.07 0.04,0.13 0.06,0.2 -0.02,0 -0.03,0 -0.03,0 -0.04,0 -0.07,0 -0.11,0 z"
     id="path77" />
  <path
     class="cls-8"
     d="m 288.66039,80.017368 c -0.1,-0.17 -0.26,-0.23 -0.43,-0.23 0.06,-0.14 0.04,-0.32 -0.03,-0.46 -0.22,-0.47 -0.83,-0.25 -1.18,-0.11 -0.11,0.04 -0.21,0.09 -0.32,0.13 -0.05,0.02 -0.27,0.1 -0.07,0.03 -0.33,0.11 -0.65,0.25 -0.97,0.38 -0.3,0.11 -0.59,0.22 -0.89,0.33 -0.3,0.12 -0.56,0.27 -0.83,0.43 -0.45,0.26 -1.11,0.39 -1.14,1.02 -0.03,0.57 0.75,0.63 0.95,0.19 0.03,-0.02 0.08,-0.04 0.08,-0.05 0.06,-0.03 0.13,-0.06 0.19,-0.09 0.08,-0.04 0.16,-0.09 0.24,-0.13 0,0 0,0 0,0 0.26,0.28 0.64,0.28 0.98,0.21 0.31,-0.06 0.63,-0.14 0.93,-0.23 0.38,-0.12 0.77,-0.21 1.14,-0.35 0.38,-0.15 0.78,-0.23 1.15,-0.41 0.24,-0.12 0.31,-0.46 0.18,-0.68 z"
     id="path78" />
  <path
     class="cls-4"
     d="m 271.29039,50.147368 c -0.26,0 -0.51,-0.07 -0.77,-0.09 -0.26,-0.02 -0.52,0 -0.78,0 -0.52,0 -1.05,0 -1.57,0 -0.45,0 -0.89,0 -1.33,-0.02 -0.43,-0.02 -0.85,0.03 -1.18,0.34 -0.48,0.44 0.23,1.14 0.71,0.71 0.13,-0.12 0.56,-0.03 0.74,-0.03 0.45,0.02 0.91,0 1.36,0 0.45,0 0.95,0 1.42,0 0.23,0 0.46,-0.02 0.68,0 0.24,0.02 0.47,0.08 0.72,0.09 0.64,0.02 0.64,-0.98 0,-1 z"
     id="path79" />
  <path
     class="cls-4"
     d="m 258.67039,65.827368 c -0.23,-0.04 -0.44,0.03 -0.56,0.23 -0.04,0.06 -0.06,0.12 -0.09,0.18 -0.11,-0.06 -0.24,-0.08 -0.37,-0.05 -0.07,-0.07 -0.14,-0.14 -0.23,-0.2 -0.15,-0.1 -0.35,-0.08 -0.5,0 -0.21,0.11 -0.35,0.28 -0.45,0.48 -0.14,-0.2 -0.32,-0.35 -0.57,-0.42 -0.32,-0.09 -0.64,0.03 -0.96,0.03 -0.19,0 -0.38,0 -0.58,0 -0.17,0 -0.29,-0.04 -0.45,-0.07 -0.27,-0.05 -0.54,0.07 -0.61,0.35 -0.07,0.24 0.08,0.57 0.35,0.62 0.16,0.03 0.3,0.08 0.46,0.1 0.18,0.02 0.36,0 0.54,0 0.32,0 0.62,-0.03 0.93,-0.06 0.01,0 0.04,0 0.06,0 0,0 0.03,0.03 0.03,0.03 0.02,0.06 0.06,0.2 0.09,0.29 0.07,0.29 0.17,0.56 0.39,0.77 0.2,0.19 0.5,0.19 0.71,0 0.2,-0.19 0.26,-0.45 0.32,-0.71 0.03,0.1 0.06,0.18 0.08,0.27 0,0.15 0.02,0.29 0.05,0.43 0.02,0.09 0.07,0.16 0.14,0.22 0.06,0.11 0.14,0.22 0.28,0.29 0.36,0.2 0.66,-0.04 0.85,-0.34 0.14,-0.22 0.33,-0.39 0.48,-0.61 0.13,-0.2 0.16,-0.43 0.18,-0.66 0.03,-0.42 -0.01,-1.08 -0.53,-1.18 z"
     id="path80" />
  <path
     class="cls-4"
     d="m 206.35039,60.777368 c -0.5,0.45 -1.09,0.84 -1.62,1.26 -0.46,0.37 -1.04,0.84 -1.31,1.37 -0.32,0.64 -0.41,1.39 -0.69,2.05 -0.29,0.67 -0.72,1.26 -1.09,1.89 -0.7,1.21 -1.47,2.39 -2.54,3.3 -0.41,0.35 -0.53,0.87 -0.34,1.38 0.1,0.27 0.3,0.44 0.47,0.66 0.33,0.41 0.31,0.76 0.29,1.25 -0.03,0.64 0.97,0.64 1,0 0,-0.11 0,-0.21 0,-0.31 0.02,0 0.04,0.03 0.06,0.04 0.21,0.06 0.46,-0.04 0.56,-0.23 0.22,-0.4 0.28,-0.99 0.38,-1.43 0.13,-0.65 0.38,-1.24 0.75,-1.79 0.65,-0.97 1.32,-2.01 1.7,-3.13 0.19,-0.55 0.3,-1.08 0.3,-1.67 0,-0.52 -0.03,-1 0.28,-1.44 0.34,-0.48 0.94,-0.84 1.34,-1.27 0.38,-0.41 0.75,-0.84 1.15,-1.23 0.46,-0.45 -0.23,-1.14 -0.71,-0.71 z"
     id="path81" />
  <path
     d="m 194.52039,207.04737 c 1.94,2.65 7.69,11.3 11.5,25.23 4.26,15.59 6.89,41.17 -4.78,74.55 -0.07,0.21 -0.07,0.44 0,0.65 0.02,0.05 1.7,5.35 -2.03,17.51 -3.45,11.25 -12.37,30.82 -35.25,60.16 -0.17,0.21 -0.24,0.49 -0.2,0.76 l 5.68,39.49 c 0.27,1.9 0.05,3.86 -0.65,5.65 -0.43,1.11 -0.88,2.4 -1.35,3.76 -2.21,6.36 -5.24,15.07 -11.14,18.78 -2.29,1.44 -3.9,2.38 -5.39,2.38 -1.13,0 -2.76,-0.48 -5.36,-4.26 -2.08,-3.03 -3.68,-6.52 -4.74,-10.37 l -4.83,-17.56 c -0.37,-1.36 -0.18,-2.83 0.53,-4.02 2.78,-4.64 8.73,-16.92 4.13,-30.69 -0.03,-0.09 -0.07,-0.17 -0.12,-0.24 -0.02,-0.03 -1.86,-2.82 -1.09,-6.35 0.65,-2.94 2.89,-5.6 6.66,-7.89 11.36,-6.91 10.51,-33.12 6.32,-53.46 -0.23,-1.12 0.06,-2.28 0.79,-3.16 8.35,-10.06 14.42,-16.79 15.85,-17.57 0.24,-0.13 0.42,-0.36 0.49,-0.62 0.07,-0.27 0.03,-0.55 -0.12,-0.78 -0.17,-0.28 -17,-27.6 -18.62,-48.69 l 43.72,-43.23 m 0.1,-1.54 -44.86,44.35 c 1.44,21.65 18.8,49.61 18.8,49.61 -2.26,1.23 -12.32,13.2 -16.14,17.81 -0.93,1.12 -1.3,2.58 -1,4 3.77,18.3 5.39,45.56 -5.86,52.41 -11.71,7.13 -5.88,15.66 -5.88,15.66 4.46,13.32 -1.24,25.2 -4.04,29.86 -0.86,1.44 -1.08,3.18 -0.64,4.8 l 4.83,17.56 c 1.04,3.8 2.65,7.43 4.88,10.67 2.37,3.44 4.26,4.7 6.19,4.7 1.8,0 3.64,-1.1 5.92,-2.54 7.5,-4.72 10.45,-16.73 12.9,-23.02 0.76,-1.96 1.01,-4.08 0.71,-6.16 l -5.68,-39.49 c 44.84,-57.5 37.45,-78.61 37.45,-78.61 22.81,-65.19 -7.56,-101.62 -7.56,-101.62 v 0 z"
     id="path82" />
  <path
     d="m 102.15039,206.67737 c 5.82,7.79 33.17,43.39 46.66,44.14 -2.58,7.82 -16.36,46.77 -34.29,46.77 -0.47,0 -0.93,-0.03 -1.41,-0.08 -3.26,-0.37 -6.11,-2.68 -8.46,-6.85 -10.419998,-18.47 -8.229998,-68.29 -2.51,-83.97 m -0.24,-2.03 c -7.389998,16.13 -10.479998,91.36 11.11,93.84 0.51,0.06 1.02,0.09 1.52,0.09 20.8,0 35.68,-48.83 35.68,-48.83 -0.31,0.05 -0.63,0.07 -0.97,0.07 -14.3,0 -47.34,-45.17 -47.34,-45.17 z m 48.31,45.09 z"
     id="path83" />
  <path
     class="cls-6"
     d="m 194.18039,206.68737 c 0,0 3.91,-3.96 0.44,-9.84 0,0 -42.29,64.24 -86.06,-10.88 l -6.66,20.17"
     id="path84" />
  <path
     d="m 20.250392,179.22737 c 0.13,0 0.24,0.04 0.35,0.12 7.88,6.13 22.28,16.42 30.18,16.42 0.24,0 0.47,0 0.69,-0.03 h 0.05 c 0.16,0 0.3,0.06 0.41,0.17 0.11,0.11 0.17,0.26 0.16,0.42 l -0.72,29.59 c -0.03,1.28 0.9,2.41 2.17,2.61 l 15.96,2.56 c 1.58,0.25 3.01,1.06 4.02,2.26 2.22,2.65 7.18,9.26 5.36,13.37 -0.38,0.85 -0.79,1.85 -1.22,2.91 -2.42,5.89 -6.09,14.8 -10.64,14.8 -0.25,0 -0.51,-0.03 -0.77,-0.09 -0.17,-0.04 -0.34,-0.06 -0.51,-0.06 -0.58,0 -1.16,0.21 -1.62,0.6 -1.19,0.99 -5.29,4.23 -7.98,4.23 -0.78,0 -1.29,-0.27 -1.66,-0.88 -2.6,-4.29 -9.99,-14.68 -10.83,-15.85 -0.01,-0.02 -0.02,-0.03 -0.03,-0.05 -1.95,-3.66 -5.09,-11.39 -3.05,-14.45 0.76,-1.14 0.6,-2.59 -0.39,-3.45 -11.68,-10.2 -24.76,-22.51 -26.43,-26.5 -0.05,-0.13 -0.02,-0.28 0,-0.35 0.97,-2.81 5.81,-17.35 5.91,-27.78 0,-0.38 0.34,-0.55 0.58,-0.55 m 0.01,-1.02 c -0.81,0 -1.57,0.63 -1.58,1.55 -0.09,10.28 -4.89,24.67 -5.85,27.47 -0.12,0.35 -0.13,0.73 0.02,1.07 2.21,5.26 21.54,22.36 26.7,26.86 0.63,0.55 0.67,1.45 0.21,2.14 -2.84,4.26 2.45,14.44 3,15.48 0.03,0.06 0.06,0.11 0.1,0.16 0.72,1 8.18,11.49 10.78,15.79 0.59,0.98 1.48,1.36 2.51,1.36 2.96,0 7.08,-3.18 8.62,-4.46 0.28,-0.23 0.63,-0.36 0.98,-0.36 0.1,0 0.2,0.01 0.3,0.03 0.33,0.07 0.66,0.11 0.99,0.11 6.1,0 10.22,-12.53 12.77,-18.3 1.98,-4.49 -2.68,-11.04 -5.5,-14.42 -1.17,-1.4 -2.82,-2.32 -4.63,-2.61 l -15.96,-2.56 c -0.78,-0.13 -1.35,-0.81 -1.33,-1.6 l 0.72,-29.59 c 0.02,-0.89 -0.7,-1.61 -1.57,-1.61 -0.04,0 -0.09,0 -0.13,0 -0.2,0.02 -0.4,0.02 -0.61,0.02 -7.89,0 -23.33,-11.35 -29.57,-16.2 -0.3,-0.23 -0.63,-0.33 -0.96,-0.33 v 0 z"
     id="path85" />
  <path
     class="cls-6"
     d="m 13.370392,208.30737 c 0,0 -19.7900001,-30.08 6.04,-52.47 28.79,-24.95 37.91,-31.19 37.91,-31.19"
     id="path86" />
  <path
     class="cls-6"
     d="m 144.82039,94.057368 4.51,6.420002 c 0.28,0.4 0.67,0.7 1.13,0.86 l 21.22,7.57 c 0.57,0.2 1.18,0.22 1.76,0.04 3.45,-1.03 15.77,-5.27 20.91,-14.360002 l 6.65,-14.82 c 0,0 23.8,2.18 27.13,11.56"
     id="path87" />
  <path
     class="cls-6"
     d="m 57.330392,124.65737 c 0,0 11.47,-17.35 35.11,-25.500002 16.279998,-5.61 39.319998,-26.22 49.249998,-25.88"
     id="path88" />
  <polyline
     class="cls-6"
     points="283.69 343.12 329.05 365.05 367.6 334.09"
     id="polyline88"
     transform="translate(-153.11961,-213.22263)" />
  <path
     class="cls-6"
     d="m 109.24039,103.87737 6.36,18.59 c 0.46,1.35 0.05,2.85 -1.03,3.78 -7.76,6.65 -38.389998,30.39 -43.289998,-4.86"
     id="path89" />
  <path
     class="cls-6"
     d="m 69.160392,144.90737 c 0,0 10.12,7.7 24.66,11.92"
     id="path90" />
  <path
     class="cls-6"
     d="m 52.640392,196.68737 c 0,0 -0.34,-18.65 -2.74,-20.83"
     id="path91" />
  <path
     class="cls-6"
     d="m 24.120392,172.75737 c 0,0 43.78,12.97 64.1,-13.88 0,0 17.999998,7.57 26.939998,19.95"
     id="path92" />
  <path
     class="cls-6"
     d="m 108.56039,185.96737 c 0,0 -16.889998,-24.8 -20.339998,-27.09"
     id="path93" />
  <line
     class="cls-6"
     x1="194.62038"
     y1="196.85736"
     x2="201.95039"
     y2="183.54736"
     id="line93" />
  <path
     class="cls-6"
     d="m 115.16039,172.84737 c 3.45,1.38 7.02,4.01 13.66,11.36 1.96,2.17 73.13,-0.67 73.13,-0.67 0,0 26.25,-7.33 30.02,-52.22 0,0 18.04,-16.07 13.62,-48.160002"
     id="path94" />
  <path
     class="cls-6"
     d="m 224.20039,95.287368 c 0,0 6.5,28.750002 0.91,44.080002"
     id="path95" />
  <path
     class="cls-6"
     d="m 203.82039,62.167368 c 8.39,-6.65 18.3,-6.85 18.3,-6.85 0,0 42.87,-10.97 57.11,-2.22 14.24,8.75 31.03,5.89 40.32,2.16 9.28,-3.73 11.52,5.81 11.52,5.81 7.18,24.89 -8.26,22.09 -8.26,22.09 -2.77,13.62 -16.29,-4.78 -16.29,-4.78 -7.83,-1.93 -29.78,5.89 -35.43,7.99 -0.91,0.34 -1.86,0.56 -2.83,0.66 l -21.98,2.28"
     id="path96" />
  <path
     class="cls-6"
     d="m 277.30039,52.107368 c 0,0 -8.63,12.93 -17.68,14.8 -0.72,0.15 -0.81,1.13 -0.12,1.38 7.81,2.76 19.19,6.87 23.64,13.99"
     id="path97" />
  <path
     class="cls-6"
     d="m 222.12039,60.207368 c 0,0 5.51,2.11 6.45,2.67"
     id="path98" />
  <path
     class="cls-6"
     d="m 221.23039,65.727368 c 0,0 2.49,0.36 6.14,1.26"
     id="path99" />
  <line
     class="cls-6"
     x1="204.12038"
     y1="116.20736"
     x2="203.07039"
     y2="84.69738"
     id="line99" />
  <line
     class="cls-6"
     x1="200.99037"
     y1="79.767357"
     x2="198.91039"
     y2="71.307365"
     id="line100" />
  <path
     class="cls-6"
     d="m 152.12039,322.43737 c 0,0 6.65,16.05 18.72,8.79 8.38,-5.04 14.32,-8.93 17.16,-10.84 0.9,-0.61 2.12,-0.08 2.32,0.98 l 3.38,18.34"
     id="path100" />
  <path
     class="cls-6"
     d="m 69.160392,242.87737 c 0,0 -1.89,11.95 7.18,1.78"
     id="path101" />
  <path
     class="cls-6"
     d="m 72.340392,241.53737 c 0,0 -4.21,7.83 -1.06,7.15"
     id="path102" />
  <line
     class="cls-6"
     x1="186.79039"
     y1="220.20737"
     x2="187.23039"
     y2="293.53738"
     id="line102" />
  <path
     class="cls-6"
     d="m 175.72039,237.77737 c 0,0 -8.94,14.66 -9.38,17.54"
     id="path103" />
  <line
     class="cls-6"
     x1="178.41039"
     y1="245.09738"
     x2="180.72038"
     y2="261.99738"
     id="line103" />
  <path
     class="cls-6"
     d="m 174.52039,270.22737 c 0,0 4.83,16.67 8.03,18.93"
     id="path104" />
  <path
     class="cls-6"
     d="m 171.68039,295.30737 c 0,0 12.35,27.61 24.89,9.09"
     id="path105" />
  <path
     class="cls-6"
     d="m 117.68039,129.98737 c 0,0 -10.09,6.29 -4.67,12.67 5.43,6.38 17.71,35.04 17.71,35.04 0,0 59.08,6.36 75.4,0"
     id="path106" />
  <path
     class="cls-6"
     d="m 283.29039,62.507368 h 16.82 c 0.42,0 0.84,0.02 1.26,0.05 l 19.36,1.39 c 0,0 -3.7,4.01 -0.69,6.93"
     id="path107" />
  <line
     class="cls-6"
     x1="324.12039"
     y1="64.93737"
     x2="322.52042"
     y2="67.837364"
     id="line107" />
  <line
     class="cls-6"
     x1="322.52042"
     y1="70.877373"
     x2="332.92041"
     y2="70.877373"
     id="line108" />
  <line
     class="cls-6"
     x1="197.73039"
     y1="118.64736"
     x2="194.34038"
     y2="104.46737"
     id="line109" />
  <path
     class="cls-6"
     d="m 11.700392,193.09737 c 0,0 -3.9800001,-18.48 9.15,-31.39 24.56,-24.16 30.54,-28.5 37.85,-28.16"
     id="path109" />
  <path
     class="cls-6"
     d="m 30.790392,166.20737 c 0,0 15.28,-24.67 26.44,-28.67"
     id="path110" />
  <g
     id="g135"
     transform="translate(-153.11961,-213.22263)">
    <path
       class="cls-6"
       d="m 326.77,274.62 2.12,6.12 c 0,0 14.7,2.43 16.85,3.88 l 7.73,-10.73 v -16.06 l -24.7,16.12 c 0,0 -1.22,-1.33 0.36,-2.37 1.58,-1.04 24.12,-16.42 24.12,-16.42"
       id="path111" />
    <polyline
       class="cls-6"
       points="324.22 269.22 331.64 262.65 340.7 243.88 346.35 241.34 350.77 244.01 350.85 256.8"
       id="polyline111" />
    <path
       class="cls-6"
       d="m 324.36,279.25 c 0,0 3.89,-0.18 4.53,4.27 0,0 15.65,-0.02 16.85,1.09 l 7.73,-10.73"
       id="path112" />
    <path
       class="cls-6"
       d="m 324.56,316.75 c 0,0 8.84,3.76 13.24,-6.49 l 10.37,-14.61 c 0.59,-0.83 0.93,-1.81 0.98,-2.83 l 0.73,-13.87"
       id="path113" />
    <path
       class="cls-6"
       d="m 324.56,316.75 c 0,0 -10.23,3.23 -14.63,-7.02 l -10.22,-14.4 c -0.69,-0.97 -1.08,-2.11 -1.14,-3.29 l -0.72,-13.72"
       id="path114" />
    <path
       class="cls-6"
       d="m 328.4,294.28 c 0,0 0.28,-2.44 1.75,-1.44 1.47,1 -1.75,1.44 -1.75,1.44"
       id="path115" />
    <path
       class="cls-6"
       d="m 330.41,288.98 c 0,0 1.45,2.41 0.13,4.47"
       id="path116" />
    <line
       class="cls-6"
       x1="327.04999"
       y1="284.98001"
       x2="327.25"
       y2="290.85999"
       id="line116" />
    <path
       class="cls-6"
       d="m 325.39,301.86 c 0,0 6.62,-0.42 7.65,-1.36 0,0 0.19,-0.94 0.85,-0.37 0.66,0.57 0,0.96 0,0.96"
       id="path117" />
    <line
       class="cls-6"
       x1="344.92999"
       y1="286.39999"
       x2="338.88"
       y2="305.59"
       id="line117" />
    <path
       class="cls-6"
       d="m 332.47,276.62 8.94,0.48 8.03,-12.36 c 0,0 -17.88,7.01 -19.29,9.68 -1.41,2.67 -0.2,2.97 -0.2,2.97"
       id="path118" />
    <path
       d="m 344.45,270.9 v 0 0 m -3.26,0.91 c -1,1.14 -2.12,2.33 -2.52,2.6 -0.38,0.09 -1.76,0.15 -2.78,0.19 -1.21,0.05 -2.16,0.1 -2.91,0.16 0.74,-0.98 1.97,-2.07 3.93,-2.44 1.9,-0.36 3.27,-0.45 4.29,-0.51 m 2.67,-1.72 c 0,0 -0.06,0.03 -0.13,0.1 -0.99,0.92 -2.6,0.3 -7.03,1.15 -4.43,0.85 -5.66,4.91 -5.66,4.91 0.33,-0.75 7.1,-0.55 8.01,-0.91 0.84,-0.34 4.99,-5.24 4.82,-5.24 v 0 z"
       id="path119" />
    <path
       class="cls-6"
       d="m 334.69,272.79 c 0,0 0.77,1.97 2.08,1.8 1.31,-0.17 1.3,0.26 2.91,-3.13"
       id="path120" />
    <path
       class="cls-6"
       d="m 321.27,274.51 -2.12,6.12 c 0,0 -13.63,1.03 -16.85,3.88 l -7.73,-10.73 v -16.06 l 24.7,16.12 c 0,0 1.22,-1.33 -0.36,-2.37 -1.58,-1.04 -24.12,-16.42 -24.12,-16.42"
       id="path121" />
    <polyline
       class="cls-6"
       points="324.22 269.22 316.4 262.55 307.33 243.78 301.69 241.24 297.27 243.9 297.27 256.68"
       id="polyline121" />
    <path
       class="cls-6"
       d="m 324.36,279.25 c 0,0 -4.57,-0.28 -5.22,4.17 0,0 -15.65,-0.02 -16.85,1.09 l -7.73,-10.73"
       id="path122" />
    <path
       class="cls-6"
       d="m 297.94,307.28 -3.13,-20.78 3.33,-1.12 -0.19,0.03 c -1.07,0.19 -2.14,-0.32 -2.65,-1.28 -1.98,-3.69 -6.67,-12.84 -6.88,-17.38 -0.27,-5.76 6.15,-1.43 6.15,-1.43"
       id="path123" />
    <path
       class="cls-6"
       d="m 320.05,294.27 c 0,0 -0.7,-2.53 -2.17,-1.53 -1.47,1 2.17,1.53 2.17,1.53"
       id="path124" />
    <path
       class="cls-6"
       d="m 317.96,288.99 c 0,0 -1.89,2.49 -0.24,4.53"
       id="path125" />
    <path
       class="cls-6"
       d="m 325.39,301.86 c 0,0 -9.35,-0.52 -10.39,-1.46 0,0 -0.19,-0.94 -0.85,-0.37 -0.66,0.57 0,0.96 0,0.96"
       id="path126" />
    <line
       class="cls-6"
       x1="303.10999"
       y1="286.29999"
       x2="309.14999"
       y2="305.48999"
       id="line126" />
    <path
       class="cls-6"
       d="m 315.57,276.51 -8.94,0.48 -8.03,-12.36 c 0,0 17.88,7.01 19.29,9.68 1.41,2.68 0.2,2.97 0.2,2.97"
       id="path127" />
    <path
       d="m 306.85,271.71 c 1.01,0.06 2.39,0.15 4.29,0.51 1.96,0.38 3.19,1.46 3.93,2.44 -0.76,-0.06 -1.71,-0.11 -2.91,-0.16 -1.03,-0.04 -2.44,-0.1 -2.77,-0.19 -0.4,-0.26 -1.52,-1.46 -2.53,-2.6 m -2.69,-1.72 c -0.17,0 3.98,4.9 4.82,5.24 0.91,0.37 7.67,0.17 8.01,0.91 0,0 -1.23,-4.06 -5.66,-4.91 -4.43,-0.85 -6.04,-0.23 -7.03,-1.15 -0.07,-0.07 -0.12,-0.1 -0.13,-0.1 v 0 z"
       id="path128" />
    <path
       class="cls-6"
       d="m 313.43,272.72 c 0,0 -0.8,2.13 -2.1,1.96 -1.3,-0.17 -1.62,0.02 -2.93,-3.24"
       id="path129" />
    <path
       class="cls-6"
       d="m 321.47,294.8 c 0,0 2.61,3.53 5.79,0.38"
       id="path130" />
    <path
       class="cls-6"
       d="m 322.05,288.38 c 0,0 -0.09,1.12 -0.26,1.56"
       id="path131" />
    <path
       class="cls-6"
       d="m 321.07,304.74 c 0,0 4.75,1.32 7.29,0"
       id="path132" />
    <path
       class="cls-6"
       d="m 337.22,250.36 c 0,0 -9.55,3.65 -12.99,9.35 0,0 -11.25,-9.68 -13.65,-9.35"
       id="path133" />
    <path
       class="cls-6"
       d="m 335.45,250.78 c 0,0 -0.1,-5.12 -2.39,-2.41 -2.28,2.71 -8.84,8.63 -8.84,8.63 l -9.38,-8.63 c 0,0 -2.85,-2.33 -2.1,2.56"
       id="path134" />
    <path
       class="cls-6"
       d="m 294.57,265.33 c 0,0 -6.77,-27.24 -1.38,-30.96 0,0 -4.72,-2.36 -3.52,-7.27 0,0 0.81,8.92 9.52,-1.52 0,0 10.45,-6.34 17.58,-6.79 0,0 9.93,-4.54 23.76,1.09 0,0 5.81,0.17 7.46,1.94 0,0 -5.5,-2.15 -6.73,0 0,0 11.14,0.77 13.28,5.5 0,0 2.77,1.78 3.92,-1.81 0,0 1.24,3.93 -3.92,5.8 0,0 1.63,7.91 5.21,2.2 0,0 0.99,2.79 -1.94,5.45 0,0 -2.55,23.14 -4.33,27.11 0,0 6.42,-4.99 6.15,0.77 -0.22,4.65 -5.11,13.6 -7,16.88 -0.44,0.77 -1.27,1.25 -2.16,1.25 h -0.78"
       id="path135" />
  </g>
  <path
     class="cls-6"
     d="m 201.70039,55.497368 c 0,0 5.32,-5.37 -0.23,6.91"
     id="path136" />
  <path
     class="cls-6"
     d="m 199.95039,65.727368 c 0,0 -1.17,2.58 -1.81,3.05"
     id="path137" />
  <path
     class="cls-6"
     d="m 139.52039,55.487368 c 0,0 -5.32,-5.37 0.23,6.91"
     id="path138" />
  <path
     class="cls-6"
     d="m 141.28039,65.717368 c 0,0 1.17,2.58 1.81,3.05"
     id="path139" />
</svg>
