<?xml version="1.0" encoding="UTF-8" standalone="no"?>
<svg
   id="ombres_noires"
   data-name="ombres noires"
   viewBox="0 0 372.99998 592.99999"
   version="1.1"
   sodipodi:docname="hero_f_green.svg"
   width="373"
   height="593"
   inkscape:version="1.4 (e7c3feb1, 2024-10-09)"
   xmlns:inkscape="http://www.inkscape.org/namespaces/inkscape"
   xmlns:sodipodi="http://sodipodi.sourceforge.net/DTD/sodipodi-0.dtd"
   xmlns="http://www.w3.org/2000/svg"
   xmlns:svg="http://www.w3.org/2000/svg">
  <sodipodi:namedview
     id="namedview91"
     pagecolor="#ffffff"
     bordercolor="#000000"
     borderopacity="0.25"
     inkscape:showpageshadow="2"
     inkscape:pageopacity="0.0"
     inkscape:pagecheckerboard="0"
     inkscape:deskcolor="#d1d1d1"
     inkscape:zoom="0.69880012"
     inkscape:cx="297.65307"
     inkscape:cy="415.71258"
     inkscape:window-width="1512"
     inkscape:window-height="916"
     inkscape:window-x="0"
     inkscape:window-y="38"
     inkscape:window-maximized="1"
     inkscape:current-layer="ombres_noires" />
  <defs
     id="defs1">
    <style
       id="style1">
      .cls-1 {
        fill: #006a6f;
      }

      .cls-2 {
        fill: #be723b;
      }

      .cls-3 {
        fill: #fff;
      }

      .cls-4 {
        fill: #e5794a;
      }

      .cls-5 {
        fill: #602b22;
      }

      .cls-6 {
        fill: #ee7334;
      }

      .cls-7 {
        fill: none;
        stroke: #000;
        stroke-linecap: round;
        stroke-linejoin: round;
      }

      .cls-8 {
        fill: #029099;
      }

      .cls-9 {
        fill: #386460;
      }

      .cls-10 {
        fill: #46734b;
      }

      .cls-11 {
        fill: #009081;
      }

      .cls-12 {
        fill: #39b7b3;
      }

      .cls-13 {
        fill: #21ac8f;
      }
    </style>
  </defs>
  <path
     class="cls-9"
     d="m 128.92342,294.10907 c 0,0 -2.18,7.9 -10.45,19.41 -3.32,4.62 -7.21,10.35 -12.96,15.57 -20.060004,18.23 -45.870004,51.1 -50.420004,65.05 -4.56,13.95 -33.91,54.45 8.34,117.19 0,0 -6.2,-23.51 -4.77,-44.85 0.45,-6.67 2.37,-12.29 4.6,-17.79 1.26,-3.11 3.17,-6.81 6.13,-9.45 7.22,-6.43 10.58,-8.2 16.14,-8.87 4.63,-0.56 10.53,0.2 23.930004,1.09 6.14,0.41 15.77,0.3 25.54,-0.47 4.4,-0.34 10.04,-1.71 14.03,-3.58 43.5,-20.3 62.02,-21.32 62.02,-21.32 l 8.21,-1.74 24.11,-0.14 19.13,-2.79 24.6,0.37 c 0,0 6.18,-10.65 10.68,-27.97 6.08,-23.41 9.88,-58.83 -1.21,-95.04 -11.74,-38.33 -35.53,-98.52 -35.53,-98.52 l -78.22,-22.01 -23.05,38.4 1.31,15.94 -19.44,46.82 c 0,0 0.28,3.85 3.03,7.83 1.92,2.79 5.28,5.37 9.65,7.92 2.53,1.48 2.85,5.04 3.34,7.35 1.54,7.35 -4.06,15.53 -4.06,15.53 0,0 -10.77,3.02 -22.67,-2.81"
     id="path1" />
  <path
     class="cls-1"
     d="m 131.80342,201.76907 -0.29,59.18 c -3.57,3.06 -8.68,25.36 -3.62,32 2.61,3.42 8.16,5.64 13.56,6.4 5.09,0.71 10.12,0.05 10.12,0.05 8.52,-2.41 5.85,-17.75 5.85,-18.87 0,-0.38 -1.16,-2.58 -3.19,-4.56 -1.76,-1.72 -4.25,-3.11 -6.26,-5.01 -2.59,-2.46 -4.63,-5.28 -5.2,-6.28 -1.51,-2.68 0.12,-6.52 0.12,-6.52 l 18.49,-44.54 -1.31,-15.94 c 0,0 -10.92,12.54 -22.3,-2.4 l -5.99,6.49 z"
     id="path2" />
  <g
     id="g5"
     transform="translate(-93.016584,-113.05093)">
    <path
       class="cls-12"
       d="m 246.7,263.2 c 0,0 33.65,-15.16 40.14,-34.28 0,0 8.38,0.77 9,-1.33 0,0 -10.51,-5.15 -12.42,-4.65 0,0 9.68,-4.09 12.35,-7.49 l 7.26,2.48 c 0,0 13.31,11.57 27.27,0.42 l 8.58,-1.9 c 0,0 6.03,7.37 11.96,7.23 0,0 -16.29,4.33 -21.52,16.84 l 6,0.12 c 0,0 8.17,-10.49 13.02,-10.03 0,0 13.21,22.11 25.5,26.61 12.29,4.5 12.87,2.04 12.87,2.04 0,0 0.5,8.25 1.07,11.93 l 10.19,21.9 4.71,12.72 c 0,0 0.22,1.08 -0.27,2.12 -1.6,3.37 -6.56,10.22 -16.26,11.41 l -20.01,-25.1 -8.13,-9.32 c 0,0 0.08,5.72 -28.83,-6.13 0,0 -14.71,-1.35 -22.32,3.78 -7.61,5.13 -22.77,4.77 -25.24,3.17 -1.94,-1.26 -5.27,-12.76 -5.27,-12.76 l -21.18,34.23 c 0,0 -10.69,19.29 -24.37,1.13 0,0 14.83,-29.99 14.83,-36.46 0,-6.47 1.06,-8.68 1.06,-8.68 z"
       id="path3" />
    <path
       class="cls-12"
       d="m 358.15,345.74 c 0,0 13.78,23.99 2.04,86.13 -8.68,45.96 -25.53,87.26 -25.53,87.26 0,0 -25.76,-1.23 -30.25,1.04 -4.09,2.07 -1.41,-14.93 -1.41,-14.93 0,0 -14.74,-19.85 -23.7,5.28 0,0 -4.72,-30.77 -14.04,-51.32 -3.17,-7 -10.02,-24.11 -11.87,-42.51 -1.19,-11.84 1.77,-22.77 3.57,-33.57 3.83,-22.98 16.66,-42.26 16.66,-42.26 0,0 36.77,38.47 37.11,50.89 l 9.71,2.26 37.71,-48.26 z"
       id="path4" />
    <path
       class="cls-12"
       d="m 293.09,244.02 c 0,0 -22.19,10.09 -18.05,24.42 4.14,14.33 5.41,20.92 27.23,15.63 21.81,-5.28 15.67,-7.46 34.11,-0.51 18.44,6.95 23.07,0.51 23.07,0.51 l 5.75,-14.5 c 0,0 -0.47,-28.19 -37.69,-33.46 0,0 -12.84,-5.32 -34.41,7.9 z"
       id="path5" />
  </g>
  <path
     class="cls-8"
     d="m 189.28342,174.03907 c 0,0 7.09,18.7 2.15,37.21 0,0 23.12,37.82 37.52,36.19 14.4,-1.63 29.55,-31.08 29.55,-31.08 0,0 -3.74,-17.29 0,-27.06 3.74,-9.77 6.91,-18.78 6.91,-18.78 0,0 -13,5.97 -31.63,-3.98 0,0 -9.85,-1.54 -24.54,4.49 -13.22,5.42 -22.57,-3.04 -22.57,-3.04"
     id="path6" />
  <path
     class="cls-8"
     d="m 249.48342,384.95907 -7.84,21.12 c 0,0 -20.01,0.3 -14.3,-16.21 5.72,-16.51 18.87,-9.45 22.14,-4.91 z"
     id="path7" />
  <path
     class="cls-11"
     d="m 190.18342,241.00907 -10.73,-11.37 c 0,0 -14.74,28.54 -10.25,57 3.97,25.22 21.7,81.45 21.7,81.45 0,0 -12.06,-76.09 -10.74,-85.6 0,0 1.16,-24.95 10.02,-41.49 z"
     id="path8" />
  <path
     class="cls-11"
     d="m 258.30342,241.90907 c 0,0 5.84,62.52 -6.4,122.87 0,0 34.21,-81.45 13.23,-132.09 l -6.83,9.21 z"
     id="path9" />
  <path
     class="cls-1"
     d="m 254.79342,117.54907 c 0,0 9.03,-5.18 18.62,-1.48 4.97,1.92 11.02,4.99 15.09,12.24 2.25,4.01 3.71,12.17 5.11,18.52 0,0 -4.73,1.11 -12.77,-2.67 -7.91,-3.72 -19.41,-14.31 -26.06,-26.61 z"
     id="path10" />
  <path
     class="cls-1"
     d="m 153.68342,151.24907 c 0,0 32.84,-12.88 40.39,-36.09 0,0 -42.55,-10.86 -40.39,36.09 z"
     id="path11" />
  <path
     class="cls-1"
     d="m 202.76342,188.09907 c 0,0 21.17,-26.43 49.37,0.41 0,0 -9.31,24.96 -7.95,46.75 0,0 -16.73,29.31 -35.72,-1.03 0,0 5.53,-20.98 -5.69,-46.13 z"
     id="path12" />
  <path
     class="cls-1"
     d="m 210.70342,407.11907 2.01,40.21 c 0,0 -14.11,43.57 -13.18,64.51 0.93,20.94 11.78,62.94 11.78,62.94 0,0 -10.4,21 -17.85,14.06 0,0 -16.7,-11.87 -16.04,-17.76 0.66,-5.89 3.55,-39.86 3.55,-39.86 0,0 0.44,-5.52 3.91,-11.39 3.47,-5.87 -3.68,-38.27 -6.26,-45.45 -2.57,-7.18 -5.87,-17.81 -5.87,-17.81 0,0 -2.37,5.49 -18.87,-6.38 l -5.23,-4.44 -2.05,-5.2 6.27,-33.43 c 0,0 -2.01,-16.52 8.52,-11.19 11.35,5.74 23.99,-4.98 23.99,-4.98 l 0.95,20.17 c 0,0 -1.91,15.91 11.34,18.35 8.74,1.61 13.03,-22.35 13.03,-22.35 z"
     id="path13" />
  <path
     class="cls-2"
     d="m 237.30342,105.29907 c 0,0 -12.88,10.94 -28.61,-0.87 0,0 1.36,-9.019996 0.55,-14.639996 0,0 9.58,9.94 14.69,9.28 5.11,-0.66 12.93,-8.34 12.93,-8.34 l 0.43,14.579996 z"
     id="path14" />
  <path
     class="cls-4"
     d="m 166.32342,80.949074 c 0,0 3.37,-9.6 20.03,-16.2 0,0 8.92,-5.74 10.89,-9.02 1.97,-3.28 4.81,25.84 4.81,25.84 l 7.19,8.22 -0.55,14.639996 -5.93,-2.03 -5.95,4.9 -7.18,2.12 c 0,0 -8.98,-2.34 -13.94,-6.75 -5.16,-4.599996 -11.03,-10.989996 -9.37,-21.709996 z"
     id="path15" />
  <path
     class="cls-4"
     d="m 237.30342,105.29907 c 0,0 3.03,-0.06 6.3,-1.66 5.91,-2.91 14.81,-10.129996 18.04,-22.679996 0.88,-3.44 0.65,-6.95 0.51,-11.39 l -9.71,-4.63 c 0,0 -5.16,13.86 -6.11,11.32 l -9.47,14.47 0.43,14.579996 z"
     id="path16" />
  <path
     class="cls-2"
     d="m 197.22342,56.349074 c 0,0 7.77,-12.22 8.31,-18.62 l 2.75,-4.87 c 0,0 19.82,-4.63 29.23,0.24 0,0 4.66,22.52 11.04,28.33 0,0 6.58,-4.25 2.65,6.74 -3.93,10.99 -4.86,8.08 -4.86,8.08 0,0 -2.08,6.64 -3.3,7.93 -0.47,0.49 -2.92,3.42 -6.17,6.54 -5.23,5.01 -12.53,10.539996 -17.03,7.31 -7.3,-5.23 -17.31,-12.16 -18.93,-21.33 0,0 -0.55,-0.36 -1.35,-0.57 -0.8,-0.21 -1.85,-0.28 -2.33,-1.99 -0.96,-3.41 -6.88,-17.63 0.9,-12.43 z"
     id="path17" />
  <path
     class="cls-6"
     d="m 219.80342,7.0190744 c 0,0 5.53,-0.53 13.14,0.72 12.62,2.06 27.88,11.0199996 32.79,46.0899996 0,0 1.21,3.87 3.08,7.61 4.47,8.92 11.05,24.43 1.9,37.63 -3.2,4.609996 -7.18,6.109996 -9.49,8.279996 -5.18,4.88 -6.78,7.25 -6.53,13.6 0.32,8.02 6.98,8.33 7.04,4.17 0,0 -0.17,13.45 -12.21,10.42 0,0 4.63,3.95 6.53,10.11 1.79,5.81 3.05,18.89 -8.68,16.47 0,0 3.89,-1.91 3.19,-5.23 -0.42,-2 -4.03,-5.84 -9.64,-8.17 -7.55,-3.14 -13.56,-8.19 -16.09,-14.06 -2.42,-5.61 -1.48,-12.03 2.4,-17.1 1.9,-2.49 3.92,-5.33 7.76,-8.01 12.64,-8.83 29.62,-20.719996 27.17,-37.619996 v -2.37 l -11.43,-6.68 -6.92,-8.15 -6.16,-21.04 -14.12,-2.79 -15.23,1.96 c 0,0 -3.06,10.11 -8.07,18.37 -3.09,5.1 -7.26,8.71 -10.93,11.12 -4.89,3.21 -7.29,3.37 -9.69,4.82 -6.62,4 -9.27,7.77 -9.27,7.77 0,0 -5.61,-0.64 3.03,-10.02 0,0 14.11,-44.88 26.86,-51.37 12.75,-6.4899996 19.58,-6.5499996 19.58,-6.5499996 z"
     id="path18" />
  <path
     class="cls-8"
     d="m 186.60342,398.22907 c 0,0 10.45,-28.77 25.47,-1.62 0.65,-0.03 -5.46,54.3 -25.41,23.32 -1.79,-2.79 -1.85,-6.33 -0.55,-9.38 0.99,-2.31 1.32,-5.83 0.49,-12.32 z"
     id="path19" />
  <path
     class="cls-1"
     d="m 218.11342,280.44907 7.91,0.47 c 1.14,0.17 2.27,-0.3 2.97,-1.21 l 35.65,-46.77 c 0.31,-0.41 0.38,-0.95 0.19,-1.42 l -5.47,-13.46 c -0.44,-1.08 -1.94,-1.17 -2.48,-0.14 -6.25,11.67 -22.9,32.59 -33.78,29.11 -10.34,-3.3 -23.87,-24.07 -29.41,-32.48 -2.79,-4.23 -3.73,-1.99 -5.1,-0.33 -3.2,3.87 -6.86,9.89 -8.66,13.55 -0.33,0.67 -0.17,1.65 0.37,2.17 5.65,5.51 25.8,27.38 34.47,48.56 0.43,1.04 2.24,1.81 3.36,1.97 z"
     id="path20" />
  <path
     class="cls-1"
     d="m 310.08342,192.09907 c 0,0 33.2,34.59 34.11,38.72 0,0 16.72,-2.91 20.24,5.08 0,0 12.71,0.14 3.27,15.23 -9.45,15.1 -23.64,0.74 -23.64,0.74 l -9.43,-12.03 -38.86,-18.06 -2.61,-15.51 c 0,0 13.34,-1.24 16.92,-14.18 z"
     id="path21" />
  <g
     id="g25"
     transform="translate(-93.016584,-113.05093)">
    <path
       class="cls-13"
       d="m 140.66,622.6 c 0,0 -46.91,-23.21 -43.05,-65.24 3.48,-37.91 37.82,-70.84 37.82,-70.84 6,-5.88 16.97,-15.06 24.46,-21.5 19.27,-16.59 35.84,-32.24 45.76,-44.24 9.64,-11.66 12.9,-19.92 12.9,-19.92 l 3.74,6.93 c 0,0 -5.79,17.84 -23.41,35.38 -8.66,8.63 -19.67,19.25 -27.95,29.56 -10.32,12.86 -17.03,24.65 -17.03,24.65 -21.76,42.3 -17.89,75.8 -10.49,98.87 6.2,19.33 14.66,31.76 14.66,31.76 l -0.29,1.88 -17.11,-7.28 z"
       id="path22" />
    <path
       class="cls-13"
       d="m 356.03,554.72 c 0,0 0.3,1.45 2.43,0.96 9.67,-2.22 43.78,-7.38 75.34,-32.5 8.7,-6.92 10.02,-19.99 11.2,-32.24 3.53,-36.55 -10.26,-72.68 -36.2,-119.22 -6.69,-12.01 -13.81,-19.93 -18.83,-27.33 -6.87,-10.13 -10.91,-18.25 -14.73,-25.05 -3.82,-6.8 -7.6,-15.08 -9.03,-23.45 l -8.2,-10.97 -3.64,9.42 c 0,0 28.08,68.22 34.75,108.94 2.99,18.31 7.15,42.55 3.4,74.04 -2.03,17.04 -9.99,33.04 -17.43,46.03 -15.76,27.5 -14.38,23.03 -19.08,31.38 z"
       id="path23" />
    <path
       class="cls-13"
       d="m 250.83,239.87 c 0,0 5.58,-6.04 14.47,-10.29 6.02,-2.87 14.34,-3.82 19.47,-1.47 12.7,5.84 18.23,12.51 18.23,12.51 h 5.88 c 0,0 -11.25,-18.47 -28.6,-17.85 -17.88,0.64 -22.81,5.55 -29.45,17.09 z"
       id="path24" />
    <path
       class="cls-13"
       d="m 378.94,236.81 c 0,0 -4.3,-7.69 -9.4,-9.02 -5.11,-1.33 -18.28,-4.39 -18.28,-4.39 0,0 -3.45,6.21 -3.45,6.7 0,0.49 8.41,-4.25 13.71,-2.32 5.3,1.94 6.77,0.72 17.43,9.02 z"
       id="path25" />
  </g>
  <path
     class="cls-5"
     d="m 231.73342,81.969074 c 0.24,-0.25 0.14,-0.72 -0.22,-0.81 -0.76,-0.19 -1.53,-0.37 -2.31,-0.53 -1.29,-0.61 -2.79,-0.52 -4.21,-0.52 -2.02,0 -4.09,-0.12 -6.11,0.03 -0.34,0.03 -0.69,0.09 -1,0.23 -1.48,0.03 -2.96,0.16 -4.43,0.44 -0.41,0.08 -0.44,0.5 -0.24,0.76 -0.04,0.09 -0.07,0.2 -0.04,0.32 0.27,1.21 1.43,2.32 2.33,3.11 0.99,0.87 2.12,1.71 3.33,2.24 1.26,0.56 2.66,0.75 4.02,0.83 0.61,0.04 1.22,0.03 1.83,0 0.09,0.19 0.27,0.33 0.54,0.24 2.9,-0.91 5.33,-3 6.62,-5.75 0.11,-0.24 0.05,-0.47 -0.11,-0.61 z m -12.61,1.42 c 1.44,0.25 2.91,0.4 4.36,0.54 0.28,0.03 0.55,0.05 0.83,0.06 -0.72,0.06 -1.44,0.06 -2.16,0.02 -1.25,-0.07 -2.56,-0.55 -3.8,-0.31 -0.07,0.01 -0.11,0.06 -0.16,0.09 -0.14,-0.05 -0.28,-0.09 -0.42,-0.14 -0.07,-0.02 -0.14,-0.03 -0.2,-0.02 -0.07,-0.03 -0.14,-0.06 -0.21,-0.08 -0.54,-0.21 -1.3,-0.4 -1.86,-0.77 1.2,0.3 2.41,0.5 3.63,0.6 z"
     id="path26" />
  <path
     class="cls-10"
     d="m 238.60342,56.629074 c -0.02,-0.22 -0.09,-0.45 -0.22,-0.63 -0.16,-0.23 -0.4,-0.32 -0.67,-0.37 -0.5,-0.09 -1.03,-0.13 -1.5,0.11 -0.42,0.22 -0.78,0.54 -1.19,0.78 -0.45,0.26 -0.93,0.45 -1.38,0.69 -0.23,0.13 -0.48,0.29 -0.62,0.53 -0.07,0.13 -0.1,0.27 -0.11,0.42 0,0.06 0,0.12 0,0.18 0,0.04 -0.02,0.16 0,0.11 -0.02,0.07 -0.05,0.15 -0.05,0.23 -0.01,0.18 0.09,0.33 0.24,0.41 -0.03,0.07 -0.06,0.14 -0.06,0.23 0,0.13 0.03,0.23 0.09,0.35 0.11,0.18 0.36,0.31 0.56,0.23 0.03,-0.01 0.07,-0.03 0.1,-0.05 0.02,0.03 0.03,0.07 0.05,0.1 0.18,0.28 0.5,0.43 0.8,0.54 0.32,0.11 0.66,0.17 1,0.2 0.22,0.02 0.42,-0.03 0.62,-0.11 0.12,-0.01 0.24,-0.03 0.36,-0.07 0.31,0.09 0.65,0.06 0.94,-0.15 0.49,-0.35 0.6,-1.01 0.5,-1.58 0.09,-0.27 0.18,-0.54 0.26,-0.77 0.15,-0.45 0.32,-0.91 0.27,-1.39 z"
     id="path27" />
  <path
     class="cls-10"
     d="m 213.55342,57.369074 c -0.22,-0.33 -0.58,-0.52 -0.95,-0.66 -0.16,-0.23 -0.36,-0.43 -0.61,-0.6 -0.55,-0.37 -1.24,-0.49 -1.9,-0.48 -0.32,0 -0.64,0.04 -0.96,0.08 -0.27,-0.26 -0.85,-0.15 -0.87,0.35 -0.02,0.58 -0.03,1.16 -0.02,1.74 0,0.29 0.02,0.58 0.14,0.85 0.06,0.13 0.13,0.24 0.21,0.35 -0.06,0.06 -0.11,0.13 -0.12,0.22 -0.13,0.76 0.44,1.3 1.16,1.38 0.31,0.04 0.65,0.03 0.93,-0.1 0,0 0,0 0,0 0.27,0.05 0.55,0.08 0.82,0.08 0.53,0 1.03,-0.05 1.46,-0.39 0.41,-0.32 0.67,-0.79 0.78,-1.28 0.11,-0.48 0.19,-1.1 -0.09,-1.53 z"
     id="path28" />
  <path
     class="cls-3"
     d="m 209.67342,60.699074 c 0,0 -0.1,-0.03 -0.15,-0.05 -0.02,-0.08 -0.05,-0.16 -0.07,-0.24 -0.09,-0.3 -0.49,-0.46 -0.75,-0.27 -0.33,-0.31 -0.66,-0.63 -0.98,-0.95 0,-0.06 0,-0.11 -0.01,-0.17 -0.08,-0.89 -0.07,-1.79 0,-2.69 0.02,-0.25 -0.25,-0.53 -0.5,-0.5 -0.95,0.12 -1.9,0.13 -2.85,0.02 -0.06,-0.18 -0.2,-0.33 -0.45,-0.33 -0.18,0 -0.29,0.09 -0.37,0.2 -0.1,-0.02 -0.19,-0.03 -0.29,-0.05 -0.61,-0.14 -0.87,0.76 -0.32,0.94 -0.11,0.59 0.31,1.17 0.66,1.64 0.03,0.04 0.07,0.08 0.11,0.12 0.12,0.48 0.38,0.9 0.78,1.21 0.42,0.33 0.91,0.55 1.34,0.86 0.56,0.4 1.06,0.78 1.73,0.97 0.64,0.19 1.32,0.23 1.99,0.28 0.59,0.04 0.64,-0.8 0.13,-0.98 z"
     id="path29" />
  <path
     class="cls-3"
     d="m 216.17342,60.209074 c -0.1,-0.22 -0.35,-0.37 -0.59,-0.29 -0.02,0 -0.04,0.01 -0.06,0.02 0.01,-0.03 0.03,-0.06 0.04,-0.09 0.09,-0.37 -0.18,-0.65 -0.39,-0.92 -0.2,-0.25 -0.4,-0.5 -0.6,-0.76 -0.31,-0.4 -0.99,0.03 -0.84,0.49 0.12,0.37 -0.09,0.71 -0.34,0.97 -0.33,0.36 -0.7,0.68 -1.05,1.02 0,0 0,0 0,0 -0.4,0.05 -0.8,0.09 -1.2,0.12 -0.27,0.02 -0.5,0.22 -0.5,0.5 0,0.26 0.23,0.52 0.5,0.5 1.15,-0.07 2.3,-0.25 3.42,-0.52 0.49,-0.07 0.99,-0.12 1.41,-0.41 0.2,-0.14 0.31,-0.39 0.2,-0.62 z"
     id="path30" />
  <path
     class="cls-3"
     d="m 243.28342,55.799074 c 0.02,-0.32 -0.35,-0.55 -0.63,-0.47 -0.87,0.24 -1.75,0.38 -2.65,0.38 -0.35,0 -0.76,0.02 -0.96,0.37 -0.04,0.07 -0.04,0.13 -0.06,0.19 -0.18,0.1 -0.3,0.29 -0.22,0.54 0.18,0.62 0.38,1.3 0.36,1.96 -0.14,0.04 -0.25,0.14 -0.29,0.33 -0.05,0.27 -0.11,0.54 -0.16,0.81 0,0.05 0,0.09 0,0.14 -0.44,0.49 -1.13,0.67 -1.77,0.78 -0.24,0.04 -0.39,0.33 -0.36,0.55 0.04,0.27 0.24,0.4 0.49,0.43 1.48,0.19 3,-0.32 4.12,-1.31 0.22,-0.2 0.42,-0.42 0.6,-0.65 0.14,0.04 0.28,0.04 0.39,-0.04 0.6,-0.4 1.08,-0.93 1.38,-1.59 0.11,-0.24 0,-0.6 -0.23,-0.72 0.18,-0.35 0.35,-0.71 0.49,-1.08 0.12,-0.33 -0.19,-0.61 -0.49,-0.63 z"
     id="path31" />
  <path
     class="cls-3"
     d="m 235.46342,61.209074 c -0.69,-0.31 -1.44,-0.58 -2.09,-0.98 -0.19,-0.12 -0.39,-0.28 -0.47,-0.46 -0.13,-0.33 0,-0.74 -0.05,-1.09 -0.07,-0.53 -0.63,-0.69 -1.04,-0.39 -0.28,0.21 -0.56,0.43 -0.78,0.7 -0.28,0.34 -0.52,0.86 -0.47,1.3 -0.44,0.19 -0.38,0.98 0.19,0.96 0.73,-0.03 1.4,0.33 2.08,0.54 0.77,0.24 1.58,0.35 2.38,0.36 0.47,0 0.72,-0.72 0.25,-0.93 z"
     id="path32" />
  <path
     class="cls-4"
     d="m 239.85342,49.349074 c -1.19,0 -2.33,0.2 -3.44,0.53 -0.12,-0.12 -0.33,-0.18 -0.49,-0.13 -0.81,0.25 -1.6,0.6 -2.31,1.06 -0.05,0.03 -0.11,0.07 -0.18,0.11 -0.02,-0.01 -0.03,-0.03 -0.05,-0.05 -0.12,-0.06 -0.26,-0.09 -0.39,-0.05 -0.21,0.07 -0.42,0.14 -0.63,0.22 -0.12,0.04 -0.23,0.11 -0.3,0.23 -0.04,0.06 -0.06,0.12 -0.06,0.19 -0.02,0.07 -0.01,0.13 0,0.2 0.03,0.09 0.08,0.16 0.15,0.23 -0.79,0.5 -1.56,1.04 -2.29,1.62 -0.5,0.4 0.21,1.11 0.71,0.71 0.07,-0.06 0.15,-0.12 0.23,-0.17 0.13,0.19 0.38,0.31 0.65,0.17 0.11,-0.06 0.23,-0.09 0.34,-0.13 0.37,0.12 0.87,0.04 1.2,0.02 0.22,0 0.36,-0.14 0.43,-0.29 0.2,-0.02 0.39,-0.05 0.58,-0.09 0.86,-0.21 1.67,-0.62 2.45,-1.02 0.83,-0.42 1.64,-0.87 2.43,-1.35 0.63,-0.38 1.55,-0.74 1.44,-1.62 -0.03,-0.21 -0.28,-0.37 -0.48,-0.37 z"
     id="path33" />
  <path
     class="cls-4"
     d="m 216.58342,53.379074 c -1.27,-1.5 -2.94,-2.62 -4.79,-3.28 -0.9,-0.32 -1.84,-0.51 -2.79,-0.59 -1.19,-0.1 -2.4,0.12 -3.57,-0.14 -0.63,-0.14 -0.9,0.83 -0.27,0.96 0.48,0.11 0.97,0.14 1.46,0.14 0.03,0.16 0.13,0.31 0.34,0.38 1.57,0.54 3.13,1.13 4.65,1.79 0.71,0.31 1.42,0.67 2.15,0.93 0.33,0.12 0.67,0.2 1.02,0.25 0.35,0.04 0.8,0 1.08,0.25 0.49,0.42 1.12,-0.22 0.71,-0.71 z"
     id="path34" />
  <path
     d="m 191.42342,212.54907 c 3.82,5.86 23.88,35.81 34.56,35.81 0.58,0 1.14,-0.08 1.66,-0.25 10.23,-3.27 18.09,-11.04 30.73,-30.54 3.15,6.18 14.62,30.97 13.72,62.21 -1.04,35.88 -22.23,104.11 -22.76,105.82 l -7.14,18.9 c -0.26,0.7 -0.94,1.16 -1.68,1.16 -0.05,0 -0.1,0 -0.15,0 -3.52,-0.28 -10.37,-0.76 -16.6,-0.76 -9.78,0 -12.14,1.17 -13.06,2.05 -0.21,0.2 -0.32,0.49 -0.31,0.78 l 1.86,33.62 c 0.23,4.07 -0.29,8.11 -1.53,12 -3.89,12.23 -12.88,42.1 -12.22,55.37 0.72,14.51 9.25,52.79 11.85,64.18 0.33,1.43 0.06,2.91 -0.75,4.15 l -0.3,0.46 c -2.59,3.98 -7.98,12.25 -12.03,12.25 -0.45,0 -0.86,-0.1 -1.25,-0.32 -7.3,-5.05 -18.63,-14.37 -18.11,-17.97 0.81,-5.52 4.01,-39.71 4.15,-41.17 0,-0.09 0,-0.19 -0.01,-0.28 0,-0.04 -0.64,-3.87 3.05,-9.24 4.5,-6.55 -3.36,-42.74 -8.68,-54.47 -5.6,-12.34 -7,-42.46 7.57,-52.69 1.79,-1.26 2.89,-3.22 3,-5.38 0.33,-6.26 0.05,-23.65 -9.79,-49.76 -12.07,-32.04 -17.07,-47.45 -16.79,-59.95 0.26,-11.51 4.23,-36.21 10.1,-50.3 0.12,-0.28 11.49,-27.56 20.91,-35.69 m 0.24,-1.46 c -9.9,7.4 -22.07,36.78 -22.07,36.78 -5.82,13.95 -9.91,38.41 -10.18,50.66 -0.27,12.25 4.12,26.53 16.85,60.33 9.66,25.63 10.08,42.63 9.73,49.35 -0.1,1.86 -1.06,3.55 -2.58,4.62 -15.34,10.77 -13.47,41.67 -7.91,53.92 5.82,12.83 12.78,47.65 8.77,53.49 -4.01,5.84 -3.21,9.99 -3.21,9.99 0,0 -3.33,35.55 -4.14,41.11 -0.82,5.56 18.57,18.96 18.57,18.96 0.57,0.32 1.17,0.47 1.78,0.47 4.76,0 10.39,-8.91 13.17,-13.17 0.95,-1.46 1.28,-3.23 0.89,-4.92 -2.37,-10.39 -11.1,-49.45 -11.82,-64 -0.64,-13.05 8.17,-42.43 12.18,-55.02 1.27,-3.99 1.8,-8.17 1.57,-12.36 l -1.86,-33.62 c 1.42,-1.36 6.62,-1.77 12.37,-1.77 6.25,0 13.15,0.49 16.52,0.76 0.08,0 0.15,0 0.23,0 1.16,0 2.2,-0.71 2.61,-1.81 l 7.15,-18.93 c 0,0 21.75,-69.4 22.81,-106.12 1.06,-36.71 -14.63,-64.22 -14.63,-64.22 -12.55,19.57 -20.59,28.21 -31.11,31.57 -0.43,0.14 -0.88,0.2 -1.36,0.2 -11.18,0 -34.32,-36.28 -34.32,-36.28 v 0 z"
     id="path35" />
  <path
     class="cls-7"
     d="m 179.48342,229.26907 c 0,0 25.21,24.82 31.3,40.34 l 4.1,8.54 c 0.61,1.27 1.82,2.14 3.22,2.31 l 6.96,0.83 c 1.64,0.2 3.26,-0.49 4.25,-1.81 l 35.82,-46.78"
     id="path36" />
  <path
     class="cls-7"
     d="m 216.55342,279.92907 c 0,0 0.34,93.35 -5.16,110.54"
     id="path37" />
  <path
     class="cls-7"
     d="m 186.28342,397.45907 c 0,0 10.94,-25.45 24.56,-3.97 0.96,1.51 1.39,3.29 1.18,5.06 -1.22,10.27 -6.87,46.32 -24.37,23.22"
     id="path38" />
  <path
     class="cls-7"
     d="m 247.46342,382.95907 c 0,0 -13.43,-11.09 -20.11,6.91 -1.13,3.05 -1.29,6.45 0.07,9.41 1.53,3.32 5.01,6.67 12.8,6.8"
     id="path39" />
  <path
     class="cls-7"
     d="m 185.39342,390.47907 c 0,0 -12.81,11.84 -23.98,5.84 -6.78,-3.64 -8.4,1.13 -8.62,5.45 -0.28,5.5 -0.82,10.99 -1.9,16.39 l -4.12,20.63 c -0.56,2.81 0.4,5.7 2.54,7.6 3.53,3.14 9.31,7.78 14.98,10.12 9.05,3.75 8.6,-1.23 8.6,-1.23"
     id="path40" />
  <path
     class="cls-7"
     d="m 258.24342,216.81907 c 0,0 -3.45,-14.6 1.69,-31.93 1.9,-6.41 5.16,-13.86 7.83,-19.52 3.83,-8.11 3.09,-17.69 -2.1,-25 -2.99,-4.21 -5.12,-5.55 -6.54,-6.75"
     id="path41" />
  <path
     class="cls-7"
     d="m 191.71342,211.89907 c 0,0 3.98,-26.52 -2.92,-38.86 -8.44,-15.07 -9.43,-30.34 11.28,-42.07"
     id="path42" />
  <path
     class="cls-7"
     d="m 194.39342,171.42907 c 0,0 4.38,4.16 21.48,-2.69 10.99,-4.41 18.58,-2.32 22.59,-0.27 4.41,2.25 9.24,3.61 14.17,4.17 3.76,0.42 6.26,-0.4 8.6,-1.2"
     id="path43" />
  <path
     class="cls-7"
     d="m 204.67342,192.73907 c 2.54,4.72 5.46,19.18 4.65,36.53"
     id="path44" />
  <path
     class="cls-7"
     d="m 244.18342,229.64907 c 0,0 -0.2,-19.04 5.93,-35.01"
     id="path45" />
  <path
     class="cls-7"
     d="m 202.76342,188.09907 c 0,0 24.11,-24.88 49.37,0.41"
     id="path46" />
  <path
     class="cls-7"
     d="m 254.79342,117.17907 c 0,0 11.98,20.65 26.06,26.98 14.08,6.33 29.23,48.58 29.23,48.58 0,0 16.48,14.02 34.11,38.08 0,0 13.65,4.14 13.26,10.15 0,0 9.87,-0.66 6.39,-6.37 -0.91,-1.5 -2.34,-2.63 -3.98,-3.24 -2.3,-0.87 -7.93,-2.73 -13.87,-0.24"
     id="path47" />
  <path
     class="cls-7"
     d="m 364.88342,235.77907 c 0,0 10.07,0.17 4.52,12.08 -4.62,9.92 -10.54,13.59 -19.3,8.57 -3.04,-1.74 -5.66,-4.13 -7.83,-6.89 l -6.95,-8.81 c -0.46,-0.58 -1.05,-1.05 -1.73,-1.37 l -35.78,-16.63 c -1.28,-0.6 -2.19,-1.78 -2.42,-3.17 l -2.23,-13.29 c 0,0 12.11,-1.27 15.24,-10.65"
     id="path48" />
  <path
     class="cls-7"
     d="m 265.01342,171.42907 c 0,1.32 28.15,34.85 28.15,34.85"
     id="path49" />
  <path
     class="cls-7"
     d="m 261.22342,180.93907 c 0,0 36.15,84.07 38.7,139.44 1.47,31.8 7.73,55.46 -36.91,120.61 -0.63,0.92 0.18,2.13 1.27,1.9 14.73,-3.19 78.9,-18.63 84.69,-46.71 5.82,-28.24 8.83,-57.06 -22.8,-118.41 -6.56,-12.73 -14.11,-24.92 -22.41,-36.58 -10.96,-15.4 -29.87,-46.18 -30.6,-59.02"
     id="path50" />
  <path
     class="cls-7"
     d="m 243.37342,404.21907 c 0,0 17.02,-4.71 42.73,-1.89"
     id="path51" />
  <path
     class="cls-7"
     d="m 125.73342,286.97907 c -4.19,18.46 -50.420004,58.22 -72.130004,76.13 -13.07,10.78 -24.47,23.49 -33.42,37.87 -47.72,76.71 26.87,109.42 43.55,115.6 1,0.37 1.89,-0.75 1.31,-1.64 -9.95,-15.31 -53.06,-92.17 26.7,-170.17 0,0 33.390004,-31.97 37.520004,-49.65"
     id="path52" />
  <path
     class="cls-7"
     d="m 65.223416,515.58907 c 0,0 -24.87,-76.98 22.24,-85.62 2.77,-0.51 5.62,-0.43 8.4,0.08 10.480004,1.92 44.430004,3.6 53.170004,-2.64"
     id="path53" />
  <path
     class="cls-7"
     d="m 243.35342,103.95907 -6.05,1.34 c 0,0 -11.6,11.57 -26.67,0.08 l -6.9,-2.61 c -0.57,-0.22 -1.2,-0.07 -1.63,0.36 -1.98,2 -8.35,7.44 -18.96,7.06 -12.99,-0.47 -26.27,9 -29.33,30.37 0,0 -0.68,11.26 -0.62,14.67 0.06,3.41 -9.84,37.05 -20.06,45.58 -0.82,0.69 -1.34,1.66 -1.35,2.73 l -0.53,55.53 c 0,0.88 -0.2,1.76 -0.55,2.57 -1.93,4.48 -8.18,20.47 -3.6,29.92 1.28,2.65 3.67,4.6 6.44,5.58 5.89,2.07 21.12,6.49 22.79,-2.56 0,0 6.21,-15.2 -4.85,-20.58 0,0 -12.2,-7.5 -8.83,-15.65 2.88,-6.97 14.36,-34.74 17.62,-42.62 0.57,-1.38 0.82,-2.88 0.72,-4.37 l -0.9,-13.67 c 0,0 -11.02,12.48 -20.65,-0.42"
     id="path54" />
  <path
     class="cls-7"
     d="m 294.30342,158.92907 c 0,0 1.03,-30.44 -14.13,-42.19 -2.14,-1.66 -4.72,-2.51 -7.37,-3.05 -6.56,-1.34 -9.45,-1.91 -14.56,-3.32"
     id="path55" />
  <path
     class="cls-7"
     d="m 183.14342,159.66907 c 0,0 -20.8,35.29 -23.05,38"
     id="path56" />
  <path
     class="cls-7"
     d="m 157.46342,127.57907 c 29.58,-30.909996 52.25,0 52.25,0 h 6.15 c 0,0 -7.81,-14.08 -23.69,-17.21"
     id="path57" />
  <path
     class="cls-7"
     d="m 288.05342,126.76907 c -12.63,-14.51 -24.65,-13.77 -33.26,-9.59"
     id="path58" />
  <path
     class="cls-7"
     d="m 261.22342,117.98907 c 0,0 8.9,19.67 30.24,28.21"
     id="path59" />
  <path
     class="cls-7"
     d="m 155.50342,150.14907 c 0,0 26.33,-8.49 36.58,-31.14"
     id="path60" />
  <path
     class="cls-7"
     d="m 156.06342,142.80907 c 0,0 23.97,-6.79 30.61,-25.26"
     id="path61" />
  <path
     class="cls-7"
     d="m 197.42342,108.81907 c 0,0 13.37,6.25 18.28,12.82 0.55,0.74 1.5,1.07 2.39,0.82 1.55,-0.43 4.13,-0.88 6.44,0.36"
     id="path62" />
  <path
     class="cls-7"
     d="m 179.73342,229.64907 c 0,0 -16.3,29.02 -10.4,60.47 0.02,0.1 0.08,0.19 0.1,0.29 1.66,13.09 23.85,84.83 24.02,90.6 0,0 -15.47,-82.07 -13.13,-103.93 0.89,-8.3 2.14,-17.87 9.72,-36.59"
     id="path63" />
  <path
     class="cls-7"
     d="m 258.30342,241.90907 c 0,0 7.41,83.53 -10.5,136.22 0,0 29.47,-76.25 23.63,-119.47"
     id="path64" />
  <g
     id="g90"
     transform="translate(-93.016584,-113.05093)">
    <path
       class="cls-7"
       d="m 289.87,169.2 c 0,0 3.16,17.66 4.16,21.45 0.09,0.34 0.18,0.68 0.28,1 0.87,2.93 2.47,5.58 4.6,7.76 3.75,3.84 10.93,10.86 13.95,11.68 2.15,0.58 3.28,0.6 3.28,0.6"
       id="path65" />
    <path
       class="cls-7"
       d="m 290.73,174.93 c 0,0 -4.14,-4.04 -3.35,1.37 0.79,5.41 3.02,10.6 3.84,11.88 0.82,1.27 2.01,0.82 2.01,0.82"
       id="path66" />
    <path
       class="cls-7"
       d="m 288.62,175.41 c 0,0 1.76,1.47 1.63,3.32 -0.13,1.85 1.04,4.22 1.04,4.22"
       id="path67" />
    <path
       class="cls-7"
       d="m 310.62,168.24 c 0,0 -1.26,-1.14 -2.43,-1.04 -1.17,0.1 -1.67,0.09 -6.23,-2.25 0,0 -4.54,-2.22 -6.19,-1.55 0,0 9.49,-5.05 15.02,4.85"
       id="path68" />
    <path
       class="cls-7"
       d="m 307.26,168.69 c 0,0 -5.77,-2.35 -8.56,-1.7"
       id="path69" />
    <path
       class="cls-7"
       d="m 309.2,173.54 c 0,0 -0.4,-1.06 -1.38,-2.26 -1.65,-2.01 -4.22,-3.02 -6.81,-2.81 -1.93,0.16 -4.61,0.25 -5.69,-0.3 0,0 0.14,8.11 9.85,6.34"
       id="path70" />
    <path
       class="cls-7"
       d="m 341.8,174.1 c 0,0 -2.03,11.05 -3.23,16.86 -0.3,1.45 -0.74,2.71 -1.16,3.7 -0.6,1.42 -1.46,2.71 -2.53,3.82 -3.15,3.29 -11.66,12.48 -15.14,12.91 -2.26,0.28 -3.59,0.28 -3.59,0.28"
       id="path71" />
    <path
       class="cls-7"
       d="m 345.21,177.09 c -0.79,5.41 -3.02,10.12 -3.84,11.4 -0.82,1.28 -2.01,0.82 -2.01,0.82"
       id="path72" />
    <path
       class="cls-7"
       d="m 343.74,175.93 c 0,0 -1.53,1.26 -1.4,3.11 0.13,1.85 -1.04,4.22 -1.04,4.22"
       id="path73" />
    <path
       class="cls-7"
       d="m 321.97,168.56 c 0,0 1.26,-1.14 2.43,-1.04 1.17,0.1 1.67,0.09 6.23,-2.25 0,0 2.85,-2.46 4.5,-1.79 0,0 -7.83,-4.62 -13.16,5.09"
       id="path74" />
    <path
       class="cls-7"
       d="m 325.33,169.01 c 0,0 5.77,-2.35 8.56,-1.7"
       id="path75" />
    <path
       class="cls-7"
       d="m 323.39,173.86 c 0,0 0.69,-1.83 2.5,-3.41 1.47,-1.28 3.44,-1.86 5.39,-1.69 1.95,0.17 4.86,0.3 5.99,-0.28 0,0 -0.14,8.11 -9.85,6.34"
       id="path76" />
    <path
       class="cls-7"
       d="m 331.9,168.85 c 0,0 0.55,5.19 -2.93,5.25 -3.14,0.05 -3.5,-3.12 -3.5,-3.12"
       id="path77" />
    <path
       class="cls-7"
       d="m 300.82,168.85 c 0,0 -0.55,5.19 2.93,5.25 3.14,0.05 3.5,-3.12 3.5,-3.12"
       id="path78" />
    <path
       class="cls-7"
       d="m 302.15,202.64 c 0,0 0.19,8.82 -0.48,15.03"
       id="path79" />
    <line
       class="cls-7"
       x1="330.06"
       y1="203.78999"
       x2="330.06"
       y2="218.42999"
       id="line79" />
    <path
       class="cls-7"
       d="m 320.25,141.24 c 0,0 7.31,-7.97 10.6,6.16 3.29,14.13 5.72,26.88 20.65,33.24 14.92,6.36 8.61,20.05 8.61,20.05"
       id="path80" />
    <path
       class="cls-7"
       d="m 354.8,182.37 c 0,0 7.48,19.68 -23.85,38.08 -2.95,1.73 -5.64,3.88 -7.89,6.44 -5.1,5.8 -10.87,15.95 -1.67,26.18 1.96,2.18 4.32,3.95 6.87,5.39 2.55,1.44 6.75,3.77 9,4.85 7.65,3.67 9.84,14.38 -1.65,10.23 0,0 17.69,9.52 13.87,-13.8 0,0 -0.54,-5.19 -8.35,-11.65 -7.81,-6.45 -6.29,-21.54 11.94,-28.05 18.23,-6.51 15.22,-28.1 15.22,-28.1"
       id="path81" />
    <path
       class="cls-7"
       d="m 347.71,150.26 c 0,0 19.68,30 20.6,41.69"
       id="path82" />
    <path
       class="cls-7"
       d="m 358.43,217.35 c 0,0 -13.3,7.54 -10.42,17.9 2.88,10.36 6.23,4.2 7.29,2.33 0,0 -0.4,15.99 -14.16,10.52"
       id="path83" />
    <path
       class="cls-7"
       d="m 359.6,169.98 c 0,0 -2.06,-14.13 -9.95,-32.33 -7.89,-18.2 -31.24,-17.57 -31.24,-17.57 0,0 -25.21,-0.46 -34.45,15.96 -7.36,13.08 -13.7,31.46 -15.97,38.38 -0.58,1.76 -1.46,3.4 -2.59,4.86 -2.37,3.08 -5.99,8.53 -2.06,8.73"
       id="path84" />
    <path
       class="cls-7"
       d="m 283.21,222.59 c 0,0 -17.01,-3.45 -22.65,-16.55 -2.21,-5.13 -1.84,-11.08 1.15,-15.79 2.32,-3.66 6.5,-7.82 14.04,-11.07 5.8,-2.5 11.07,-6.15 15.05,-11.05 2.76,-3.39 5.34,-7.72 6.83,-13.04 1.29,-4.61 3.15,-9.06 5.91,-12.98 3.75,-5.34 8.86,-9.96 12.53,-3.05"
       id="path85" />
    <path
       class="cls-7"
       d="m 301,146.43 c 0,0 12.97,-4.7 29.32,0.32"
       id="path86" />
    <path
       class="cls-7"
       d="m 312.05,189.07 c 0,0 1.11,0.05 1.53,0.68"
       id="path87" />
    <path
       class="cls-7"
       d="m 317.71,189.97 c 0,0 2.03,-1.07 2.45,-0.71"
       id="path88" />
    <line
       class="cls-7"
       x1="317.28"
       y1="174.49001"
       x2="317.56"
       y2="183.50999"
       id="line88" />
    <path
       class="cls-7"
       d="m 325.47,194.96 c 0,0 -9.67,4.94 -19.43,-0.34"
       id="path89" />
    <path
       class="cls-7"
       d="m 311.89,200.48 c 0,0 4.65,2.75 9.33,-0.56"
       id="path90" />
  </g>
  <path
     class="cls-7"
     d="m 215.03342,80.609074 c 0,0 5.37,-1.96 8.02,0 0,0 3.6,-1.96 7.02,0.34"
     id="path91" />
</svg>
