<?xml version="1.0" encoding="UTF-8"?>
<svg id="Calque_1" data-name="Calque 1" xmlns="http://www.w3.org/2000/svg" viewBox="0 0 1080 1080">
  <defs>
    <style>
      .cls-1 {
        fill: #2f4077;
      }

      .cls-1, .cls-2 {
        stroke-width: 0px;
      }

      .cls-3 {
        fill: #417dc4;
        font-family: Marianne-ExtraBold, Marianne;
        font-size: 107.47px;
        font-weight: 700;
      }

      .cls-4 {
        letter-spacing: 0em;
      }

      .cls-2 {
        fill: #ff732c;
      }
    </style>
  </defs>
  <circle class="cls-2" cx="379.39" cy="444.28" r="18.5"/>
  <g>
    <rect class="cls-1" x="372.38" y="384.71" width="25.17" height="10.17" transform="translate(-44.81 729.53) rotate(-83.68)"/>
    <rect class="cls-1" x="409.29" y="398.72" width="25.17" height="10.17" transform="translate(-159.83 352.26) rotate(-38.68)"/>
    <rect class="cls-1" x="340.81" y="382.8" width="10.16" height="25.17" transform="translate(-171.23 302.9) rotate(-38.68)"/>
  </g>
  <text class="cls-3" transform="translate(551.84 675.77) rotate(-.5)"><tspan class="cls-4" x="0" y="0">C</tspan><tspan x="77.06" y="0">onso</tspan></text>
  <path class="cls-1" d="m418.84,470.17c6.12-9.18,12.33-24.66,9.86-39.46l-17.38,2.21c.48,3.01.66,6.14.42,9.37-1.44,19.73-16.55,34.96-33.75,34.01-17.19-.95-29.96-17.71-28.52-37.43.36-4.93,1.57-9.57,3.46-13.75l-16.71-6.73s-3.7,7.4-3.7,24.66c0,19.73,7.4,29.59,9.86,34.52,5.83,11.65,8.21,15.27,9.86,22.19,2.86,12.01-.06,21.36-2.29,33.51-2.76,15.02-.35,32.79,7.22,45.41h19.73c-9.86-24.66-7.4-41.92-4.93-49.32.94-2.83,2.47-4.93,4.93-4.93,4.93,0,6.71,4.99,7.4,7.4,4.93,17.26,3.45,37.98,0,56.72h19.73c7.06-17.14,4.93-32.06,2.47-51.79-2.23-17.81-4.93-27.13,0-44.39,2.75-9.63,7.4-14.8,12.33-22.19Z"/>
  <path class="cls-1" d="m229.8,528.89c8.54,11.3,21.22,18.68,32.99,18.68,9.46,0,15.23-4.15,15.23-13.38,0-24.68-71.05-16.61-71.05-71.97,0-26.99,22.61-49.37,55.36-49.37,25.61,0,45.44,11.07,60.44,27.68l-29.76,27.22c-9.46-11.07-19.61-19.15-30.45-19.15-8.3,0-14.07,5.07-14.07,11.76,0,23.99,71.05,15.92,71.05,72.43-.46,32.3-25.84,50.75-56.29,50.75s-48.44-10.38-63.21-27.22l29.76-27.45Z"/>
  <path class="cls-1" d="m438.66,571.11c-4.15-5.08-6.46-11.07-6.46-16.84,0-9.46,3.23-16.84,12-23.53-10.15-7.61-15.46-18.92-15.46-31.83,0-23.07,17.3-40.83,47.75-40.83,9.46,0,17.76,1.61,24.45,4.61h41.75v30.68h-18.22c.23,1.85.23,3.69.23,5.54,0,23.3-17.07,41.06-48.21,41.06-2.31,0-4.38,0-6.46-.23-1.38,1.38-2.08,3-2.08,4.61,0,4.15,2.54,5.54,6.23,5.54h26.53c28.14,0,45.21,16.61,45.21,38.75,0,26.76-24.68,47.98-61.82,47.98-39.22,0-60.67-12.46-60.67-37.83,0-11.3,5.54-20.53,15.22-27.68Zm44.98,36.68c18.69,0,26.3-6.46,26.3-15.22,0-6.92-4.61-11.53-13.84-11.53h-31.83c-4.38,2.77-6.69,6.69-6.69,12.23,0,9,7.61,14.53,26.07,14.53Zm8.54-108.88c0-9.46-6.46-14.07-15.46-14.07s-15.22,4.84-15.22,14.07,6.23,14.3,15.22,14.3,15.46-4.84,15.46-14.3Z"/>
  <path class="cls-1" d="m562.53,462.68h36.68v6.46c7.61-6.46,17.3-11.07,30.91-11.07,24.68,0,44.98,17.3,44.98,52.6v68.28h-36.91v-66.67c0-11.77-6.23-19.84-17.99-19.84-12.92,0-18.69,10.15-20.99,14.07v72.43h-36.68v-116.26Z"/>
  <path class="cls-1" d="m694.71,546.19c0-17.76,13.61-31.37,38.99-35.53l32.76-5.54c-.23-8.77-7.84-15.46-18.68-15.46-9.69,0-16.84,4.61-22.15,12.23l-26.76-20.3c10.61-14.76,28.37-23.53,50.06-23.53,36.91,0,53.98,22.15,53.98,47.52v73.36h-36.45v-8.77c-6.46,7.15-19.61,12.23-31.83,12.23-23.53,0-39.91-13.61-39.91-36.22Zm47.98,7.84c11.76,0,19.15-5.54,23.76-12.46v-11.53l-22.84,3.92c-9.46,1.62-12.69,5.08-12.69,10.38,0,6,4.61,9.69,11.76,9.69Z"/>
  <path class="cls-1" d="m828.74,405.94h36.68v173.01h-36.68v-173.01Z"/>
</svg>