<?xml version="1.0" encoding="UTF-8"?>
<svg id="Calque_4" data-name="Calque 4" xmlns="http://www.w3.org/2000/svg" viewBox="0 0 80 80">
  <defs>
    <style>
      .cls-1 {
        stroke: #c00;
      }

      .cls-1, .cls-2 {
        fill: none;
        stroke-linecap: round;
        stroke-linejoin: round;
        stroke-width: 2px;
      }

      .cls-2 {
        stroke: #000091;
      }
    </style>
  </defs>
  <path class="cls-2" d="M8.64,40.58l10.64-13.56-2.48,9.77h7.29l-9.04,16.18,1.6-12.39h-8.02Z"/>
  <path class="cls-1" d="M35.74,37.18c-.94.53-1.77,1.24-2.48,2.06-2.2,2.57-4.79,9.33,3.16,13.31,0,0,8.93,2.72,12.12-5.02,0,0,1.51-4.54-1.18-9.09l-4.71,4.38s5.22-10.6-3.2-15.82c0,0,2,6.94-3.72,10.19Z"/>
  <path class="cls-2" d="M64.92,27.03l-5.59,9.59c-1.48,2.54-2.07,5.83-1.55,8.97,1.38,8.37,7.33,7.66,7.33,7.66v-.08c1.25.02,5.83-.4,7.02-7.61.52-3.14-.07-6.43-1.55-8.97l-5.59-9.59"/>
</svg>