<?xml version="1.0" encoding="UTF-8"?>
<svg id="Calque_4" data-name="Calque 4" xmlns="http://www.w3.org/2000/svg" viewBox="0 0 80 80">
  <defs>
    <style>
      .cls-1 {
        stroke: #c00;
      }

      .cls-1, .cls-2 {
        stroke-linejoin: round;
      }

      .cls-1, .cls-2, .cls-3 {
        fill: none;
        stroke-linecap: round;
        stroke-width: 2px;
      }

      .cls-2 {
        stroke: #000091;
      }

      .cls-3 {
        stroke: #009;
        stroke-miterlimit: 10;
      }
    </style>
  </defs>
  <g>
    <path class="cls-3" d="M73.81,33.6V11.79c0-1.92-1.56-3.48-3.48-3.48h-13.12c-1.92,0-3.48,1.56-3.48,3.48v25.9c0,1.92,1.56,3.48,3.48,3.48h7.34l5.37-.02c2.12,0,3.85-1.72,3.86-3.85l.03-3.71Z"/>
    <line class="cls-3" x1="61.25" y1="11.78" x2="65.89" y2="11.78"/>
  </g>
  <g>
    <path class="cls-2" d="M62.45,43.78v9.2l6.34.03s-.92,4.64-4.66,4.64H15.82c-.72,0-1.42-.24-2-.68-1.07-.81-2.61-2.27-2.61-4.03l5.68.04v-26.71c0-2.16,1.75-3.91,3.91-3.91h30.28"/>
    <line class="cls-2" x1="16.2" y1="52.99" x2="62.45" y2="52.98"/>
  </g>
  <g>
    <ellipse class="cls-1" cx="40" cy="40" rx="8.96" ry="8.93"/>
    <line class="cls-1" x1="31.54" y1="40.04" x2="48.96" y2="40.04"/>
    <path class="cls-1" d="M33.98,45.99s5.47-4.27,12.2,0"/>
    <path class="cls-1" d="M33.79,34.62s5.47,4.27,12.2,0"/>
    <line class="cls-1" x1="40" y1="48.63" x2="40" y2="31.28"/>
    <path class="cls-1" d="M38.78,31.24s-7.24,7.12,0,17.18"/>
    <path class="cls-1" d="M41.33,31.43s7.24,7.12,0,17.18"/>
  </g>
  <g>
    <path class="cls-1" d="M57.17,23.21c.41-.42,3.06-3.03,7.13-2.83,3.4.16,5.56,2.17,6.09,2.69"/>
    <path class="cls-1" d="M59.96,25.94c.23-.25,1.6-1.67,3.84-1.69,2.24-.02,3.64,1.37,3.87,1.61"/>
    <path class="cls-1" d="M62.74,28.66c.71-.6,1.44-.69,2.2-.02"/>
  </g>
</svg>