<?xml version="1.0" encoding="UTF-8"?>
<svg id="Calque_2" data-name="Calque 2" xmlns="http://www.w3.org/2000/svg" viewBox="0 0 80 80">
  <defs>
    <style>
      .cls-1, .cls-2, .cls-3 {
        fill: none;
      }

      .cls-2 {
        stroke: #c00;
      }

      .cls-2, .cls-3 {
        stroke-linecap: round;
        stroke-linejoin: round;
        stroke-width: 2px;
      }

      .cls-3 {
        stroke: #000091;
      }
    </style>
  </defs>
  <g id="Calque_1" data-name="Calque 1">
    <g>
      <polygon class="cls-1" points="38.58 41.62 41.84 46.13 44.97 42.73 41.58 38.29 38.58 41.62"/>
      <path class="cls-3" d="M24.3,24.6c2.25.16,4.3,3.16,4.3,3.16l3.38-2.44-1.54-2.25c-1.61-3.22,2.05-4.9,2.05-4.9,3.31.05,8.99,1.02,8.99,1.02-5.57-3.83-13.34-3.37-13.34-3.37l-5.79,3.84c-1.38,4.44-5.47,3.33-5.47,3.33l-1.81,1.96c-.89,1.62,2.17,4.15,2.17,4.15,1.93.68,3.22-1.61,3.22-1.61,1.05-1.99,3.84-2.9,3.84-2.9Z"/>
      <path class="cls-3" d="M54.94,64.19c3.53-.66,4-3.18,4-3.18l-13.97-18.28-3.13,3.39,13.1,18.06Z"/>
      <path class="cls-3" d="M33.05,27.13c-3.15.19-3.27,2.36-3.27,2.36l8.79,12.13,3-3.33-8.53-11.16Z"/>
      <polygon class="cls-2" points="21.38 58.11 24.59 54.96 28.22 54.9 30.12 57.51 30 60.36 26.2 63.93 32.14 64.18 36.19 59.79 35.71 52.72 54.25 32.6 61.59 32.81 65.09 27.52 65.09 22.37 61.25 26.56 58.09 26.28 55.76 23.47 56.1 20.45 59.67 17.29 54.11 17.43 49.85 22.51 50.06 28.82 32 48.87 25.48 48.67 21.15 53.4 21.38 58.11"/>
    </g>
  </g>
</svg>