<?xml version="1.0" encoding="UTF-8"?>
<svg id="Calque_2" data-name="Calque 2" xmlns="http://www.w3.org/2000/svg" viewBox="0 0 80 80">
  <defs>
    <style>
      .cls-1 {
        stroke: #e1000f;
      }

      .cls-1, .cls-2, .cls-3 {
        fill: none;
        stroke-linecap: round;
        stroke-linejoin: round;
        stroke-width: 2px;
      }

      .cls-2 {
        stroke: #84548e;
      }

      .cls-3 {
        stroke: #000091;
      }
    </style>
  </defs>
  <g id="Calque_1" data-name="Calque 1">
    <g>
      <path class="cls-1" d="M14.64,19.2s9.03-11.79,25.36-12.2c0,0,15.87-.17,25.49,11.97"/>
      <path class="cls-1" d="M7,40s-.6,12.87,8.33,21.57c0,0,6.72,8.76,16.3,9.99"/>
      <path class="cls-1" d="M74.1,38.22s1.38,12.81-7.01,22.04c0,0-6.17,9.16-15.66,10.96"/>
      <g>
        <g>
          <g>
            <path class="cls-2" d="M46.37,79.22v-3.47c.86-.56,2.28-1.65,3.47-3.47,1.12-1.72,1.55-3.35,1.73-4.33v-17.34c-.23-.89-.91-1.58-1.73-1.73-1.07-.2-2.24.52-2.6,1.73v9.54"/>
            <path class="cls-2" d="M42.9,60.15v-13c.36-1.22,1.53-1.94,2.6-1.73.83.16,1.51.84,1.73,1.73v5.2"/>
            <path class="cls-2" d="M38.56,60.15v-14.74c0-1.69,1.44-2.81,2.6-2.6.96.17,1.81,1.27,1.73,2.6v7.8"/>
            <path class="cls-2" d="M38.56,48.88c-.36-1.22-1.53-1.94-2.6-1.73-.83.16-1.51.84-1.73,1.73v15.6l-4.33-5.2c-.12-.05-.96-.41-1.73,0-.81.43-1.22,1.52-.87,2.6,1.44,3.18,2.89,6.36,4.33,9.54,0,0,1.73,2.6,4.33,4.33v3.47"/>
          </g>
          <g>
            <path class="cls-3" d="M46.37,79.22v-3.47c.86-.56,2.28-1.65,3.47-3.47,1.12-1.72,1.55-3.35,1.73-4.33v-17.34c-.23-.89-.91-1.58-1.73-1.73-1.07-.2-2.24.52-2.6,1.73v9.54"/>
            <path class="cls-3" d="M42.9,60.15v-13c.36-1.22,1.53-1.94,2.6-1.73.83.16,1.51.84,1.73,1.73v5.2"/>
            <path class="cls-3" d="M38.56,60.15v-14.74c0-1.69,1.44-2.81,2.6-2.6.96.17,1.81,1.27,1.73,2.6v7.8"/>
            <path class="cls-3" d="M38.56,48.88c-.36-1.22-1.53-1.94-2.6-1.73-.83.16-1.51.84-1.73,1.73v15.6l-4.33-5.2c-.12-.05-.96-.41-1.73,0-.81.43-1.22,1.52-.87,2.6,1.44,3.18,2.89,6.36,4.33,9.54,0,0,1.73,2.6,4.33,4.33v3.47"/>
          </g>
        </g>
        <g>
          <g>
            <g>
              <path class="cls-2" d="M74.8,18.78l-3,1.73c-.91-.46-2.56-1.15-4.74-1.27-2.04-.11-3.67.33-4.62.67-5,2.89-10.01,5.78-15.01,8.67-.66.64-.91,1.57-.63,2.37.36,1.03,1.57,1.68,2.8,1.39l8.26-4.77"/>
              <path class="cls-2" d="M60.02,31.31l-11.26,6.5c-1.23.3-2.44-.35-2.8-1.39-.28-.79-.03-1.73.63-2.37,1.5-.87,3-1.73,4.5-2.6"/>
              <path class="cls-2" d="M62.18,35.07l-12.76,7.37c-1.46.85-3.15.16-3.55-.95-.33-.92.19-2.2,1.39-2.8l6.76-3.9"/>
              <path class="cls-2" d="M52.42,40.7c-.87.92-.91,2.29-.2,3.12.55.64,1.48.89,2.37.63l13.51-7.8-2.34,6.35c.01.13.12,1.04.87,1.5.78.48,1.93.29,2.69-.55,2.03-2.84,4.06-5.68,6.09-8.52,0,0,1.39-2.8,1.59-5.92l3-1.73"/>
            </g>
            <g>
              <path class="cls-3" d="M74.8,18.78l-3,1.73c-.91-.46-2.56-1.15-4.74-1.27-2.04-.11-3.67.33-4.62.67-5,2.89-10.01,5.78-15.01,8.67-.66.64-.91,1.57-.63,2.37.36,1.03,1.57,1.68,2.8,1.39l8.26-4.77"/>
              <path class="cls-3" d="M60.02,31.31l-11.26,6.5c-1.23.3-2.44-.35-2.8-1.39-.28-.79-.03-1.73.63-2.37,1.5-.87,3-1.73,4.5-2.6"/>
              <path class="cls-3" d="M62.18,35.07l-12.76,7.37c-1.46.85-3.15.16-3.55-.95-.33-.92.19-2.2,1.39-2.8l6.76-3.9"/>
              <path class="cls-3" d="M52.42,40.7c-.87.92-.91,2.29-.2,3.12.55.64,1.48.89,2.37.63l13.51-7.8-2.34,6.35c.01.13.12,1.04.87,1.5.78.48,1.93.29,2.69-.55,2.03-2.84,4.06-5.68,6.09-8.52,0,0,1.39-2.8,1.59-5.92l3-1.73"/>
            </g>
          </g>
          <g>
            <g>
              <path class="cls-2" d="M5.2,18.78l3,1.73c.91-.46,2.56-1.15,4.74-1.27,2.04-.11,3.67.33,4.62.67,5,2.89,10.01,5.78,15.01,8.67.66.64.91,1.57.63,2.37-.36,1.03-1.57,1.68-2.8,1.39-2.75-1.59-5.51-3.18-8.26-4.77"/>
              <path class="cls-2" d="M19.98,31.31l11.26,6.5c1.23.3,2.44-.35,2.8-1.39.28-.79.03-1.73-.63-2.37-1.5-.87-3-1.73-4.5-2.6"/>
              <path class="cls-2" d="M17.82,35.07l12.76,7.37c1.46.85,3.15.16,3.55-.95.33-.92-.19-2.2-1.39-2.8l-6.76-3.9"/>
              <path class="cls-2" d="M27.58,40.7c.87.92.91,2.29.2,3.12-.55.64-1.48.89-2.37.63l-13.51-7.8,2.34,6.35c-.01.13-.12,1.04-.87,1.5-.78.48-1.93.29-2.69-.55-2.03-2.84-4.06-5.68-6.09-8.52,0,0-1.39-2.8-1.59-5.92l-3-1.73"/>
            </g>
            <g>
              <path class="cls-3" d="M5.2,18.78l3,1.73c.91-.46,2.56-1.15,4.74-1.27,2.04-.11,3.67.33,4.62.67,5,2.89,10.01,5.78,15.01,8.67.66.64.91,1.57.63,2.37-.36,1.03-1.57,1.68-2.8,1.39-2.75-1.59-5.51-3.18-8.26-4.77"/>
              <path class="cls-3" d="M19.98,31.31l11.26,6.5c1.23.3,2.44-.35,2.8-1.39.28-.79.03-1.73-.63-2.37-1.5-.87-3-1.73-4.5-2.6"/>
              <path class="cls-3" d="M17.82,35.07l12.76,7.37c1.46.85,3.15.16,3.55-.95.33-.92-.19-2.2-1.39-2.8l-6.76-3.9"/>
              <path class="cls-3" d="M27.58,40.7c.87.92.91,2.29.2,3.12-.55.64-1.48.89-2.37.63l-13.51-7.8,2.34,6.35c-.01.13-.12,1.04-.87,1.5-.78.48-1.93.29-2.69-.55-2.03-2.84-4.06-5.68-6.09-8.52,0,0-1.39-2.8-1.59-5.92l-3-1.73"/>
            </g>
          </g>
        </g>
      </g>
    </g>
  </g>
</svg>