<?xml version="1.0" encoding="UTF-8"?>
<svg id="Calque_4" data-name="Calque 4" xmlns="http://www.w3.org/2000/svg" viewBox="0 0 80 80">
  <defs>
    <style>
      .cls-1 {
        stroke: #000091;
      }

      .cls-1, .cls-2 {
        fill: none;
        stroke-linecap: round;
        stroke-linejoin: round;
        stroke-width: 2px;
      }

      .cls-3 {
        fill: #000091;
      }

      .cls-2 {
        stroke: #e1000f;
      }

      .cls-4 {
        fill: #009;
      }
    </style>
  </defs>
  <path class="cls-3" d="M25.78,22.95c-.55,0-1-.45-1-1s.45-1,1-1,1,.45,1,1-.45,1-1,1Z"/>
  <path class="cls-3" d="M20.78,21.95c0,.55.45,1,1,1s1-.45,1-1-.45-1-1-1-1,.45-1,1Z"/>
  <path class="cls-3" d="M17.78,22.95c-.55,0-1-.45-1-1s.45-1,1-1,1,.45,1,1-.45,1-1,1Z"/>
  <g>
    <g>
      <polyline class="cls-1" points="38.03 41.99 41.19 41.99 45.53 52.67 58.15 52.67 62.63 43.39 50.85 43.39"/>
      <circle class="cls-1" cx="46.77" cy="56.15" r="1.39"/>
      <circle class="cls-1" cx="56.8" cy="56.18" r="1.39"/>
      <line class="cls-2" x1="42.94" y1="53.5" x2="40.15" y2="53.5"/>
      <path class="cls-2" d="M43.1,55.89h-5.57"/>
    </g>
    <g>
      <path class="cls-4" d="M68.03,16.65c-.06-.5-.48-.88-.99-.88H12.92c-.5.06-.88.49-.88,1v46.12c.06.5.49.88,1,.88h42.12c.5-.06.88-.49.88-1v-.12c-.06-.5-.49-.88-1-.88H14.03V25.77h37.12c.5-.06.88-.49.88-1,0-.55-.45-1-1-1H14.03v-6h52v6h-9.12c-.5.06-.88.49-.88,1,0,.55.45,1,1,1h9v29.12c.06.5.49.88,1,.88.55,0,1-.45,1-1V16.65Z"/>
      <path class="cls-3" d="M63.03,19.77c.55,0,1,.45,1,1,0,.51-.39.94-.88.99h-.12s-30,0-30,0c-.55,0-1-.45-1-1,0-.51.39-.94.88-.99h.12s30,0,30,0Z"/>
      <path class="cls-3" d="M37.65,32.67c0-.55-.45-1-1-1h-18.12c-.5.06-.88.49-.88,1,0,.55.45,1,1,1h18.12c.5-.06.88-.49.88-1Z"/>
      <path class="cls-3" d="M32.84,37.67c.55,0,1,.45,1,1,0,.51-.39.94-.88.99h-.12s-14,0-14,0c-.55,0-1-.45-1-1,0-.51.39-.94.88-.99h.12s14,0,14,0Z"/>
      <path class="cls-3" d="M31.84,44.58c0-.55-.45-1-1-1h-12.12c-.5.06-.88.49-.88,1,0,.55.45,1,1,1h12.12c.5-.06.88-.49.88-1Z"/>
    </g>
    <polygon class="cls-2" points="61.58 59.51 69.85 64.68 67.06 66.2 69.09 69.94 66.3 71.47 64.26 67.73 61.46 69.26 61.58 59.51"/>
  </g>
</svg>