<?xml version="1.0" encoding="UTF-8"?>
<svg id="Calque_4" data-name="Calque 4" xmlns="http://www.w3.org/2000/svg" viewBox="0 0 80 80">
  <defs>
    <style>
      .cls-1 {
        stroke: #c00;
      }

      .cls-1, .cls-2 {
        fill: none;
        stroke-linecap: round;
        stroke-linejoin: round;
        stroke-width: 2px;
      }

      .cls-2 {
        stroke: #000091;
      }
    </style>
  </defs>
  <g>
    <line class="cls-2" x1="36.22" y1="64.48" x2="22.93" y2="64.48"/>
    <path class="cls-2" d="M13.21,64.71s-5.64,1.58-3.38-8.59c.16-.72.82-1.24,1.58-1.24h1.63c.54,0,1.03-.26,1.34-.69,1.12-1.6,4.36-5.42,9.67-5.42h6.53c.13,0,.26.01.39.05.96.24,5.22,1.5,9.58,5.59.26.25.6.41.96.44,2.07.19,9.33,1.2,9.8,5.95.02.18,0,.36-.05.54l-.56,2.11c-.19.7-.83,1.18-1.56,1.18h-3.02"/>
    <ellipse class="cls-2" cx="18.07" cy="64.62" rx="3.89" ry="3.81"/>
    <ellipse class="cls-2" cx="18.05" cy="64.66" rx="1.67" ry="1.63"/>
    <ellipse class="cls-2" cx="41.17" cy="64.67" rx="3.89" ry="3.81"/>
    <ellipse class="cls-2" cx="41.15" cy="64.71" rx="1.67" ry="1.63"/>
    <path class="cls-2" d="M18.39,50.74v1.95c0,1.44,1.19,2.61,2.66,2.61h22.44"/>
    <line class="cls-2" x1="28.81" y1="49.06" x2="29.01" y2="55.3"/>
  </g>
  <g>
    <circle class="cls-1" cx="65.31" cy="42.86" r="5.4"/>
    <circle class="cls-1" cx="47.3" cy="42.78" r="5.4"/>
    <polyline class="cls-1" points="60.93 34.29 56.62 43.54 65.31 42.86 60.83 35.46 51.28 33.21 50.58 34.9 47.3 42.78"/>
    <line class="cls-1" x1="56.43" y1="42.96" x2="51.01" y2="34.62"/>
    <path class="cls-1" d="M51.29,32.83l.34-.98s-.81-1.4-4.02-1.09"/>
    <line class="cls-1" x1="63.97" y1="32.89" x2="58.41" y2="32.89"/>
  </g>
  <g>
    <rect class="cls-2" x="29.11" y="14.77" width="2.63" height="1.42" transform="translate(60.86 30.96) rotate(180)"/>
    <path class="cls-2" d="M33.94,20.81l-2.19-4.62h-2.63v5.35l-1.26,4.22v2.55h-7.17v-6.4h-6.73s-4.7-.28-4.66,6.61h8.31s.73.08,2.15,1.95h10.38"/>
    <path class="cls-2" d="M39.21,25.11s1.26-.81.2-1.66c0,0-6.28-4.5-11.55,2.31"/>
    <path class="cls-2" d="M20.44,21.7s1.01-1.74-.81-2.19h-5.19s-1.42.65-.93,2.31"/>
    <path class="cls-2" d="M31.75,14.77s1.78-1.5,2.03-.32v1.91s-.69.77-1.82-.28"/>
    <polyline class="cls-2" points="28.91 14.4 28.95 11.53 27.55 11.53"/>
    <path class="cls-2" d="M28.91,15.99l-1.71-1.71h-2.27s-.56.48,0,.88h1.86"/>
    <circle class="cls-2" cx="34.86" cy="28.36" r="4.2"/>
    <path class="cls-2" d="M17.79,29.6c-.43,1.44-1.84,2.56-3.64,2.72-2.09.18-3.97-1-4.48-2.72h8.12Z"/>
  </g>
</svg>