<?xml version="1.0" encoding="UTF-8"?>
<svg id="Calque_2" data-name="Calque 2" xmlns="http://www.w3.org/2000/svg" viewBox="0 0 80 80">
  <defs>
    <style>
      .cls-1 {
        stroke: #009;
      }

      .cls-1, .cls-2 {
        fill: none;
        stroke-linecap: round;
        stroke-linejoin: round;
        stroke-width: 2px;
      }

      .cls-3 {
        fill: #e1000f;
      }

      .cls-2 {
        stroke: #e1000f;
      }

      .cls-4, .cls-5 {
        fill: #009;
      }

      .cls-5 {
        fill-rule: evenodd;
      }
    </style>
  </defs>
  <g id="Calque_1" data-name="Calque 1">
    <g>
      <g>
        <path class="cls-1" d="M59.14,60.05V18.33c0-3.22-2.97-5.82-6.63-5.82h-25.02c-3.66,0-6.63,2.61-6.63,5.82v43.34c0,3.22,2.97,5.82,6.63,5.82h15.26"/>
        <line class="cls-1" x1="35.2" y1="18.32" x2="44.04" y2="18.32"/>
      </g>
      <g>
        <path class="cls-4" d="M49.01,56.94c.1-.36.47-.57.83-.47,1.58.44,2.78,1.67,3.1,3.21.08.36-.16.72-.52.8-.36.08-.72-.16-.8-.52-.21-1.03-1.05-1.88-2.15-2.18-.36-.1-.57-.47-.47-.83Z"/>
        <path class="cls-5" d="M42.25,60.49c0-3.72,3.02-6.74,6.74-6.74s6.74,3.02,6.74,6.74c0,1.73-.65,3.31-1.73,4.5l3.97,6.88c.56.97.23,2.2-.74,2.76-.93.54-2.11.25-2.7-.64l-.06-.1-3.95-6.84c-.49.11-1,.18-1.53.18-3.72,0-6.74-3.02-6.74-6.74ZM51.82,66.61l3.82,6.61c.19.32.6.43.92.25.3-.17.42-.54.28-.85l-.04-.07-3.83-6.63c-.36.27-.75.5-1.16.69ZM54.38,60.49c0-2.97-2.42-5.39-5.39-5.39s-5.39,2.42-5.39,5.39,2.42,5.39,5.39,5.39,5.39-2.42,5.39-5.39Z"/>
      </g>
      <g>
        <path class="cls-2" d="M46.76,49.79h2.68l-4.78-9.22-4.44-9.06-4.44,9.06-4.78,9.22h13.72"/>
        <circle class="cls-3" cx="40.13" cy="46.62" r=".89"/>
        <line class="cls-2" x1="40.22" y1="38.38" x2="40.22" y2="44.09"/>
      </g>
    </g>
  </g>
</svg>