<?xml version="1.0" encoding="UTF-8"?>
<svg id="Calque_4" data-name="Calque 4" xmlns="http://www.w3.org/2000/svg" viewBox="0 0 80 80">
  <defs>
    <style>
      .cls-1 {
        stroke: #c00;
      }

      .cls-1, .cls-2 {
        fill: none;
        stroke-linecap: round;
        stroke-linejoin: round;
        stroke-width: 2px;
      }

      .cls-2 {
        stroke: #000091;
      }
    </style>
  </defs>
  <g>
    <path class="cls-1" d="M29.66,34.05v-15.24c0-1.17.9-2.13,2.02-2.13h32.97c1.08,0,1.95.92,1.95,2.05v17.39"/>
    <line class="cls-1" x1="38.17" y1="32.55" x2="58" y2="32.55"/>
    <line class="cls-1" x1="38.33" y1="26.47" x2="58.16" y2="26.47"/>
  </g>
  <path class="cls-2" d="M9.91,67.74l5.88-29.57c.18-.93.99-1.59,1.94-1.59h50.38c1.24,0,2.17,1.12,1.94,2.34l-5.68,30.42c-.17.94-.99,1.61-1.94,1.61H16.23s-2.96.01-2.96.01c-1.83,0-3.31-1.43-3.31-3.18v-34.11c0-1.21,1.02-2.19,2.27-2.19h3.07c.66,0,1.27-.33,1.64-.87l1.5-2.24c1.18-1.47,1.06-1.92,2.45-1.89"/>
  <path class="cls-1" d="M22.3,34.11V11.67c0-1.45,1.12-2.63,2.49-2.63h31.72c1.5,0,2.72,1.28,2.72,2.86v1.73"/>
</svg>