<?xml version="1.0" encoding="UTF-8"?>
<svg id="Calque_2" data-name="Calque 2" xmlns="http://www.w3.org/2000/svg" viewBox="0 0 80 80">
  <defs>
    <style>
      .cls-1 {
        stroke: #e1000f;
      }

      .cls-1, .cls-2 {
        fill: none;
        stroke-linecap: round;
        stroke-linejoin: round;
        stroke-width: 2px;
      }

      .cls-2, .cls-3 {
        stroke: #000091;
      }

      .cls-3 {
        fill: #e1000f;
        stroke-miterlimit: 10;
      }
    </style>
  </defs>
  <g id="Calque_1" data-name="Calque 1">
    <g>
      <g>
        <path class="cls-2" d="M9.59,16.16v-3.53h31.69v3.53s-31.52.17-31.69,0Z"/>
        <path class="cls-2" d="M41.5,16.62l3.28,5.77s.6,2.39-2.96,3.51c-.12.04-.25.06-.37.07-.89.08-4.57.24-5.8-2.49l-1.64-4.99"/>
        <path class="cls-2" d="M35.1,23.26s-1.56,3.12-4.21,3.04c0,0-4.14.47-5.15-2.58l-.16-4.68"/>
        <path class="cls-2" d="M25.58,23.57s-1.64,2.73-4.6,2.58c0,0-3.98.39-5.31-2.65l1.25-4.76"/>
        <path class="cls-2" d="M15.67,23.49s-2.81,3.36-6.09,2.58c0,0-3.43-.31-3.36-3.43l3.37-6.47"/>
        <polyline class="cls-2" points="9.45 26.33 9.45 45.58 41.62 45.58 41.45 25.98"/>
        <polyline class="cls-2" points="13.69 45.12 13.69 31.03 22.63 31.03 22.63 45.45"/>
        <path class="cls-2" d="M27.07,30.84h10.31v8.48h-10.24s.07-8.35-.07-8.48Z"/>
        <circle class="cls-3" cx="19.57" cy="38.33" r=".81"/>
      </g>
      <polyline class="cls-1" points="56.09 26.67 56.88 20.42 70.32 20.42 71.88 36.05 61.72 36.05"/>
      <path class="cls-1" d="M59.53,23.23v-6.72s.86-3.41,4.05-3.3c0,0,3.19.28,3.74,2.91v6.93"/>
      <g>
        <g>
          <circle class="cls-2" cx="53.28" cy="34.3" r="5.03"/>
          <path class="cls-2" d="M38,53.39s3.08-.63,3.99-2.95l2.2-5.81c.37-.97,1.03-1.81,1.92-2.33s2.24-.96,4.13-.9l6.38-.06c1.01,0,2.02.19,2.94.63,1.23.59,2.74,1.64,3.32,3.42l3.8,12.96s.15.6.03,1.21c-.26,1.33-1.54,2.09-2.79,1.59-.57-.23-1.15-.65-1.42-1.42l-3.21-11.2v18.92"/>
        </g>
        <path class="cls-2" d="M47.1,67.21v-17.81l-1.96,4.85s-.52,1.57-1.83,1.77l-5.44,1.6"/>
      </g>
      <g>
        <path class="cls-2" d="M18.65,54.97l1.62,8.32c.15.76.81,1.31,1.59,1.31h9.68c.87,0,1.61-.62,1.76-1.48l1.46-8.2"/>
        <line class="cls-2" x1="17.4" y1="54.42" x2="35.39" y2="54.42"/>
        <path class="cls-2" d="M21.92,53.98l.5-1.96c.16-.63.73-1.08,1.38-1.08h5.88c.54,0,1.02.34,1.19.86l.65,1.96"/>
        <line class="cls-2" x1="23.38" y1="57.21" x2="23.33" y2="61.81"/>
        <line class="cls-2" x1="26.83" y1="57.26" x2="26.78" y2="61.86"/>
        <line class="cls-2" x1="30.44" y1="57.21" x2="30.39" y2="61.81"/>
      </g>
    </g>
  </g>
</svg>