<?xml version="1.0" encoding="UTF-8"?>
<svg id="Calque_2" data-name="Calque 2" xmlns="http://www.w3.org/2000/svg" viewBox="0 0 80 80">
  <defs>
    <style>
      .cls-1, .cls-2, .cls-3 {
        fill: none;
        stroke-linecap: round;
        stroke-linejoin: round;
      }

      .cls-1, .cls-3 {
        stroke: #e1000f;
        stroke-width: 2px;
      }

      .cls-2 {
        stroke: #000091;
        stroke-width: 1.5px;
      }

      .cls-4 {
        fill: #e1000f;
      }

      .cls-3 {
        fill-rule: evenodd;
      }
    </style>
  </defs>
  <g id="Calque_1" data-name="Calque 1">
    <g>
      <g>
        <path class="cls-1" d="M26.16,64.98h-7.53c-2.32,0-4.2-1.88-4.2-4.2v-23.67c0-2.32,1.88-4.2,4.2-4.2h15.99c2.32,0,4.2,1.88,4.2,4.2v2.87"/>
        <rect class="cls-1" x="23.18" y="27.98" width="6.87" height="4.92"/>
        <g>
          <line class="cls-1" x1="21.01" y1="38.5" x2="21.01" y2="58.04"/>
          <line class="cls-1" x1="32.22" y1="38.02" x2="32.22" y2="42.63"/>
        </g>
      </g>
      <g>
        <circle class="cls-4" cx="49.34" cy="49.18" r="2.07"/>
        <circle class="cls-4" cx="47.42" cy="54.96" r="2.07"/>
        <g>
          <line class="cls-1" x1="39.21" y1="51.11" x2="39.94" y2="56.51"/>
          <line class="cls-1" x1="36.88" y1="54.18" x2="42.28" y2="53.44"/>
        </g>
        <path class="cls-3" d="M30.26,64.62c-1.37-3.08-.09-6.96.47-10.14.33-1.84.57-3.78,1.44-5.46.8-1.54,1.89-2.5,3.59-2.96l13.85-2.3c3.73.26,5.83,4.04,7.48,7.76l.97,1.81c2.19,3.63,2.56,6.39,1.55,8.5-.92,1.91-3.07,2.44-4.94,1.43-1.34-.72-4.65-3.16-5.07-3.09l-9.3,1.54c-.4.59-4.08,4.76-4.71,5.02-1.94.8-3.34.67-4.48-.73-.36-.44-.63-.9-.85-1.38Z"/>
      </g>
      <g>
        <path class="cls-2" d="M50,32.49h-7.42c-1.07,0-2.05-.6-2.52-1.56l-4.69-9.39,4.4-.05,5.64,5.52h15.51s8.56-.67,10.41,3c.57,1.13-.25,2.47-1.52,2.47h-10.71"/>
        <polyline class="cls-2" points="54.53 26.97 48.14 21.49 52.7 21.49 60.91 26.97"/>
        <polyline class="cls-2" points="54.33 29.8 45.11 38.87 49.67 38.87 58.79 32.49"/>
      </g>
    </g>
  </g>
</svg>