<?xml version="1.0" encoding="UTF-8"?>
<svg id="Calque_4" data-name="Calque 4" xmlns="http://www.w3.org/2000/svg" viewBox="0 0 80 80">
  <defs>
    <style>
      .cls-1 {
        stroke: #000091;
        stroke-width: 1.94px;
      }

      .cls-1, .cls-2, .cls-3, .cls-4, .cls-5 {
        fill: none;
      }

      .cls-1, .cls-3, .cls-4, .cls-5 {
        stroke-linecap: round;
        stroke-linejoin: round;
      }

      .cls-2 {
        stroke-miterlimit: 10;
      }

      .cls-2, .cls-3, .cls-4 {
        stroke: #c00;
      }

      .cls-2, .cls-3, .cls-4, .cls-5 {
        stroke-width: 2px;
      }

      .cls-4 {
        fill-rule: evenodd;
      }

      .cls-5 {
        stroke: #e1000f;
      }
    </style>
  </defs>
  <g>
    <path class="cls-5" d="M68.08,15.6c-.75.46-1.62.73-2.57.73-2.71,0-4.91-2.18-4.92-4.9,0-2.71,2.18-4.91,4.9-4.92.8,0,1.56.19,2.23.53"/>
    <line class="cls-5" x1="58.95" y1="9.8" x2="65.5" y2="9.78"/>
    <line class="cls-5" x1="58.96" y1="13.07" x2="65.51" y2="13.06"/>
  </g>
  <path class="cls-1" d="M53.2,38.66v-18.62c0-.48-.3-.92-.82-1.21l-14.89-8.21c-.73-.4-1.73-.4-2.46,0l-14.89,8.21c-.52.29-.82.73-.82,1.21v27.94c0,.83.92,1.51,2.05,1.51h29.77c1.13,0,2.05-.68,2.05-1.51v-1.86"/>
  <ellipse class="cls-2" cx="41.48" cy="24.36" rx="3.86" ry="3.87" transform="translate(-5.08 36.47) rotate(-45)"/>
  <ellipse class="cls-2" cx="30.8" cy="24.47" rx="3.86" ry="3.87" transform="translate(-8.28 28.94) rotate(-45)"/>
  <path class="cls-4" d="M37.49,33.75c-.44-1.8-1.69-2.79-2.7-3.32-.69-.35-1.45-.52-2.22-.52h-4.22c-2.22,0-3.4,1.82-3.95,3.06-.27.61-.4,1.28-.4,1.94v10.21"/>
  <path class="cls-4" d="M48.18,45.03v-10.21c0-.67-.13-1.33-.4-1.94-.54-1.25-1.72-3.06-3.95-3.06h-4.22c-.77,0-1.78.34-2.47.7"/>
  <ellipse class="cls-2" cx="36.68" cy="37.11" rx="2.52" ry="2.52" transform="translate(-15.5 36.8) rotate(-45)"/>
  <path class="cls-4" d="M33.77,45.31v-3c0-.47.2-.93.57-1.25.3-.25.74-.46,1.39-.46h2.12c.19,0,.38.02.56.08.06.02.13.04.21.07.73.26,1.2.91,1.2,1.63v2.95"/>
  <g>
    <polygon class="cls-3" points="64.74 58.86 61.86 73.69 54.19 72.14 57.06 57.43 64.74 58.86"/>
    <path class="cls-3" d="M54.76,60.35s-4.01-3.65-11.18-1.64c0,0-2.53,1.19-8.02-.09,0,0-6.75-1.73-8.65,2.56l11.5,1.83"/>
    <path class="cls-3" d="M53.03,69.73s-1.37-.91-5.8-1l-12.34.73s-2.22.73-9.18-5.2l-10.44-9.59s2.95-1.55,5.59-.18l6.01,4.29"/>
  </g>
</svg>