<?xml version="1.0" encoding="UTF-8"?>
<svg id="Calque_4" data-name="Calque 4" xmlns="http://www.w3.org/2000/svg" viewBox="0 0 80 80">
  <defs>
    <style>
      .cls-1 {
        fill: #e1000f;
      }

      .cls-2 {
        stroke: #e1000f;
      }

      .cls-2, .cls-3 {
        fill: none;
        stroke-linecap: round;
        stroke-linejoin: round;
        stroke-width: 2px;
      }

      .cls-3 {
        stroke: #000091;
      }
    </style>
  </defs>
  <g>
    <path class="cls-2" d="M66.71,27.63h2.48l-4.42-8.53-4.11-8.37-4.11,8.37-4.42,8.53h12.69"/>
    <circle class="cls-1" cx="60.57" cy="24.7" r=".82"/>
    <line class="cls-2" x1="60.66" y1="17.09" x2="60.66" y2="22.36"/>
  </g>
  <path class="cls-3" d="M28.3,61.66c1.14.89,2.77.78,3.78-.25l.57-.58c1.1-1.12,2.89-1.14,4.01-.04l3.02,2.96c1.12,1.1,1.14,2.89.04,4.01l-1.05,1.07c-2.99,2.67-6.56,2.35-10.5.11-6.2-4.03-11.08-9.59-15.32-15.88-1.42-2.11-2.01-4.74-1.36-7.19.4-1.51,1.16-2.77,2.3-3.78,1.11-.99,2.8-.93,3.86.11l3.62,3.54c1.05,1.03,1.14,2.68.21,3.82l-1.26,1.55c-1.27,2.84,8.07,10.56,8.07,10.56Z"/>
  <g>
    <path class="cls-2" d="M31.06,31.21c1.29,0,9.39.15,15.3,6.8,4.93,5.55,5.1,11.98,5.1,13.6"/>
    <path class="cls-2" d="M31.06,39.72c.73-.02,5.05-.05,8.5,3.4,3.45,3.45,3.42,7.77,3.4,8.5"/>
    <path class="cls-2" d="M31.06,48.22c2.03.19,3.28,1.2,3.4,3.4"/>
  </g>
</svg>