<?xml version="1.0" encoding="UTF-8"?>
<svg id="Calque_4" data-name="Calque 4" xmlns="http://www.w3.org/2000/svg" viewBox="0 0 80 80">
  <defs>
    <style>
      .cls-1, .cls-2 {
        stroke-linecap: round;
        stroke-linejoin: round;
      }

      .cls-1, .cls-2, .cls-3 {
        fill: none;
        stroke-width: 2px;
      }

      .cls-1, .cls-3 {
        stroke: #c00;
      }

      .cls-2 {
        stroke: #000091;
      }

      .cls-3 {
        stroke-miterlimit: 10;
      }
    </style>
  </defs>
  <g>
    <path class="cls-2" d="M24.54,38.26s4.13,1.35,7.68.08,8.02.68,8.02.68"/>
    <g>
      <rect class="cls-2" x="8.86" y="37.83" width="16.61" height="6.77" transform="translate(-25.38 27.68) rotate(-49.74)"/>
      <path class="cls-2" d="M58.03,42.22l-10.72-4.41c-1.38-.57-2.95-.48-4.26.24l-9.94,5.5c-.47.26-.86.65-1.1,1.13-.43.87-.83,1.91.11,3.11,1.22,1.55,3.88.59,3.88.59l6.75-3.12"/>
      <path class="cls-2" d="M16.16,48.8s2.67,4.38,3.63,4.7"/>
      <g>
        <rect class="cls-2" x="56.17" y="43.46" width="16.61" height="6.77" transform="translate(45.95 124.36) rotate(-112.56)"/>
        <path class="cls-2" d="M18.57,55.55c-.5.54-.79,1.26-.74,2,.02.3.09.65.23,1.03h0c1.08,1.18,2.4,1.18,3.53.61l3.86-3.86c.46-.46.74-1.08.76-1.73s-.06-1.42-.47-1.81c0,0-1.98-1.55-3.53-.14l-3.64,3.89Z"/>
        <path class="cls-2" d="M22.08,58.91c-.5.54-.79,1.26-.74,2,.02.3.09.65.23,1.03h0c1.08,1.18,2.4,1.18,3.53.61l3.86-3.86c.46-.46.74-1.08.76-1.73s-.06-1.42-.47-1.81c0,0-1.98-1.55-3.53-.14l-3.64,3.89Z"/>
        <path class="cls-2" d="M25.46,62.41c-.5.54-.79,1.26-.74,2,.02.3.09.65.23,1.03h0c1.08,1.18,2.4,1.18,3.53.61l3.86-3.86c.46-.46.74-1.08.76-1.73s-.06-1.42-.47-1.81c0,0-1.98-1.55-3.53-.14l-3.64,3.89Z"/>
        <path class="cls-2" d="M28.96,65.77c-.5.54-.79,1.26-.74,2,.02.3.09.65.23,1.03h0c1.08,1.18,2.4,1.18,3.53.61l3.86-3.86c.46-.46.74-1.08.76-1.73s-.06-1.42-.47-1.81c0,0-1.98-1.55-3.53-.14l-3.64,3.89Z"/>
        <path class="cls-2" d="M43.27,45.17l13.92,13.84s4.89-3.29,5.82-4.98"/>
        <path class="cls-2" d="M34.14,68.03s6.24,6.9,7.73,1.05"/>
        <path class="cls-2" d="M39.05,65.33l3.98,3.81s4.25.17,3.92-3.26"/>
        <path class="cls-2" d="M39.82,57.98l7.62,7.84s4.53.77,4.36-3.37l-7.84-7.95"/>
        <path class="cls-2" d="M56.17,58.48s1.82,5.19-3.87,4.14"/>
      </g>
    </g>
  </g>
  <g>
    <circle class="cls-3" cx="40" cy="17.27" r="12.73"/>
    <g>
      <path class="cls-1" d="M44.93,22.69c-.97.6-2.11.95-3.33.95-3.52,0-6.38-2.84-6.39-6.35,0-3.52,2.84-6.38,6.35-6.39,1.04,0,2.02.24,2.89.68"/>
      <line class="cls-1" x1="33.07" y1="15.17" x2="41.57" y2="15.15"/>
      <line class="cls-1" x1="33.09" y1="19.42" x2="41.58" y2="19.4"/>
    </g>
  </g>
</svg>