<?xml version="1.0" encoding="UTF-8"?>
<svg id="Calque_2" data-name="Calque 2" xmlns="http://www.w3.org/2000/svg" viewBox="0 0 80 80">
  <defs>
    <style>
      .cls-1 {
        stroke: #c00;
      }

      .cls-1, .cls-2, .cls-3, .cls-4, .cls-5 {
        fill: none;
        stroke-linecap: round;
        stroke-linejoin: round;
        stroke-width: 2px;
      }

      .cls-2 {
        stroke: #e1000f;
      }

      .cls-3 {
        stroke: #84548e;
      }

      .cls-4 {
        stroke: #000091;
      }

      .cls-5 {
        fill-rule: evenodd;
        stroke: #e1000f;
      }
    </style>
  </defs>
  <g id="Calque_1" data-name="Calque 1">
    <g>
      <g>
        <g>
          <circle class="cls-2" cx="35.75" cy="24.22" r="4.74"/>
          <path class="cls-2" d="M27.25,34.65c1.36-3.16,4.26-5.36,7.57-5.69,3.92-.4,7.78,1.88,9.48,5.67"/>
        </g>
        <g>
          <circle class="cls-2" cx="21.31" cy="27.36" r="3.24"/>
          <path class="cls-2" d="M15.5,34.5c.93-2.16,2.91-3.66,5.18-3.9,2.68-.27,5.32,1.28,6.48,3.88"/>
        </g>
      </g>
      <g>
        <polygon class="cls-4" points="23.49 48.02 23.49 56.31 16.1 52.34 16.1 43.7 23.49 48.02"/>
        <path class="cls-4" d="M23.31,47.84s6.01-3.03,7.32-3.73"/>
        <path class="cls-4" d="M23.67,56.24l7.21-4.07v-8.13"/>
        <path class="cls-4" d="M30.85,44.03c-.69-.39-7.54-4.48-7.54-4.48l-7.21,3.96"/>
        <polyline class="cls-4" points="19.71 42.08 26.98 46.01 26.98 48.56"/>
      </g>
      <g>
        <g>
          <path class="cls-3" d="M73.45,10.8l-2.27,1.47c-.73-.32-2.04-.79-3.74-.8-1.6,0-2.84.4-3.57.7-3.78,2.45-7.56,4.9-11.33,7.35-.49.53-.65,1.26-.4,1.87.32.79,1.29,1.25,2.24.97l6.23-4.04"/>
          <path class="cls-3" d="M62.46,21.15l-8.5,5.51c-.95.28-1.91-.18-2.24-.97-.25-.61-.09-1.34.4-1.87l3.4-2.2"/>
          <path class="cls-3" d="M64.29,23.99l-9.63,6.25c-1.1.72-2.45.25-2.8-.6-.3-.7.06-1.72.97-2.24l5.1-3.31"/>
          <path class="cls-3" d="M56.93,28.76c-.64.75-.62,1.82-.03,2.43.45.47,1.19.63,1.87.4l10.2-6.61-1.56,5.04c.02.1.14.8.73,1.13.62.34,1.51.15,2.07-.54,1.47-2.29,2.93-4.58,4.4-6.88,0,0,.97-2.24,1-4.67l2.27-1.47"/>
        </g>
        <g>
          <path class="cls-4" d="M73.45,10.8l-2.27,1.47c-.73-.32-2.04-.79-3.74-.8-1.6,0-2.84.4-3.57.7-3.78,2.45-7.56,4.9-11.33,7.35-.49.53-.65,1.26-.4,1.87.32.79,1.29,1.25,2.24.97l6.23-4.04"/>
          <path class="cls-4" d="M62.46,21.15l-8.5,5.51c-.95.28-1.91-.18-2.24-.97-.25-.61-.09-1.34.4-1.87l3.4-2.2"/>
          <path class="cls-4" d="M64.29,23.99l-9.63,6.25c-1.1.72-2.45.25-2.8-.6-.3-.7.06-1.72.97-2.24l5.1-3.31"/>
          <path class="cls-4" d="M56.93,28.76c-.64.75-.62,1.82-.03,2.43.45.47,1.19.63,1.87.4l10.2-6.61-1.56,5.04c.02.1.14.8.73,1.13.62.34,1.51.15,2.07-.54,1.47-2.29,2.93-4.58,4.4-6.88,0,0,.97-2.24,1-4.67l2.27-1.47"/>
        </g>
      </g>
      <path class="cls-5" d="M72.46,34.01c.31,1.71.49,3.46.53,5.25.41,18.22-14.03,33.32-32.25,33.73-18.22.41-33.32-14.03-33.73-32.25C6.6,22.52,21.04,7.42,39.26,7.01c6.46-.14,12.52,1.57,17.68,4.66"/>
      <path class="cls-1" d="M50.64,59.74l.33-24.59s.76-1.18,2.1,0l-.29,24.54,7.98.18v2.27s-14.48-.08-14.48-.08l.47-2.36s3.89.05,3.89.03Z"/>
      <polygon class="cls-1" points="47.77 52.34 45.84 63.64 38.51 63.64 36.41 52.38 47.77 52.34"/>
      <path class="cls-4" d="M48.2,52.05s-5.23,10.61-12.19.07"/>
    </g>
  </g>
</svg>