<?xml version="1.0" encoding="UTF-8"?>
<svg id="Calque_2" data-name="Calque 2" xmlns="http://www.w3.org/2000/svg" viewBox="0 0 80 80">
  <defs>
    <style>
      .cls-1 {
        fill: #e1000f;
      }

      .cls-2 {
        stroke: #e1000f;
      }

      .cls-2, .cls-3, .cls-4, .cls-5 {
        stroke-width: 2px;
      }

      .cls-2, .cls-3, .cls-4, .cls-5, .cls-6 {
        stroke-linecap: round;
        stroke-linejoin: round;
      }

      .cls-2, .cls-3, .cls-5, .cls-6 {
        fill: none;
      }

      .cls-3, .cls-6 {
        stroke: #000091;
      }

      .cls-4 {
        fill: #e30613;
      }

      .cls-4, .cls-5 {
        stroke: #e1000f;
      }

      .cls-4, .cls-5, .cls-6 {
        fill-rule: evenodd;
      }

      .cls-6 {
        stroke-width: 1.5px;
      }
    </style>
  </defs>
  <g id="Calque_1" data-name="Calque 1">
    <g>
      <path class="cls-5" d="M16.57,51.95s2.59-8.86,12.21-4.61c0,0,8.7,4.03,10.65,4.48,0,0,6.74,1.83,3.88,6.33,0,0-.94,2.18-3.54,2.37,0,0-12.4-.76-13.52-.54-.15-.03-11.8.47-9.68-8.03Z"/>
      <path class="cls-5" d="M16.48,52.2l-.52,3.46c-.17.92.06,1.88.66,2.6.85,1.04,2.39,2.29,4.9,2.43,0,0,11.84.95,17.21,1.5,0,0,3.78-.06,4.41-2.09l.6-2.95"/>
      <path class="cls-4" d="M24.94,50.99c.81.68.82,1.8.03,2.5s-2.1.71-2.91.03-.82-1.8-.03-2.5,2.1-.71,2.91-.03Z"/>
      <rect class="cls-3" x="21.44" y="24.21" width="14" height="5.25"/>
      <polyline class="cls-3" points="21.44 29.46 17.94 34.71 38.94 34.71 38.94 36.46"/>
      <polyline class="cls-3" points="31.94 45.2 31.94 34.71 35.44 29.46 38.94 34.71"/>
      <polyline class="cls-3" points="17.89 34.95 17.89 40.44 17.89 45.67"/>
      <line class="cls-3" x1="24.94" y1="39.96" x2="17.94" y2="39.96"/>
      <rect class="cls-3" x="21.44" y="24.21" width="14" height="5.25"/>
      <polyline class="cls-3" points="21.44 29.46 17.94 34.71 38.94 34.71 38.94 48.48"/>
      <polyline class="cls-3" points="31.94 45.2 31.94 34.71 35.44 29.46 38.94 34.71"/>
      <line class="cls-3" x1="24.94" y1="39.96" x2="17.94" y2="39.96"/>
      <g>
        <path class="cls-6" d="M52.59,34.43c-2.36.89-1.73,3.62-1.06,6.91"/>
        <path class="cls-6" d="M53.4,40.66c-.38,1.26-1.62,1.71-3.72,1.36"/>
        <path class="cls-6" d="M42.68,50.3c-1.19-2.26-2.33-4.69-.5-9.56.81-2.15,1.47-3.32,5.17-3.06.82.06,1.63.37,2.45.43,1.56.12,3.14-.07,4.64-.53,1.35-.41,2.94-.43,4.07.41,2.29,1.72,3.7,5.56,3.09,9.11-.09.53-.3,11.89-14.37,8.54"/>
      </g>
      <g>
        <path class="cls-2" d="M62.34,30.92h2.48l-4.42-8.53-4.11-8.37-4.11,8.37-4.42,8.53h12.69"/>
        <circle class="cls-1" cx="56.21" cy="27.99" r=".82"/>
        <line class="cls-2" x1="56.29" y1="20.38" x2="56.29" y2="25.65"/>
      </g>
    </g>
  </g>
</svg>