<?xml version="1.0" encoding="UTF-8"?>
<svg id="Calque_2" data-name="Calque 2" xmlns="http://www.w3.org/2000/svg" viewBox="0 0 80 80">
  <defs>
    <style>
      .cls-1 {
        stroke: #000091;
      }

      .cls-1, .cls-2, .cls-3, .cls-4, .cls-5 {
        fill: none;
        stroke-linecap: round;
        stroke-linejoin: round;
        stroke-width: 2px;
      }

      .cls-1, .cls-2, .cls-4, .cls-6 {
        fill-rule: evenodd;
      }

      .cls-2, .cls-5 {
        stroke: #312783;
      }

      .cls-3, .cls-4 {
        stroke: #c00;
      }

      .cls-6 {
        fill: #c00;
      }
    </style>
  </defs>
  <g id="Calque_1" data-name="Calque 1">
    <path class="cls-2" d="M14.22,51.01s2.37-11.15,2.85-12.02"/>
    <g>
      <path class="cls-1" d="M25.52,25.39s-.55,4.59.87,9.09c0,0,1.42,8.22-3.8,6.8.09.22-6.78-3.45-8.31-5.56-1.19-1.64-2.74-4.07-.47-7.72,2.47-3.97,6.4-8.14,13.13-9.88,0,0,8.25-1.92,12.64,2.65.54.56.96,1.22,1.29,1.92.4.87,1.68,2.71,5.4,3.19.55.07,1.5.04,2.05.04,2.09.01,7.32-.59,4.22,5.4-.67,1.29-.89,1.83-3.07,3.91"/>
      <path class="cls-1" d="M49.22,26.22s-2.64,2.37,2.83,5.53"/>
      <circle class="cls-5" cx="35.06" cy="26.09" r=".99"/>
      <path class="cls-2" d="M31.83,43.53s.13-2.03,2.5-2.36"/>
      <path class="cls-4" d="M45.55,38.36s4.52-1.81,10.97-.13c0,0,5.79-7.63,7.42-7.33,0,0,1.87,5.44.3,11.72,0,0,5.83,14.09-10.1,18.14-1.78.45-3.79.61-5.59.26-5.5-1.04-15.25-5.67-11.31-17.41,0,0-1.69-10.09.12-11.9,0,0,1.57-1.57,8.18,6.65Z"/>
      <path class="cls-4" d="M55.1,47.98s2.19-2.09,4.58-.03"/>
      <path class="cls-4" d="M41.86,47.98s2.19-2.09,4.58-.03"/>
      <line class="cls-3" x1="61.81" y1="50.55" x2="69.34" y2="49.51"/>
      <path class="cls-4" d="M61.21,53.44s6.82.76,7.26.71"/>
      <line class="cls-3" x1="39.38" y1="50.68" x2="31.85" y2="49.65"/>
      <path class="cls-4" d="M39.98,53.57s-6.82.76-7.26.71"/>
      <path class="cls-6" d="M51.72,54.14s1.17-.99,1.56-1.97c0,0,.44-1.28-1.49-1.26l-2.52.02s-1.66.3-.82,1.56l1.49,1.63v1.28s.21.84-1.52.91c0,0-1.84-.33-1.7.84,0,0,.12.96,1.63.84,0,0,1.75-.12,2.52-.79,0,0,1.12.68,2.29.75,0,0,1.63.19,1.68-.89,0,0-.14-1-1.19-.75,0,0-1.91.61-1.94-1.07v-1.11Z"/>
    </g>
  </g>
</svg>